<svg width="16" height="17" viewBox="0 0 16 17" fill="none" xmlns="http://www.w3.org/2000/svg">
<path d="M4.33333 9.83333H5.66667V10.1667H4.33333V9.83333ZM7.33333 9.83333H8.66667V10.1667H7.33333V9.83333ZM4.33333 7.83333H5.66667V8.16667H4.33333V7.83333ZM7.33333 11.8333H8.66667V12.1667H7.33333V11.8333ZM10.3333 7.83333H11.6667V8.16667H10.3333V7.83333ZM10.3333 11.8333H11.6667V12.1667H10.3333V11.8333Z" stroke="#8F9BBA" stroke-width="0.666667"/>
<path d="M13.8333 3V2.66667H13.5H2.5H2.16667V3V5V5.33333H2.5H13.5H13.8333V5V3ZM2.16667 14V14.3333H2.5H13.5H13.8333V14V6V5.66667H13.5H2.5H2.16667V6V14ZM2.02896 2.52896C2.15397 2.40395 2.32344 2.3336 2.50022 2.33333H13.4998C13.6766 2.3336 13.846 2.40395 13.971 2.52896C14.0961 2.65402 14.1664 2.82356 14.1667 3.00042V13.9996C14.1664 14.1764 14.0961 14.346 13.971 14.471C13.846 14.5961 13.6764 14.6664 13.4996 14.6667H2.50042C2.32356 14.6664 2.15402 14.5961 2.02896 14.471C1.90395 14.346 1.8336 14.1766 1.83333 13.9998V3.00022C1.8336 2.82344 1.90395 2.65397 2.02896 2.52896Z" fill="#191847" stroke="#8F9BBA" stroke-width="0.666667"/>
</svg>
