<svg width="237" height="124" viewBox="0 0 237 124" fill="none" xmlns="http://www.w3.org/2000/svg">
<g filter="url(#filter0_dii_1_3288)">
<path d="M29.3764 13.9844H23.777C23.6747 13.2599 23.4659 12.6165 23.1506 12.054C22.8352 11.483 22.4304 10.9972 21.9361 10.5966C21.4418 10.196 20.8707 9.8892 20.223 9.67614C19.5838 9.46307 18.8892 9.35653 18.1392 9.35653C16.7841 9.35653 15.6037 9.69318 14.598 10.3665C13.5923 11.0312 12.8125 12.0028 12.2585 13.2812C11.7045 14.5511 11.4276 16.0937 11.4276 17.9091C11.4276 19.7756 11.7045 21.3437 12.2585 22.6136C12.821 23.8835 13.6051 24.8423 14.6108 25.4901C15.6165 26.1378 16.7798 26.4616 18.1009 26.4616C18.8423 26.4616 19.5284 26.3636 20.1591 26.1676C20.7983 25.9716 21.3651 25.6861 21.8594 25.3111C22.3537 24.9276 22.7628 24.4631 23.0866 23.9176C23.419 23.3722 23.6491 22.75 23.777 22.0511L29.3764 22.0767C29.2315 23.2784 28.8693 24.4375 28.2898 25.554C27.7188 26.6619 26.9474 27.6548 25.9759 28.5327C25.0128 29.402 23.8622 30.0923 22.5241 30.6037C21.1946 31.1065 19.6903 31.358 18.0114 31.358C15.6761 31.358 13.5881 30.8295 11.7472 29.7727C9.91477 28.7159 8.46591 27.1861 7.40057 25.1832C6.34375 23.1804 5.81534 20.7557 5.81534 17.9091C5.81534 15.054 6.35227 12.625 7.42614 10.6222C8.5 8.61932 9.95739 7.09375 11.7983 6.04545C13.6392 4.98864 15.7102 4.46023 18.0114 4.46023C19.5284 4.46023 20.9347 4.67329 22.2301 5.09943C23.5341 5.52557 24.6889 6.14773 25.6946 6.96591C26.7003 7.77557 27.5185 8.76846 28.1491 9.9446C28.7884 11.1207 29.1974 12.4673 29.3764 13.9844ZM41.7558 31.3835C39.77 31.3835 38.0526 30.9616 36.6038 30.1179C35.1634 29.2656 34.0512 28.081 33.2671 26.5639C32.483 25.0384 32.091 23.2699 32.091 21.2585C32.091 19.2301 32.483 17.4574 33.2671 15.9403C34.0512 14.4148 35.1634 13.2301 36.6038 12.3864C38.0526 11.5341 39.77 11.108 41.7558 11.108C43.7416 11.108 45.4546 11.5341 46.895 12.3864C48.3438 13.2301 49.4603 14.4148 50.2444 15.9403C51.0285 17.4574 51.4205 19.2301 51.4205 21.2585C51.4205 23.2699 51.0285 25.0384 50.2444 26.5639C49.4603 28.081 48.3438 29.2656 46.895 30.1179C45.4546 30.9616 43.7416 31.3835 41.7558 31.3835ZM41.7813 27.1648C42.6847 27.1648 43.439 26.9091 44.0441 26.3977C44.6492 25.8778 45.1052 25.1705 45.412 24.2756C45.7274 23.3807 45.885 22.3622 45.885 21.2202C45.885 20.0781 45.7274 19.0597 45.412 18.1648C45.1052 17.2699 44.6492 16.5625 44.0441 16.0426C43.439 15.5227 42.6847 15.2628 41.7813 15.2628C40.8694 15.2628 40.1024 15.5227 39.4802 16.0426C38.8666 16.5625 38.4021 17.2699 38.0867 18.1648C37.7799 19.0597 37.6265 20.0781 37.6265 21.2202C37.6265 22.3622 37.7799 23.3807 38.0867 24.2756C38.4021 25.1705 38.8666 25.8778 39.4802 26.3977C40.1024 26.9091 40.8694 27.1648 41.7813 27.1648ZM60.0478 19.6477V31H54.6017V11.3636H59.7921V14.8281H60.0222C60.4568 13.6861 61.1855 12.7827 62.2083 12.1179C63.231 11.4446 64.471 11.108 65.9284 11.108C67.2921 11.108 68.481 11.4062 69.4952 12.0028C70.5094 12.5994 71.2978 13.4517 71.8603 14.5597C72.4228 15.6591 72.704 16.9716 72.704 18.4972V31H67.258V19.4688C67.2665 18.267 66.9597 17.3295 66.3375 16.6562C65.7154 15.9744 64.8588 15.6335 63.7679 15.6335C63.035 15.6335 62.3872 15.7912 61.8247 16.1065C61.2708 16.4219 60.8361 16.8821 60.5208 17.4872C60.2139 18.0838 60.0563 18.804 60.0478 19.6477ZM87.1959 11.3636V15.4545H75.0766V11.3636H87.1959ZM77.8508 31V9.9446C77.8508 8.52131 78.1277 7.34091 78.6817 6.40341C79.2442 5.46591 80.0113 4.76278 80.9829 4.29403C81.9544 3.82528 83.0581 3.59091 84.2939 3.59091C85.1292 3.59091 85.8919 3.65483 86.5823 3.78267C87.2811 3.91051 87.801 4.02557 88.1419 4.12784L87.1704 8.21875C86.9573 8.15057 86.6931 8.08665 86.3777 8.02699C86.0709 7.96733 85.7556 7.9375 85.4317 7.9375C84.6306 7.9375 84.0723 8.125 83.757 8.5C83.4417 8.86648 83.284 9.3821 83.284 10.0469V31H77.8508ZM90.163 31V11.3636H95.609V31H90.163ZM92.8988 8.83239C92.0891 8.83239 91.3945 8.56392 90.815 8.02699C90.2439 7.48153 89.9584 6.82954 89.9584 6.07102C89.9584 5.32102 90.2439 4.67756 90.815 4.14062C91.3945 3.59517 92.0891 3.32244 92.8988 3.32244C93.7084 3.32244 94.3988 3.59517 94.9698 4.14062C95.5493 4.67756 95.8391 5.32102 95.8391 6.07102C95.8391 6.82954 95.5493 7.48153 94.9698 8.02699C94.3988 8.56392 93.7084 8.83239 92.8988 8.83239ZM99.6116 31V11.3636H104.891V14.7898H105.096C105.454 13.571 106.055 12.6506 106.899 12.0284C107.742 11.3977 108.714 11.0824 109.813 11.0824C110.086 11.0824 110.38 11.0994 110.695 11.1335C111.011 11.1676 111.288 11.2145 111.526 11.2741V16.1065C111.271 16.0298 110.917 15.9616 110.465 15.902C110.014 15.8423 109.6 15.8125 109.225 15.8125C108.424 15.8125 107.708 15.9872 107.077 16.3366C106.455 16.6776 105.961 17.1548 105.595 17.7685C105.237 18.3821 105.058 19.0895 105.058 19.8906V31H99.6116ZM113.982 31V11.3636H119.172V14.8281H119.402C119.812 13.6776 120.493 12.7699 121.448 12.1051C122.402 11.4403 123.545 11.108 124.874 11.108C126.221 11.108 127.367 11.4446 128.313 12.1179C129.259 12.7827 129.89 13.6861 130.205 14.8281H130.41C130.81 13.7031 131.535 12.804 132.583 12.1307C133.64 11.4489 134.888 11.108 136.329 11.108C138.161 11.108 139.648 11.6918 140.79 12.8594C141.941 14.0185 142.516 15.6634 142.516 17.794V31H137.083V18.8679C137.083 17.777 136.793 16.9588 136.214 16.4134C135.634 15.8679 134.91 15.5952 134.04 15.5952C133.052 15.5952 132.28 15.9105 131.726 16.5412C131.172 17.1634 130.895 17.9858 130.895 19.0085V31H125.616V18.7528C125.616 17.7898 125.339 17.0227 124.785 16.4517C124.239 15.8807 123.519 15.5952 122.624 15.5952C122.019 15.5952 121.474 15.7486 120.988 16.0554C120.51 16.3537 120.131 16.7756 119.85 17.321C119.569 17.858 119.428 18.4886 119.428 19.2131V31H113.982ZM152.998 4.81818H159.198L165.169 16.0938H165.424L171.394 4.81818H177.595L168.045 21.7443V31H162.548V21.7443L152.998 4.81818ZM184.915 31.3835C182.929 31.3835 181.212 30.9616 179.763 30.1179C178.322 29.2656 177.21 28.081 176.426 26.5639C175.642 25.0384 175.25 23.2699 175.25 21.2585C175.25 19.2301 175.642 17.4574 176.426 15.9403C177.21 14.4148 178.322 13.2301 179.763 12.3864C181.212 11.5341 182.929 11.108 184.915 11.108C186.901 11.108 188.614 11.5341 190.054 12.3864C191.503 13.2301 192.619 14.4148 193.403 15.9403C194.188 17.4574 194.58 19.2301 194.58 21.2585C194.58 23.2699 194.188 25.0384 193.403 26.5639C192.619 28.081 191.503 29.2656 190.054 30.1179C188.614 30.9616 186.901 31.3835 184.915 31.3835ZM184.94 27.1648C185.844 27.1648 186.598 26.9091 187.203 26.3977C187.808 25.8778 188.264 25.1705 188.571 24.2756C188.886 23.3807 189.044 22.3622 189.044 21.2202C189.044 20.0781 188.886 19.0597 188.571 18.1648C188.264 17.2699 187.808 16.5625 187.203 16.0426C186.598 15.5227 185.844 15.2628 184.94 15.2628C184.028 15.2628 183.261 15.5227 182.639 16.0426C182.026 16.5625 181.561 17.2699 181.246 18.1648C180.939 19.0597 180.786 20.0781 180.786 21.2202C180.786 22.3622 180.939 23.3807 181.246 24.2756C181.561 25.1705 182.026 25.8778 182.639 26.3977C183.261 26.9091 184.028 27.1648 184.94 27.1648ZM210.353 22.6392V11.3636H215.799V31H210.57V27.4332H210.366C209.923 28.5838 209.186 29.5085 208.154 30.2074C207.132 30.9062 205.883 31.2557 204.409 31.2557C203.096 31.2557 201.941 30.9574 200.944 30.3608C199.947 29.7642 199.167 28.9162 198.605 27.8168C198.051 26.7173 197.769 25.4006 197.761 23.8665V11.3636H203.207V22.8949C203.215 24.054 203.526 24.9702 204.14 25.6435C204.754 26.3168 205.576 26.6534 206.607 26.6534C207.264 26.6534 207.877 26.5043 208.448 26.206C209.019 25.8991 209.48 25.4474 209.829 24.8509C210.187 24.2543 210.362 23.517 210.353 22.6392ZM219.795 31V11.3636H225.075V14.7898H225.28C225.638 13.571 226.239 12.6506 227.082 12.0284C227.926 11.3977 228.898 11.0824 229.997 11.0824C230.27 11.0824 230.564 11.0994 230.879 11.1335C231.194 11.1676 231.471 11.2145 231.71 11.2741V16.1065C231.454 16.0298 231.101 15.9616 230.649 15.902C230.197 15.8423 229.784 15.8125 229.409 15.8125C228.608 15.8125 227.892 15.9872 227.261 16.3366C226.639 16.6776 226.145 17.1548 225.778 17.7685C225.42 18.3821 225.241 19.0895 225.241 19.8906V31H219.795ZM28.1747 47.8182V74H23.3935L12.0028 57.5213H11.8111V74H6.27557V47.8182H11.1335L22.4347 64.2841H22.6648V47.8182H28.1747ZM41.2348 74.3835C39.2149 74.3835 37.4763 73.9744 36.0189 73.1562C34.57 72.3295 33.4536 71.1619 32.6695 69.6534C31.8854 68.1364 31.4933 66.3423 31.4933 64.2713C31.4933 62.2514 31.8854 60.4787 32.6695 58.9531C33.4536 57.4276 34.5573 56.2386 35.9806 55.3864C37.4124 54.5341 39.0913 54.108 41.0175 54.108C42.3129 54.108 43.5189 54.3168 44.6354 54.7344C45.7604 55.1435 46.7405 55.7614 47.5757 56.5881C48.4195 57.4148 49.0757 58.4545 49.5445 59.7074C50.0132 60.9517 50.2476 62.4091 50.2476 64.0795V65.5753H33.6666V62.2003H45.1212C45.1212 61.4162 44.9507 60.7216 44.6098 60.1165C44.2689 59.5114 43.7959 59.0384 43.1908 58.6974C42.5942 58.348 41.8996 58.1733 41.107 58.1733C40.2803 58.1733 39.5473 58.3651 38.9081 58.7486C38.2774 59.1236 37.7831 59.6307 37.4252 60.2699C37.0672 60.9006 36.884 61.6037 36.8754 62.3793V65.5881C36.8754 66.5597 37.0544 67.3991 37.4124 68.1065C37.7788 68.8139 38.2945 69.3594 38.9592 69.7429C39.624 70.1264 40.4124 70.3182 41.3243 70.3182C41.9294 70.3182 42.4834 70.233 42.9862 70.0625C43.4891 69.892 43.9195 69.6364 44.2774 69.2955C44.6354 68.9545 44.9081 68.5369 45.0956 68.0426L50.1325 68.375C49.8769 69.5852 49.3527 70.642 48.5601 71.5455C47.776 72.4403 46.7618 73.1392 45.5175 73.642C44.2817 74.1364 42.8541 74.3835 41.2348 74.3835ZM57.1745 74L51.8308 54.3636H57.3407L60.3833 67.5568H60.5623L63.7328 54.3636H69.1404L72.362 67.4801H72.5282L75.5197 54.3636H81.0169L75.6859 74H69.9203L66.5453 61.6506H66.3024L62.9274 74H57.1745ZM91.6363 74V47.8182H109.278V52.3821H97.1719V58.6207H108.371V63.1847H97.1719V69.4361H109.33V74H91.6363ZM113.217 74V54.3636H118.407V57.8281H118.637C119.047 56.6776 119.728 55.7699 120.683 55.1051C121.637 54.4403 122.78 54.108 124.109 54.108C125.456 54.108 126.602 54.4446 127.548 55.1179C128.494 55.7827 129.125 56.6861 129.44 57.8281H129.645C130.045 56.7031 130.77 55.804 131.818 55.1307C132.875 54.4489 134.123 54.108 135.564 54.108C137.396 54.108 138.883 54.6918 140.025 55.8594C141.176 57.0185 141.751 58.6634 141.751 60.794V74H136.318V61.8679C136.318 60.777 136.028 59.9588 135.449 59.4134C134.869 58.8679 134.145 58.5952 133.275 58.5952C132.287 58.5952 131.515 58.9105 130.961 59.5412C130.407 60.1634 130.13 60.9858 130.13 62.0085V74H124.851V61.7528C124.851 60.7898 124.574 60.0227 124.02 59.4517C123.474 58.8807 122.754 58.5952 121.859 58.5952C121.254 58.5952 120.709 58.7486 120.223 59.0554C119.745 59.3537 119.366 59.7756 119.085 60.321C118.804 60.858 118.663 61.4886 118.663 62.2131V74H113.217ZM151.292 74.3707C150.04 74.3707 148.923 74.1534 147.943 73.7188C146.963 73.2756 146.187 72.6236 145.616 71.7628C145.054 70.8935 144.773 69.8111 144.773 68.5156C144.773 67.4247 144.973 66.5085 145.373 65.767C145.774 65.0256 146.319 64.429 147.01 63.9773C147.7 63.5256 148.484 63.1847 149.362 62.9545C150.248 62.7244 151.177 62.5625 152.149 62.4688C153.291 62.3494 154.211 62.2386 154.91 62.1364C155.609 62.0256 156.116 61.8636 156.432 61.6506C156.747 61.4375 156.905 61.1222 156.905 60.7045V60.6278C156.905 59.8182 156.649 59.1918 156.138 58.7486C155.635 58.3054 154.919 58.0838 153.99 58.0838C153.01 58.0838 152.23 58.3011 151.65 58.7358C151.071 59.1619 150.687 59.6989 150.5 60.3466L145.463 59.9375C145.719 58.7443 146.221 57.7131 146.971 56.8438C147.721 55.9659 148.689 55.2926 149.873 54.8239C151.067 54.3466 152.447 54.108 154.015 54.108C155.106 54.108 156.15 54.2358 157.148 54.4915C158.153 54.7472 159.044 55.1435 159.819 55.6804C160.603 56.2173 161.221 56.9077 161.673 57.7514C162.125 58.5866 162.351 59.5881 162.351 60.7557V74H157.186V71.277H157.032C156.717 71.8906 156.295 72.4318 155.767 72.9006C155.238 73.3608 154.603 73.723 153.862 73.9872C153.121 74.2429 152.264 74.3707 151.292 74.3707ZM152.852 70.6122C153.653 70.6122 154.361 70.4545 154.974 70.1392C155.588 69.8153 156.069 69.3807 156.419 68.8352C156.768 68.2898 156.943 67.6719 156.943 66.9815V64.8977C156.773 65.0085 156.538 65.1108 156.24 65.2045C155.95 65.2898 155.622 65.3707 155.255 65.4474C154.889 65.5156 154.523 65.5795 154.156 65.6392C153.79 65.6903 153.457 65.7372 153.159 65.7798C152.52 65.8736 151.961 66.0227 151.484 66.2273C151.007 66.4318 150.636 66.7088 150.372 67.0582C150.108 67.3991 149.976 67.8253 149.976 68.3366C149.976 69.0781 150.244 69.6449 150.781 70.0369C151.327 70.4205 152.017 70.6122 152.852 70.6122ZM166.216 74V54.3636H171.662V74H166.216ZM168.952 51.8324C168.142 51.8324 167.447 51.5639 166.868 51.027C166.297 50.4815 166.011 49.8295 166.011 49.071C166.011 48.321 166.297 47.6776 166.868 47.1406C167.447 46.5952 168.142 46.3224 168.952 46.3224C169.761 46.3224 170.452 46.5952 171.023 47.1406C171.602 47.6776 171.892 48.321 171.892 49.071C171.892 49.8295 171.602 50.4815 171.023 51.027C170.452 51.5639 169.761 51.8324 168.952 51.8324ZM181.11 47.8182V74H175.664V47.8182H181.11ZM10.7884 117H4.85653L13.8949 90.8182H21.0284L30.054 117H24.1222L17.5639 96.8011H17.3594L10.7884 117ZM10.4176 106.709H24.429V111.03H10.4176V106.709ZM39.0647 117.32C37.5732 117.32 36.2224 116.936 35.0122 116.169C33.8105 115.393 32.8559 114.256 32.1485 112.756C31.4497 111.247 31.1002 109.398 31.1002 107.207C31.1002 104.957 31.4624 103.087 32.1869 101.595C32.9113 100.095 33.8744 98.9744 35.0761 98.233C36.2863 97.483 37.6116 97.108 39.0519 97.108C40.1514 97.108 41.0676 97.2955 41.8005 97.6705C42.542 98.0369 43.1386 98.4972 43.5903 99.0511C44.0505 99.5966 44.3999 100.134 44.6386 100.662H44.8048V90.8182H50.238V117H44.8687V113.855H44.6386C44.3829 114.401 44.0207 114.942 43.5519 115.479C43.0917 116.007 42.4909 116.446 41.7494 116.795C41.0164 117.145 40.1215 117.32 39.0647 117.32ZM40.7906 112.986C41.6684 112.986 42.4099 112.747 43.015 112.27C43.6286 111.784 44.0974 111.107 44.4212 110.237C44.7536 109.368 44.9198 108.349 44.9198 107.182C44.9198 106.014 44.7579 105 44.434 104.139C44.1102 103.278 43.6414 102.614 43.0278 102.145C42.4141 101.676 41.6684 101.442 40.7906 101.442C39.8957 101.442 39.1414 101.685 38.5278 102.17C37.9141 102.656 37.4497 103.33 37.1343 104.19C36.819 105.051 36.6613 106.048 36.6613 107.182C36.6613 108.324 36.819 109.334 37.1343 110.212C37.4582 111.081 37.9227 111.763 38.5278 112.257C39.1414 112.743 39.8957 112.986 40.7906 112.986ZM61.5914 117.32C60.1 117.32 58.7491 116.936 57.5389 116.169C56.3372 115.393 55.3826 114.256 54.6752 112.756C53.9764 111.247 53.6269 109.398 53.6269 107.207C53.6269 104.957 53.9892 103.087 54.7136 101.595C55.438 100.095 56.4011 98.9744 57.6028 98.233C58.813 97.483 60.1383 97.108 61.5786 97.108C62.6781 97.108 63.5943 97.2955 64.3272 97.6705C65.0687 98.0369 65.6653 98.4972 66.117 99.0511C66.5772 99.5966 66.9267 100.134 67.1653 100.662H67.3315V90.8182H72.7647V117H67.3954V113.855H67.1653C66.9096 114.401 66.5474 114.942 66.0786 115.479C65.6184 116.007 65.0176 116.446 64.2761 116.795C63.5431 117.145 62.6483 117.32 61.5914 117.32ZM63.3173 112.986C64.1951 112.986 64.9366 112.747 65.5417 112.27C66.1554 111.784 66.6241 111.107 66.948 110.237C67.2804 109.368 67.4465 108.349 67.4465 107.182C67.4465 106.014 67.2846 105 66.9608 104.139C66.6369 103.278 66.1681 102.614 65.5545 102.145C64.9409 101.676 64.1951 101.442 63.3173 101.442C62.4224 101.442 61.6681 101.685 61.0545 102.17C60.4409 102.656 59.9764 103.33 59.661 104.19C59.3457 105.051 59.188 106.048 59.188 107.182C59.188 108.324 59.3457 109.334 59.661 110.212C59.9849 111.081 60.4494 111.763 61.0545 112.257C61.6681 112.743 62.4224 112.986 63.3173 112.986ZM76.8824 117V97.3636H82.1622V100.79H82.3667C82.7247 99.571 83.3255 98.6506 84.1693 98.0284C85.013 97.3977 85.9846 97.0824 87.0841 97.0824C87.3568 97.0824 87.6508 97.0994 87.9662 97.1335C88.2815 97.1676 88.5585 97.2145 88.7971 97.2741V102.107C88.5414 102.03 88.1878 101.962 87.736 101.902C87.2843 101.842 86.871 101.812 86.496 101.812C85.6949 101.812 84.9789 101.987 84.3483 102.337C83.7261 102.678 83.2318 103.155 82.8653 103.768C82.5074 104.382 82.3284 105.089 82.3284 105.891V117H76.8824ZM99.2876 117.384C97.2677 117.384 95.5291 116.974 94.0717 116.156C92.6229 115.33 91.5064 114.162 90.7223 112.653C89.9382 111.136 89.5461 109.342 89.5461 107.271C89.5461 105.251 89.9382 103.479 90.7223 101.953C91.5064 100.428 92.6101 99.2386 94.0334 98.3864C95.4652 97.5341 97.1442 97.108 99.0703 97.108C100.366 97.108 101.572 97.3168 102.688 97.7344C103.813 98.1435 104.793 98.7614 105.629 99.5881C106.472 100.415 107.129 101.455 107.597 102.707C108.066 103.952 108.3 105.409 108.3 107.08V108.575H91.7194V105.2H103.174C103.174 104.416 103.004 103.722 102.663 103.116C102.322 102.511 101.849 102.038 101.244 101.697C100.647 101.348 99.9524 101.173 99.1598 101.173C98.3331 101.173 97.6001 101.365 96.9609 101.749C96.3302 102.124 95.8359 102.631 95.478 103.27C95.12 103.901 94.9368 104.604 94.9283 105.379V108.588C94.9283 109.56 95.1072 110.399 95.4652 111.107C95.8317 111.814 96.3473 112.359 97.0121 112.743C97.6768 113.126 98.4652 113.318 99.3771 113.318C99.9822 113.318 100.536 113.233 101.039 113.062C101.542 112.892 101.972 112.636 102.33 112.295C102.688 111.955 102.961 111.537 103.148 111.043L108.185 111.375C107.93 112.585 107.406 113.642 106.613 114.545C105.829 115.44 104.815 116.139 103.57 116.642C102.335 117.136 100.907 117.384 99.2876 117.384ZM127.832 102.963L122.847 103.27C122.761 102.844 122.578 102.46 122.297 102.119C122.016 101.77 121.645 101.493 121.185 101.288C120.733 101.075 120.192 100.969 119.561 100.969C118.717 100.969 118.006 101.148 117.426 101.506C116.847 101.855 116.557 102.324 116.557 102.912C116.557 103.381 116.744 103.777 117.119 104.101C117.494 104.425 118.138 104.685 119.05 104.881L122.604 105.597C124.513 105.989 125.936 106.619 126.874 107.489C127.811 108.358 128.28 109.5 128.28 110.915C128.28 112.202 127.901 113.331 127.142 114.303C126.392 115.274 125.361 116.033 124.048 116.578C122.744 117.115 121.24 117.384 119.536 117.384C116.936 117.384 114.865 116.842 113.323 115.76C111.788 114.669 110.889 113.186 110.625 111.311L115.982 111.03C116.144 111.822 116.536 112.428 117.158 112.845C117.78 113.254 118.577 113.459 119.548 113.459C120.503 113.459 121.27 113.276 121.85 112.909C122.438 112.534 122.736 112.053 122.744 111.464C122.736 110.97 122.527 110.565 122.118 110.25C121.709 109.926 121.078 109.679 120.226 109.509L116.825 108.831C114.908 108.447 113.48 107.783 112.543 106.837C111.614 105.891 111.149 104.685 111.149 103.219C111.149 101.957 111.49 100.871 112.172 99.9588C112.862 99.0469 113.83 98.3438 115.074 97.8494C116.327 97.3551 117.793 97.108 119.472 97.108C121.952 97.108 123.903 97.6321 125.327 98.6804C126.759 99.7287 127.594 101.156 127.832 102.963ZM147.687 102.963L142.702 103.27C142.616 102.844 142.433 102.46 142.152 102.119C141.871 101.77 141.5 101.493 141.04 101.288C140.588 101.075 140.047 100.969 139.416 100.969C138.572 100.969 137.861 101.148 137.281 101.506C136.702 101.855 136.412 102.324 136.412 102.912C136.412 103.381 136.599 103.777 136.974 104.101C137.349 104.425 137.993 104.685 138.905 104.881L142.459 105.597C144.368 105.989 145.791 106.619 146.728 107.489C147.666 108.358 148.135 109.5 148.135 110.915C148.135 112.202 147.755 113.331 146.997 114.303C146.247 115.274 145.216 116.033 143.903 116.578C142.599 117.115 141.095 117.384 139.39 117.384C136.791 117.384 134.72 116.842 133.177 115.76C131.643 114.669 130.744 113.186 130.48 111.311L135.836 111.03C135.998 111.822 136.39 112.428 137.013 112.845C137.635 113.254 138.432 113.459 139.403 113.459C140.358 113.459 141.125 113.276 141.704 112.909C142.292 112.534 142.591 112.053 142.599 111.464C142.591 110.97 142.382 110.565 141.973 110.25C141.564 109.926 140.933 109.679 140.081 109.509L136.68 108.831C134.763 108.447 133.335 107.783 132.398 106.837C131.469 105.891 131.004 104.685 131.004 103.219C131.004 101.957 131.345 100.871 132.027 99.9588C132.717 99.0469 133.684 98.3438 134.929 97.8494C136.182 97.3551 137.648 97.108 139.327 97.108C141.807 97.108 143.758 97.6321 145.182 98.6804C146.613 99.7287 147.449 101.156 147.687 102.963Z" fill="url(#paint0_linear_1_3288)"/>
</g>
<defs>
<filter id="filter0_dii_1_3288" x="0.393726" y="0.644701" width="235.779" height="122.987" filterUnits="userSpaceOnUse" color-interpolation-filters="sRGB">
<feFlood flood-opacity="0" result="BackgroundImageFix"/>
<feColorMatrix in="SourceAlpha" type="matrix" values="0 0 0 0 0 0 0 0 0 0 0 0 0 0 0 0 0 0 127 0" result="hardAlpha"/>
<feOffset dy="1.78512"/>
<feGaussianBlur stdDeviation="2.23141"/>
<feComposite in2="hardAlpha" operator="out"/>
<feColorMatrix type="matrix" values="0 0 0 0 0 0 0 0 0 0 0 0 0 0 0 0 0 0 0.17 0"/>
<feBlend mode="normal" in2="BackgroundImageFix" result="effect1_dropShadow_1_3288"/>
<feBlend mode="normal" in="SourceGraphic" in2="effect1_dropShadow_1_3288" result="shape"/>
<feColorMatrix in="SourceAlpha" type="matrix" values="0 0 0 0 0 0 0 0 0 0 0 0 0 0 0 0 0 0 127 0" result="hardAlpha"/>
<feMorphology radius="1" operator="erode" in="SourceAlpha" result="effect2_innerShadow_1_3288"/>
<feOffset dy="-1.33884"/>
<feComposite in2="hardAlpha" operator="arithmetic" k2="-1" k3="1"/>
<feColorMatrix type="matrix" values="0 0 0 0 0 0 0 0 0 0 0 0 0 0 0 0 0 0 0.1 0"/>
<feBlend mode="normal" in2="shape" result="effect2_innerShadow_1_3288"/>
<feColorMatrix in="SourceAlpha" type="matrix" values="0 0 0 0 0 0 0 0 0 0 0 0 0 0 0 0 0 0 127 0" result="hardAlpha"/>
<feOffset dy="0.892562"/>
<feComposite in2="hardAlpha" operator="arithmetic" k2="-1" k3="1"/>
<feColorMatrix type="matrix" values="0 0 0 0 1 0 0 0 0 1 0 0 0 0 1 0 0 0 0.18 0"/>
<feBlend mode="normal" in2="effect2_innerShadow_1_3288" result="effect3_innerShadow_1_3288"/>
</filter>
<linearGradient id="paint0_linear_1_3288" x1="132" y1="-4" x2="132" y2="125" gradientUnits="userSpaceOnUse">
<stop stop-color="#4318FF"/>
<stop offset="1" stop-color="#7F5DFF"/>
</linearGradient>
</defs>
</svg>
