<svg width="244" height="76" viewBox="0 0 244 76" fill="none" xmlns="http://www.w3.org/2000/svg">
<g filter="url(#filter0_ii_1_904)">
<g filter="url(#filter1_d_1_904)">
<rect x="18" y="14" width="208" height="40" rx="6" fill="url(#paint0_linear_1_904)"/>
<path d="M73.362 39.168C72.3913 39.168 71.5513 38.958 70.842 38.538C70.142 38.1087 69.6006 37.516 69.218 36.76C68.8353 35.9947 68.644 35.1127 68.644 34.114C68.644 33.106 68.8353 32.224 69.218 31.468C69.6006 30.7027 70.142 30.1053 70.842 29.676C71.5513 29.2467 72.3913 29.032 73.362 29.032C74.51 29.032 75.448 29.312 76.176 29.872C76.904 30.432 77.366 31.216 77.562 32.224H75.91C75.7793 31.6547 75.4993 31.202 75.07 30.866C74.6406 30.53 74.0666 30.362 73.348 30.362C72.368 30.362 71.5933 30.698 71.024 31.37C70.4546 32.0327 70.17 32.9473 70.17 34.114C70.17 35.2713 70.4546 36.1813 71.024 36.844C71.5933 37.5067 72.368 37.838 73.348 37.838C74.0666 37.838 74.6406 37.6793 75.07 37.362C75.4993 37.0447 75.7793 36.6107 75.91 36.06H77.562C77.366 37.0307 76.904 37.7913 76.176 38.342C75.448 38.8927 74.51 39.168 73.362 39.168ZM82.3852 39.168C81.7225 39.168 81.1252 39.0187 80.5932 38.72C80.0705 38.412 79.6552 37.9873 79.3472 37.446C79.0392 36.8953 78.8852 36.256 78.8852 35.528C78.8852 34.8 79.0392 34.1653 79.3472 33.624C79.6645 33.0733 80.0892 32.6487 80.6212 32.35C81.1532 32.042 81.7459 31.888 82.3992 31.888C83.0619 31.888 83.6545 32.042 84.1772 32.35C84.7092 32.6487 85.1292 33.0733 85.4372 33.624C85.7545 34.1653 85.9132 34.8 85.9132 35.528C85.9132 36.256 85.7545 36.8953 85.4372 37.446C85.1292 37.9873 84.7092 38.412 84.1772 38.72C83.6452 39.0187 83.0479 39.168 82.3852 39.168ZM82.3852 37.894C82.7399 37.894 83.0665 37.8053 83.3652 37.628C83.6732 37.4507 83.9205 37.1893 84.1072 36.844C84.2939 36.4893 84.3872 36.0507 84.3872 35.528C84.3872 35.0053 84.2939 34.5713 84.1072 34.226C83.9299 33.8713 83.6872 33.6053 83.3792 33.428C83.0805 33.2507 82.7539 33.162 82.3992 33.162C82.0445 33.162 81.7132 33.2507 81.4052 33.428C81.1065 33.6053 80.8639 33.8713 80.6772 34.226C80.4905 34.5713 80.3972 35.0053 80.3972 35.528C80.3972 36.0507 80.4905 36.4893 80.6772 36.844C80.8639 37.1893 81.1065 37.4507 81.4052 37.628C81.7039 37.8053 82.0305 37.894 82.3852 37.894ZM87.5181 39V32.056H88.8341L88.9461 33.274C89.1607 32.8447 89.4734 32.5087 89.8841 32.266C90.3041 32.014 90.7847 31.888 91.3261 31.888C92.1661 31.888 92.8241 32.1493 93.3001 32.672C93.7854 33.1947 94.0281 33.974 94.0281 35.01V39H92.5581V35.164C92.5581 33.82 92.0074 33.148 90.9061 33.148C90.3554 33.148 89.8981 33.344 89.5341 33.736C89.1794 34.128 89.0021 34.688 89.0021 35.416V39H87.5181ZM96.1259 39V33.302H95.1319V32.056H96.1259V31.048C96.1259 30.292 96.3125 29.7507 96.6859 29.424C97.0685 29.088 97.6052 28.92 98.2959 28.92H99.0239V30.18H98.5199C98.1932 30.18 97.9599 30.25 97.8199 30.39C97.6799 30.5207 97.6099 30.7447 97.6099 31.062V32.056H102.006V39H100.522V33.302H97.6099V39H96.1259ZM101.278 30.894C100.998 30.894 100.765 30.81 100.578 30.642C100.401 30.4647 100.312 30.2407 100.312 29.97C100.312 29.7087 100.401 29.494 100.578 29.326C100.765 29.158 100.998 29.074 101.278 29.074C101.558 29.074 101.787 29.158 101.964 29.326C102.151 29.494 102.244 29.7087 102.244 29.97C102.244 30.2407 102.151 30.4647 101.964 30.642C101.787 30.81 101.558 30.894 101.278 30.894ZM103.979 39V32.056H105.309L105.435 33.372C105.678 32.9147 106.014 32.5553 106.443 32.294C106.882 32.0233 107.409 31.888 108.025 31.888V33.442H107.619C107.208 33.442 106.84 33.512 106.513 33.652C106.196 33.7827 105.939 34.0113 105.743 34.338C105.556 34.6553 105.463 35.0987 105.463 35.668V39H103.979ZM109.297 39V32.056H110.613L110.739 33.036C110.963 32.6813 111.257 32.4013 111.621 32.196C111.995 31.9907 112.424 31.888 112.909 31.888C114.011 31.888 114.776 32.322 115.205 33.19C115.457 32.7887 115.793 32.4713 116.213 32.238C116.643 32.0047 117.105 31.888 117.599 31.888C118.467 31.888 119.149 32.1493 119.643 32.672C120.138 33.1947 120.385 33.974 120.385 35.01V39H118.901V35.164C118.901 33.82 118.388 33.148 117.361 33.148C116.839 33.148 116.409 33.344 116.073 33.736C115.747 34.128 115.583 34.688 115.583 35.416V39H114.099V35.164C114.099 33.82 113.581 33.148 112.545 33.148C112.032 33.148 111.607 33.344 111.271 33.736C110.945 34.128 110.781 34.688 110.781 35.416V39H109.297ZM125.705 39V29.2H131.935V30.404H127.189V33.456H131.515V34.632H127.189V37.796H131.935V39H125.705ZM133.647 39V32.056H134.963L135.089 33.036C135.313 32.6813 135.607 32.4013 135.971 32.196C136.344 31.9907 136.774 31.888 137.259 31.888C138.36 31.888 139.126 32.322 139.555 33.19C139.807 32.7887 140.143 32.4713 140.563 32.238C140.992 32.0047 141.454 31.888 141.949 31.888C142.817 31.888 143.498 32.1493 143.993 32.672C144.488 33.1947 144.735 33.974 144.735 35.01V39H143.251V35.164C143.251 33.82 142.738 33.148 141.711 33.148C141.188 33.148 140.759 33.344 140.423 33.736C140.096 34.128 139.933 34.688 139.933 35.416V39H138.449V35.164C138.449 33.82 137.931 33.148 136.895 33.148C136.382 33.148 135.957 33.344 135.621 33.736C135.294 34.128 135.131 34.688 135.131 35.416V39H133.647ZM148.823 39.168C148.235 39.168 147.75 39.07 147.367 38.874C146.985 38.678 146.7 38.4213 146.513 38.104C146.327 37.7773 146.233 37.4227 146.233 37.04C146.233 36.368 146.495 35.836 147.017 35.444C147.54 35.052 148.287 34.856 149.257 34.856H151.077V34.73C151.077 34.1887 150.928 33.7827 150.629 33.512C150.34 33.2413 149.962 33.106 149.495 33.106C149.085 33.106 148.725 33.2087 148.417 33.414C148.119 33.61 147.937 33.904 147.871 34.296H146.387C146.434 33.792 146.602 33.3627 146.891 33.008C147.19 32.644 147.563 32.3687 148.011 32.182C148.469 31.986 148.968 31.888 149.509 31.888C150.48 31.888 151.231 32.1447 151.763 32.658C152.295 33.162 152.561 33.8527 152.561 34.73V39H151.273L151.147 37.81C150.951 38.1927 150.667 38.5147 150.293 38.776C149.92 39.0373 149.43 39.168 148.823 39.168ZM149.117 37.964C149.519 37.964 149.855 37.8707 150.125 37.684C150.405 37.488 150.62 37.2313 150.769 36.914C150.928 36.5967 151.026 36.2467 151.063 35.864H149.411C148.823 35.864 148.403 35.9667 148.151 36.172C147.909 36.3773 147.787 36.634 147.787 36.942C147.787 37.2593 147.904 37.5113 148.137 37.698C148.38 37.8753 148.707 37.964 149.117 37.964ZM155.131 30.74C154.851 30.74 154.618 30.656 154.431 30.488C154.254 30.3107 154.165 30.0913 154.165 29.83C154.165 29.5687 154.254 29.354 154.431 29.186C154.618 29.0087 154.851 28.92 155.131 28.92C155.411 28.92 155.64 29.0087 155.817 29.186C156.004 29.354 156.097 29.5687 156.097 29.83C156.097 30.0913 156.004 30.3107 155.817 30.488C155.64 30.656 155.411 30.74 155.131 30.74ZM154.389 39V32.056H155.873V39H154.389ZM157.833 39V28.92H159.317V39H157.833ZM165.563 30.74C165.283 30.74 165.05 30.656 164.863 30.488C164.686 30.3107 164.597 30.0913 164.597 29.83C164.597 29.5687 164.686 29.354 164.863 29.186C165.05 29.0087 165.283 28.92 165.563 28.92C165.843 28.92 166.072 29.0087 166.249 29.186C166.436 29.354 166.529 29.5687 166.529 29.83C166.529 30.0913 166.436 30.3107 166.249 30.488C166.072 30.656 165.843 30.74 165.563 30.74ZM164.821 39V32.056H166.305V39H164.821ZM168.264 39V32.056H169.58L169.692 33.274C169.907 32.8447 170.219 32.5087 170.63 32.266C171.05 32.014 171.531 31.888 172.072 31.888C172.912 31.888 173.57 32.1493 174.046 32.672C174.531 33.1947 174.774 33.974 174.774 35.01V39H173.304V35.164C173.304 33.82 172.753 33.148 171.652 33.148C171.101 33.148 170.644 33.344 170.28 33.736C169.925 34.128 169.748 34.688 169.748 35.416V39H168.264Z" fill="#EFF4FB"/>
</g>
</g>
<defs>
<filter id="filter0_ii_1_904" x="18" y="13" width="208" height="41" filterUnits="userSpaceOnUse" color-interpolation-filters="sRGB">
<feFlood flood-opacity="0" result="BackgroundImageFix"/>
<feBlend mode="normal" in="SourceGraphic" in2="BackgroundImageFix" result="shape"/>
<feColorMatrix in="SourceAlpha" type="matrix" values="0 0 0 0 0 0 0 0 0 0 0 0 0 0 0 0 0 0 127 0" result="hardAlpha"/>
<feMorphology radius="1" operator="erode" in="SourceAlpha" result="effect1_innerShadow_1_904"/>
<feOffset dy="-3"/>
<feComposite in2="hardAlpha" operator="arithmetic" k2="-1" k3="1"/>
<feColorMatrix type="matrix" values="0 0 0 0 0 0 0 0 0 0 0 0 0 0 0 0 0 0 0.1 0"/>
<feBlend mode="normal" in2="shape" result="effect1_innerShadow_1_904"/>
<feColorMatrix in="SourceAlpha" type="matrix" values="0 0 0 0 0 0 0 0 0 0 0 0 0 0 0 0 0 0 127 0" result="hardAlpha"/>
<feOffset dy="2"/>
<feComposite in2="hardAlpha" operator="arithmetic" k2="-1" k3="1"/>
<feColorMatrix type="matrix" values="0 0 0 0 1 0 0 0 0 1 0 0 0 0 1 0 0 0 0.18 0"/>
<feBlend mode="normal" in2="effect1_innerShadow_1_904" result="effect2_innerShadow_1_904"/>
</filter>
<filter id="filter1_d_1_904" x="-2.00272e-05" y="0" width="244" height="76" filterUnits="userSpaceOnUse" color-interpolation-filters="sRGB">
<feFlood flood-opacity="0" result="BackgroundImageFix"/>
<feColorMatrix in="SourceAlpha" type="matrix" values="0 0 0 0 0 0 0 0 0 0 0 0 0 0 0 0 0 0 127 0" result="hardAlpha"/>
<feOffset dy="4"/>
<feGaussianBlur stdDeviation="9"/>
<feColorMatrix type="matrix" values="0 0 0 0 0 0 0 0 0 0 0 0 0 0 0 0 0 0 0.04 0"/>
<feBlend mode="normal" in2="BackgroundImageFix" result="effect1_dropShadow_1_904"/>
<feBlend mode="normal" in="SourceGraphic" in2="effect1_dropShadow_1_904" result="shape"/>
</filter>
<linearGradient id="paint0_linear_1_904" x1="122" y1="14" x2="122" y2="54" gradientUnits="userSpaceOnUse">
<stop stop-color="#4318FF"/>
<stop offset="1" stop-color="#7F5DFF"/>
</linearGradient>
</defs>
</svg>
