<svg width="422" height="82" viewBox="0 0 422 82" fill="none" xmlns="http://www.w3.org/2000/svg">
<g filter="url(#filter0_dii_1_1683)">
<path d="M29.3764 13.9844H23.777C23.6747 13.2599 23.4659 12.6165 23.1506 12.054C22.8352 11.483 22.4304 10.9972 21.9361 10.5966C21.4418 10.196 20.8707 9.8892 20.223 9.67614C19.5838 9.46307 18.8892 9.35653 18.1392 9.35653C16.7841 9.35653 15.6037 9.69318 14.598 10.3665C13.5923 11.0312 12.8125 12.0028 12.2585 13.2812C11.7045 14.5511 11.4276 16.0937 11.4276 17.9091C11.4276 19.7756 11.7045 21.3437 12.2585 22.6136C12.821 23.8835 13.6051 24.8423 14.6108 25.4901C15.6165 26.1378 16.7798 26.4616 18.1008 26.4616C18.8423 26.4616 19.5284 26.3636 20.1591 26.1676C20.7983 25.9716 21.3651 25.6861 21.8594 25.3111C22.3537 24.9276 22.7628 24.4631 23.0866 23.9176C23.419 23.3722 23.6491 22.75 23.777 22.0511L29.3764 22.0767C29.2315 23.2784 28.8693 24.4375 28.2898 25.554C27.7187 26.6619 26.9474 27.6548 25.9758 28.5327C25.0128 29.402 23.8622 30.0923 22.5241 30.6037C21.1946 31.1065 19.6903 31.358 18.0114 31.358C15.6761 31.358 13.5881 30.8295 11.7472 29.7727C9.91477 28.7159 8.4659 27.1861 7.40056 25.1832C6.34374 23.1804 5.81534 20.7557 5.81534 17.9091C5.81534 15.054 6.35227 12.625 7.42613 10.6222C8.49999 8.61932 9.95738 7.09375 11.7983 6.04545C13.6392 4.98864 15.7102 4.46023 18.0114 4.46023C19.5284 4.46023 20.9347 4.67329 22.2301 5.09943C23.5341 5.52557 24.6889 6.14773 25.6946 6.96591C26.7003 7.77557 27.5185 8.76846 28.1491 9.9446C28.7883 11.1207 29.1974 12.4673 29.3764 13.9844ZM41.7558 31.3835C39.77 31.3835 38.0526 30.9616 36.6038 30.1179C35.1634 29.2656 34.0512 28.081 33.2671 26.5639C32.483 25.0384 32.091 23.2699 32.091 21.2585C32.091 19.2301 32.483 17.4574 33.2671 15.9403C34.0512 14.4148 35.1634 13.2301 36.6038 12.3864C38.0526 11.5341 39.77 11.108 41.7558 11.108C43.7416 11.108 45.4546 11.5341 46.895 12.3864C48.3438 13.2301 49.4603 14.4148 50.2444 15.9403C51.0285 17.4574 51.4205 19.2301 51.4205 21.2585C51.4205 23.2699 51.0285 25.0384 50.2444 26.5639C49.4603 28.081 48.3438 29.2656 46.895 30.1179C45.4546 30.9616 43.7416 31.3835 41.7558 31.3835ZM41.7813 27.1648C42.6847 27.1648 43.439 26.9091 44.0441 26.3977C44.6492 25.8778 45.1052 25.1705 45.412 24.2756C45.7274 23.3807 45.885 22.3622 45.885 21.2202C45.885 20.0781 45.7274 19.0597 45.412 18.1648C45.1052 17.2699 44.6492 16.5625 44.0441 16.0426C43.439 15.5227 42.6847 15.2628 41.7813 15.2628C40.8694 15.2628 40.1024 15.5227 39.4802 16.0426C38.8666 16.5625 38.4021 17.2699 38.0867 18.1648C37.7799 19.0597 37.6265 20.0781 37.6265 21.2202C37.6265 22.3622 37.7799 23.3807 38.0867 24.2756C38.4021 25.1705 38.8666 25.8778 39.4802 26.3977C40.1024 26.9091 40.8694 27.1648 41.7813 27.1648ZM60.0477 19.6477V31H54.6017V11.3636H59.7921V14.8281H60.0222C60.4568 13.6861 61.1855 12.7827 62.2083 12.1179C63.231 11.4446 64.471 11.108 65.9284 11.108C67.2921 11.108 68.481 11.4062 69.4952 12.0028C70.5094 12.5994 71.2977 13.4517 71.8602 14.5597C72.4227 15.6591 72.704 16.9716 72.704 18.4972V31H67.258V19.4688C67.2665 18.267 66.9597 17.3295 66.3375 16.6562C65.7154 15.9744 64.8588 15.6335 63.7679 15.6335C63.035 15.6335 62.3872 15.7912 61.8247 16.1065C61.2708 16.4219 60.8361 16.8821 60.5208 17.4872C60.2139 18.0838 60.0563 18.804 60.0477 19.6477ZM87.1959 11.3636V15.4545H75.0766V11.3636H87.1959ZM77.8507 31V9.9446C77.8507 8.52131 78.1277 7.34091 78.6817 6.40341C79.2442 5.46591 80.0113 4.76278 80.9828 4.29403C81.9544 3.82528 83.0581 3.59091 84.2939 3.59091C85.1292 3.59091 85.8919 3.65483 86.5823 3.78267C87.2811 3.91051 87.801 4.02557 88.1419 4.12784L87.1703 8.21875C86.9573 8.15057 86.6931 8.08665 86.3777 8.02699C86.0709 7.96733 85.7556 7.9375 85.4317 7.9375C84.6306 7.9375 84.0723 8.125 83.757 8.5C83.4417 8.86648 83.284 9.3821 83.284 10.0469V31H77.8507ZM90.163 31V11.3636H95.609V31H90.163ZM92.8988 8.83239C92.0891 8.83239 91.3945 8.56392 90.815 8.02699C90.2439 7.48153 89.9584 6.82954 89.9584 6.07102C89.9584 5.32102 90.2439 4.67756 90.815 4.14062C91.3945 3.59517 92.0891 3.32244 92.8988 3.32244C93.7084 3.32244 94.3988 3.59517 94.9698 4.14062C95.5493 4.67756 95.8391 5.32102 95.8391 6.07102C95.8391 6.82954 95.5493 7.48153 94.9698 8.02699C94.3988 8.56392 93.7084 8.83239 92.8988 8.83239ZM99.6116 31V11.3636H104.891V14.7898H105.096C105.454 13.571 106.055 12.6506 106.898 12.0284C107.742 11.3977 108.714 11.0824 109.813 11.0824C110.086 11.0824 110.38 11.0994 110.695 11.1335C111.011 11.1676 111.288 11.2145 111.526 11.2741V16.1065C111.271 16.0298 110.917 15.9616 110.465 15.902C110.014 15.8423 109.6 15.8125 109.225 15.8125C108.424 15.8125 107.708 15.9872 107.077 16.3366C106.455 16.6776 105.961 17.1548 105.595 17.7685C105.237 18.3821 105.058 19.0895 105.058 19.8906V31H99.6116ZM113.982 31V11.3636H119.172V14.8281H119.402C119.812 13.6776 120.493 12.7699 121.448 12.1051C122.402 11.4403 123.545 11.108 124.874 11.108C126.221 11.108 127.367 11.4446 128.313 12.1179C129.259 12.7827 129.89 13.6861 130.205 14.8281H130.41C130.81 13.7031 131.535 12.804 132.583 12.1307C133.64 11.4489 134.888 11.108 136.329 11.108C138.161 11.108 139.648 11.6918 140.79 12.8594C141.941 14.0185 142.516 15.6634 142.516 17.794V31H137.083V18.8679C137.083 17.777 136.793 16.9588 136.214 16.4134C135.634 15.8679 134.91 15.5952 134.04 15.5952C133.052 15.5952 132.28 15.9105 131.726 16.5412C131.172 17.1634 130.895 17.9858 130.895 19.0085V31H125.616V18.7528C125.616 17.7898 125.339 17.0227 124.785 16.4517C124.239 15.8807 123.519 15.5952 122.624 15.5952C122.019 15.5952 121.474 15.7486 120.988 16.0554C120.51 16.3537 120.131 16.7756 119.85 17.321C119.569 17.858 119.428 18.4886 119.428 19.2131V31H113.982ZM152.998 4.81818H159.198L165.169 16.0938H165.424L171.394 4.81818H177.595L168.045 21.7443V31H162.548V21.7443L152.998 4.81818ZM184.915 31.3835C182.929 31.3835 181.212 30.9616 179.763 30.1179C178.322 29.2656 177.21 28.081 176.426 26.5639C175.642 25.0384 175.25 23.2699 175.25 21.2585C175.25 19.2301 175.642 17.4574 176.426 15.9403C177.21 14.4148 178.322 13.2301 179.763 12.3864C181.212 11.5341 182.929 11.108 184.915 11.108C186.901 11.108 188.614 11.5341 190.054 12.3864C191.503 13.2301 192.619 14.4148 193.403 15.9403C194.188 17.4574 194.58 19.2301 194.58 21.2585C194.58 23.2699 194.188 25.0384 193.403 26.5639C192.619 28.081 191.503 29.2656 190.054 30.1179C188.614 30.9616 186.901 31.3835 184.915 31.3835ZM184.94 27.1648C185.844 27.1648 186.598 26.9091 187.203 26.3977C187.808 25.8778 188.264 25.1705 188.571 24.2756C188.886 23.3807 189.044 22.3622 189.044 21.2202C189.044 20.0781 188.886 19.0597 188.571 18.1648C188.264 17.2699 187.808 16.5625 187.203 16.0426C186.598 15.5227 185.844 15.2628 184.94 15.2628C184.028 15.2628 183.261 15.5227 182.639 16.0426C182.026 16.5625 181.561 17.2699 181.246 18.1648C180.939 19.0597 180.786 20.0781 180.786 21.2202C180.786 22.3622 180.939 23.3807 181.246 24.2756C181.561 25.1705 182.026 25.8778 182.639 26.3977C183.261 26.9091 184.028 27.1648 184.94 27.1648ZM210.353 22.6392V11.3636H215.799V31H210.57V27.4332H210.366C209.923 28.5838 209.186 29.5085 208.154 30.2074C207.132 30.9062 205.883 31.2557 204.409 31.2557C203.096 31.2557 201.941 30.9574 200.944 30.3608C199.947 29.7642 199.167 28.9162 198.605 27.8168C198.051 26.7173 197.769 25.4006 197.761 23.8665V11.3636H203.207V22.8949C203.215 24.054 203.526 24.9702 204.14 25.6435C204.754 26.3168 205.576 26.6534 206.607 26.6534C207.264 26.6534 207.877 26.5043 208.448 26.206C209.019 25.8991 209.48 25.4474 209.829 24.8509C210.187 24.2543 210.362 23.517 210.353 22.6392ZM219.795 31V11.3636H225.075V14.7898H225.28C225.638 13.571 226.238 12.6506 227.082 12.0284C227.926 11.3977 228.898 11.0824 229.997 11.0824C230.27 11.0824 230.564 11.0994 230.879 11.1335C231.194 11.1676 231.471 11.2145 231.71 11.2741V16.1065C231.454 16.0298 231.101 15.9616 230.649 15.902C230.197 15.8423 229.784 15.8125 229.409 15.8125C228.608 15.8125 227.892 15.9872 227.261 16.3366C226.639 16.6776 226.145 17.1548 225.778 17.7685C225.42 18.3821 225.241 19.0895 225.241 19.8906V31H219.795ZM264.139 4.81818V31H259.358L247.967 14.5213H247.776V31H242.24V4.81818H247.098L258.399 21.2841H258.629V4.81818H264.139ZM277.199 31.3835C275.179 31.3835 273.441 30.9744 271.983 30.1562C270.535 29.3295 269.418 28.1619 268.634 26.6534C267.85 25.1364 267.458 23.3423 267.458 21.2713C267.458 19.2514 267.85 17.4787 268.634 15.9531C269.418 14.4276 270.522 13.2386 271.945 12.3864C273.377 11.5341 275.056 11.108 276.982 11.108C278.277 11.108 279.483 11.3168 280.6 11.7344C281.725 12.1435 282.705 12.7614 283.54 13.5881C284.384 14.4148 285.04 15.4545 285.509 16.7074C285.978 17.9517 286.212 19.4091 286.212 21.0795V22.5753H269.631V19.2003H281.086C281.086 18.4162 280.915 17.7216 280.574 17.1165C280.233 16.5114 279.76 16.0384 279.155 15.6974C278.559 15.348 277.864 15.1733 277.071 15.1733C276.245 15.1733 275.512 15.3651 274.873 15.7486C274.242 16.1236 273.748 16.6307 273.39 17.2699C273.032 17.9006 272.848 18.6037 272.84 19.3793V22.5881C272.84 23.5597 273.019 24.3991 273.377 25.1065C273.743 25.8139 274.259 26.3594 274.924 26.7429C275.589 27.1264 276.377 27.3182 277.289 27.3182C277.894 27.3182 278.448 27.233 278.951 27.0625C279.454 26.892 279.884 26.6364 280.242 26.2955C280.6 25.9545 280.873 25.5369 281.06 25.0426L286.097 25.375C285.841 26.5852 285.317 27.642 284.525 28.5455C283.741 29.4403 282.726 30.1392 281.482 30.642C280.246 31.1364 278.819 31.3835 277.199 31.3835ZM293.139 31L287.795 11.3636H293.305L296.348 24.5568H296.527L299.697 11.3636H305.105L308.327 24.4801H308.493L311.484 11.3636H316.981L311.65 31H305.885L302.51 18.6506H302.267L298.892 31H293.139ZM327.601 31V4.81818H345.243V9.3821H333.136V15.6207H344.335V20.1847H333.136V26.4361H345.294V31H327.601ZM349.182 31V11.3636H354.372V14.8281H354.602C355.011 13.6776 355.693 12.7699 356.647 12.1051C357.602 11.4403 358.744 11.108 360.074 11.108C361.42 11.108 362.567 11.4446 363.513 12.1179C364.459 12.7827 365.089 13.6861 365.405 14.8281H365.609C366.01 13.7031 366.734 12.804 367.782 12.1307C368.839 11.4489 370.088 11.108 371.528 11.108C373.361 11.108 374.848 11.6918 375.99 12.8594C377.14 14.0185 377.716 15.6634 377.716 17.794V31H372.282V18.8679C372.282 17.777 371.993 16.9588 371.413 16.4134C370.834 15.8679 370.109 15.5952 369.24 15.5952C368.251 15.5952 367.48 15.9105 366.926 16.5412C366.372 17.1634 366.095 17.9858 366.095 19.0085V31H360.815V18.7528C360.815 17.7898 360.538 17.0227 359.984 16.4517C359.439 15.8807 358.718 15.5952 357.824 15.5952C357.218 15.5952 356.673 15.7486 356.187 16.0554C355.71 16.3537 355.331 16.7756 355.049 17.321C354.768 17.858 354.628 18.4886 354.628 19.2131V31H349.182ZM387.257 31.3707C386.004 31.3707 384.888 31.1534 383.908 30.7188C382.927 30.2756 382.152 29.6236 381.581 28.7628C381.018 27.8935 380.737 26.8111 380.737 25.5156C380.737 24.4247 380.937 23.5085 381.338 22.767C381.738 22.0256 382.284 21.429 382.974 20.9773C383.665 20.5256 384.449 20.1847 385.327 19.9545C386.213 19.7244 387.142 19.5625 388.113 19.4688C389.256 19.3494 390.176 19.2386 390.875 19.1364C391.574 19.0256 392.081 18.8636 392.396 18.6506C392.711 18.4375 392.869 18.1222 392.869 17.7045V17.6278C392.869 16.8182 392.613 16.1918 392.102 15.7486C391.599 15.3054 390.883 15.0838 389.954 15.0838C388.974 15.0838 388.194 15.3011 387.615 15.7358C387.035 16.1619 386.652 16.6989 386.464 17.3466L381.427 16.9375C381.683 15.7443 382.186 14.7131 382.936 13.8438C383.686 12.9659 384.653 12.2926 385.838 11.8239C387.031 11.3466 388.412 11.108 389.98 11.108C391.071 11.108 392.115 11.2358 393.112 11.4915C394.118 11.7472 395.008 12.1435 395.784 12.6804C396.568 13.2173 397.186 13.9077 397.638 14.7514C398.089 15.5866 398.315 16.5881 398.315 17.7557V31H393.15V28.277H392.997C392.682 28.8906 392.26 29.4318 391.731 29.9006C391.203 30.3608 390.568 30.723 389.827 30.9872C389.085 31.2429 388.229 31.3707 387.257 31.3707ZM388.817 27.6122C389.618 27.6122 390.325 27.4545 390.939 27.1392C391.552 26.8153 392.034 26.3807 392.383 25.8352C392.733 25.2898 392.908 24.6719 392.908 23.9815V21.8977C392.737 22.0085 392.503 22.1108 392.204 22.2045C391.915 22.2898 391.586 22.3707 391.22 22.4474C390.854 22.5156 390.487 22.5795 390.121 22.6392C389.754 22.6903 389.422 22.7372 389.123 22.7798C388.484 22.8736 387.926 23.0227 387.449 23.2273C386.971 23.4318 386.601 23.7088 386.336 24.0582C386.072 24.3991 385.94 24.8253 385.94 25.3366C385.94 26.0781 386.209 26.6449 386.746 27.0369C387.291 27.4205 387.981 27.6122 388.817 27.6122ZM402.18 31V11.3636H407.626V31H402.18ZM404.916 8.83239C404.106 8.83239 403.412 8.56392 402.832 8.02699C402.261 7.48153 401.976 6.82954 401.976 6.07102C401.976 5.32102 402.261 4.67756 402.832 4.14062C403.412 3.59517 404.106 3.32244 404.916 3.32244C405.726 3.32244 406.416 3.59517 406.987 4.14062C407.567 4.67756 407.856 5.32102 407.856 6.07102C407.856 6.82954 407.567 7.48153 406.987 8.02699C406.416 8.56392 405.726 8.83239 404.916 8.83239ZM417.075 4.81818V31H411.629V4.81818H417.075ZM10.7883 75H4.85653L13.8949 48.8182H21.0284L30.054 75H24.1222L17.5639 54.8011H17.3594L10.7883 75ZM10.4176 64.7088H24.429V69.0298H10.4176V64.7088ZM39.0647 75.3196C37.5732 75.3196 36.2224 74.9361 35.0122 74.169C33.8104 73.3935 32.8559 72.2557 32.1485 70.7557C31.4497 69.2472 31.1002 67.3977 31.1002 65.2074C31.1002 62.9574 31.4624 61.0866 32.1869 59.5952C32.9113 58.0952 33.8744 56.9744 35.0761 56.233C36.2863 55.483 37.6116 55.108 39.0519 55.108C40.1514 55.108 41.0676 55.2955 41.8005 55.6705C42.542 56.0369 43.1386 56.4972 43.5903 57.0511C44.0505 57.5966 44.3999 58.1335 44.6386 58.6619H44.8048V48.8182H50.238V75H44.8687V71.8551H44.6386C44.3829 72.4006 44.0207 72.9418 43.5519 73.4787C43.0917 74.0071 42.4908 74.446 41.7494 74.7955C41.0164 75.1449 40.1215 75.3196 39.0647 75.3196ZM40.7906 70.9858C41.6684 70.9858 42.4099 70.7472 43.015 70.2699C43.6286 69.7841 44.0974 69.1065 44.4212 68.2372C44.7536 67.3679 44.9198 66.3494 44.9198 65.1818C44.9198 64.0142 44.7579 63 44.434 62.1392C44.1102 61.2784 43.6414 60.6136 43.0278 60.1449C42.4141 59.6761 41.6684 59.4418 40.7906 59.4418C39.8957 59.4418 39.1414 59.6847 38.5278 60.1705C37.9141 60.6562 37.4497 61.3295 37.1343 62.1903C36.819 63.0511 36.6613 64.0483 36.6613 65.1818C36.6613 66.3239 36.819 67.3338 37.1343 68.2116C37.4582 69.081 37.9227 69.7628 38.5278 70.2571C39.1414 70.7429 39.8957 70.9858 40.7906 70.9858ZM61.5914 75.3196C60.1 75.3196 58.7491 74.9361 57.5389 74.169C56.3372 73.3935 55.3826 72.2557 54.6752 70.7557C53.9764 69.2472 53.6269 67.3977 53.6269 65.2074C53.6269 62.9574 53.9892 61.0866 54.7136 59.5952C55.438 58.0952 56.4011 56.9744 57.6028 56.233C58.813 55.483 60.1383 55.108 61.5786 55.108C62.6781 55.108 63.5943 55.2955 64.3272 55.6705C65.0687 56.0369 65.6653 56.4972 66.117 57.0511C66.5772 57.5966 66.9267 58.1335 67.1653 58.6619H67.3315V48.8182H72.7647V75H67.3954V71.8551H67.1653C66.9096 72.4006 66.5474 72.9418 66.0786 73.4787C65.6184 74.0071 65.0176 74.446 64.2761 74.7955C63.5431 75.1449 62.6482 75.3196 61.5914 75.3196ZM63.3173 70.9858C64.1951 70.9858 64.9366 70.7472 65.5417 70.2699C66.1553 69.7841 66.6241 69.1065 66.948 68.2372C67.2803 67.3679 67.4465 66.3494 67.4465 65.1818C67.4465 64.0142 67.2846 63 66.9607 62.1392C66.6369 61.2784 66.1681 60.6136 65.5545 60.1449C64.9409 59.6761 64.1951 59.4418 63.3173 59.4418C62.4224 59.4418 61.6681 59.6847 61.0545 60.1705C60.4409 60.6562 59.9764 61.3295 59.661 62.1903C59.3457 63.0511 59.188 64.0483 59.188 65.1818C59.188 66.3239 59.3457 67.3338 59.661 68.2116C59.9849 69.081 60.4494 69.7628 61.0545 70.2571C61.6681 70.7429 62.4224 70.9858 63.3173 70.9858ZM76.8824 75V55.3636H82.1622V58.7898H82.3667C82.7247 57.571 83.3255 56.6506 84.1693 56.0284C85.013 55.3977 85.9846 55.0824 87.0841 55.0824C87.3568 55.0824 87.6508 55.0994 87.9662 55.1335C88.2815 55.1676 88.5585 55.2145 88.7971 55.2741V60.1065C88.5414 60.0298 88.1877 59.9616 87.736 59.902C87.2843 59.8423 86.871 59.8125 86.496 59.8125C85.6949 59.8125 84.9789 59.9872 84.3483 60.3366C83.7261 60.6776 83.2318 61.1548 82.8653 61.7685C82.5074 62.3821 82.3284 63.0895 82.3284 63.8906V75H76.8824ZM99.2876 75.3835C97.2677 75.3835 95.5291 74.9744 94.0717 74.1562C92.6228 73.3295 91.5064 72.1619 90.7223 70.6534C89.9382 69.1364 89.5461 67.3423 89.5461 65.2713C89.5461 63.2514 89.9382 61.4787 90.7223 59.9531C91.5064 58.4276 92.6101 57.2386 94.0334 56.3864C95.4652 55.5341 97.1442 55.108 99.0703 55.108C100.366 55.108 101.572 55.3168 102.688 55.7344C103.813 56.1435 104.793 56.7614 105.629 57.5881C106.472 58.4148 107.129 59.4545 107.597 60.7074C108.066 61.9517 108.3 63.4091 108.3 65.0795V66.5753H91.7194V63.2003H103.174C103.174 62.4162 103.004 61.7216 102.663 61.1165C102.322 60.5114 101.849 60.0384 101.244 59.6974C100.647 59.348 99.9524 59.1733 99.1598 59.1733C98.3331 59.1733 97.6001 59.3651 96.9609 59.7486C96.3302 60.1236 95.8359 60.6307 95.478 61.2699C95.12 61.9006 94.9368 62.6037 94.9282 63.3793V66.5881C94.9282 67.5597 95.1072 68.3991 95.4652 69.1065C95.8317 69.8139 96.3473 70.3594 97.0121 70.7429C97.6768 71.1264 98.4652 71.3182 99.3771 71.3182C99.9822 71.3182 100.536 71.233 101.039 71.0625C101.542 70.892 101.972 70.6364 102.33 70.2955C102.688 69.9545 102.961 69.5369 103.148 69.0426L108.185 69.375C107.93 70.5852 107.406 71.642 106.613 72.5455C105.829 73.4403 104.815 74.1392 103.57 74.642C102.334 75.1364 100.907 75.3835 99.2876 75.3835ZM127.832 60.9631L122.847 61.2699C122.761 60.8437 122.578 60.4602 122.297 60.1193C122.016 59.7699 121.645 59.4929 121.185 59.2884C120.733 59.0753 120.192 58.9688 119.561 58.9688C118.717 58.9688 118.006 59.1477 117.426 59.5057C116.847 59.8551 116.557 60.3239 116.557 60.9119C116.557 61.3807 116.744 61.777 117.119 62.1009C117.494 62.4247 118.138 62.6847 119.05 62.8807L122.604 63.5966C124.513 63.9886 125.936 64.6193 126.874 65.4886C127.811 66.358 128.28 67.5 128.28 68.9148C128.28 70.2017 127.901 71.331 127.142 72.3026C126.392 73.2741 125.361 74.0327 124.048 74.5781C122.744 75.1151 121.24 75.3835 119.536 75.3835C116.936 75.3835 114.865 74.8423 113.323 73.7599C111.788 72.669 110.889 71.1861 110.625 69.3111L115.982 69.0298C116.144 69.8224 116.536 70.4276 117.158 70.8452C117.78 71.2543 118.577 71.4588 119.548 71.4588C120.503 71.4588 121.27 71.2756 121.849 70.9091C122.438 70.5341 122.736 70.0526 122.744 69.4645C122.736 68.9702 122.527 68.5653 122.118 68.25C121.709 67.9261 121.078 67.679 120.226 67.5085L116.825 66.831C114.908 66.4474 113.48 65.7827 112.543 64.8366C111.614 63.8906 111.149 62.6847 111.149 61.2188C111.149 59.9574 111.49 58.8707 112.172 57.9588C112.862 57.0469 113.83 56.3438 115.074 55.8494C116.327 55.3551 117.793 55.108 119.472 55.108C121.952 55.108 123.903 55.6321 125.327 56.6804C126.759 57.7287 127.594 59.1562 127.832 60.9631ZM147.687 60.9631L142.701 61.2699C142.616 60.8437 142.433 60.4602 142.152 60.1193C141.871 59.7699 141.5 59.4929 141.04 59.2884C140.588 59.0753 140.047 58.9688 139.416 58.9688C138.572 58.9688 137.861 59.1477 137.281 59.5057C136.701 59.8551 136.412 60.3239 136.412 60.9119C136.412 61.3807 136.599 61.777 136.974 62.1009C137.349 62.4247 137.993 62.6847 138.905 62.8807L142.459 63.5966C144.368 63.9886 145.791 64.6193 146.728 65.4886C147.666 66.358 148.135 67.5 148.135 68.9148C148.135 70.2017 147.755 71.331 146.997 72.3026C146.247 73.2741 145.216 74.0327 143.903 74.5781C142.599 75.1151 141.095 75.3835 139.39 75.3835C136.791 75.3835 134.72 74.8423 133.177 73.7599C131.643 72.669 130.744 71.1861 130.48 69.3111L135.836 69.0298C135.998 69.8224 136.39 70.4276 137.013 70.8452C137.635 71.2543 138.432 71.4588 139.403 71.4588C140.358 71.4588 141.125 71.2756 141.704 70.9091C142.292 70.5341 142.591 70.0526 142.599 69.4645C142.591 68.9702 142.382 68.5653 141.973 68.25C141.564 67.9261 140.933 67.679 140.081 67.5085L136.68 66.831C134.763 66.4474 133.335 65.7827 132.398 64.8366C131.469 63.8906 131.004 62.6847 131.004 61.2188C131.004 59.9574 131.345 58.8707 132.027 57.9588C132.717 57.0469 133.684 56.3438 134.929 55.8494C136.182 55.3551 137.648 55.108 139.326 55.108C141.807 55.108 143.758 55.6321 145.182 56.6804C146.613 57.7287 147.449 59.1562 147.687 60.9631Z" fill="url(#paint0_linear_1_1683)"/>
</g>
<defs>
<filter id="filter0_dii_1_1683" x="0.393718" y="0.644701" width="421.144" height="80.9868" filterUnits="userSpaceOnUse" color-interpolation-filters="sRGB">
<feFlood flood-opacity="0" result="BackgroundImageFix"/>
<feColorMatrix in="SourceAlpha" type="matrix" values="0 0 0 0 0 0 0 0 0 0 0 0 0 0 0 0 0 0 127 0" result="hardAlpha"/>
<feOffset dy="1.78512"/>
<feGaussianBlur stdDeviation="2.23141"/>
<feComposite in2="hardAlpha" operator="out"/>
<feColorMatrix type="matrix" values="0 0 0 0 0 0 0 0 0 0 0 0 0 0 0 0 0 0 0.17 0"/>
<feBlend mode="normal" in2="BackgroundImageFix" result="effect1_dropShadow_1_1683"/>
<feBlend mode="normal" in="SourceGraphic" in2="effect1_dropShadow_1_1683" result="shape"/>
<feColorMatrix in="SourceAlpha" type="matrix" values="0 0 0 0 0 0 0 0 0 0 0 0 0 0 0 0 0 0 127 0" result="hardAlpha"/>
<feMorphology radius="1" operator="erode" in="SourceAlpha" result="effect2_innerShadow_1_1683"/>
<feOffset dy="-1.33884"/>
<feComposite in2="hardAlpha" operator="arithmetic" k2="-1" k3="1"/>
<feColorMatrix type="matrix" values="0 0 0 0 0 0 0 0 0 0 0 0 0 0 0 0 0 0 0.1 0"/>
<feBlend mode="normal" in2="shape" result="effect2_innerShadow_1_1683"/>
<feColorMatrix in="SourceAlpha" type="matrix" values="0 0 0 0 0 0 0 0 0 0 0 0 0 0 0 0 0 0 127 0" result="hardAlpha"/>
<feOffset dy="0.892562"/>
<feComposite in2="hardAlpha" operator="arithmetic" k2="-1" k3="1"/>
<feColorMatrix type="matrix" values="0 0 0 0 1 0 0 0 0 1 0 0 0 0 1 0 0 0 0.18 0"/>
<feBlend mode="normal" in2="effect2_innerShadow_1_1683" result="effect3_innerShadow_1_1683"/>
</filter>
<linearGradient id="paint0_linear_1_1683" x1="235" y1="-4" x2="235" y2="84" gradientUnits="userSpaceOnUse">
<stop stop-color="#4318FF"/>
<stop offset="1" stop-color="#7F5DFF"/>
</linearGradient>
</defs>
</svg>
