<svg width="36" height="36" viewBox="0 0 36 36" fill="none" xmlns="http://www.w3.org/2000/svg">
<circle cx="18" cy="18" r="18" fill="#F43F5E" fill-opacity="0.11"/>
<path d="M17.6817 22.3674C17.7759 22.3044 17.8867 22.2708 18 22.2708C18.1519 22.2708 18.2977 22.3312 18.4051 22.4386C18.5125 22.5461 18.5729 22.6918 18.5729 22.8437C18.5729 22.9571 18.5393 23.0678 18.4764 23.162C18.4134 23.2563 18.3239 23.3297 18.2192 23.3731C18.1146 23.4164 17.9994 23.4278 17.8882 23.4057C17.7771 23.3836 17.675 23.329 17.5949 23.2489C17.5148 23.1687 17.4602 23.0667 17.4381 22.9555C17.416 22.8444 17.4273 22.7292 17.4707 22.6245C17.514 22.5198 17.5875 22.4303 17.6817 22.3674ZM17.7708 14.7083H18.2292V19.9792H17.7708V14.7083Z" stroke="#D85252" stroke-width="0.916667"/>
<path d="M8.85917 25.8318L8.85918 25.8318L17.7967 8.64427C17.7967 8.64426 17.7967 8.64426 17.7967 8.64425C17.816 8.60705 17.8452 8.57587 17.8811 8.55411C17.9169 8.53234 17.9581 8.52083 18 8.52083C18.0419 8.52083 18.0831 8.53234 18.1189 8.55411C18.1548 8.57587 18.184 8.60705 18.2033 8.64425C18.2033 8.64426 18.2033 8.64426 18.2033 8.64427L27.1408 25.8318L27.1408 25.8318C27.159 25.8667 27.1678 25.9057 27.1665 25.9451C27.1652 25.9844 27.1538 26.0228 27.1334 26.0564C27.113 26.0901 27.0842 26.1179 27.0499 26.1372C27.0156 26.1565 26.9769 26.1667 26.9375 26.1667H9.06249C9.02312 26.1667 8.98441 26.1565 8.9501 26.1372C8.91579 26.1179 8.88703 26.0901 8.8666 26.0564C8.84616 26.0228 8.83475 25.9844 8.83345 25.9451C8.83215 25.9057 8.84101 25.8667 8.85917 25.8318ZM9.80539 25.4876L9.93919 25.7083H10.1974H25.8026H26.0609L26.1947 25.4875L26.196 25.4852L26.3295 25.2649L26.2107 25.0363L18.408 10.0314L18.2796 9.78451H18.0014H17.9986H17.7204L17.592 10.0314L9.78934 25.0363L9.67045 25.2649L9.80401 25.4853L9.80539 25.4876Z" fill="#191847" stroke="#D85252" stroke-width="0.916667"/>
</svg>
