<svg width="16" height="17" viewBox="0 0 16 17" fill="none" xmlns="http://www.w3.org/2000/svg">
<path d="M1.99999 8.16667H1.66666V8.5V14.5V14.8333H1.99999H4.99999H5.33333V14.5V8.5V8.16667H4.99999H1.99999ZM4.99999 15.1667H1.99999C1.82318 15.1667 1.65361 15.0964 1.52859 14.9714C1.40357 14.8464 1.33333 14.6768 1.33333 14.5V8.5C1.33333 8.32319 1.40357 8.15362 1.52859 8.0286C1.65361 7.90357 1.82318 7.83333 1.99999 7.83333H4.99999C5.17681 7.83333 5.34637 7.90357 5.4714 8.0286C5.59642 8.15362 5.66666 8.32319 5.66666 8.5V14.5C5.66666 14.6768 5.59642 14.8464 5.4714 14.9714C5.34637 15.0964 5.17681 15.1667 4.99999 15.1667Z" stroke="#8F9BBA" stroke-width="0.666667"/>
<path d="M2.99999 3.16667H2.66666V3.5V6.16667H2.33333V3.5C2.33333 3.32319 2.40357 3.15362 2.52859 3.0286C2.65361 2.90357 2.82318 2.83333 2.99999 2.83333H14C14.1768 2.83333 14.3464 2.90357 14.4714 3.0286C14.5964 3.15362 14.6667 3.32319 14.6667 3.5V10.5C14.6667 10.6768 14.5964 10.8464 14.4714 10.9714C14.3464 11.0964 14.1768 11.1667 14 11.1667H8.99999H8.66666V11.5V13.5V13.8333H8.99999H11.1667V14.1667H7.33333V13.8333H7.99999H8.33333V13.5V11.5V11.1667H7.99999H7.33333V10.8333H14H14.3333V10.5V3.5V3.16667H14H2.99999Z" fill="#191847" stroke="#8F9BBA" stroke-width="0.666667"/>
</svg>
