<svg width="16" height="17" viewBox="0 0 16 17" fill="none" xmlns="http://www.w3.org/2000/svg">
<path d="M8.00036 5.16667H7.99999C7.63739 5.16667 7.28294 5.27419 6.98145 5.47564C6.67996 5.67709 6.44498 5.96342 6.30621 6.29842C6.16745 6.63341 6.13115 7.00204 6.20189 7.35767C6.27263 7.7133 6.44723 8.03997 6.70363 8.29636C6.96003 8.55276 7.2867 8.72737 7.64233 8.79811C7.99796 8.86885 8.36658 8.83254 8.70158 8.69378C9.03658 8.55502 9.32291 8.32004 9.52435 8.01855C9.7258 7.71706 9.83333 7.3626 9.83333 7L9.83333 6.99964C9.83279 6.51367 9.63951 6.04775 9.29587 5.70412C8.95224 5.36049 8.48633 5.1672 8.00036 5.16667ZM7.99999 9.16667C7.57147 9.16667 7.15256 9.0396 6.79626 8.80152C6.43995 8.56344 6.16224 8.22506 5.99825 7.82915C5.83426 7.43324 5.79136 6.9976 5.87496 6.57731C5.95856 6.15701 6.16492 5.77095 6.46793 5.46794C6.77094 5.16492 7.15701 4.95857 7.5773 4.87497C7.99759 4.79137 8.43323 4.83427 8.82914 4.99826C9.22505 5.16225 9.56344 5.43996 9.80151 5.79627C10.0396 6.15257 10.1667 6.57148 10.1667 7C10.1659 7.5744 9.93739 8.12506 9.53123 8.53123C9.12506 8.9374 8.57439 9.16591 7.99999 9.16667Z" stroke="#8F9BBA" stroke-width="0.666667"/>
<path d="M4.17232 9.94063L4.14075 9.89906C3.50769 9.0652 3.16552 8.04677 3.16666 6.99983M4.17232 9.94063L12.8333 7C12.8333 6.99987 12.8333 6.99974 12.8333 6.99961C12.8332 5.71787 12.324 4.48865 11.4177 3.58232C10.5113 2.67589 9.28187 2.16667 7.99999 2.16667C6.71811 2.16667 5.48874 2.67589 4.58231 3.58232C3.67592 4.4887 3.1667 5.71801 3.16666 6.99983M4.17232 9.94063L4.17251 9.94077M4.17232 9.94063L4.17251 9.94077M3.16666 6.99983C3.16666 6.99976 3.16666 6.99969 3.16666 6.99962L3.49999 7H3.16666C3.16666 6.99994 3.16666 6.99989 3.16666 6.99983ZM4.17251 9.94077L4.20286 9.9807C4.2338 10.0213 4.27292 10.0726 4.28971 10.0935L4.28962 10.0936L4.29531 10.1003L7.74575 14.1695L8.00001 14.4694L8.25424 14.1695L11.7092 10.0945L11.7094 10.0946L11.7159 10.0864C11.7298 10.069 11.7675 10.0194 11.7982 9.97899L11.8413 9.92223L11.8551 9.90399L11.8591 9.8987L11.8599 9.89764L11.8605 9.89691L11.8606 9.89677L4.17251 9.94077ZM2.83333 7.00047V7C2.83333 5.62971 3.37767 4.31555 4.34661 3.34662C5.31555 2.37768 6.62971 1.83333 7.99999 1.83333C9.37028 1.83333 10.6844 2.37768 11.6534 3.34662C12.6223 4.31555 13.1667 5.62971 13.1667 7L13.1667 7.0005C13.1683 8.11866 12.8031 9.20648 12.1271 10.0971L12.1161 10.1116L12.1155 10.1127L12.103 10.129L12.0494 10.1991L11.9923 10.2734L11.9714 10.3002C11.9664 10.3065 11.9644 10.3091 11.9643 10.3092L7.99999 14.9846L4.03762 10.3114C4.03785 10.3117 4.0378 10.3116 4.0374 10.3111C4.03656 10.3101 4.03419 10.3071 4.02977 10.3015L4.00838 10.2741L3.95075 10.1993L3.89695 10.1289L3.87975 10.1064L3.875 10.1001L3.87376 10.0985L3.87363 10.0983C3.87359 10.0983 3.87355 10.0982 3.8735 10.0982C3.87346 10.0981 3.87342 10.0981 3.87337 10.098C3.1971 9.20711 2.83174 8.11897 2.83333 7.00047ZM4.14319 9.90222L4.14363 9.90279L4.14319 9.90222Z" fill="#191847" stroke="#8F9BBA" stroke-width="0.666667"/>
</svg>
