<svg width="176" height="72" viewBox="0 0 176 72" fill="none" xmlns="http://www.w3.org/2000/svg">
<g filter="url(#filter0_dii_1_2763)">
<path d="M5.27557 29V2.81818H15.6051C17.5824 2.81818 19.2699 3.17187 20.6676 3.87926C22.0739 4.57812 23.1435 5.57102 23.8764 6.85795C24.6179 8.13636 24.9886 9.64062 24.9886 11.3707C24.9886 13.1094 24.6136 14.6051 23.8636 15.858C23.1136 17.1023 22.027 18.0568 20.6037 18.7216C19.1889 19.3864 17.4759 19.7188 15.4645 19.7188H8.5483V15.2699H14.5696C15.6264 15.2699 16.5043 15.125 17.2031 14.8352C17.902 14.5455 18.4219 14.1108 18.7628 13.5312C19.1122 12.9517 19.2869 12.2315 19.2869 11.3707C19.2869 10.5014 19.1122 9.76847 18.7628 9.17188C18.4219 8.57528 17.8977 8.12358 17.1903 7.81676C16.4915 7.50142 15.6094 7.34375 14.544 7.34375H10.8111V29H5.27557ZM19.4148 17.0852L25.9219 29H19.8111L13.4446 17.0852H19.4148ZM37.0708 29.3835C35.0509 29.3835 33.3122 28.9744 31.8548 28.1562C30.406 27.3295 29.2895 26.1619 28.5054 24.6534C27.7213 23.1364 27.3293 21.3423 27.3293 19.2713C27.3293 17.2514 27.7213 15.4787 28.5054 13.9531C29.2895 12.4276 30.3932 11.2386 31.8165 10.3864C33.2483 9.53409 34.9273 9.10795 36.8534 9.10795C38.1489 9.10795 39.3548 9.31676 40.4713 9.73438C41.5963 10.1435 42.5764 10.7614 43.4117 11.5881C44.2554 12.4148 44.9117 13.4545 45.3804 14.7074C45.8492 15.9517 46.0835 17.4091 46.0835 19.0795V20.5753H29.5026V17.2003H40.9571C40.9571 16.4162 40.7867 15.7216 40.4458 15.1165C40.1048 14.5114 39.6318 14.0384 39.0267 13.6974C38.4301 13.348 37.7355 13.1733 36.9429 13.1733C36.1162 13.1733 35.3833 13.3651 34.744 13.7486C34.1134 14.1236 33.619 14.6307 33.2611 15.2699C32.9031 15.9006 32.7199 16.6037 32.7114 17.3793V20.5881C32.7114 21.5597 32.8904 22.3991 33.2483 23.1065C33.6148 23.8139 34.1304 24.3594 34.7952 24.7429C35.46 25.1264 36.2483 25.3182 37.1602 25.3182C37.7654 25.3182 38.3193 25.233 38.8222 25.0625C39.325 24.892 39.7554 24.6364 40.1134 24.2955C40.4713 23.9545 40.744 23.5369 40.9315 23.0426L45.9685 23.375C45.7128 24.5852 45.1887 25.642 44.396 26.5455C43.6119 27.4403 42.5977 28.1392 41.3534 28.642C40.1176 29.1364 38.6901 29.3835 37.0708 29.3835ZM65.6156 14.9631L60.6298 15.2699C60.5446 14.8437 60.3613 14.4602 60.0801 14.1193C59.7988 13.7699 59.4281 13.4929 58.9679 13.2884C58.5161 13.0753 57.975 12.9688 57.3443 12.9688C56.5005 12.9688 55.7889 13.1477 55.2093 13.5057C54.6298 13.8551 54.34 14.3239 54.34 14.9119C54.34 15.3807 54.5275 15.777 54.9025 16.1009C55.2775 16.4247 55.921 16.6847 56.8329 16.8807L60.3869 17.5966C62.296 17.9886 63.7193 18.6193 64.6568 19.4886C65.5943 20.358 66.063 21.5 66.063 22.9148C66.063 24.2017 65.6838 25.331 64.9252 26.3026C64.1752 27.2741 63.144 28.0327 61.8315 28.5781C60.5275 29.1151 59.0233 29.3835 57.3187 29.3835C54.7193 29.3835 52.6483 28.8423 51.1056 27.7599C49.5715 26.669 48.6724 25.1861 48.4082 23.3111L53.7647 23.0298C53.9267 23.8224 54.3187 24.4276 54.9409 24.8452C55.563 25.2543 56.3599 25.4588 57.3315 25.4588C58.286 25.4588 59.0531 25.2756 59.6326 24.9091C60.2207 24.5341 60.519 24.0526 60.5275 23.4645C60.519 22.9702 60.3102 22.5653 59.9011 22.25C59.492 21.9261 58.8613 21.679 58.009 21.5085L54.6085 20.831C52.6909 20.4474 51.2633 19.7827 50.3258 18.8366C49.3968 17.8906 48.9323 16.6847 48.9323 15.2188C48.9323 13.9574 49.2733 12.8707 49.9551 11.9588C50.6454 11.0469 51.6127 10.3438 52.8571 9.84943C54.1099 9.35511 55.5758 9.10795 57.2548 9.10795C59.7349 9.10795 61.6866 9.6321 63.1099 10.6804C64.5417 11.7287 65.3769 13.1562 65.6156 14.9631ZM78.0812 29.3835C76.0613 29.3835 74.3227 28.9744 72.8653 28.1562C71.4164 27.3295 70.3 26.1619 69.5159 24.6534C68.7318 23.1364 68.3397 21.3423 68.3397 19.2713C68.3397 17.2514 68.7318 15.4787 69.5159 13.9531C70.3 12.4276 71.4037 11.2386 72.827 10.3864C74.2588 9.53409 75.9378 9.10795 77.8639 9.10795C79.1593 9.10795 80.3653 9.31676 81.4818 9.73438C82.6068 10.1435 83.5869 10.7614 84.4221 11.5881C85.2659 12.4148 85.9221 13.4545 86.3909 14.7074C86.8596 15.9517 87.094 17.4091 87.094 19.0795V20.5753H70.513V17.2003H81.9676C81.9676 16.4162 81.7971 15.7216 81.4562 15.1165C81.1153 14.5114 80.6423 14.0384 80.0372 13.6974C79.4406 13.348 78.746 13.1733 77.9534 13.1733C77.1267 13.1733 76.3937 13.3651 75.7545 13.7486C75.1238 14.1236 74.6295 14.6307 74.2716 15.2699C73.9136 15.9006 73.7304 16.6037 73.7218 17.3793V20.5881C73.7218 21.5597 73.9008 22.3991 74.2588 23.1065C74.6253 23.8139 75.1409 24.3594 75.8057 24.7429C76.4704 25.1264 77.2588 25.3182 78.1707 25.3182C78.7758 25.3182 79.3298 25.233 79.8326 25.0625C80.3355 24.892 80.7659 24.6364 81.1238 24.2955C81.4818 23.9545 81.7545 23.5369 81.942 23.0426L86.9789 23.375C86.7233 24.5852 86.1991 25.642 85.4065 26.5455C84.6224 27.4403 83.6082 28.1392 82.3639 28.642C81.1281 29.1364 79.7005 29.3835 78.0812 29.3835ZM100.733 9.36364V13.4545H88.9073V9.36364H100.733ZM91.592 4.65909H97.038V22.9659C97.038 23.4687 97.1147 23.8608 97.2681 24.142C97.4215 24.4148 97.6346 24.6065 97.9073 24.7173C98.1885 24.8281 98.5124 24.8835 98.8789 24.8835C99.1346 24.8835 99.3903 24.8622 99.6459 24.8196C99.9016 24.7685 100.098 24.7301 100.234 24.7045L101.091 28.7571C100.818 28.8423 100.434 28.9403 99.94 29.0511C99.4457 29.1705 98.8448 29.2429 98.1374 29.2685C96.8249 29.3196 95.6743 29.1449 94.6857 28.7443C93.7056 28.3437 92.9428 27.7216 92.3974 26.8778C91.8519 26.0341 91.5834 24.9687 91.592 23.6818V4.65909ZM5.27557 65V38.8182H15.6051C17.5909 38.8182 19.2827 39.1974 20.6804 39.956C22.0781 40.706 23.1435 41.75 23.8764 43.0881C24.6179 44.4176 24.9886 45.9517 24.9886 47.6903C24.9886 49.429 24.6136 50.9631 23.8636 52.2926C23.1136 53.6222 22.027 54.6577 20.6037 55.3991C19.1889 56.1406 17.4759 56.5114 15.4645 56.5114H8.88068V52.0753H14.5696C15.6349 52.0753 16.5128 51.892 17.2031 51.5256C17.902 51.1506 18.4219 50.6349 18.7628 49.9787C19.1122 49.3139 19.2869 48.5511 19.2869 47.6903C19.2869 46.821 19.1122 46.0625 18.7628 45.4148C18.4219 44.7585 17.902 44.2514 17.2031 43.8935C16.5043 43.527 15.6179 43.3438 14.544 43.3438H10.8111V65H5.27557ZM33.194 65.3707C31.9411 65.3707 30.8247 65.1534 29.8445 64.7188C28.8644 64.2756 28.0889 63.6236 27.5178 62.7628C26.9553 61.8935 26.6741 60.8111 26.6741 59.5156C26.6741 58.4247 26.8744 57.5085 27.2749 56.767C27.6755 56.0256 28.221 55.429 28.9113 54.9773C29.6016 54.5256 30.3857 54.1847 31.2636 53.9545C32.1499 53.7244 33.0789 53.5625 34.0505 53.4688C35.1926 53.3494 36.113 53.2386 36.8119 53.1364C37.5107 53.0256 38.0178 52.8636 38.3332 52.6506C38.6485 52.4375 38.8062 52.1222 38.8062 51.7045V51.6278C38.8062 50.8182 38.5505 50.1918 38.0391 49.7486C37.5363 49.3054 36.8204 49.0838 35.8914 49.0838C34.9113 49.0838 34.1315 49.3011 33.5519 49.7358C32.9724 50.1619 32.5889 50.6989 32.4014 51.3466L27.3644 50.9375C27.6201 49.7443 28.123 48.7131 28.873 47.8438C29.623 46.9659 30.5903 46.2926 31.7749 45.8239C32.9681 45.3466 34.3488 45.108 35.917 45.108C37.0079 45.108 38.0519 45.2358 39.0491 45.4915C40.0548 45.7472 40.9454 46.1435 41.721 46.6804C42.5051 47.2173 43.123 47.9077 43.5747 48.7514C44.0264 49.5866 44.2522 50.5881 44.2522 51.7557V65H39.0874V62.277H38.934C38.6187 62.8906 38.1968 63.4318 37.6684 63.9006C37.14 64.3608 36.5051 64.723 35.7636 64.9872C35.0221 65.2429 34.1656 65.3707 33.194 65.3707ZM34.7536 61.6122C35.5548 61.6122 36.2622 61.4545 36.8758 61.1392C37.4894 60.8153 37.971 60.3807 38.3204 59.8352C38.6698 59.2898 38.8445 58.6719 38.8445 57.9815V55.8977C38.6741 56.0085 38.4397 56.1108 38.1414 56.2045C37.8516 56.2898 37.5235 56.3707 37.157 56.4474C36.7906 56.5156 36.4241 56.5795 36.0576 56.6392C35.6911 56.6903 35.3587 56.7372 35.0605 56.7798C34.4212 56.8736 33.863 57.0227 33.3857 57.2273C32.9085 57.4318 32.5377 57.7088 32.2735 58.0582C32.0093 58.3991 31.8772 58.8253 31.8772 59.3366C31.8772 60.0781 32.1457 60.6449 32.6826 61.0369C33.2281 61.4205 33.9184 61.6122 34.7536 61.6122ZM64.4554 50.9631L59.4696 51.2699C59.3844 50.8437 59.2012 50.4602 58.9199 50.1193C58.6387 49.7699 58.2679 49.4929 57.8077 49.2884C57.356 49.0753 56.8148 48.9688 56.1841 48.9688C55.3404 48.9688 54.6287 49.1477 54.0492 49.5057C53.4696 49.8551 53.1799 50.3239 53.1799 50.9119C53.1799 51.3807 53.3674 51.777 53.7424 52.1009C54.1174 52.4247 54.7608 52.6847 55.6728 52.8807L59.2267 53.5966C61.1358 53.9886 62.5591 54.6193 63.4966 55.4886C64.4341 56.358 64.9029 57.5 64.9029 58.9148C64.9029 60.2017 64.5236 61.331 63.7651 62.3026C63.0151 63.2741 61.9838 64.0327 60.6713 64.5781C59.3674 65.1151 57.8631 65.3835 56.1586 65.3835C53.5591 65.3835 51.4881 64.8423 49.9455 63.7599C48.4114 62.669 47.5122 61.1861 47.248 59.3111L52.6046 59.0298C52.7665 59.8224 53.1586 60.4276 53.7807 60.8452C54.4029 61.2543 55.1997 61.4588 56.1713 61.4588C57.1259 61.4588 57.8929 61.2756 58.4725 60.9091C59.0605 60.5341 59.3588 60.0526 59.3674 59.4645C59.3588 58.9702 59.15 58.5653 58.7409 58.25C58.3318 57.9261 57.7012 57.679 56.8489 57.5085L53.4483 56.831C51.5307 56.4474 50.1032 55.7827 49.1657 54.8366C48.2367 53.8906 47.7722 52.6847 47.7722 51.2188C47.7722 49.9574 48.1131 48.8707 48.7949 47.9588C49.4853 47.0469 50.4526 46.3438 51.6969 45.8494C52.9497 45.3551 54.4157 45.108 56.0946 45.108C58.5747 45.108 60.5264 45.6321 61.9497 46.6804C63.3816 47.7287 64.2168 49.1562 64.4554 50.9631ZM84.3103 50.9631L79.3245 51.2699C79.2392 50.8437 79.056 50.4602 78.7748 50.1193C78.4935 49.7699 78.1228 49.4929 77.6625 49.2884C77.2108 49.0753 76.6696 48.9688 76.039 48.9688C75.1952 48.9688 74.4836 49.1477 73.904 49.5057C73.3245 49.8551 73.0347 50.3239 73.0347 50.9119C73.0347 51.3807 73.2222 51.777 73.5972 52.1009C73.9722 52.4247 74.6157 52.6847 75.5276 52.8807L79.0816 53.5966C80.9907 53.9886 82.414 54.6193 83.3515 55.4886C84.289 56.358 84.7577 57.5 84.7577 58.9148C84.7577 60.2017 84.3785 61.331 83.6199 62.3026C82.8699 63.2741 81.8387 64.0327 80.5262 64.5781C79.2222 65.1151 77.7179 65.3835 76.0134 65.3835C73.414 65.3835 71.3429 64.8423 69.8003 63.7599C68.2662 62.669 67.3671 61.1861 67.1029 59.3111L72.4594 59.0298C72.6213 59.8224 73.0134 60.4276 73.6356 60.8452C74.2577 61.2543 75.0546 61.4588 76.0262 61.4588C76.9807 61.4588 77.7478 61.2756 78.3273 60.9091C78.9154 60.5341 79.2137 60.0526 79.2222 59.4645C79.2137 58.9702 79.0049 58.5653 78.5958 58.25C78.1867 57.9261 77.556 57.679 76.7037 57.5085L73.3032 56.831C71.3856 56.4474 69.958 55.7827 69.0205 54.8366C68.0915 53.8906 67.627 52.6847 67.627 51.2188C67.627 49.9574 67.9679 48.8707 68.6498 47.9588C69.3401 47.0469 70.3074 46.3438 71.5517 45.8494C72.8046 45.3551 74.2705 45.108 75.9495 45.108C78.4296 45.108 80.3813 45.6321 81.8046 46.6804C83.2364 47.7287 84.0716 49.1562 84.3103 50.9631ZM91.7006 65L86.3569 45.3636H91.8668L94.9094 58.5568H95.0884L98.2589 45.3636H103.667L106.888 58.4801H107.054L110.046 45.3636H115.543L110.212 65H104.446L101.071 52.6506H100.828L97.4535 65H91.7006ZM126.468 65.3835C124.482 65.3835 122.765 64.9616 121.316 64.1179C119.876 63.2656 118.764 62.081 117.979 60.5639C117.195 59.0384 116.803 57.2699 116.803 55.2585C116.803 53.2301 117.195 51.4574 117.979 49.9403C118.764 48.4148 119.876 47.2301 121.316 46.3864C122.765 45.5341 124.482 45.108 126.468 45.108C128.454 45.108 130.167 45.5341 131.607 46.3864C133.056 47.2301 134.173 48.4148 134.957 49.9403C135.741 51.4574 136.133 53.2301 136.133 55.2585C136.133 57.2699 135.741 59.0384 134.957 60.5639C134.173 62.081 133.056 63.2656 131.607 64.1179C130.167 64.9616 128.454 65.3835 126.468 65.3835ZM126.494 61.1648C127.397 61.1648 128.151 60.9091 128.756 60.3977C129.362 59.8778 129.818 59.1705 130.124 58.2756C130.44 57.3807 130.597 56.3622 130.597 55.2202C130.597 54.0781 130.44 53.0597 130.124 52.1648C129.818 51.2699 129.362 50.5625 128.756 50.0426C128.151 49.5227 127.397 49.2628 126.494 49.2628C125.582 49.2628 124.815 49.5227 124.193 50.0426C123.579 50.5625 123.114 51.2699 122.799 52.1648C122.492 53.0597 122.339 54.0781 122.339 55.2202C122.339 56.3622 122.492 57.3807 122.799 58.2756C123.114 59.1705 123.579 59.8778 124.193 60.3977C124.815 60.9091 125.582 61.1648 126.494 61.1648ZM139.314 65V45.3636H144.594V48.7898H144.798C145.156 47.571 145.757 46.6506 146.601 46.0284C147.445 45.3977 148.416 45.0824 149.516 45.0824C149.789 45.0824 150.083 45.0994 150.398 45.1335C150.713 45.1676 150.99 45.2145 151.229 45.2741V50.1065C150.973 50.0298 150.619 49.9616 150.168 49.902C149.716 49.8423 149.303 49.8125 148.928 49.8125C148.127 49.8125 147.411 49.9872 146.78 50.3366C146.158 50.6776 145.664 51.1548 145.297 51.7685C144.939 52.3821 144.76 53.0895 144.76 53.8906V65H139.314ZM160.006 65.3196C158.515 65.3196 157.164 64.9361 155.954 64.169C154.752 63.3935 153.797 62.2557 153.09 60.7557C152.391 59.2472 152.042 57.3977 152.042 55.2074C152.042 52.9574 152.404 51.0866 153.128 49.5952C153.853 48.0952 154.816 46.9744 156.018 46.233C157.228 45.483 158.553 45.108 159.993 45.108C161.093 45.108 162.009 45.2955 162.742 45.6705C163.484 46.0369 164.08 46.4972 164.532 47.0511C164.992 47.5966 165.342 48.1335 165.58 48.6619H165.746V38.8182H171.18V65H165.81V61.8551H165.58C165.324 62.4006 164.962 62.9418 164.493 63.4787C164.033 64.0071 163.432 64.446 162.691 64.7955C161.958 65.1449 161.063 65.3196 160.006 65.3196ZM161.732 60.9858C162.61 60.9858 163.351 60.7472 163.957 60.2699C164.57 59.7841 165.039 59.1065 165.363 58.2372C165.695 57.3679 165.861 56.3494 165.861 55.1818C165.861 54.0142 165.699 53 165.376 52.1392C165.052 51.2784 164.583 50.6136 163.969 50.1449C163.356 49.6761 162.61 49.4418 161.732 49.4418C160.837 49.4418 160.083 49.6847 159.469 50.1705C158.856 50.6562 158.391 51.3295 158.076 52.1903C157.761 53.0511 157.603 54.0483 157.603 55.1818C157.603 56.3239 157.761 57.3338 158.076 58.2116C158.4 59.081 158.864 59.7628 159.469 60.2571C160.083 60.7429 160.837 60.9858 161.732 60.9858Z" fill="url(#paint0_linear_1_2763)"/>
</g>
<defs>
<filter id="filter0_dii_1_2763" x="0.812763" y="0.140429" width="174.83" height="71.4911" filterUnits="userSpaceOnUse" color-interpolation-filters="sRGB">
<feFlood flood-opacity="0" result="BackgroundImageFix"/>
<feColorMatrix in="SourceAlpha" type="matrix" values="0 0 0 0 0 0 0 0 0 0 0 0 0 0 0 0 0 0 127 0" result="hardAlpha"/>
<feOffset dy="1.78512"/>
<feGaussianBlur stdDeviation="2.23141"/>
<feComposite in2="hardAlpha" operator="out"/>
<feColorMatrix type="matrix" values="0 0 0 0 0 0 0 0 0 0 0 0 0 0 0 0 0 0 0.17 0"/>
<feBlend mode="normal" in2="BackgroundImageFix" result="effect1_dropShadow_1_2763"/>
<feBlend mode="normal" in="SourceGraphic" in2="effect1_dropShadow_1_2763" result="shape"/>
<feColorMatrix in="SourceAlpha" type="matrix" values="0 0 0 0 0 0 0 0 0 0 0 0 0 0 0 0 0 0 127 0" result="hardAlpha"/>
<feMorphology radius="1" operator="erode" in="SourceAlpha" result="effect2_innerShadow_1_2763"/>
<feOffset dy="-1.33884"/>
<feComposite in2="hardAlpha" operator="arithmetic" k2="-1" k3="1"/>
<feColorMatrix type="matrix" values="0 0 0 0 0 0 0 0 0 0 0 0 0 0 0 0 0 0 0.1 0"/>
<feBlend mode="normal" in2="shape" result="effect2_innerShadow_1_2763"/>
<feColorMatrix in="SourceAlpha" type="matrix" values="0 0 0 0 0 0 0 0 0 0 0 0 0 0 0 0 0 0 127 0" result="hardAlpha"/>
<feOffset dy="0.892562"/>
<feComposite in2="hardAlpha" operator="arithmetic" k2="-1" k3="1"/>
<feColorMatrix type="matrix" values="0 0 0 0 1 0 0 0 0 1 0 0 0 0 1 0 0 0 0.18 0"/>
<feBlend mode="normal" in2="effect2_innerShadow_1_2763" result="effect3_innerShadow_1_2763"/>
</filter>
<linearGradient id="paint0_linear_1_2763" x1="115.5" y1="-2" x2="115.5" y2="70" gradientUnits="userSpaceOnUse">
<stop stop-color="#4318FF"/>
<stop offset="1" stop-color="#7F5DFF"/>
</linearGradient>
</defs>
</svg>
