<svg width="391" height="38" viewBox="0 0 391 38" fill="none" xmlns="http://www.w3.org/2000/svg">
<g filter="url(#filter0_dii_1_337)">
<path d="M10.7883 31H4.85653L13.8949 4.81818H21.0284L30.054 31H24.1222L17.5639 10.8011H17.3594L10.7883 31ZM10.4176 20.7088H24.429V25.0298H10.4176V20.7088ZM45.3353 22.6392V11.3636H50.7813V31H45.5526V27.4332H45.3481C44.9049 28.5838 44.1677 29.5085 43.1364 30.2074C42.1137 30.9062 40.8651 31.2557 39.3907 31.2557C38.0782 31.2557 36.9234 30.9574 35.9262 30.3608C34.9291 29.7642 34.1492 28.9162 33.5867 27.8168C33.0327 26.7173 32.7515 25.4006 32.743 23.8665V11.3636H38.189V22.8949C38.1975 24.054 38.5086 24.9702 39.1222 25.6435C39.7359 26.3168 40.5583 26.6534 41.5896 26.6534C42.2458 26.6534 42.8595 26.5043 43.4305 26.206C44.0015 25.8991 44.4617 25.4474 44.8112 24.8508C45.1691 24.2543 45.3438 23.517 45.3353 22.6392ZM65.2221 11.3636V15.4545H53.3968V11.3636H65.2221ZM56.0815 6.65909H61.5275V24.9659C61.5275 25.4687 61.6042 25.8608 61.7576 26.142C61.911 26.4148 62.1241 26.6065 62.3968 26.7173C62.6781 26.8281 63.0019 26.8835 63.3684 26.8835C63.6241 26.8835 63.8798 26.8622 64.1355 26.8196C64.3911 26.7685 64.5872 26.7301 64.7235 26.7045L65.5801 30.7571C65.3073 30.8423 64.9238 30.9403 64.4295 31.0511C63.9352 31.1705 63.3343 31.2429 62.6269 31.2685C61.3144 31.3196 60.1639 31.1449 59.1752 30.7443C58.1951 30.3437 57.4323 29.7216 56.8869 28.8778C56.3414 28.0341 56.073 26.9687 56.0815 25.6818V6.65909ZM74.2776 19.6477V31H68.8316V4.81818H74.1242V14.8281H74.3543C74.7975 13.669 75.5134 12.7614 76.502 12.1051C77.4907 11.4403 78.7307 11.108 80.2222 11.108C81.5858 11.108 82.7748 11.4062 83.789 12.0028C84.8117 12.5909 85.6043 13.4389 86.1668 14.5469C86.7378 15.6463 87.0191 16.9631 87.0105 18.4972V31H81.5645V19.4687C81.573 18.2585 81.2662 17.3168 80.6441 16.6435C80.0304 15.9702 79.1696 15.6335 78.0617 15.6335C77.3202 15.6335 76.664 15.7912 76.0929 16.1065C75.5304 16.4219 75.0873 16.8821 74.7634 17.4872C74.448 18.0838 74.2861 18.804 74.2776 19.6477ZM99.8086 31.3835C97.8228 31.3835 96.1054 30.9616 94.6566 30.1179C93.2162 29.2656 92.104 28.081 91.3199 26.5639C90.5358 25.0383 90.1438 23.2699 90.1438 21.2585C90.1438 19.2301 90.5358 17.4574 91.3199 15.9403C92.104 14.4148 93.2162 13.2301 94.6566 12.3864C96.1054 11.5341 97.8228 11.108 99.8086 11.108C101.794 11.108 103.507 11.5341 104.948 12.3864C106.397 13.2301 107.513 14.4148 108.297 15.9403C109.081 17.4574 109.473 19.2301 109.473 21.2585C109.473 23.2699 109.081 25.0383 108.297 26.5639C107.513 28.081 106.397 29.2656 104.948 30.1179C103.507 30.9616 101.794 31.3835 99.8086 31.3835ZM99.8341 27.1648C100.738 27.1648 101.492 26.9091 102.097 26.3977C102.702 25.8778 103.158 25.1705 103.465 24.2756C103.78 23.3807 103.938 22.3622 103.938 21.2202C103.938 20.0781 103.78 19.0597 103.465 18.1648C103.158 17.2699 102.702 16.5625 102.097 16.0426C101.492 15.5227 100.738 15.2628 99.8341 15.2628C98.9222 15.2628 98.1552 15.5227 97.533 16.0426C96.9194 16.5625 96.4549 17.2699 96.1395 18.1648C95.8327 19.0597 95.6793 20.0781 95.6793 21.2202C95.6793 22.3622 95.8327 23.3807 96.1395 24.2756C96.4549 25.1705 96.9194 25.8778 97.533 26.3977C98.1552 26.9091 98.9222 27.1648 99.8341 27.1648ZM112.655 31V11.3636H117.934V14.7898H118.139C118.497 13.571 119.098 12.6506 119.941 12.0284C120.785 11.3977 121.757 11.0824 122.856 11.0824C123.129 11.0824 123.423 11.0994 123.738 11.1335C124.054 11.1676 124.331 11.2145 124.569 11.2741V16.1065C124.314 16.0298 123.96 15.9616 123.508 15.902C123.057 15.8423 122.643 15.8125 122.268 15.8125C121.467 15.8125 120.751 15.9872 120.12 16.3366C119.498 16.6776 119.004 17.1548 118.637 17.7685C118.28 18.3821 118.101 19.0895 118.101 19.8906V31H112.655ZM127.025 31V11.3636H132.471V31H127.025ZM129.761 8.83238C128.951 8.83238 128.257 8.56392 127.677 8.02698C127.106 7.48153 126.82 6.82954 126.82 6.07102C126.82 5.32102 127.106 4.67755 127.677 4.14062C128.257 3.59517 128.951 3.32244 129.761 3.32244C130.57 3.32244 131.261 3.59517 131.832 4.14062C132.411 4.67755 132.701 5.32102 132.701 6.07102C132.701 6.82954 132.411 7.48153 131.832 8.02698C131.261 8.56392 130.57 8.83238 129.761 8.83238ZM136.371 31V27.7528L145.985 15.8508V15.7102H136.704V11.3636H152.543V14.9048L143.518 26.5128V26.6534H152.876V31H136.371ZM165.066 31.3835C163.046 31.3835 161.308 30.9744 159.85 30.1562C158.402 29.3295 157.285 28.1619 156.501 26.6534C155.717 25.1364 155.325 23.3423 155.325 21.2713C155.325 19.2514 155.717 17.4787 156.501 15.9531C157.285 14.4276 158.389 13.2386 159.812 12.3864C161.244 11.5341 162.923 11.108 164.849 11.108C166.144 11.108 167.35 11.3168 168.467 11.7344C169.592 12.1435 170.572 12.7614 171.407 13.5881C172.251 14.4148 172.907 15.4545 173.376 16.7074C173.845 17.9517 174.079 19.4091 174.079 21.0795V22.5753H157.498V19.2003H168.953C168.953 18.4162 168.782 17.7216 168.441 17.1165C168.1 16.5114 167.627 16.0383 167.022 15.6974C166.426 15.348 165.731 15.1733 164.939 15.1733C164.112 15.1733 163.379 15.3651 162.74 15.7486C162.109 16.1236 161.615 16.6307 161.257 17.2699C160.899 17.9006 160.716 18.6037 160.707 19.3793V22.5881C160.707 23.5597 160.886 24.3991 161.244 25.1065C161.61 25.8139 162.126 26.3594 162.791 26.7429C163.456 27.1264 164.244 27.3182 165.156 27.3182C165.761 27.3182 166.315 27.233 166.818 27.0625C167.321 26.892 167.751 26.6364 168.109 26.2955C168.467 25.9545 168.74 25.5369 168.927 25.0426L173.964 25.375C173.708 26.5852 173.184 27.642 172.392 28.5455C171.608 29.4403 170.593 30.1392 169.349 30.642C168.113 31.1364 166.686 31.3835 165.066 31.3835ZM207.247 4.81818V31H202.465L191.075 14.5213H190.883V31H185.347V4.81818H190.205L201.507 21.2841H201.737V4.81818H207.247ZM220.307 31.3835C218.287 31.3835 216.548 30.9744 215.091 30.1562C213.642 29.3295 212.525 28.1619 211.741 26.6534C210.957 25.1364 210.565 23.3423 210.565 21.2713C210.565 19.2514 210.957 17.4787 211.741 15.9531C212.525 14.4276 213.629 13.2386 215.052 12.3864C216.484 11.5341 218.163 11.108 220.089 11.108C221.385 11.108 222.591 11.3168 223.707 11.7344C224.832 12.1435 225.812 12.7614 226.648 13.5881C227.491 14.4148 228.148 15.4545 228.616 16.7074C229.085 17.9517 229.319 19.4091 229.319 21.0795V22.5753H212.738V19.2003H224.193C224.193 18.4162 224.023 17.7216 223.682 17.1165C223.341 16.5114 222.868 16.0383 222.263 15.6974C221.666 15.348 220.971 15.1733 220.179 15.1733C219.352 15.1733 218.619 15.3651 217.98 15.7486C217.349 16.1236 216.855 16.6307 216.497 17.2699C216.139 17.9006 215.956 18.6037 215.947 19.3793V22.5881C215.947 23.5597 216.126 24.3991 216.484 25.1065C216.851 25.8139 217.366 26.3594 218.031 26.7429C218.696 27.1264 219.484 27.3182 220.396 27.3182C221.001 27.3182 221.555 27.233 222.058 27.0625C222.561 26.892 222.991 26.6364 223.349 26.2955C223.707 25.9545 223.98 25.5369 224.167 25.0426L229.204 25.375C228.949 26.5852 228.425 27.642 227.632 28.5455C226.848 29.4403 225.834 30.1392 224.589 30.642C223.354 31.1364 221.926 31.3835 220.307 31.3835ZM236.246 31L230.903 11.3636H236.413L239.455 24.5568H239.634L242.805 11.3636H248.212L251.434 24.4801H251.6L254.592 11.3636H260.089L254.758 31H248.992L245.617 18.6506H245.374L241.999 31H236.246ZM279.989 31H270.708V4.81818H280.066C282.7 4.81818 284.967 5.34233 286.867 6.39062C288.768 7.43039 290.23 8.92613 291.252 10.8778C292.283 12.8295 292.799 15.1648 292.799 17.8835C292.799 20.6108 292.283 22.9545 291.252 24.9148C290.23 26.875 288.759 28.3793 286.842 29.4276C284.933 30.4758 282.649 31 279.989 31ZM276.244 26.2571H279.759C281.396 26.2571 282.772 25.9673 283.889 25.3878C285.014 24.7997 285.857 23.892 286.42 22.6648C286.991 21.429 287.276 19.8352 287.276 17.8835C287.276 15.9489 286.991 14.3679 286.42 13.1406C285.857 11.9133 285.018 11.0099 283.901 10.4304C282.785 9.85085 281.408 9.56108 279.772 9.56108H276.244V26.2571ZM305.386 31.3835C303.366 31.3835 301.628 30.9744 300.17 30.1562C298.721 29.3295 297.605 28.1619 296.821 26.6534C296.037 25.1364 295.645 23.3423 295.645 21.2713C295.645 19.2514 296.037 17.4787 296.821 15.9531C297.605 14.4276 298.709 13.2386 300.132 12.3864C301.564 11.5341 303.243 11.108 305.169 11.108C306.464 11.108 307.67 11.3168 308.787 11.7344C309.912 12.1435 310.892 12.7614 311.727 13.5881C312.571 14.4148 313.227 15.4545 313.696 16.7074C314.165 17.9517 314.399 19.4091 314.399 21.0795V22.5753H297.818V19.2003H309.273C309.273 18.4162 309.102 17.7216 308.761 17.1165C308.42 16.5114 307.947 16.0383 307.342 15.6974C306.746 15.348 306.051 15.1733 305.258 15.1733C304.432 15.1733 303.699 15.3651 303.06 15.7486C302.429 16.1236 301.935 16.6307 301.577 17.2699C301.219 17.9006 301.035 18.6037 301.027 19.3793V22.5881C301.027 23.5597 301.206 24.3991 301.564 25.1065C301.93 25.8139 302.446 26.3594 303.111 26.7429C303.775 27.1264 304.564 27.3182 305.476 27.3182C306.081 27.3182 306.635 27.233 307.138 27.0625C307.64 26.892 308.071 26.6364 308.429 26.2955C308.787 25.9545 309.06 25.5369 309.247 25.0426L314.284 25.375C314.028 26.5852 313.504 27.642 312.712 28.5455C311.927 29.4403 310.913 30.1392 309.669 30.642C308.433 31.1364 307.006 31.3835 305.386 31.3835ZM335.372 11.3636L328.507 31H322.371L315.506 11.3636H321.259L325.337 25.4133H325.541L329.607 11.3636H335.372ZM337.799 31V11.3636H343.245V31H337.799ZM340.535 8.83238C339.726 8.83238 339.031 8.56392 338.451 8.02698C337.88 7.48153 337.595 6.82954 337.595 6.07102C337.595 5.32102 337.88 4.67755 338.451 4.14062C339.031 3.59517 339.726 3.32244 340.535 3.32244C341.345 3.32244 342.035 3.59517 342.606 4.14062C343.186 4.67755 343.476 5.32102 343.476 6.07102C343.476 6.82954 343.186 7.48153 342.606 8.02698C342.035 8.56392 341.345 8.83238 340.535 8.83238ZM356.12 31.3835C354.109 31.3835 352.379 30.9574 350.93 30.1051C349.489 29.2443 348.381 28.0511 347.606 26.5256C346.839 25 346.455 23.2443 346.455 21.2585C346.455 19.2472 346.843 17.483 347.619 15.9659C348.403 14.4403 349.515 13.2514 350.955 12.3991C352.396 11.5383 354.109 11.108 356.095 11.108C357.808 11.108 359.308 11.419 360.595 12.0412C361.881 12.6633 362.9 13.5369 363.65 14.6619C364.4 15.7869 364.813 17.108 364.89 18.625H359.751C359.606 17.6449 359.222 16.8565 358.6 16.2599C357.987 15.6548 357.181 15.3523 356.184 15.3523C355.34 15.3523 354.603 15.5824 353.972 16.0426C353.35 16.4943 352.864 17.1548 352.515 18.0241C352.166 18.8935 351.991 19.946 351.991 21.1818C351.991 22.4347 352.161 23.5 352.502 24.3778C352.852 25.2557 353.342 25.9247 353.972 26.3849C354.603 26.8452 355.34 27.0753 356.184 27.0753C356.806 27.0753 357.364 26.9474 357.859 26.6918C358.362 26.4361 358.775 26.0653 359.099 25.5795C359.431 25.0852 359.649 24.4929 359.751 23.8026H364.89C364.805 25.3026 364.396 26.6236 363.663 27.7656C362.938 28.8991 361.937 29.7855 360.658 30.4247C359.38 31.0639 357.867 31.3835 356.12 31.3835ZM376.966 31.3835C374.946 31.3835 373.207 30.9744 371.75 30.1562C370.301 29.3295 369.185 28.1619 368.4 26.6534C367.616 25.1364 367.224 23.3423 367.224 21.2713C367.224 19.2514 367.616 17.4787 368.4 15.9531C369.185 14.4276 370.288 13.2386 371.711 12.3864C373.143 11.5341 374.822 11.108 376.748 11.108C378.044 11.108 379.25 11.3168 380.366 11.7344C381.491 12.1435 382.471 12.7614 383.307 13.5881C384.15 14.4148 384.807 15.4545 385.275 16.7074C385.744 17.9517 385.979 19.4091 385.979 21.0795V22.5753H369.398V19.2003H380.852C380.852 18.4162 380.682 17.7216 380.341 17.1165C380 16.5114 379.527 16.0383 378.922 15.6974C378.325 15.348 377.631 15.1733 376.838 15.1733C376.011 15.1733 375.278 15.3651 374.639 15.7486C374.008 16.1236 373.514 16.6307 373.156 17.2699C372.798 17.9006 372.615 18.6037 372.606 19.3793V22.5881C372.606 23.5597 372.785 24.3991 373.143 25.1065C373.51 25.8139 374.025 26.3594 374.69 26.7429C375.355 27.1264 376.143 27.3182 377.055 27.3182C377.66 27.3182 378.214 27.233 378.717 27.0625C379.22 26.892 379.65 26.6364 380.008 26.2955C380.366 25.9545 380.639 25.5369 380.827 25.0426L385.863 25.375C385.608 26.5852 385.084 27.642 384.291 28.5455C383.507 29.4403 382.493 30.1392 381.248 30.642C380.013 31.1364 378.585 31.3835 376.966 31.3835Z" fill="url(#paint0_linear_1_337)"/>
</g>
<defs>
<filter id="filter0_dii_1_337" x="0.393718" y="0.644752" width="390.048" height="36.9867" filterUnits="userSpaceOnUse" color-interpolation-filters="sRGB">
<feFlood flood-opacity="0" result="BackgroundImageFix"/>
<feColorMatrix in="SourceAlpha" type="matrix" values="0 0 0 0 0 0 0 0 0 0 0 0 0 0 0 0 0 0 127 0" result="hardAlpha"/>
<feOffset dy="1.78512"/>
<feGaussianBlur stdDeviation="2.23141"/>
<feComposite in2="hardAlpha" operator="out"/>
<feColorMatrix type="matrix" values="0 0 0 0 0 0 0 0 0 0 0 0 0 0 0 0 0 0 0.17 0"/>
<feBlend mode="normal" in2="BackgroundImageFix" result="effect1_dropShadow_1_337"/>
<feBlend mode="normal" in="SourceGraphic" in2="effect1_dropShadow_1_337" result="shape"/>
<feColorMatrix in="SourceAlpha" type="matrix" values="0 0 0 0 0 0 0 0 0 0 0 0 0 0 0 0 0 0 127 0" result="hardAlpha"/>
<feMorphology radius="1" operator="erode" in="SourceAlpha" result="effect2_innerShadow_1_337"/>
<feOffset dy="-1.33884"/>
<feComposite in2="hardAlpha" operator="arithmetic" k2="-1" k3="1"/>
<feColorMatrix type="matrix" values="0 0 0 0 0 0 0 0 0 0 0 0 0 0 0 0 0 0 0.1 0"/>
<feBlend mode="normal" in2="shape" result="effect2_innerShadow_1_337"/>
<feColorMatrix in="SourceAlpha" type="matrix" values="0 0 0 0 0 0 0 0 0 0 0 0 0 0 0 0 0 0 127 0" result="hardAlpha"/>
<feOffset dy="0.892562"/>
<feComposite in2="hardAlpha" operator="arithmetic" k2="-1" k3="1"/>
<feColorMatrix type="matrix" values="0 0 0 0 1 0 0 0 0 1 0 0 0 0 1 0 0 0 0.18 0"/>
<feBlend mode="normal" in2="effect2_innerShadow_1_337" result="effect3_innerShadow_1_337"/>
</filter>
<linearGradient id="paint0_linear_1_337" x1="208.5" y1="-3.8147e-06" x2="208.5" y2="36" gradientUnits="userSpaceOnUse">
<stop stop-color="#4318FF"/>
<stop offset="1" stop-color="#7F5DFF"/>
</linearGradient>
</defs>
</svg>
