<svg width="244" height="76" viewBox="0 0 244 76" fill="none" xmlns="http://www.w3.org/2000/svg">
<g filter="url(#filter0_ii_1_371)">
<g filter="url(#filter1_d_1_371)">
<rect x="18" y="14" width="208" height="40" rx="6" fill="url(#paint0_linear_1_371)"/>
<path d="M41.864 39L45.476 29.2H47.1L50.684 39H49.116L48.276 36.606H44.272L43.432 39H41.864ZM44.692 35.43H47.856L46.274 30.964L44.692 35.43ZM54.4062 39.168C53.5662 39.168 52.9036 38.9066 52.4182 38.384C51.9422 37.8613 51.7042 37.082 51.7042 36.046V32.056H53.1882V35.892C53.1882 37.236 53.7389 37.908 54.8402 37.908C55.3909 37.908 55.8436 37.712 56.1982 37.32C56.5529 36.928 56.7302 36.368 56.7302 35.64V32.056H58.2142V39H56.8982L56.7862 37.782C56.5716 38.2113 56.2542 38.552 55.8342 38.804C55.4236 39.0466 54.9476 39.168 54.4062 39.168ZM63.014 39C62.3327 39 61.7914 38.8366 61.39 38.51C60.9887 38.174 60.788 37.5813 60.788 36.732V33.302H59.598V32.056H60.788L60.97 30.292H62.272V32.056H64.232V33.302H62.272V36.732C62.272 37.1146 62.3514 37.3806 62.51 37.53C62.678 37.67 62.9627 37.74 63.364 37.74H64.162V39H63.014ZM65.7622 39V28.92H67.2462V33.176C67.4795 32.7746 67.8015 32.462 68.2122 32.238C68.6322 32.0046 69.0942 31.888 69.5982 31.888C70.4289 31.888 71.0822 32.1493 71.5582 32.672C72.0342 33.1946 72.2722 33.974 72.2722 35.01V39H70.8022V35.164C70.8022 33.82 70.2655 33.148 69.1922 33.148C68.6322 33.148 68.1655 33.344 67.7922 33.736C67.4282 34.128 67.2462 34.688 67.2462 35.416V39H65.7622ZM77.268 39.168C76.6053 39.168 76.008 39.0186 75.476 38.72C74.9533 38.412 74.538 37.9873 74.23 37.446C73.922 36.8953 73.768 36.256 73.768 35.528C73.768 34.8 73.922 34.1653 74.23 33.624C74.5473 33.0733 74.972 32.6486 75.504 32.35C76.036 32.042 76.6287 31.888 77.282 31.888C77.9447 31.888 78.5373 32.042 79.06 32.35C79.592 32.6486 80.012 33.0733 80.32 33.624C80.6373 34.1653 80.796 34.8 80.796 35.528C80.796 36.256 80.6373 36.8953 80.32 37.446C80.012 37.9873 79.592 38.412 79.06 38.72C78.528 39.0186 77.9307 39.168 77.268 39.168ZM77.268 37.894C77.6227 37.894 77.9493 37.8053 78.248 37.628C78.556 37.4506 78.8033 37.1893 78.99 36.844C79.1767 36.4893 79.27 36.0506 79.27 35.528C79.27 35.0053 79.1767 34.5713 78.99 34.226C78.8127 33.8713 78.57 33.6053 78.262 33.428C77.9633 33.2506 77.6367 33.162 77.282 33.162C76.9273 33.162 76.596 33.2506 76.288 33.428C75.9893 33.6053 75.7467 33.8713 75.56 34.226C75.3733 34.5713 75.28 35.0053 75.28 35.528C75.28 36.0506 75.3733 36.4893 75.56 36.844C75.7467 37.1893 75.9893 37.4506 76.288 37.628C76.5867 37.8053 76.9133 37.894 77.268 37.894ZM82.4009 39V32.056H83.7309L83.8569 33.372C84.0995 32.9146 84.4355 32.5553 84.8649 32.294C85.3035 32.0233 85.8309 31.888 86.4469 31.888V33.442H86.0409C85.6302 33.442 85.2615 33.512 84.9349 33.652C84.6175 33.7826 84.3609 34.0113 84.1649 34.338C83.9782 34.6553 83.8849 35.0986 83.8849 35.668V39H82.4009ZM88.5592 30.74C88.2792 30.74 88.0459 30.656 87.8592 30.488C87.6819 30.3106 87.5932 30.0913 87.5932 29.83C87.5932 29.5686 87.6819 29.354 87.8592 29.186C88.0459 29.0086 88.2792 28.92 88.5592 28.92C88.8392 28.92 89.0679 29.0086 89.2452 29.186C89.4319 29.354 89.5252 29.5686 89.5252 29.83C89.5252 30.0913 89.4319 30.3106 89.2452 30.488C89.0679 30.656 88.8392 30.74 88.5592 30.74ZM87.8172 39V32.056H89.3012V39H87.8172ZM90.7982 39V37.796L94.5082 33.288H90.8542V32.056H96.1882V33.26L92.4502 37.768H96.2582V39H90.7982ZM101.03 39.168C100.348 39.168 99.7417 39.0186 99.2097 38.72C98.6871 38.412 98.2764 37.9873 97.9777 37.446C97.6791 36.9046 97.5297 36.2746 97.5297 35.556C97.5297 34.828 97.6744 34.1886 97.9637 33.638C98.2624 33.0873 98.6731 32.658 99.1957 32.35C99.7277 32.042 100.344 31.888 101.044 31.888C101.725 31.888 102.318 32.042 102.822 32.35C103.326 32.6486 103.718 33.05 103.998 33.554C104.278 34.058 104.418 34.6133 104.418 35.22C104.418 35.3133 104.413 35.416 104.404 35.528C104.404 35.6306 104.399 35.7473 104.39 35.878H98.9857C99.0324 36.55 99.2517 37.0633 99.6437 37.418C100.045 37.7633 100.507 37.936 101.03 37.936C101.45 37.936 101.8 37.8426 102.08 37.656C102.369 37.46 102.584 37.1986 102.724 36.872H104.208C104.021 37.5253 103.648 38.0713 103.088 38.51C102.537 38.9486 101.851 39.168 101.03 39.168ZM101.03 33.106C100.535 33.106 100.096 33.2553 99.7137 33.554C99.3311 33.8433 99.0977 34.282 99.0137 34.87H102.934C102.906 34.3286 102.714 33.8993 102.36 33.582C102.005 33.2646 101.562 33.106 101.03 33.106ZM112.397 39C111.716 39 111.174 38.8366 110.773 38.51C110.372 38.174 110.171 37.5813 110.171 36.732V33.302H108.981V32.056H110.171L110.353 30.292H111.655V32.056H113.615V33.302H111.655V36.732C111.655 37.1146 111.734 37.3806 111.893 37.53C112.061 37.67 112.346 37.74 112.747 37.74H113.545V39H112.397ZM115.145 39V28.92H116.629V33.176C116.862 32.7746 117.184 32.462 117.595 32.238C118.015 32.0046 118.477 31.888 118.981 31.888C119.812 31.888 120.465 32.1493 120.941 32.672C121.417 33.1946 121.655 33.974 121.655 35.01V39H120.185V35.164C120.185 33.82 119.648 33.148 118.575 33.148C118.015 33.148 117.548 33.344 117.175 33.736C116.811 34.128 116.629 34.688 116.629 35.416V39H115.145ZM124.243 30.74C123.963 30.74 123.729 30.656 123.543 30.488C123.365 30.3106 123.277 30.0913 123.277 29.83C123.277 29.5686 123.365 29.354 123.543 29.186C123.729 29.0086 123.963 28.92 124.243 28.92C124.523 28.92 124.751 29.0086 124.929 29.186C125.115 29.354 125.209 29.5686 125.209 29.83C125.209 30.0913 125.115 30.3106 124.929 30.488C124.751 30.656 124.523 30.74 124.243 30.74ZM123.501 39V32.056H124.985V39H123.501ZM129.716 39.168C128.838 39.168 128.115 38.9533 127.546 38.524C126.976 38.0946 126.65 37.5253 126.566 36.816H128.064C128.138 37.1333 128.316 37.4086 128.596 37.642C128.876 37.866 129.244 37.978 129.702 37.978C130.15 37.978 130.476 37.8846 130.682 37.698C130.887 37.5113 130.99 37.2966 130.99 37.054C130.99 36.6993 130.845 36.4613 130.556 36.34C130.276 36.2093 129.884 36.0926 129.38 35.99C128.988 35.906 128.596 35.794 128.204 35.654C127.821 35.514 127.499 35.318 127.238 35.066C126.986 34.8046 126.86 34.4546 126.86 34.016C126.86 33.4093 127.093 32.9053 127.56 32.504C128.026 32.0933 128.68 31.888 129.52 31.888C130.294 31.888 130.92 32.0746 131.396 32.448C131.881 32.8213 132.166 33.3486 132.25 34.03H130.822C130.775 33.7313 130.635 33.498 130.402 33.33C130.178 33.162 129.874 33.078 129.492 33.078C129.118 33.078 128.829 33.1573 128.624 33.316C128.418 33.4653 128.316 33.6613 128.316 33.904C128.316 34.1466 128.456 34.338 128.736 34.478C129.025 34.618 129.403 34.744 129.87 34.856C130.336 34.9586 130.766 35.08 131.158 35.22C131.559 35.3506 131.881 35.5466 132.124 35.808C132.366 36.0693 132.488 36.452 132.488 36.956C132.497 37.5906 132.25 38.118 131.746 38.538C131.251 38.958 130.574 39.168 129.716 39.168ZM140.925 39.168C140.244 39.168 139.633 39.014 139.091 38.706C138.559 38.398 138.139 37.9733 137.831 37.432C137.533 36.8813 137.383 36.2466 137.383 35.528C137.383 34.8093 137.533 34.1793 137.831 33.638C138.139 33.0873 138.559 32.658 139.091 32.35C139.633 32.042 140.244 31.888 140.925 31.888C141.784 31.888 142.503 32.112 143.081 32.56C143.669 33.008 144.047 33.6146 144.215 34.38H142.661C142.568 33.9973 142.363 33.6986 142.045 33.484C141.728 33.2693 141.355 33.162 140.925 33.162C140.561 33.162 140.225 33.2553 139.917 33.442C139.609 33.6193 139.362 33.8853 139.175 34.24C138.989 34.5853 138.895 35.0146 138.895 35.528C138.895 36.0413 138.989 36.4753 139.175 36.83C139.362 37.1753 139.609 37.4413 139.917 37.628C140.225 37.8146 140.561 37.908 140.925 37.908C141.355 37.908 141.728 37.8006 142.045 37.586C142.363 37.3713 142.568 37.068 142.661 36.676H144.215C144.057 37.4226 143.683 38.0246 143.095 38.482C142.507 38.9393 141.784 39.168 140.925 39.168ZM149.073 39.168C148.41 39.168 147.813 39.0186 147.281 38.72C146.758 38.412 146.343 37.9873 146.035 37.446C145.727 36.8953 145.573 36.256 145.573 35.528C145.573 34.8 145.727 34.1653 146.035 33.624C146.352 33.0733 146.777 32.6486 147.309 32.35C147.841 32.042 148.433 31.888 149.087 31.888C149.749 31.888 150.342 32.042 150.865 32.35C151.397 32.6486 151.817 33.0733 152.125 33.624C152.442 34.1653 152.601 34.8 152.601 35.528C152.601 36.256 152.442 36.8953 152.125 37.446C151.817 37.9873 151.397 38.412 150.865 38.72C150.333 39.0186 149.735 39.168 149.073 39.168ZM149.073 37.894C149.427 37.894 149.754 37.8053 150.053 37.628C150.361 37.4506 150.608 37.1893 150.795 36.844C150.981 36.4893 151.075 36.0506 151.075 35.528C151.075 35.0053 150.981 34.5713 150.795 34.226C150.617 33.8713 150.375 33.6053 150.067 33.428C149.768 33.2506 149.441 33.162 149.087 33.162C148.732 33.162 148.401 33.2506 148.093 33.428C147.794 33.6053 147.551 33.8713 147.365 34.226C147.178 34.5713 147.085 35.0053 147.085 35.528C147.085 36.0506 147.178 36.4893 147.365 36.844C147.551 37.1893 147.794 37.4506 148.093 37.628C148.391 37.8053 148.718 37.894 149.073 37.894ZM154.206 39V32.056H155.522L155.648 33.036C155.872 32.6813 156.166 32.4013 156.53 32.196C156.903 31.9906 157.332 31.888 157.818 31.888C158.919 31.888 159.684 32.322 160.114 33.19C160.366 32.7886 160.702 32.4713 161.122 32.238C161.551 32.0046 162.013 31.888 162.508 31.888C163.376 31.888 164.057 32.1493 164.552 32.672C165.046 33.1946 165.294 33.974 165.294 35.01V39H163.81V35.164C163.81 33.82 163.296 33.148 162.27 33.148C161.747 33.148 161.318 33.344 160.982 33.736C160.655 34.128 160.492 34.688 160.492 35.416V39H159.008V35.164C159.008 33.82 158.49 33.148 157.454 33.148C156.94 33.148 156.516 33.344 156.18 33.736C155.853 34.128 155.69 34.688 155.69 35.416V39H154.206ZM167.03 42.08V32.056H168.36L168.514 33.134C168.738 32.8073 169.046 32.518 169.438 32.266C169.83 32.014 170.334 31.888 170.95 31.888C171.622 31.888 172.214 32.0466 172.728 32.364C173.241 32.6813 173.642 33.1153 173.932 33.666C174.23 34.2166 174.38 34.842 174.38 35.542C174.38 36.242 174.23 36.8673 173.932 37.418C173.642 37.9593 173.241 38.3886 172.728 38.706C172.214 39.014 171.617 39.168 170.936 39.168C170.394 39.168 169.914 39.0606 169.494 38.846C169.083 38.6313 168.756 38.328 168.514 37.936V42.08H167.03ZM170.684 37.88C171.318 37.88 171.841 37.6653 172.252 37.236C172.662 36.7973 172.868 36.228 172.868 35.528C172.868 35.0706 172.774 34.6646 172.588 34.31C172.401 33.9553 172.144 33.68 171.818 33.484C171.491 33.2786 171.113 33.176 170.684 33.176C170.049 33.176 169.526 33.3953 169.116 33.834C168.714 34.2726 168.514 34.8373 168.514 35.528C168.514 36.228 168.714 36.7973 169.116 37.236C169.526 37.6653 170.049 37.88 170.684 37.88ZM178.547 39.168C177.707 39.168 177.044 38.9066 176.559 38.384C176.083 37.8613 175.845 37.082 175.845 36.046V32.056H177.329V35.892C177.329 37.236 177.88 37.908 178.981 37.908C179.532 37.908 179.984 37.712 180.339 37.32C180.694 36.928 180.871 36.368 180.871 35.64V32.056H182.355V39H181.039L180.927 37.782C180.712 38.2113 180.395 38.552 179.975 38.804C179.564 39.0466 179.088 39.168 178.547 39.168ZM187.155 39C186.473 39 185.932 38.8366 185.531 38.51C185.129 38.174 184.929 37.5813 184.929 36.732V33.302H183.739V32.056H184.929L185.111 30.292H186.413V32.056H188.373V33.302H186.413V36.732C186.413 37.1146 186.492 37.3806 186.651 37.53C186.819 37.67 187.103 37.74 187.505 37.74H188.303V39H187.155ZM192.973 39.168C192.292 39.168 191.685 39.0186 191.153 38.72C190.63 38.412 190.22 37.9873 189.921 37.446C189.622 36.9046 189.473 36.2746 189.473 35.556C189.473 34.828 189.618 34.1886 189.907 33.638C190.206 33.0873 190.616 32.658 191.139 32.35C191.671 32.042 192.287 31.888 192.987 31.888C193.668 31.888 194.261 32.042 194.765 32.35C195.269 32.6486 195.661 33.05 195.941 33.554C196.221 34.058 196.361 34.6133 196.361 35.22C196.361 35.3133 196.356 35.416 196.347 35.528C196.347 35.6306 196.342 35.7473 196.333 35.878H190.929C190.976 36.55 191.195 37.0633 191.587 37.418C191.988 37.7633 192.45 37.936 192.973 37.936C193.393 37.936 193.743 37.8426 194.023 37.656C194.312 37.46 194.527 37.1986 194.667 36.872H196.151C195.964 37.5253 195.591 38.0713 195.031 38.51C194.48 38.9486 193.794 39.168 192.973 39.168ZM192.973 33.106C192.478 33.106 192.04 33.2553 191.657 33.554C191.274 33.8433 191.041 34.282 190.957 34.87H194.877C194.849 34.3286 194.658 33.8993 194.303 33.582C193.948 33.2646 193.505 33.106 192.973 33.106ZM197.901 39V32.056H199.231L199.357 33.372C199.6 32.9146 199.936 32.5553 200.365 32.294C200.804 32.0233 201.331 31.888 201.947 31.888V33.442H201.541C201.13 33.442 200.762 33.512 200.435 33.652C200.118 33.7826 199.861 34.0113 199.665 34.338C199.478 34.6553 199.385 35.0986 199.385 35.668V39H197.901Z" fill="#EFF4FB"/>
</g>
</g>
<defs>
<filter id="filter0_ii_1_371" x="18" y="13" width="208" height="41" filterUnits="userSpaceOnUse" color-interpolation-filters="sRGB">
<feFlood flood-opacity="0" result="BackgroundImageFix"/>
<feBlend mode="normal" in="SourceGraphic" in2="BackgroundImageFix" result="shape"/>
<feColorMatrix in="SourceAlpha" type="matrix" values="0 0 0 0 0 0 0 0 0 0 0 0 0 0 0 0 0 0 127 0" result="hardAlpha"/>
<feMorphology radius="1" operator="erode" in="SourceAlpha" result="effect1_innerShadow_1_371"/>
<feOffset dy="-3"/>
<feComposite in2="hardAlpha" operator="arithmetic" k2="-1" k3="1"/>
<feColorMatrix type="matrix" values="0 0 0 0 0 0 0 0 0 0 0 0 0 0 0 0 0 0 0.1 0"/>
<feBlend mode="normal" in2="shape" result="effect1_innerShadow_1_371"/>
<feColorMatrix in="SourceAlpha" type="matrix" values="0 0 0 0 0 0 0 0 0 0 0 0 0 0 0 0 0 0 127 0" result="hardAlpha"/>
<feOffset dy="2"/>
<feComposite in2="hardAlpha" operator="arithmetic" k2="-1" k3="1"/>
<feColorMatrix type="matrix" values="0 0 0 0 1 0 0 0 0 1 0 0 0 0 1 0 0 0 0.18 0"/>
<feBlend mode="normal" in2="effect1_innerShadow_1_371" result="effect2_innerShadow_1_371"/>
</filter>
<filter id="filter1_d_1_371" x="-2.57492e-05" y="-3.05176e-05" width="244" height="76" filterUnits="userSpaceOnUse" color-interpolation-filters="sRGB">
<feFlood flood-opacity="0" result="BackgroundImageFix"/>
<feColorMatrix in="SourceAlpha" type="matrix" values="0 0 0 0 0 0 0 0 0 0 0 0 0 0 0 0 0 0 127 0" result="hardAlpha"/>
<feOffset dy="4"/>
<feGaussianBlur stdDeviation="9"/>
<feColorMatrix type="matrix" values="0 0 0 0 0 0 0 0 0 0 0 0 0 0 0 0 0 0 0.04 0"/>
<feBlend mode="normal" in2="BackgroundImageFix" result="effect1_dropShadow_1_371"/>
<feBlend mode="normal" in="SourceGraphic" in2="effect1_dropShadow_1_371" result="shape"/>
</filter>
<linearGradient id="paint0_linear_1_371" x1="122" y1="14" x2="122" y2="54" gradientUnits="userSpaceOnUse">
<stop stop-color="#4318FF"/>
<stop offset="1" stop-color="#7F5DFF"/>
</linearGradient>
</defs>
</svg>
