<svg width="212" height="74" viewBox="0 0 212 74" fill="none" xmlns="http://www.w3.org/2000/svg">
<g filter="url(#filter0_dii_1_1958)">
<path d="M10.7884 31H4.85653L13.8949 4.81818H21.0284L30.054 31H24.1222L17.5639 10.8011H17.3594L10.7884 31ZM10.4176 20.7088H24.429V25.0298H10.4176V20.7088ZM45.3353 22.6392V11.3636H50.7813V31H45.5526V27.4332H45.3481C44.9049 28.5838 44.1677 29.5085 43.1364 30.2074C42.1137 30.9062 40.8651 31.2557 39.3907 31.2557C38.0782 31.2557 36.9234 30.9574 35.9262 30.3608C34.9291 29.7642 34.1492 28.9162 33.5867 27.8168C33.0328 26.7173 32.7515 25.4006 32.743 23.8665V11.3636H38.189V22.8949C38.1975 24.054 38.5086 24.9702 39.1222 25.6435C39.7359 26.3168 40.5583 26.6534 41.5896 26.6534C42.2458 26.6534 42.8595 26.5043 43.4305 26.206C44.0015 25.8991 44.4617 25.4474 44.8112 24.8509C45.1691 24.2543 45.3438 23.517 45.3353 22.6392ZM65.2221 11.3636V15.4545H53.3968V11.3636H65.2221ZM56.0815 6.65909H61.5275V24.9659C61.5275 25.4687 61.6042 25.8608 61.7576 26.142C61.911 26.4148 62.1241 26.6065 62.3968 26.7173C62.6781 26.8281 63.0019 26.8835 63.3684 26.8835C63.6241 26.8835 63.8798 26.8622 64.1355 26.8196C64.3911 26.7685 64.5872 26.7301 64.7235 26.7045L65.5801 30.7571C65.3073 30.8423 64.9238 30.9403 64.4295 31.0511C63.9352 31.1705 63.3343 31.2429 62.6269 31.2685C61.3144 31.3196 60.1639 31.1449 59.1752 30.7443C58.1951 30.3437 57.4323 29.7216 56.8869 28.8778C56.3414 28.0341 56.073 26.9687 56.0815 25.6818V6.65909ZM74.2776 19.6477V31H68.8316V4.81818H74.1242V14.8281H74.3543C74.7975 13.669 75.5134 12.7614 76.502 12.1051C77.4907 11.4403 78.7307 11.108 80.2222 11.108C81.5858 11.108 82.7748 11.4062 83.789 12.0028C84.8117 12.5909 85.6043 13.4389 86.1668 14.5469C86.7378 15.6463 87.0191 16.9631 87.0106 18.4972V31H81.5645V19.4688C81.5731 18.2585 81.2662 17.3168 80.6441 16.6435C80.0304 15.9702 79.1696 15.6335 78.0617 15.6335C77.3202 15.6335 76.664 15.7912 76.0929 16.1065C75.5304 16.4219 75.0873 16.8821 74.7634 17.4872C74.4481 18.0838 74.2861 18.804 74.2776 19.6477ZM99.8086 31.3835C97.8228 31.3835 96.1055 30.9616 94.6566 30.1179C93.2162 29.2656 92.104 28.081 91.3199 26.5639C90.5358 25.0384 90.1438 23.2699 90.1438 21.2585C90.1438 19.2301 90.5358 17.4574 91.3199 15.9403C92.104 14.4148 93.2162 13.2301 94.6566 12.3864C96.1055 11.5341 97.8228 11.108 99.8086 11.108C101.794 11.108 103.507 11.5341 104.948 12.3864C106.397 13.2301 107.513 14.4148 108.297 15.9403C109.081 17.4574 109.473 19.2301 109.473 21.2585C109.473 23.2699 109.081 25.0384 108.297 26.5639C107.513 28.081 106.397 29.2656 104.948 30.1179C103.507 30.9616 101.794 31.3835 99.8086 31.3835ZM99.8341 27.1648C100.738 27.1648 101.492 26.9091 102.097 26.3977C102.702 25.8778 103.158 25.1705 103.465 24.2756C103.78 23.3807 103.938 22.3622 103.938 21.2202C103.938 20.0781 103.78 19.0597 103.465 18.1648C103.158 17.2699 102.702 16.5625 102.097 16.0426C101.492 15.5227 100.738 15.2628 99.8341 15.2628C98.9222 15.2628 98.1552 15.5227 97.533 16.0426C96.9194 16.5625 96.4549 17.2699 96.1395 18.1648C95.8327 19.0597 95.6793 20.0781 95.6793 21.2202C95.6793 22.3622 95.8327 23.3807 96.1395 24.2756C96.4549 25.1705 96.9194 25.8778 97.533 26.3977C98.1552 26.9091 98.9222 27.1648 99.8341 27.1648ZM112.655 31V11.3636H117.934V14.7898H118.139C118.497 13.571 119.098 12.6506 119.941 12.0284C120.785 11.3977 121.757 11.0824 122.856 11.0824C123.129 11.0824 123.423 11.0994 123.738 11.1335C124.054 11.1676 124.331 11.2145 124.569 11.2741V16.1065C124.314 16.0298 123.96 15.9616 123.508 15.902C123.057 15.8423 122.643 15.8125 122.268 15.8125C121.467 15.8125 120.751 15.9872 120.12 16.3366C119.498 16.6776 119.004 17.1548 118.637 17.7685C118.28 18.3821 118.101 19.0895 118.101 19.8906V31H112.655ZM127.025 31V11.3636H132.471V31H127.025ZM129.761 8.83239C128.951 8.83239 128.257 8.56392 127.677 8.02699C127.106 7.48153 126.82 6.82954 126.82 6.07102C126.82 5.32102 127.106 4.67756 127.677 4.14062C128.257 3.59517 128.951 3.32244 129.761 3.32244C130.57 3.32244 131.261 3.59517 131.832 4.14062C132.411 4.67756 132.701 5.32102 132.701 6.07102C132.701 6.82954 132.411 7.48153 131.832 8.02699C131.261 8.56392 130.57 8.83239 129.761 8.83239ZM136.371 31V27.7528L145.985 15.8509V15.7102H136.704V11.3636H152.543V14.9048L143.518 26.5128V26.6534H152.876V31H136.371ZM165.066 31.3835C163.046 31.3835 161.308 30.9744 159.85 30.1562C158.402 29.3295 157.285 28.1619 156.501 26.6534C155.717 25.1364 155.325 23.3423 155.325 21.2713C155.325 19.2514 155.717 17.4787 156.501 15.9531C157.285 14.4276 158.389 13.2386 159.812 12.3864C161.244 11.5341 162.923 11.108 164.849 11.108C166.144 11.108 167.35 11.3168 168.467 11.7344C169.592 12.1435 170.572 12.7614 171.407 13.5881C172.251 14.4148 172.907 15.4545 173.376 16.7074C173.845 17.9517 174.079 19.4091 174.079 21.0795V22.5753H157.498V19.2003H168.953C168.953 18.4162 168.782 17.7216 168.441 17.1165C168.1 16.5114 167.627 16.0384 167.022 15.6974C166.426 15.348 165.731 15.1733 164.939 15.1733C164.112 15.1733 163.379 15.3651 162.74 15.7486C162.109 16.1236 161.615 16.6307 161.257 17.2699C160.899 17.9006 160.716 18.6037 160.707 19.3793V22.5881C160.707 23.5597 160.886 24.3991 161.244 25.1065C161.61 25.8139 162.126 26.3594 162.791 26.7429C163.456 27.1264 164.244 27.3182 165.156 27.3182C165.761 27.3182 166.315 27.233 166.818 27.0625C167.321 26.892 167.751 26.6364 168.109 26.2955C168.467 25.9545 168.74 25.5369 168.927 25.0426L173.964 25.375C173.708 26.5852 173.184 27.642 172.392 28.5455C171.608 29.4403 170.593 30.1392 169.349 30.642C168.113 31.1364 166.686 31.3835 165.066 31.3835ZM28.1747 40.8182V67H23.3935L12.0028 50.5213H11.8111V67H6.27557V40.8182H11.1335L22.4347 57.2841H22.6648V40.8182H28.1747ZM41.2348 67.3835C39.2149 67.3835 37.4763 66.9744 36.0189 66.1562C34.57 65.3295 33.4536 64.1619 32.6695 62.6534C31.8854 61.1364 31.4933 59.3423 31.4933 57.2713C31.4933 55.2514 31.8854 53.4787 32.6695 51.9531C33.4536 50.4276 34.5573 49.2386 35.9806 48.3864C37.4124 47.5341 39.0913 47.108 41.0175 47.108C42.3129 47.108 43.5189 47.3168 44.6354 47.7344C45.7604 48.1435 46.7405 48.7614 47.5757 49.5881C48.4195 50.4148 49.0757 51.4545 49.5445 52.7074C50.0132 53.9517 50.2476 55.4091 50.2476 57.0795V58.5753H33.6666V55.2003H45.1212C45.1212 54.4162 44.9507 53.7216 44.6098 53.1165C44.2689 52.5114 43.7959 52.0384 43.1908 51.6974C42.5942 51.348 41.8996 51.1733 41.107 51.1733C40.2803 51.1733 39.5473 51.3651 38.9081 51.7486C38.2774 52.1236 37.7831 52.6307 37.4252 53.2699C37.0672 53.9006 36.884 54.6037 36.8754 55.3793V58.5881C36.8754 59.5597 37.0544 60.3991 37.4124 61.1065C37.7788 61.8139 38.2945 62.3594 38.9592 62.7429C39.624 63.1264 40.4124 63.3182 41.3243 63.3182C41.9294 63.3182 42.4834 63.233 42.9862 63.0625C43.4891 62.892 43.9195 62.6364 44.2774 62.2955C44.6354 61.9545 44.9081 61.5369 45.0956 61.0426L50.1325 61.375C49.8769 62.5852 49.3527 63.642 48.5601 64.5455C47.776 65.4403 46.7618 66.1392 45.5175 66.642C44.2817 67.1364 42.8541 67.3835 41.2348 67.3835ZM57.1745 67L51.8308 47.3636H57.3407L60.3833 60.5568H60.5623L63.7328 47.3636H69.1404L72.362 60.4801H72.5282L75.5197 47.3636H81.0169L75.6859 67H69.9203L66.5453 54.6506H66.3024L62.9274 67H57.1745ZM100.918 67H91.6363V40.8182H100.994C103.628 40.8182 105.895 41.3423 107.795 42.3906C109.696 43.4304 111.158 44.9261 112.18 46.8778C113.212 48.8295 113.727 51.1648 113.727 53.8835C113.727 56.6108 113.212 58.9545 112.18 60.9148C111.158 62.875 109.687 64.3793 107.77 65.4276C105.861 66.4759 103.577 67 100.918 67ZM97.1719 62.2571H100.687C102.324 62.2571 103.7 61.9673 104.817 61.3878C105.942 60.7997 106.785 59.892 107.348 58.6648C107.919 57.429 108.205 55.8352 108.205 53.8835C108.205 51.9489 107.919 50.3679 107.348 49.1406C106.785 47.9134 105.946 47.0099 104.83 46.4304C103.713 45.8509 102.337 45.5611 100.7 45.5611H97.1719V62.2571ZM126.314 67.3835C124.294 67.3835 122.556 66.9744 121.098 66.1562C119.65 65.3295 118.533 64.1619 117.749 62.6534C116.965 61.1364 116.573 59.3423 116.573 57.2713C116.573 55.2514 116.965 53.4787 117.749 51.9531C118.533 50.4276 119.637 49.2386 121.06 48.3864C122.492 47.5341 124.171 47.108 126.097 47.108C127.392 47.108 128.598 47.3168 129.715 47.7344C130.84 48.1435 131.82 48.7614 132.655 49.5881C133.499 50.4148 134.155 51.4545 134.624 52.7074C135.093 53.9517 135.327 55.4091 135.327 57.0795V58.5753H118.746V55.2003H130.201C130.201 54.4162 130.03 53.7216 129.689 53.1165C129.348 52.5114 128.875 52.0384 128.27 51.6974C127.674 51.348 126.979 51.1733 126.187 51.1733C125.36 51.1733 124.627 51.3651 123.988 51.7486C123.357 52.1236 122.863 52.6307 122.505 53.2699C122.147 53.9006 121.963 54.6037 121.955 55.3793V58.5881C121.955 59.5597 122.134 60.3991 122.492 61.1065C122.858 61.8139 123.374 62.3594 124.039 62.7429C124.704 63.1264 125.492 63.3182 126.404 63.3182C127.009 63.3182 127.563 63.233 128.066 63.0625C128.569 62.892 128.999 62.6364 129.357 62.2955C129.715 61.9545 129.988 61.5369 130.175 61.0426L135.212 61.375C134.956 62.5852 134.432 63.642 133.64 64.5455C132.856 65.4403 131.841 66.1392 130.597 66.642C129.361 67.1364 127.934 67.3835 126.314 67.3835ZM156.301 47.3636L149.436 67H143.299L136.434 47.3636H142.187L146.265 61.4134H146.47L150.535 47.3636H156.301ZM158.728 67V47.3636H164.174V67H158.728ZM161.463 44.8324C160.654 44.8324 159.959 44.5639 159.379 44.027C158.808 43.4815 158.523 42.8295 158.523 42.071C158.523 41.321 158.808 40.6776 159.379 40.1406C159.959 39.5952 160.654 39.3224 161.463 39.3224C162.273 39.3224 162.963 39.5952 163.534 40.1406C164.114 40.6776 164.404 41.321 164.404 42.071C164.404 42.8295 164.114 43.4815 163.534 44.027C162.963 44.5639 162.273 44.8324 161.463 44.8324ZM177.048 67.3835C175.037 67.3835 173.307 66.9574 171.858 66.1051C170.418 65.2443 169.31 64.0511 168.534 62.5256C167.767 61 167.383 59.2443 167.383 57.2585C167.383 55.2472 167.771 53.483 168.547 51.9659C169.331 50.4403 170.443 49.2514 171.883 48.3991C173.324 47.5384 175.037 47.108 177.023 47.108C178.736 47.108 180.236 47.419 181.523 48.0412C182.81 48.6634 183.828 49.5369 184.578 50.6619C185.328 51.7869 185.741 53.108 185.818 54.625H180.679C180.534 53.6449 180.151 52.8565 179.528 52.2599C178.915 51.6548 178.109 51.3523 177.112 51.3523C176.268 51.3523 175.531 51.5824 174.901 52.0426C174.278 52.4943 173.793 53.1548 173.443 54.0241C173.094 54.8935 172.919 55.946 172.919 57.1818C172.919 58.4347 173.089 59.5 173.43 60.3778C173.78 61.2557 174.27 61.9247 174.901 62.3849C175.531 62.8452 176.268 63.0753 177.112 63.0753C177.734 63.0753 178.293 62.9474 178.787 62.6918C179.29 62.4361 179.703 62.0653 180.027 61.5795C180.359 61.0852 180.577 60.4929 180.679 59.8026H185.818C185.733 61.3026 185.324 62.6236 184.591 63.7656C183.866 64.8991 182.865 65.7855 181.587 66.4247C180.308 67.0639 178.795 67.3835 177.048 67.3835ZM197.894 67.3835C195.874 67.3835 194.135 66.9744 192.678 66.1562C191.229 65.3295 190.113 64.1619 189.329 62.6534C188.544 61.1364 188.152 59.3423 188.152 57.2713C188.152 55.2514 188.544 53.4787 189.329 51.9531C190.113 50.4276 191.216 49.2386 192.64 48.3864C194.071 47.5341 195.75 47.108 197.677 47.108C198.972 47.108 200.178 47.3168 201.294 47.7344C202.419 48.1435 203.4 48.7614 204.235 49.5881C205.079 50.4148 205.735 51.4545 206.204 52.7074C206.672 53.9517 206.907 55.4091 206.907 57.0795V58.5753H190.326V55.2003H201.78C201.78 54.4162 201.61 53.7216 201.269 53.1165C200.928 52.5114 200.455 52.0384 199.85 51.6974C199.253 51.348 198.559 51.1733 197.766 51.1733C196.939 51.1733 196.206 51.3651 195.567 51.7486C194.936 52.1236 194.442 52.6307 194.084 53.2699C193.726 53.9006 193.543 54.6037 193.534 55.3793V58.5881C193.534 59.5597 193.713 60.3991 194.071 61.1065C194.438 61.8139 194.954 62.3594 195.618 62.7429C196.283 63.1264 197.071 63.3182 197.983 63.3182C198.588 63.3182 199.142 63.233 199.645 63.0625C200.148 62.892 200.579 62.6364 200.936 62.2955C201.294 61.9545 201.567 61.5369 201.755 61.0426L206.792 61.375C206.536 62.5852 206.012 63.642 205.219 64.5455C204.435 65.4403 203.421 66.1392 202.177 66.642C200.941 67.1364 199.513 67.3835 197.894 67.3835Z" fill="url(#paint0_linear_1_1958)"/>
</g>
<defs>
<filter id="filter0_dii_1_1958" x="0.393726" y="0.644755" width="210.976" height="72.9867" filterUnits="userSpaceOnUse" color-interpolation-filters="sRGB">
<feFlood flood-opacity="0" result="BackgroundImageFix"/>
<feColorMatrix in="SourceAlpha" type="matrix" values="0 0 0 0 0 0 0 0 0 0 0 0 0 0 0 0 0 0 127 0" result="hardAlpha"/>
<feOffset dy="1.78512"/>
<feGaussianBlur stdDeviation="2.23141"/>
<feComposite in2="hardAlpha" operator="out"/>
<feColorMatrix type="matrix" values="0 0 0 0 0 0 0 0 0 0 0 0 0 0 0 0 0 0 0.17 0"/>
<feBlend mode="normal" in2="BackgroundImageFix" result="effect1_dropShadow_1_1958"/>
<feBlend mode="normal" in="SourceGraphic" in2="effect1_dropShadow_1_1958" result="shape"/>
<feColorMatrix in="SourceAlpha" type="matrix" values="0 0 0 0 0 0 0 0 0 0 0 0 0 0 0 0 0 0 127 0" result="hardAlpha"/>
<feMorphology radius="1" operator="erode" in="SourceAlpha" result="effect2_innerShadow_1_1958"/>
<feOffset dy="-1.33884"/>
<feComposite in2="hardAlpha" operator="arithmetic" k2="-1" k3="1"/>
<feColorMatrix type="matrix" values="0 0 0 0 0 0 0 0 0 0 0 0 0 0 0 0 0 0 0.1 0"/>
<feBlend mode="normal" in2="shape" result="effect2_innerShadow_1_1958"/>
<feColorMatrix in="SourceAlpha" type="matrix" values="0 0 0 0 0 0 0 0 0 0 0 0 0 0 0 0 0 0 127 0" result="hardAlpha"/>
<feOffset dy="0.892562"/>
<feComposite in2="hardAlpha" operator="arithmetic" k2="-1" k3="1"/>
<feColorMatrix type="matrix" values="0 0 0 0 1 0 0 0 0 1 0 0 0 0 1 0 0 0 0.18 0"/>
<feBlend mode="normal" in2="effect2_innerShadow_1_1958" result="effect3_innerShadow_1_1958"/>
</filter>
<linearGradient id="paint0_linear_1_1958" x1="116.5" y1="0" x2="116.5" y2="72" gradientUnits="userSpaceOnUse">
<stop stop-color="#4318FF"/>
<stop offset="1" stop-color="#7F5DFF"/>
</linearGradient>
</defs>
</svg>
