<svg width="194" height="104" viewBox="0 0 194 104" fill="none" xmlns="http://www.w3.org/2000/svg">
<g filter="url(#filter0_dii_1_3026)">
<path d="M4.53551 3.09091H9.01349L13.3253 11.2344H13.5099L17.8217 3.09091H22.2997L15.4027 15.3153V22H11.4325V15.3153L4.53551 3.09091ZM27.5864 22.277C26.1522 22.277 24.9119 21.9723 23.8655 21.3629C22.8253 20.7474 22.022 19.8918 21.4557 18.7962C20.8894 17.6944 20.6063 16.4171 20.6063 14.9645C20.6063 13.4995 20.8894 12.2192 21.4557 11.1236C22.022 10.0218 22.8253 9.16619 23.8655 8.55682C24.9119 7.94129 26.1522 7.63352 27.5864 7.63352C29.0206 7.63352 30.2578 7.94129 31.2981 8.55682C32.3445 9.16619 33.1508 10.0218 33.7171 11.1236C34.2834 12.2192 34.5665 13.4995 34.5665 14.9645C34.5665 16.4171 34.2834 17.6944 33.7171 18.7962C33.1508 19.8918 32.3445 20.7474 31.2981 21.3629C30.2578 21.9723 29.0206 22.277 27.5864 22.277ZM27.6049 19.2301C28.2573 19.2301 28.8021 19.0455 29.2391 18.6761C29.6761 18.3007 30.0054 17.7898 30.227 17.1435C30.4548 16.4972 30.5687 15.7616 30.5687 14.9368C30.5687 14.112 30.4548 13.3764 30.227 12.7301C30.0054 12.0838 29.6761 11.5729 29.2391 11.1974C28.8021 10.822 28.2573 10.6342 27.6049 10.6342C26.9463 10.6342 26.3923 10.822 25.9429 11.1974C25.4998 11.5729 25.1643 12.0838 24.9366 12.7301C24.715 13.3764 24.6042 14.112 24.6042 14.9368C24.6042 15.7616 24.715 16.4972 24.9366 17.1435C25.1643 17.7898 25.4998 18.3007 25.9429 18.6761C26.3923 19.0455 26.9463 19.2301 27.6049 19.2301ZM45.9585 15.9616V7.81818H49.8918V22H46.1155V19.424H45.9677C45.6477 20.255 45.1152 20.9228 44.3704 21.4276C43.6318 21.9323 42.7301 22.1847 41.6652 22.1847C40.7173 22.1847 39.8832 21.9692 39.1631 21.5384C38.4429 21.1075 37.8797 20.495 37.4734 19.701C37.0733 18.907 36.8702 17.956 36.8641 16.848V7.81818H40.7973V16.1463C40.8034 16.9834 41.0281 17.6451 41.4713 18.1314C41.9145 18.6177 42.5085 18.8608 43.2533 18.8608C43.7272 18.8608 44.1704 18.7531 44.5828 18.5376C44.9952 18.3161 45.3276 17.9898 45.58 17.5589C45.8385 17.1281 45.9647 16.5956 45.9585 15.9616ZM52.7779 22V7.81818H56.5911V10.2926H56.7388C56.9973 9.4124 57.4313 8.74763 58.0407 8.2983C58.65 7.8428 59.3517 7.61506 60.1458 7.61506C60.3428 7.61506 60.5551 7.62737 60.7829 7.65199C61.0106 7.67661 61.2107 7.71046 61.383 7.75355V11.2436C61.1983 11.1882 60.9429 11.139 60.6167 11.0959C60.2904 11.0528 59.9919 11.0312 59.7211 11.0312C59.1425 11.0312 58.6254 11.1574 58.1699 11.4098C57.7206 11.656 57.3636 12.0007 57.0989 12.4439C56.8404 12.8871 56.7111 13.398 56.7111 13.9766V22H52.7779ZM68.988 22V3.09091H76.4482C77.8824 3.09091 79.1042 3.36482 80.1137 3.91264C81.1232 4.45431 81.8926 5.20833 82.4219 6.17471C82.9575 7.13494 83.2252 8.2429 83.2252 9.49858C83.2252 10.7543 82.9544 11.8622 82.4127 12.8224C81.871 13.7827 81.0862 14.5305 80.0583 15.0661C79.0365 15.6016 77.7993 15.8693 76.3467 15.8693H71.5917V12.6655H75.7004C76.4698 12.6655 77.1038 12.5331 77.6023 12.2685C78.1071 11.9976 78.4826 11.6252 78.7288 11.1513C78.9811 10.6712 79.1073 10.1203 79.1073 9.49858C79.1073 8.87074 78.9811 8.32292 78.7288 7.85511C78.4826 7.38115 78.1071 7.01491 77.6023 6.75639C77.0976 6.49171 76.4575 6.35938 75.6819 6.35938H72.9859V22H68.988ZM89.1513 22.2678C88.2465 22.2678 87.4401 22.1108 86.7323 21.7969C86.0244 21.4768 85.4643 21.0059 85.0519 20.3842C84.6456 19.7564 84.4425 18.9747 84.4425 18.0391C84.4425 17.2512 84.5871 16.5895 84.8764 16.054C85.1657 15.5185 85.5597 15.0876 86.0583 14.7614C86.5568 14.4351 87.1231 14.1889 87.7571 14.0227C88.3973 13.8565 89.0682 13.7396 89.7699 13.6719C90.5947 13.5857 91.2595 13.5057 91.7642 13.4318C92.269 13.3518 92.6352 13.2348 92.8629 13.081C93.0907 12.9271 93.2046 12.6993 93.2046 12.3977V12.3423C93.2046 11.7576 93.0199 11.3052 92.6506 10.9851C92.2874 10.665 91.7704 10.505 91.0994 10.505C90.3916 10.505 89.8284 10.6619 89.4098 10.9759C88.9913 11.2836 88.7143 11.6714 88.5789 12.1392L84.9411 11.8438C85.1257 10.982 85.4889 10.2372 86.0306 9.60938C86.5722 8.97538 87.2709 8.48911 88.1264 8.15057C88.9882 7.80587 89.9853 7.63352 91.1179 7.63352C91.9058 7.63352 92.6598 7.72585 93.38 7.91051C94.1063 8.09517 94.7495 8.38139 95.3097 8.76918C95.876 9.15696 96.3222 9.65554 96.6485 10.2649C96.9747 10.8681 97.1378 11.5914 97.1378 12.4347V22H93.4077V20.0334H93.2969C93.0691 20.4766 92.7645 20.8674 92.3828 21.206C92.0012 21.5384 91.5426 21.8 91.0071 21.9908C90.4716 22.1754 89.853 22.2678 89.1513 22.2678ZM90.2777 19.5533C90.8563 19.5533 91.3672 19.4394 91.8104 19.2116C92.2536 18.9777 92.6013 18.6638 92.8537 18.2699C93.1061 17.8759 93.2323 17.4297 93.2323 16.9311V15.4261C93.1092 15.5062 92.9399 15.58 92.7244 15.6477C92.5152 15.7093 92.2782 15.7678 92.0135 15.8232C91.7488 15.8724 91.4842 15.9186 91.2195 15.9616C90.9548 15.9986 90.7147 16.0324 90.4993 16.0632C90.0377 16.1309 89.6345 16.2386 89.2898 16.3864C88.9451 16.5341 88.6773 16.7341 88.4865 16.9865C88.2957 17.2327 88.2003 17.5405 88.2003 17.9098C88.2003 18.4453 88.3942 18.8546 88.782 19.1378C89.1759 19.4148 89.6745 19.5533 90.2777 19.5533ZM111.729 11.8622L108.128 12.0838C108.067 11.776 107.934 11.4991 107.731 11.2528C107.528 11.0005 107.26 10.8004 106.928 10.6527C106.602 10.4988 106.211 10.4219 105.755 10.4219C105.146 10.4219 104.632 10.5511 104.213 10.8097C103.795 11.062 103.586 11.4006 103.586 11.8253C103.586 12.1638 103.721 12.45 103.992 12.6839C104.263 12.9179 104.727 13.1056 105.386 13.2472L107.953 13.7642C109.332 14.0473 110.359 14.5028 111.037 15.1307C111.714 15.7585 112.052 16.5833 112.052 17.6051C112.052 18.5346 111.778 19.3501 111.23 20.0518C110.689 20.7536 109.944 21.3014 108.996 21.6953C108.054 22.0831 106.968 22.277 105.737 22.277C103.859 22.277 102.364 21.8861 101.25 21.1044C100.142 20.3165 99.4923 19.2455 99.3014 17.8913L103.17 17.6882C103.287 18.2607 103.57 18.6977 104.019 18.9993C104.469 19.2947 105.044 19.4425 105.746 19.4425C106.435 19.4425 106.989 19.3101 107.408 19.0455C107.833 18.7746 108.048 18.4268 108.054 18.0021C108.048 17.6451 107.897 17.3527 107.602 17.125C107.306 16.8911 106.851 16.7126 106.235 16.5895L103.779 16.1001C102.394 15.8232 101.363 15.343 100.686 14.6598C100.015 13.9766 99.68 13.1056 99.68 12.0469C99.68 11.1359 99.9262 10.3511 100.419 9.69247C100.917 9.03385 101.616 8.52604 102.515 8.16903C103.419 7.81203 104.478 7.63352 105.691 7.63352C107.482 7.63352 108.891 8.01207 109.919 8.76918C110.953 9.52628 111.557 10.5573 111.729 11.8622ZM126.069 11.8622L122.468 12.0838C122.406 11.776 122.274 11.4991 122.071 11.2528C121.868 11.0005 121.6 10.8004 121.267 10.6527C120.941 10.4988 120.55 10.4219 120.095 10.4219C119.486 10.4219 118.972 10.5511 118.553 10.8097C118.134 11.062 117.925 11.4006 117.925 11.8253C117.925 12.1638 118.061 12.45 118.331 12.6839C118.602 12.9179 119.067 13.1056 119.726 13.2472L122.292 13.7642C123.671 14.0473 124.699 14.5028 125.376 15.1307C126.053 15.7585 126.392 16.5833 126.392 17.6051C126.392 18.5346 126.118 19.3501 125.57 20.0518C125.028 20.7536 124.284 21.3014 123.336 21.6953C122.394 22.0831 121.307 22.277 120.076 22.277C118.199 22.277 116.703 21.8861 115.589 21.1044C114.481 20.3165 113.832 19.2455 113.641 17.8913L117.51 17.6882C117.627 18.2607 117.91 18.6977 118.359 18.9993C118.808 19.2947 119.384 19.4425 120.086 19.4425C120.775 19.4425 121.329 19.3101 121.748 19.0455C122.172 18.7746 122.388 18.4268 122.394 18.0021C122.388 17.6451 122.237 17.3527 121.941 17.125C121.646 16.8911 121.191 16.7126 120.575 16.5895L118.119 16.1001C116.734 15.8232 115.703 15.343 115.026 14.6598C114.355 13.9766 114.02 13.1056 114.02 12.0469C114.02 11.1359 114.266 10.3511 114.758 9.69247C115.257 9.03385 115.955 8.52604 116.854 8.16903C117.759 7.81203 118.818 7.63352 120.03 7.63352C121.821 7.63352 123.231 8.01207 124.259 8.76918C125.293 9.52628 125.896 10.5573 126.069 11.8622ZM131.406 22L127.547 7.81818H131.526L133.724 17.3466H133.853L136.143 7.81818H140.048L142.375 17.2912H142.495L144.655 7.81818H148.626L144.775 22H140.611L138.174 13.081H137.998L135.561 22H131.406ZM156.516 22.277C155.082 22.277 153.841 21.9723 152.795 21.3629C151.755 20.7474 150.952 19.8918 150.385 18.7962C149.819 17.6944 149.536 16.4171 149.536 14.9645C149.536 13.4995 149.819 12.2192 150.385 11.1236C150.952 10.0218 151.755 9.16619 152.795 8.55682C153.841 7.94129 155.082 7.63352 156.516 7.63352C157.95 7.63352 159.187 7.94129 160.228 8.55682C161.274 9.16619 162.08 10.0218 162.647 11.1236C163.213 12.2192 163.496 13.4995 163.496 14.9645C163.496 16.4171 163.213 17.6944 162.647 18.7962C162.08 19.8918 161.274 20.7474 160.228 21.3629C159.187 21.9723 157.95 22.277 156.516 22.277ZM156.534 19.2301C157.187 19.2301 157.732 19.0455 158.169 18.6761C158.606 18.3007 158.935 17.7898 159.157 17.1435C159.384 16.4972 159.498 15.7616 159.498 14.9368C159.498 14.112 159.384 13.3764 159.157 12.7301C158.935 12.0838 158.606 11.5729 158.169 11.1974C157.732 10.822 157.187 10.6342 156.534 10.6342C155.876 10.6342 155.322 10.822 154.872 11.1974C154.429 11.5729 154.094 12.0838 153.866 12.7301C153.644 13.3764 153.534 14.112 153.534 14.9368C153.534 15.7616 153.644 16.4972 153.866 17.1435C154.094 17.7898 154.429 18.3007 154.872 18.6761C155.322 19.0455 155.876 19.2301 156.534 19.2301ZM165.794 22V7.81818H169.607V10.2926H169.755C170.013 9.4124 170.447 8.74763 171.056 8.2983C171.666 7.8428 172.367 7.61506 173.161 7.61506C173.358 7.61506 173.571 7.62737 173.799 7.65199C174.026 7.67661 174.226 7.71046 174.399 7.75355V11.2436C174.214 11.1882 173.959 11.139 173.632 11.0959C173.306 11.0528 173.008 11.0312 172.737 11.0312C172.158 11.0312 171.641 11.1574 171.186 11.4098C170.736 11.656 170.379 12.0007 170.115 12.4439C169.856 12.8871 169.727 13.398 169.727 13.9766V22H165.794ZM180.738 22.2308C179.661 22.2308 178.685 21.9538 177.811 21.3999C176.943 20.8397 176.254 20.018 175.743 18.9347C175.238 17.8452 174.986 16.5095 174.986 14.9276C174.986 13.3026 175.247 11.9515 175.771 10.8743C176.294 9.79096 176.989 8.98153 177.857 8.44602C178.731 7.90436 179.688 7.63352 180.729 7.63352C181.523 7.63352 182.184 7.76894 182.714 8.03977C183.249 8.30445 183.68 8.63684 184.006 9.03693C184.339 9.43087 184.591 9.81865 184.764 10.2003H184.884V3.09091H188.808V22H184.93V19.7287H184.764C184.579 20.1226 184.317 20.5135 183.979 20.9013C183.646 21.2829 183.212 21.5999 182.677 21.8523C182.148 22.1046 181.501 22.2308 180.738 22.2308ZM181.984 19.1009C182.618 19.1009 183.154 18.9285 183.591 18.5838C184.034 18.233 184.373 17.7436 184.607 17.1158C184.847 16.4879 184.967 15.7524 184.967 14.9091C184.967 14.0658 184.85 13.3333 184.616 12.7116C184.382 12.09 184.043 11.6098 183.6 11.2713C183.157 10.9328 182.618 10.7635 181.984 10.7635C181.338 10.7635 180.793 10.9389 180.35 11.2898C179.907 11.6406 179.572 12.1269 179.344 12.7486C179.116 13.3703 179.002 14.0904 179.002 14.9091C179.002 15.7339 179.116 16.4633 179.344 17.0973C179.578 17.7251 179.913 18.2176 180.35 18.5746C180.793 18.9254 181.338 19.1009 181.984 19.1009ZM5.64347 57V38.0909H9.64134V45.8928H17.7571V38.0909H21.7457V57H17.7571V49.1889H9.64134V57H5.64347ZM28.7521 57.2678C27.8472 57.2678 27.0409 57.1108 26.333 56.7969C25.6252 56.4768 25.065 56.0059 24.6526 55.3842C24.2464 54.7564 24.0433 53.9747 24.0433 53.0391C24.0433 52.2512 24.1879 51.5895 24.4772 51.054C24.7665 50.5185 25.1605 50.0876 25.659 49.7614C26.1576 49.4351 26.7239 49.1889 27.3579 49.0227C27.998 48.8565 28.669 48.7396 29.3707 48.6719C30.1955 48.5857 30.8603 48.5057 31.365 48.4318C31.8697 48.3518 32.236 48.2348 32.4637 48.081C32.6915 47.9271 32.8053 47.6993 32.8053 47.3977V47.3423C32.8053 46.7576 32.6207 46.3052 32.2514 45.9851C31.8882 45.665 31.3712 45.505 30.7002 45.505C29.9924 45.505 29.4292 45.6619 29.0106 45.9759C28.592 46.2836 28.315 46.6714 28.1796 47.1392L24.5418 46.8438C24.7265 45.982 25.0897 45.2372 25.6313 44.6094C26.173 43.9754 26.8716 43.4891 27.7272 43.1506C28.589 42.8059 29.5861 42.6335 30.7187 42.6335C31.5066 42.6335 32.2606 42.7259 32.9808 42.9105C33.7071 43.0952 34.3503 43.3814 34.9105 43.7692C35.4767 44.157 35.923 44.6555 36.2492 45.2649C36.5755 45.8681 36.7386 46.5914 36.7386 47.4347V57H33.0085V55.0334H32.8977C32.6699 55.4766 32.3652 55.8674 31.9836 56.206C31.602 56.5384 31.1434 56.8 30.6079 56.9908C30.0724 57.1754 29.4538 57.2678 28.7521 57.2678ZM29.8785 54.5533C30.4571 54.5533 30.968 54.4394 31.4112 54.2116C31.8543 53.9777 32.2021 53.6638 32.4545 53.2699C32.7069 52.8759 32.833 52.4297 32.833 51.9311V50.4261C32.7099 50.5062 32.5407 50.58 32.3252 50.6477C32.1159 50.7093 31.879 50.7678 31.6143 50.8232C31.3496 50.8724 31.0849 50.9186 30.8203 50.9616C30.5556 50.9986 30.3155 51.0324 30.1001 51.0632C29.6384 51.1309 29.2353 51.2386 28.8906 51.3864C28.5459 51.5341 28.2781 51.7341 28.0873 51.9865C27.8965 52.2327 27.8011 52.5405 27.8011 52.9098C27.8011 53.4453 27.995 53.8546 28.3828 54.1378C28.7767 54.4148 29.2753 54.5533 29.8785 54.5533ZM51.3298 46.8622L47.7289 47.0838C47.6674 46.776 47.535 46.4991 47.3319 46.2528C47.1288 46.0005 46.861 45.8004 46.5287 45.6527C46.2024 45.4988 45.8116 45.4219 45.3561 45.4219C44.7467 45.4219 44.2327 45.5511 43.8142 45.8097C43.3956 46.062 43.1863 46.4006 43.1863 46.8253C43.1863 47.1638 43.3217 47.45 43.5926 47.6839C43.8634 47.9179 44.3281 48.1056 44.9867 48.2472L47.5535 48.7642C48.9323 49.0473 49.9602 49.5028 50.6373 50.1307C51.3144 50.7585 51.6529 51.5833 51.6529 52.6051C51.6529 53.5346 51.379 54.3501 50.8312 55.0518C50.2895 55.7536 49.5447 56.3014 48.5968 56.6953C47.6551 57.0831 46.5687 57.277 45.3376 57.277C43.4602 57.277 41.9645 56.8861 40.8504 56.1044C39.7424 55.3165 39.093 54.2455 38.9022 52.8913L42.7708 52.6882C42.8878 53.2607 43.1709 53.6977 43.6203 53.9993C44.0696 54.2947 44.6451 54.4425 45.3468 54.4425C46.0362 54.4425 46.5902 54.3101 47.0088 54.0455C47.4335 53.7746 47.6489 53.4268 47.6551 53.0021C47.6489 52.6451 47.4981 52.3527 47.2027 52.125C46.9072 51.8911 46.4517 51.7126 45.8362 51.5895L43.3802 51.1001C41.9953 50.8232 40.9643 50.343 40.2872 49.6598C39.6162 48.9766 39.2808 48.1056 39.2808 47.0469C39.2808 46.1359 39.527 45.3511 40.0194 44.6925C40.518 44.0339 41.2166 43.526 42.1153 43.169C43.0201 42.812 44.0788 42.6335 45.2914 42.6335C47.0826 42.6335 48.4922 43.0121 49.5201 43.7692C50.5542 44.5263 51.1574 45.5573 51.3298 46.8622ZM59.7011 57V38.0909H67.2721C68.6632 38.0909 69.8235 38.2971 70.753 38.7095C71.6824 39.1219 72.381 39.6944 72.8488 40.4268C73.3167 41.1532 73.5506 41.9903 73.5506 42.9382C73.5506 43.6768 73.4028 44.3262 73.1074 44.8864C72.8119 45.4403 72.4057 45.8958 71.8886 46.2528C71.3777 46.6037 70.793 46.853 70.1344 47.0007V47.1854C70.8545 47.2161 71.5285 47.4193 72.1564 47.7947C72.7904 48.1702 73.3043 48.6965 73.6983 49.3736C74.0922 50.0445 74.2892 50.8447 74.2892 51.7741C74.2892 52.7775 74.0399 53.6731 73.5413 54.4609C73.0489 55.2427 72.3195 55.8613 71.3531 56.3168C70.3867 56.7723 69.1957 57 67.78 57H59.7011ZM63.699 53.7315H66.9582C68.0723 53.7315 68.8848 53.5192 69.3957 53.0945C69.9066 52.6636 70.1621 52.0911 70.1621 51.3771C70.1621 50.8539 70.0359 50.3923 69.7835 49.9922C69.5311 49.5921 69.1711 49.2782 68.7033 49.0504C68.2416 48.8227 67.6907 48.7088 67.0506 48.7088H63.699V53.7315ZM63.699 46.0036H66.6628C67.2106 46.0036 67.6969 45.9081 68.1216 45.7173C68.5524 45.5204 68.891 45.2434 69.1372 44.8864C69.3896 44.5294 69.5158 44.1016 69.5158 43.603C69.5158 42.9197 69.2726 42.3688 68.7863 41.9503C68.3062 41.5317 67.623 41.3224 66.7366 41.3224H63.699V46.0036ZM83.0198 57.277C81.561 57.277 80.3053 56.9815 79.2527 56.3906C78.2063 55.7936 77.4 54.9503 76.8337 53.8608C76.2674 52.7652 75.9843 51.4695 75.9843 49.9737C75.9843 48.5149 76.2674 47.2346 76.8337 46.1328C77.4 45.031 78.1971 44.1723 79.225 43.5568C80.2591 42.9413 81.4717 42.6335 82.8628 42.6335C83.7984 42.6335 84.6694 42.7843 85.4757 43.0859C86.2882 43.3814 86.9961 43.8277 87.5993 44.4247C88.2087 45.0218 88.6827 45.7727 89.0212 46.6776C89.3597 47.5762 89.529 48.6288 89.529 49.8352V50.9155H77.5539V48.478H85.8266C85.8266 47.9117 85.7035 47.41 85.4573 46.973C85.2111 46.536 84.8694 46.1944 84.4324 45.9482C84.0015 45.6958 83.4999 45.5696 82.9274 45.5696C82.3304 45.5696 81.801 45.7081 81.3394 45.9851C80.8839 46.2559 80.5269 46.6222 80.2684 47.0838C80.0098 47.5393 79.8775 48.0471 79.8713 48.6072V50.9247C79.8713 51.6264 80.0006 52.2327 80.2591 52.7436C80.5238 53.2545 80.8962 53.6484 81.3763 53.9254C81.8564 54.2024 82.4258 54.3409 83.0844 54.3409C83.5214 54.3409 83.9215 54.2794 84.2847 54.1562C84.6479 54.0331 84.9587 53.8485 85.2172 53.6023C85.4757 53.3561 85.6727 53.0545 85.8081 52.6974L89.4459 52.9375C89.2613 53.8116 88.8827 54.5748 88.3103 55.2273C87.744 55.8736 87.0115 56.3783 86.1128 56.7415C85.2203 57.0985 84.1893 57.277 83.0198 57.277ZM98.2988 57.277C96.84 57.277 95.5844 56.9815 94.5318 56.3906C93.4854 55.7936 92.6791 54.9503 92.1128 53.8608C91.5465 52.7652 91.2633 51.4695 91.2633 49.9737C91.2633 48.5149 91.5465 47.2346 92.1128 46.1328C92.6791 45.031 93.4762 44.1723 94.5041 43.5568C95.5382 42.9413 96.7508 42.6335 98.1419 42.6335C99.0775 42.6335 99.9485 42.7843 100.755 43.0859C101.567 43.3814 102.275 43.8277 102.878 44.4247C103.488 45.0218 103.962 45.7727 104.3 46.6776C104.639 47.5762 104.808 48.6288 104.808 49.8352V50.9155H92.8329V48.478H101.106C101.106 47.9117 100.983 47.41 100.736 46.973C100.49 46.536 100.149 46.1944 99.7115 45.9482C99.2806 45.6958 98.779 45.5696 98.2065 45.5696C97.6095 45.5696 97.0801 45.7081 96.6184 45.9851C96.163 46.2559 95.8059 46.6222 95.5474 47.0838C95.2889 47.5393 95.1566 48.0471 95.1504 48.6072V50.9247C95.1504 51.6264 95.2797 52.2327 95.5382 52.7436C95.8029 53.2545 96.1753 53.6484 96.6554 53.9254C97.1355 54.2024 97.7049 54.3409 98.3635 54.3409C98.8005 54.3409 99.2006 54.2794 99.5638 54.1562C99.9269 54.0331 100.238 53.8485 100.496 53.6023C100.755 53.3561 100.952 53.0545 101.087 52.6974L104.725 52.9375C104.54 53.8116 104.162 54.5748 103.589 55.2273C103.023 55.8736 102.291 56.3783 101.392 56.7415C100.499 57.0985 99.4684 57.277 98.2988 57.277ZM111.048 48.8011V57H107.115V42.8182H110.863V45.3203H111.03C111.344 44.4955 111.87 43.843 112.608 43.3629C113.347 42.8767 114.243 42.6335 115.295 42.6335C116.28 42.6335 117.139 42.849 117.871 43.2798C118.604 43.7107 119.173 44.3262 119.579 45.1264C119.986 45.9205 120.189 46.8684 120.189 47.9702V57H116.255V48.6719C116.262 47.804 116.04 47.1269 115.591 46.6406C115.141 46.1482 114.523 45.902 113.735 45.902C113.206 45.902 112.738 46.0159 112.331 46.2436C111.931 46.4714 111.617 46.8037 111.39 47.2408C111.168 47.6716 111.054 48.1918 111.048 48.8011ZM22.3274 79.7109H18.2834C18.2095 79.1877 18.0587 78.723 17.831 78.3168C17.6032 77.9044 17.3108 77.5535 16.9538 77.2642C16.5968 76.9749 16.1844 76.7533 15.7166 76.5994C15.255 76.4455 14.7533 76.3686 14.2116 76.3686C13.233 76.3686 12.3804 76.6117 11.6541 77.098C10.9278 77.5781 10.3646 78.2798 9.96449 79.2031C9.56439 80.1203 9.36435 81.2344 9.36435 82.5455C9.36435 83.8935 9.56439 85.026 9.96449 85.9432C10.3707 86.8603 10.937 87.5528 11.6634 88.0206C12.3897 88.4884 13.2299 88.7223 14.1839 88.7223C14.7195 88.7223 15.215 88.6515 15.6705 88.5099C16.1321 88.3684 16.5414 88.1622 16.8984 87.8913C17.2554 87.6143 17.5509 87.2789 17.7848 86.8849C18.0249 86.491 18.1911 86.0417 18.2834 85.5369L22.3274 85.5554C22.2228 86.4233 21.9612 87.2604 21.5426 88.0668C21.1302 88.867 20.5732 89.584 19.8714 90.218C19.1759 90.8459 18.3449 91.3445 17.3786 91.7138C16.4183 92.0769 15.3319 92.2585 14.1193 92.2585C12.4328 92.2585 10.9247 91.8769 9.59517 91.1136C8.27178 90.3504 7.22538 89.2455 6.45597 87.799C5.69271 86.3525 5.31108 84.6013 5.31108 82.5455C5.31108 80.4834 5.69886 78.7292 6.47443 77.2827C7.25 75.8362 8.30256 74.7344 9.6321 73.9773C10.9616 73.214 12.4574 72.8324 14.1193 72.8324C15.215 72.8324 16.2306 72.9863 17.1662 73.294C18.108 73.6018 18.942 74.0511 19.6683 74.642C20.3946 75.2268 20.9856 75.9439 21.4411 76.7933C21.9027 77.6428 22.1982 78.6153 22.3274 79.7109ZM28.7936 83.8011V92H24.8604V73.0909H28.6828V80.3203H28.849C29.1691 79.4832 29.6861 78.8277 30.4002 78.3537C31.1142 77.8736 32.0098 77.6335 33.0869 77.6335C34.0718 77.6335 34.9305 77.849 35.6629 78.2798C36.4016 78.7045 36.974 79.317 37.3803 80.1172C37.7927 80.9112 37.9958 81.8622 37.9896 82.9702V92H34.0564V83.6719C34.0626 82.7978 33.841 82.1177 33.3916 81.6314C32.9485 81.1451 32.3268 80.902 31.5266 80.902C30.9911 80.902 30.5171 81.0159 30.1047 81.2436C29.6985 81.4714 29.3784 81.8037 29.1445 82.2408C28.9167 82.6716 28.7998 83.1918 28.7936 83.8011ZM44.869 92.2678C43.9642 92.2678 43.1579 92.1108 42.45 91.7969C41.7421 91.4768 41.182 91.0059 40.7696 90.3842C40.3633 89.7564 40.1602 88.9747 40.1602 88.0391C40.1602 87.2512 40.3049 86.5895 40.5942 86.054C40.8835 85.5185 41.2774 85.0876 41.776 84.7614C42.2746 84.4351 42.8409 84.1889 43.4749 84.0227C44.115 83.8565 44.7859 83.7396 45.4876 83.6719C46.3124 83.5857 46.9772 83.5057 47.482 83.4318C47.9867 83.3518 48.3529 83.2348 48.5807 83.081C48.8084 82.9271 48.9223 82.6993 48.9223 82.3977V82.3423C48.9223 81.7576 48.7376 81.3052 48.3683 80.9851C48.0052 80.665 47.4881 80.505 46.8172 80.505C46.1093 80.505 45.5461 80.6619 45.1275 80.9759C44.709 81.2836 44.432 81.6714 44.2966 82.1392L40.6588 81.8438C40.8435 80.982 41.2066 80.2372 41.7483 79.6094C42.29 78.9754 42.9886 78.4891 43.8442 78.1506C44.7059 77.8059 45.7031 77.6335 46.8356 77.6335C47.6235 77.6335 48.3775 77.7259 49.0977 77.9105C49.824 78.0952 50.4673 78.3814 51.0274 78.7692C51.5937 79.157 52.04 79.6555 52.3662 80.2649C52.6924 80.8681 52.8555 81.5914 52.8555 82.4347V92H49.1254V90.0334H49.0146C48.7869 90.4766 48.4822 90.8674 48.1006 91.206C47.7189 91.5384 47.2604 91.8 46.7249 91.9908C46.1893 92.1754 45.5707 92.2678 44.869 92.2678ZM45.9954 89.5533C46.574 89.5533 47.0849 89.4394 47.5281 89.2116C47.9713 88.9777 48.3191 88.6638 48.5714 88.2699C48.8238 87.8759 48.95 87.4297 48.95 86.9311V85.4261C48.8269 85.5062 48.6576 85.58 48.4422 85.6477C48.2329 85.7093 47.9959 85.7678 47.7312 85.8232C47.4666 85.8724 47.2019 85.9186 46.9372 85.9616C46.6725 85.9986 46.4325 86.0324 46.217 86.0632C45.7554 86.1309 45.3522 86.2386 45.0075 86.3864C44.6628 86.5341 44.3951 86.7341 44.2043 86.9865C44.0134 87.2327 43.918 87.5405 43.918 87.9098C43.918 88.4453 44.1119 88.8546 44.4997 89.1378C44.8936 89.4148 45.3922 89.5533 45.9954 89.5533ZM59.5803 83.8011V92H55.647V77.8182H59.3956V80.3203H59.5618C59.8757 79.4955 60.402 78.843 61.1406 78.3629C61.8793 77.8767 62.7749 77.6335 63.8274 77.6335C64.8123 77.6335 65.6709 77.849 66.4034 78.2798C67.1359 78.7107 67.7053 79.3262 68.1115 80.1264C68.5178 80.9205 68.7209 81.8684 68.7209 82.9702V92H64.7877V83.6719C64.7938 82.804 64.5722 82.1269 64.1229 81.6406C63.6735 81.1482 63.0549 80.902 62.2671 80.902C61.7377 80.902 61.2699 81.0159 60.8636 81.2436C60.4636 81.4714 60.1496 81.8037 59.9219 82.2408C59.7003 82.6716 59.5864 83.1918 59.5803 83.8011ZM77.9501 97.6136C76.6759 97.6136 75.5833 97.4382 74.6724 97.0874C73.7675 96.7427 73.0474 96.2718 72.5118 95.6747C71.9763 95.0777 71.6286 94.4067 71.4685 93.6619L75.1063 93.1726C75.2171 93.4557 75.3925 93.7204 75.6326 93.9666C75.8726 94.2128 76.1896 94.4098 76.5836 94.5575C76.9837 94.7114 77.4699 94.7884 78.0424 94.7884C78.898 94.7884 79.6028 94.5791 80.1567 94.1605C80.7169 93.7481 80.9969 93.0556 80.9969 92.0831V89.4886H80.8307C80.6584 89.8826 80.3999 90.255 80.0552 90.6058C79.7105 90.9567 79.2673 91.2429 78.7256 91.4645C78.184 91.6861 77.5377 91.7969 76.7867 91.7969C75.7218 91.7969 74.7524 91.5507 73.8783 91.0582C73.0104 90.5597 72.318 89.7995 71.8009 88.7777C71.29 87.7498 71.0346 86.451 71.0346 84.8814C71.0346 83.2749 71.2962 81.933 71.8194 80.8558C72.3426 79.7786 73.0381 78.9723 73.906 78.4368C74.7801 77.9013 75.7372 77.6335 76.7775 77.6335C77.5715 77.6335 78.2363 77.7689 78.7718 78.0398C79.3073 78.3045 79.7382 78.6368 80.0644 79.0369C80.3968 79.4309 80.6522 79.8187 80.8307 80.2003H80.9785V77.8182H84.884V92.1385C84.884 93.3449 84.5886 94.3544 83.9976 95.1669C83.4067 95.9794 82.5881 96.5888 81.5417 96.995C80.5014 97.4074 79.3042 97.6136 77.9501 97.6136ZM78.0332 88.8423C78.6671 88.8423 79.2027 88.6854 79.6397 88.3714C80.0829 88.0514 80.4214 87.5959 80.6553 87.005C80.8954 86.4079 81.0154 85.6939 81.0154 84.8629C81.0154 84.032 80.8984 83.3118 80.6645 82.7024C80.4306 82.0869 80.0921 81.6098 79.6489 81.2713C79.2057 80.9328 78.6671 80.7635 78.0332 80.7635C77.3868 80.7635 76.8421 80.9389 76.3989 81.2898C75.9557 81.6345 75.6203 82.1146 75.3925 82.7301C75.1648 83.3456 75.0509 84.0566 75.0509 84.8629C75.0509 85.6816 75.1648 86.3894 75.3925 86.9865C75.6264 87.5774 75.9619 88.036 76.3989 88.3622C76.8421 88.6823 77.3868 88.8423 78.0332 88.8423ZM94.217 92.277C92.7582 92.277 91.5026 91.9815 90.45 91.3906C89.4036 90.7936 88.5973 89.9503 88.031 88.8608C87.4647 87.7652 87.1815 86.4695 87.1815 84.9737C87.1815 83.5149 87.4647 82.2346 88.031 81.1328C88.5973 80.031 89.3944 79.1723 90.4223 78.5568C91.4564 77.9413 92.669 77.6335 94.0601 77.6335C94.9957 77.6335 95.8667 77.7843 96.673 78.0859C97.4855 78.3814 98.1934 78.8277 98.7966 79.4247C99.406 80.0218 99.8799 80.7727 100.218 81.6776C100.557 82.5762 100.726 83.6288 100.726 84.8352V85.9155H88.7511V83.478H97.0239C97.0239 82.9117 96.9008 82.41 96.6545 81.973C96.4083 81.536 96.0667 81.1944 95.6297 80.9482C95.1988 80.6958 94.6972 80.5696 94.1247 80.5696C93.5276 80.5696 92.9983 80.7081 92.5366 80.9851C92.0812 81.2559 91.7241 81.6222 91.4656 82.0838C91.2071 82.5393 91.0748 83.0471 91.0686 83.6072V85.9247C91.0686 86.6264 91.1979 87.2327 91.4564 87.7436C91.7211 88.2545 92.0935 88.6484 92.5736 88.9254C93.0537 89.2024 93.6231 89.3409 94.2817 89.3409C94.7187 89.3409 95.1188 89.2794 95.482 89.1562C95.8451 89.0331 96.156 88.8485 96.4145 88.6023C96.673 88.3561 96.87 88.0545 97.0054 87.6974L100.643 87.9375C100.459 88.8116 100.08 89.5748 99.5075 90.2273C98.9412 90.8736 98.2088 91.3783 97.3101 91.7415C96.4176 92.0985 95.3866 92.277 94.217 92.277ZM108.259 92.2308C107.182 92.2308 106.206 91.9538 105.332 91.3999C104.464 90.8397 103.775 90.018 103.264 88.9347C102.759 87.8452 102.507 86.5095 102.507 84.9276C102.507 83.3026 102.768 81.9515 103.292 80.8743C103.815 79.791 104.51 78.9815 105.378 78.446C106.252 77.9044 107.209 77.6335 108.25 77.6335C109.044 77.6335 109.705 77.7689 110.235 78.0398C110.77 78.3045 111.201 78.6368 111.527 79.0369C111.86 79.4309 112.112 79.8187 112.284 80.2003H112.404V73.0909H116.328V92H112.451V89.7287H112.284C112.1 90.1226 111.838 90.5135 111.5 90.9013C111.167 91.2829 110.733 91.5999 110.198 91.8523C109.668 92.1046 109.022 92.2308 108.259 92.2308ZM109.505 89.1009C110.139 89.1009 110.675 88.9285 111.112 88.5838C111.555 88.233 111.894 87.7436 112.128 87.1158C112.368 86.4879 112.488 85.7524 112.488 84.9091C112.488 84.0658 112.371 83.3333 112.137 82.7116C111.903 82.09 111.564 81.6098 111.121 81.2713C110.678 80.9328 110.139 80.7635 109.505 80.7635C108.859 80.7635 108.314 80.9389 107.871 81.2898C107.428 81.6406 107.092 82.1269 106.865 82.7486C106.637 83.3703 106.523 84.0904 106.523 84.9091C106.523 85.7339 106.637 86.4633 106.865 87.0973C107.099 87.7251 107.434 88.2176 107.871 88.5746C108.314 88.9254 108.859 89.1009 109.505 89.1009Z" fill="url(#paint0_linear_1_3026)"/>
</g>
<defs>
<filter id="filter0_dii_1_3026" x="0.0727119" y="0.413134" width="193.198" height="103.448" filterUnits="userSpaceOnUse" color-interpolation-filters="sRGB">
<feFlood flood-opacity="0" result="BackgroundImageFix"/>
<feColorMatrix in="SourceAlpha" type="matrix" values="0 0 0 0 0 0 0 0 0 0 0 0 0 0 0 0 0 0 127 0" result="hardAlpha"/>
<feOffset dy="1.78512"/>
<feGaussianBlur stdDeviation="2.23141"/>
<feComposite in2="hardAlpha" operator="out"/>
<feColorMatrix type="matrix" values="0 0 0 0 0 0 0 0 0 0 0 0 0 0 0 0 0 0 0.17 0"/>
<feBlend mode="normal" in2="BackgroundImageFix" result="effect1_dropShadow_1_3026"/>
<feBlend mode="normal" in="SourceGraphic" in2="effect1_dropShadow_1_3026" result="shape"/>
<feColorMatrix in="SourceAlpha" type="matrix" values="0 0 0 0 0 0 0 0 0 0 0 0 0 0 0 0 0 0 127 0" result="hardAlpha"/>
<feMorphology radius="1" operator="erode" in="SourceAlpha" result="effect2_innerShadow_1_3026"/>
<feOffset dy="-1.33884"/>
<feComposite in2="hardAlpha" operator="arithmetic" k2="-1" k3="1"/>
<feColorMatrix type="matrix" values="0 0 0 0 0 0 0 0 0 0 0 0 0 0 0 0 0 0 0.1 0"/>
<feBlend mode="normal" in2="shape" result="effect2_innerShadow_1_3026"/>
<feColorMatrix in="SourceAlpha" type="matrix" values="0 0 0 0 0 0 0 0 0 0 0 0 0 0 0 0 0 0 127 0" result="hardAlpha"/>
<feOffset dy="0.892562"/>
<feComposite in2="hardAlpha" operator="arithmetic" k2="-1" k3="1"/>
<feColorMatrix type="matrix" values="0 0 0 0 1 0 0 0 0 1 0 0 0 0 1 0 0 0 0.18 0"/>
<feBlend mode="normal" in2="effect2_innerShadow_1_3026" result="effect3_innerShadow_1_3026"/>
</filter>
<linearGradient id="paint0_linear_1_3026" x1="120" y1="-5" x2="120" y2="100" gradientUnits="userSpaceOnUse">
<stop stop-color="#4318FF"/>
<stop offset="1" stop-color="#7F5DFF"/>
</linearGradient>
</defs>
</svg>
