<svg width="436" height="34" viewBox="0 0 436 34" fill="none" xmlns="http://www.w3.org/2000/svg">
<g filter="url(#filter0_dii_1_1418)">
<path d="M4.53551 3.09091H9.01349L13.3253 11.2344H13.5099L17.8217 3.09091H22.2997L15.4027 15.3153V22H11.4325V15.3153L4.53551 3.09091ZM27.5864 22.277C26.1522 22.277 24.9119 21.9723 23.8655 21.3629C22.8253 20.7474 22.022 19.8918 21.4557 18.7962C20.8894 17.6944 20.6063 16.4171 20.6063 14.9645C20.6063 13.4995 20.8894 12.2192 21.4557 11.1236C22.022 10.0218 22.8253 9.16619 23.8655 8.55682C24.9119 7.94129 26.1522 7.63352 27.5864 7.63352C29.0206 7.63352 30.2578 7.94129 31.2981 8.55682C32.3445 9.16619 33.1508 10.0218 33.7171 11.1236C34.2834 12.2192 34.5665 13.4995 34.5665 14.9645C34.5665 16.4171 34.2834 17.6944 33.7171 18.7962C33.1508 19.8918 32.3445 20.7474 31.2981 21.3629C30.2578 21.9723 29.0206 22.277 27.5864 22.277ZM27.6049 19.2301C28.2573 19.2301 28.8021 19.0455 29.2391 18.6761C29.6761 18.3007 30.0054 17.7898 30.227 17.1435C30.4548 16.4972 30.5687 15.7616 30.5687 14.9368C30.5687 14.112 30.4548 13.3764 30.227 12.7301C30.0054 12.0838 29.6761 11.5729 29.2391 11.1974C28.8021 10.822 28.2573 10.6342 27.6049 10.6342C26.9463 10.6342 26.3923 10.822 25.9429 11.1974C25.4998 11.5729 25.1643 12.0838 24.9365 12.7301C24.715 13.3764 24.6042 14.112 24.6042 14.9368C24.6042 15.7616 24.715 16.4972 24.9365 17.1435C25.1643 17.7898 25.4998 18.3007 25.9429 18.6761C26.3923 19.0455 26.9463 19.2301 27.6049 19.2301ZM45.9585 15.9616V7.81818H49.8917V22H46.1155V19.424H45.9677C45.6477 20.255 45.1152 20.9228 44.3704 21.4276C43.6318 21.9323 42.7301 22.1847 41.6652 22.1847C40.7173 22.1847 39.8832 21.9692 39.1631 21.5384C38.4429 21.1075 37.8797 20.495 37.4734 19.701C37.0733 18.907 36.8702 17.956 36.864 16.848V7.81818H40.7973V16.1463C40.8034 16.9834 41.0281 17.6451 41.4713 18.1314C41.9145 18.6177 42.5085 18.8608 43.2533 18.8608C43.7272 18.8608 44.1704 18.7531 44.5828 18.5376C44.9952 18.3161 45.3276 17.9898 45.58 17.5589C45.8385 17.1281 45.9647 16.5956 45.9585 15.9616ZM52.7779 22V7.81818H56.5911V10.2926H56.7388C56.9973 9.4124 57.4313 8.74763 58.0407 8.2983C58.65 7.8428 59.3517 7.61506 60.1458 7.61506C60.3427 7.61506 60.5551 7.62737 60.7829 7.65199C61.0106 7.67661 61.2106 7.71046 61.383 7.75355V11.2436C61.1983 11.1882 60.9429 11.139 60.6167 11.0959C60.2904 11.0528 59.9919 11.0312 59.7211 11.0312C59.1425 11.0312 58.6254 11.1574 58.1699 11.4098C57.7206 11.656 57.3636 12.0007 57.0989 12.4439C56.8404 12.8871 56.7111 13.398 56.7111 13.9766V22H52.7779ZM68.988 22V3.09091H76.4482C77.8824 3.09091 79.1042 3.36482 80.1137 3.91264C81.1232 4.45431 81.8926 5.20833 82.4219 6.17471C82.9575 7.13494 83.2252 8.2429 83.2252 9.49858C83.2252 10.7543 82.9544 11.8622 82.4127 12.8224C81.871 13.7827 81.0862 14.5305 80.0583 15.0661C79.0365 15.6016 77.7993 15.8693 76.3467 15.8693H71.5917V12.6655H75.7004C76.4698 12.6655 77.1038 12.5331 77.6023 12.2685C78.1071 11.9976 78.4825 11.6252 78.7288 11.1513C78.9811 10.6712 79.1073 10.1203 79.1073 9.49858C79.1073 8.87074 78.9811 8.32292 78.7288 7.85511C78.4825 7.38115 78.1071 7.01491 77.6023 6.75639C77.0976 6.49171 76.4575 6.35938 75.6819 6.35938H72.9859V22H68.988ZM89.1513 22.2678C88.2465 22.2678 87.4401 22.1108 86.7323 21.7969C86.0244 21.4768 85.4643 21.0059 85.0519 20.3842C84.6456 19.7564 84.4425 18.9747 84.4425 18.0391C84.4425 17.2512 84.5871 16.5895 84.8764 16.054C85.1657 15.5185 85.5597 15.0876 86.0582 14.7614C86.5568 14.4351 87.1231 14.1889 87.7571 14.0227C88.3973 13.8565 89.0682 13.7396 89.7699 13.6719C90.5947 13.5857 91.2595 13.5057 91.7642 13.4318C92.269 13.3518 92.6352 13.2348 92.8629 13.081C93.0907 12.9271 93.2046 12.6993 93.2046 12.3977V12.3423C93.2046 11.7576 93.0199 11.3052 92.6506 10.9851C92.2874 10.665 91.7704 10.505 91.0994 10.505C90.3916 10.505 89.8284 10.6619 89.4098 10.9759C88.9913 11.2836 88.7143 11.6714 88.5788 12.1392L84.9411 11.8438C85.1257 10.982 85.4889 10.2372 86.0306 9.60938C86.5722 8.97538 87.2708 8.48911 88.1264 8.15057C88.9882 7.80587 89.9853 7.63352 91.1179 7.63352C91.9058 7.63352 92.6598 7.72585 93.38 7.91051C94.1063 8.09517 94.7495 8.38139 95.3097 8.76918C95.876 9.15696 96.3222 9.65554 96.6484 10.2649C96.9747 10.8681 97.1378 11.5914 97.1378 12.4347V22H93.4077V20.0334H93.2969C93.0691 20.4766 92.7645 20.8674 92.3828 21.206C92.0012 21.5384 91.5426 21.8 91.0071 21.9908C90.4716 22.1754 89.853 22.2678 89.1513 22.2678ZM90.2777 19.5533C90.8563 19.5533 91.3672 19.4394 91.8104 19.2116C92.2536 18.9777 92.6013 18.6638 92.8537 18.2699C93.1061 17.8759 93.2323 17.4297 93.2323 16.9311V15.4261C93.1091 15.5062 92.9399 15.58 92.7244 15.6477C92.5152 15.7093 92.2782 15.7678 92.0135 15.8232C91.7488 15.8724 91.4841 15.9186 91.2195 15.9616C90.9548 15.9986 90.7147 16.0324 90.4993 16.0632C90.0377 16.1309 89.6345 16.2386 89.2898 16.3864C88.9451 16.5341 88.6773 16.7341 88.4865 16.9865C88.2957 17.2327 88.2003 17.5405 88.2003 17.9098C88.2003 18.4453 88.3942 18.8546 88.782 19.1378C89.1759 19.4148 89.6745 19.5533 90.2777 19.5533ZM111.729 11.8622L108.128 12.0838C108.067 11.776 107.934 11.4991 107.731 11.2528C107.528 11.0005 107.26 10.8004 106.928 10.6527C106.602 10.4988 106.211 10.4219 105.755 10.4219C105.146 10.4219 104.632 10.5511 104.213 10.8097C103.795 11.062 103.586 11.4006 103.586 11.8253C103.586 12.1638 103.721 12.45 103.992 12.6839C104.263 12.9179 104.727 13.1056 105.386 13.2472L107.953 13.7642C109.332 14.0473 110.359 14.5028 111.037 15.1307C111.714 15.7585 112.052 16.5833 112.052 17.6051C112.052 18.5346 111.778 19.3501 111.23 20.0518C110.689 20.7536 109.944 21.3014 108.996 21.6953C108.054 22.0831 106.968 22.277 105.737 22.277C103.859 22.277 102.364 21.8861 101.25 21.1044C100.142 20.3165 99.4923 19.2455 99.3014 17.8913L103.17 17.6882C103.287 18.2607 103.57 18.6977 104.019 18.9993C104.469 19.2947 105.044 19.4425 105.746 19.4425C106.435 19.4425 106.989 19.3101 107.408 19.0455C107.833 18.7746 108.048 18.4268 108.054 18.0021C108.048 17.6451 107.897 17.3527 107.602 17.125C107.306 16.8911 106.851 16.7126 106.235 16.5895L103.779 16.1001C102.394 15.8232 101.363 15.343 100.686 14.6598C100.015 13.9766 99.68 13.1056 99.68 12.0469C99.68 11.1359 99.9262 10.3511 100.419 9.69247C100.917 9.03385 101.616 8.52604 102.515 8.16903C103.419 7.81203 104.478 7.63352 105.691 7.63352C107.482 7.63352 108.891 8.01207 109.919 8.76918C110.953 9.52628 111.557 10.5573 111.729 11.8622ZM126.069 11.8622L122.468 12.0838C122.406 11.776 122.274 11.4991 122.071 11.2528C121.868 11.0005 121.6 10.8004 121.267 10.6527C120.941 10.4988 120.55 10.4219 120.095 10.4219C119.486 10.4219 118.972 10.5511 118.553 10.8097C118.134 11.062 117.925 11.4006 117.925 11.8253C117.925 12.1638 118.061 12.45 118.331 12.6839C118.602 12.9179 119.067 13.1056 119.726 13.2472L122.292 13.7642C123.671 14.0473 124.699 14.5028 125.376 15.1307C126.053 15.7585 126.392 16.5833 126.392 17.6051C126.392 18.5346 126.118 19.3501 125.57 20.0518C125.028 20.7536 124.284 21.3014 123.336 21.6953C122.394 22.0831 121.307 22.277 120.076 22.277C118.199 22.277 116.703 21.8861 115.589 21.1044C114.481 20.3165 113.832 19.2455 113.641 17.8913L117.51 17.6882C117.627 18.2607 117.91 18.6977 118.359 18.9993C118.808 19.2947 119.384 19.4425 120.086 19.4425C120.775 19.4425 121.329 19.3101 121.748 19.0455C122.172 18.7746 122.388 18.4268 122.394 18.0021C122.388 17.6451 122.237 17.3527 121.941 17.125C121.646 16.8911 121.191 16.7126 120.575 16.5895L118.119 16.1001C116.734 15.8232 115.703 15.343 115.026 14.6598C114.355 13.9766 114.02 13.1056 114.02 12.0469C114.02 11.1359 114.266 10.3511 114.758 9.69247C115.257 9.03385 115.955 8.52604 116.854 8.16903C117.759 7.81203 118.818 7.63352 120.03 7.63352C121.821 7.63352 123.231 8.01207 124.259 8.76918C125.293 9.52628 125.896 10.5573 126.069 11.8622ZM131.406 22L127.547 7.81818H131.526L133.724 17.3466H133.853L136.143 7.81818H140.048L142.375 17.2912H142.495L144.655 7.81818H148.626L144.775 22H140.611L138.174 13.081H137.998L135.561 22H131.406ZM156.516 22.277C155.082 22.277 153.841 21.9723 152.795 21.3629C151.755 20.7474 150.952 19.8918 150.385 18.7962C149.819 17.6944 149.536 16.4171 149.536 14.9645C149.536 13.4995 149.819 12.2192 150.385 11.1236C150.952 10.0218 151.755 9.16619 152.795 8.55682C153.841 7.94129 155.082 7.63352 156.516 7.63352C157.95 7.63352 159.187 7.94129 160.228 8.55682C161.274 9.16619 162.08 10.0218 162.647 11.1236C163.213 12.2192 163.496 13.4995 163.496 14.9645C163.496 16.4171 163.213 17.6944 162.647 18.7962C162.08 19.8918 161.274 20.7474 160.228 21.3629C159.187 21.9723 157.95 22.277 156.516 22.277ZM156.534 19.2301C157.187 19.2301 157.732 19.0455 158.169 18.6761C158.606 18.3007 158.935 17.7898 159.157 17.1435C159.384 16.4972 159.498 15.7616 159.498 14.9368C159.498 14.112 159.384 13.3764 159.157 12.7301C158.935 12.0838 158.606 11.5729 158.169 11.1974C157.732 10.822 157.187 10.6342 156.534 10.6342C155.876 10.6342 155.322 10.822 154.872 11.1974C154.429 11.5729 154.094 12.0838 153.866 12.7301C153.644 13.3764 153.534 14.112 153.534 14.9368C153.534 15.7616 153.644 16.4972 153.866 17.1435C154.094 17.7898 154.429 18.3007 154.872 18.6761C155.322 19.0455 155.876 19.2301 156.534 19.2301ZM165.794 22V7.81818H169.607V10.2926H169.755C170.013 9.4124 170.447 8.74763 171.056 8.2983C171.666 7.8428 172.367 7.61506 173.161 7.61506C173.358 7.61506 173.571 7.62737 173.799 7.65199C174.026 7.67661 174.226 7.71046 174.399 7.75355V11.2436C174.214 11.1882 173.959 11.139 173.632 11.0959C173.306 11.0528 173.008 11.0312 172.737 11.0312C172.158 11.0312 171.641 11.1574 171.186 11.4098C170.736 11.656 170.379 12.0007 170.115 12.4439C169.856 12.8871 169.727 13.398 169.727 13.9766V22H165.794ZM180.738 22.2308C179.661 22.2308 178.685 21.9538 177.811 21.3999C176.943 20.8397 176.254 20.018 175.743 18.9347C175.238 17.8452 174.986 16.5095 174.986 14.9276C174.986 13.3026 175.247 11.9515 175.771 10.8743C176.294 9.79096 176.989 8.98153 177.857 8.44602C178.731 7.90436 179.688 7.63352 180.729 7.63352C181.523 7.63352 182.184 7.76894 182.714 8.03977C183.249 8.30445 183.68 8.63684 184.006 9.03693C184.339 9.43087 184.591 9.81865 184.764 10.2003H184.884V3.09091H188.808V22H184.93V19.7287H184.764C184.579 20.1226 184.317 20.5135 183.979 20.9013C183.646 21.2829 183.212 21.5999 182.677 21.8523C182.148 22.1046 181.501 22.2308 180.738 22.2308ZM181.984 19.1009C182.618 19.1009 183.154 18.9285 183.591 18.5838C184.034 18.233 184.373 17.7436 184.607 17.1158C184.847 16.4879 184.967 15.7524 184.967 14.9091C184.967 14.0658 184.85 13.3333 184.616 12.7116C184.382 12.09 184.043 11.6098 183.6 11.2713C183.157 10.9328 182.618 10.7635 181.984 10.7635C181.338 10.7635 180.793 10.9389 180.35 11.2898C179.907 11.6406 179.572 12.1269 179.344 12.7486C179.116 13.3703 179.002 14.0904 179.002 14.9091C179.002 15.7339 179.116 16.4633 179.344 17.0973C179.578 17.7251 179.913 18.2176 180.35 18.5746C180.793 18.9254 181.338 19.1009 181.984 19.1009ZM197.613 22V3.09091H201.611V10.8928H209.726V3.09091H213.715V22H209.726V14.1889H201.611V22H197.613ZM220.721 22.2678C219.817 22.2678 219.01 22.1108 218.302 21.7969C217.595 21.4768 217.034 21.0059 216.622 20.3842C216.216 19.7564 216.013 18.9747 216.013 18.0391C216.013 17.2512 216.157 16.5895 216.447 16.054C216.736 15.5185 217.13 15.0876 217.628 14.7614C218.127 14.4351 218.693 14.1889 219.327 14.0227C219.967 13.8565 220.638 13.7396 221.34 13.6719C222.165 13.5857 222.83 13.5057 223.334 13.4318C223.839 13.3518 224.205 13.2348 224.433 13.081C224.661 12.9271 224.775 12.6993 224.775 12.3977V12.3423C224.775 11.7576 224.59 11.3052 224.221 10.9851C223.858 10.665 223.341 10.505 222.67 10.505C221.962 10.505 221.399 10.6619 220.98 10.9759C220.561 11.2836 220.284 11.6714 220.149 12.1392L216.511 11.8438C216.696 10.982 217.059 10.2372 217.601 9.60938C218.142 8.97538 218.841 8.48911 219.697 8.15057C220.558 7.80587 221.555 7.63352 222.688 7.63352C223.476 7.63352 224.23 7.72585 224.95 7.91051C225.676 8.09517 226.32 8.38139 226.88 8.76918C227.446 9.15696 227.892 9.65554 228.219 10.2649C228.545 10.8681 228.708 11.5914 228.708 12.4347V22H224.978V20.0334H224.867C224.639 20.4766 224.335 20.8674 223.953 21.206C223.571 21.5384 223.113 21.8 222.577 21.9908C222.042 22.1754 221.423 22.2678 220.721 22.2678ZM221.848 19.5533C222.426 19.5533 222.937 19.4394 223.381 19.2116C223.824 18.9777 224.171 18.6638 224.424 18.2699C224.676 17.8759 224.802 17.4297 224.802 16.9311V15.4261C224.679 15.5062 224.51 15.58 224.295 15.6477C224.085 15.7093 223.848 15.7678 223.584 15.8232C223.319 15.8724 223.054 15.9186 222.79 15.9616C222.525 15.9986 222.285 16.0324 222.069 16.0632C221.608 16.1309 221.205 16.2386 220.86 16.3864C220.515 16.5341 220.247 16.7341 220.057 16.9865C219.866 17.2327 219.77 17.5405 219.77 17.9098C219.77 18.4453 219.964 18.8546 220.352 19.1378C220.746 19.4148 221.245 19.5533 221.848 19.5533ZM243.299 11.8622L239.698 12.0838C239.637 11.776 239.504 11.4991 239.301 11.2528C239.098 11.0005 238.83 10.8004 238.498 10.6527C238.172 10.4988 237.781 10.4219 237.325 10.4219C236.716 10.4219 236.202 10.5511 235.784 10.8097C235.365 11.062 235.156 11.4006 235.156 11.8253C235.156 12.1638 235.291 12.45 235.562 12.6839C235.833 12.9179 236.297 13.1056 236.956 13.2472L239.523 13.7642C240.902 14.0473 241.93 14.5028 242.607 15.1307C243.284 15.7585 243.622 16.5833 243.622 17.6051C243.622 18.5346 243.348 19.3501 242.801 20.0518C242.259 20.7536 241.514 21.3014 240.566 21.6953C239.624 22.0831 238.538 22.277 237.307 22.277C235.43 22.277 233.934 21.8861 232.82 21.1044C231.712 20.3165 231.062 19.2455 230.872 17.8913L234.74 17.6882C234.857 18.2607 235.14 18.6977 235.59 18.9993C236.039 19.2947 236.614 19.4425 237.316 19.4425C238.006 19.4425 238.56 19.3101 238.978 19.0455C239.403 18.7746 239.618 18.4268 239.624 18.0021C239.618 17.6451 239.467 17.3527 239.172 17.125C238.877 16.8911 238.421 16.7126 237.806 16.5895L235.35 16.1001C233.965 15.8232 232.934 15.343 232.257 14.6598C231.586 13.9766 231.25 13.1056 231.25 12.0469C231.25 11.1359 231.496 10.3511 231.989 9.69247C232.487 9.03385 233.186 8.52604 234.085 8.16903C234.989 7.81203 236.048 7.63352 237.261 7.63352C239.052 7.63352 240.462 8.01207 241.489 8.76918C242.524 9.52628 243.127 10.5573 243.299 11.8622ZM251.67 22V3.09091H259.242C260.633 3.09091 261.793 3.29711 262.722 3.70952C263.652 4.12192 264.35 4.69437 264.818 5.42685C265.286 6.15317 265.52 6.99029 265.52 7.93821C265.52 8.67685 265.372 9.32623 265.077 9.88636C264.781 10.4403 264.375 10.8958 263.858 11.2528C263.347 11.6037 262.762 11.853 262.104 12.0007V12.1854C262.824 12.2161 263.498 12.4193 264.126 12.7947C264.76 13.1702 265.274 13.6965 265.668 14.3736C266.062 15.0445 266.259 15.8447 266.259 16.7741C266.259 17.7775 266.009 18.6731 265.511 19.4609C265.018 20.2427 264.289 20.8613 263.322 21.3168C262.356 21.7723 261.165 22 259.749 22H251.67ZM255.668 18.7315H258.928C260.042 18.7315 260.854 18.5192 261.365 18.0945C261.876 17.6636 262.131 17.0911 262.131 16.3771C262.131 15.8539 262.005 15.3923 261.753 14.9922C261.501 14.5921 261.14 14.2782 260.673 14.0504C260.211 13.8227 259.66 13.7088 259.02 13.7088H255.668V18.7315ZM255.668 11.0036H258.632C259.18 11.0036 259.666 10.9081 260.091 10.7173C260.522 10.5204 260.86 10.2434 261.107 9.88636C261.359 9.52936 261.485 9.10156 261.485 8.60298C261.485 7.91974 261.242 7.36884 260.756 6.95028C260.276 6.53172 259.592 6.32244 258.706 6.32244H255.668V11.0036ZM274.989 22.277C273.53 22.277 272.275 21.9815 271.222 21.3906C270.176 20.7936 269.369 19.9503 268.803 18.8608C268.237 17.7652 267.954 16.4695 267.954 14.9737C267.954 13.5149 268.237 12.2346 268.803 11.1328C269.369 10.031 270.166 9.17235 271.194 8.55682C272.228 7.94129 273.441 7.63352 274.832 7.63352C275.768 7.63352 276.639 7.78433 277.445 8.08594C278.258 8.38139 278.965 8.82765 279.569 9.42472C280.178 10.0218 280.652 10.7727 280.991 11.6776C281.329 12.5762 281.498 13.6288 281.498 14.8352V15.9155H269.523V13.478H277.796C277.796 12.9117 277.673 12.41 277.427 11.973C277.18 11.536 276.839 11.1944 276.402 10.9482C275.971 10.6958 275.469 10.5696 274.897 10.5696C274.3 10.5696 273.77 10.7081 273.309 10.9851C272.853 11.2559 272.496 11.6222 272.238 12.0838C271.979 12.5393 271.847 13.0471 271.841 13.6072V15.9247C271.841 16.6264 271.97 17.2327 272.228 17.7436C272.493 18.2545 272.866 18.6484 273.346 18.9254C273.826 19.2024 274.395 19.3409 275.054 19.3409C275.491 19.3409 275.891 19.2794 276.254 19.1562C276.617 19.0331 276.928 18.8485 277.187 18.6023C277.445 18.3561 277.642 18.0545 277.777 17.6974L281.415 17.9375C281.231 18.8116 280.852 19.5748 280.28 20.2273C279.713 20.8736 278.981 21.3783 278.082 21.7415C277.19 22.0985 276.159 22.277 274.989 22.277ZM290.268 22.277C288.809 22.277 287.554 21.9815 286.501 21.3906C285.455 20.7936 284.648 19.9503 284.082 18.8608C283.516 17.7652 283.233 16.4695 283.233 14.9737C283.233 13.5149 283.516 12.2346 284.082 11.1328C284.648 10.031 285.446 9.17235 286.473 8.55682C287.508 7.94129 288.72 7.63352 290.111 7.63352C291.047 7.63352 291.918 7.78433 292.724 8.08594C293.537 8.38139 294.245 8.82765 294.848 9.42472C295.457 10.0218 295.931 10.7727 296.27 11.6776C296.608 12.5762 296.777 13.6288 296.777 14.8352V15.9155H284.802V13.478H293.075C293.075 12.9117 292.952 12.41 292.706 11.973C292.459 11.536 292.118 11.1944 291.681 10.9482C291.25 10.6958 290.748 10.5696 290.176 10.5696C289.579 10.5696 289.049 10.7081 288.588 10.9851C288.132 11.2559 287.775 11.6222 287.517 12.0838C287.258 12.5393 287.126 13.0471 287.12 13.6072V15.9247C287.12 16.6264 287.249 17.2327 287.508 17.7436C287.772 18.2545 288.145 18.6484 288.625 18.9254C289.105 19.2024 289.674 19.3409 290.333 19.3409C290.77 19.3409 291.17 19.2794 291.533 19.1562C291.896 19.0331 292.207 18.8485 292.466 18.6023C292.724 18.3561 292.921 18.0545 293.057 17.6974L296.694 17.9375C296.51 18.8116 296.131 19.5748 295.559 20.2273C294.992 20.8736 294.26 21.3783 293.361 21.7415C292.469 22.0985 291.438 22.277 290.268 22.277ZM303.017 13.8011V22H299.084V7.81818H302.833V10.3203H302.999C303.313 9.4955 303.839 8.84304 304.578 8.36293C305.316 7.87666 306.212 7.63352 307.265 7.63352C308.249 7.63352 309.108 7.84896 309.841 8.27983C310.573 8.7107 311.142 9.32623 311.549 10.1264C311.955 10.9205 312.158 11.8684 312.158 12.9702V22H308.225V13.6719C308.231 12.804 308.009 12.1269 307.56 11.6406C307.111 11.1482 306.492 10.902 305.704 10.902C305.175 10.902 304.707 11.0159 304.301 11.2436C303.901 11.4714 303.587 11.8037 303.359 12.2408C303.137 12.6716 303.024 13.1918 303.017 13.8011ZM337.513 9.71094H333.469C333.396 9.18774 333.245 8.72301 333.017 8.31676C332.789 7.90436 332.497 7.5535 332.14 7.2642C331.783 6.9749 331.37 6.75331 330.903 6.59943C330.441 6.44555 329.939 6.36861 329.398 6.36861C328.419 6.36861 327.566 6.61174 326.84 7.09801C326.114 7.57812 325.551 8.27983 325.15 9.20312C324.75 10.1203 324.55 11.2344 324.55 12.5455C324.55 13.8935 324.75 15.026 325.15 15.9432C325.557 16.8603 326.123 17.5528 326.849 18.0206C327.576 18.4884 328.416 18.7223 329.37 18.7223C329.905 18.7223 330.401 18.6515 330.856 18.5099C331.318 18.3684 331.727 18.1622 332.084 17.8913C332.441 17.6143 332.737 17.2789 332.971 16.8849C333.211 16.491 333.377 16.0417 333.469 15.5369L337.513 15.5554C337.409 16.4233 337.147 17.2604 336.729 18.0668C336.316 18.867 335.759 19.584 335.057 20.218C334.362 20.8459 333.531 21.3445 332.565 21.7138C331.604 22.0769 330.518 22.2585 329.305 22.2585C327.619 22.2585 326.111 21.8769 324.781 21.1136C323.458 20.3504 322.411 19.2455 321.642 17.799C320.879 16.3525 320.497 14.6013 320.497 12.5455C320.497 10.4834 320.885 8.72917 321.66 7.28267C322.436 5.83617 323.489 4.73437 324.818 3.97727C326.148 3.21401 327.643 2.83239 329.305 2.83239C330.401 2.83239 331.417 2.98627 332.352 3.29403C333.294 3.6018 334.128 4.05114 334.854 4.64204C335.581 5.2268 336.172 5.94389 336.627 6.79332C337.089 7.64276 337.384 8.61529 337.513 9.71094ZM343.98 13.8011V22H340.046V3.09091H343.869V10.3203H344.035C344.355 9.48319 344.872 8.82765 345.586 8.35369C346.3 7.87358 347.196 7.63352 348.273 7.63352C349.258 7.63352 350.116 7.84896 350.849 8.27983C351.588 8.70454 352.16 9.317 352.566 10.1172C352.979 10.9112 353.182 11.8622 353.176 12.9702V22H349.242V13.6719C349.249 12.7978 349.027 12.1177 348.578 11.6314C348.134 11.1451 347.513 10.902 346.713 10.902C346.177 10.902 345.703 11.0159 345.291 11.2436C344.884 11.4714 344.564 11.8037 344.33 12.2408C344.103 12.6716 343.986 13.1918 343.98 13.8011ZM360.055 22.2678C359.15 22.2678 358.344 22.1108 357.636 21.7969C356.928 21.4768 356.368 21.0059 355.956 20.3842C355.549 19.7564 355.346 18.9747 355.346 18.0391C355.346 17.2512 355.491 16.5895 355.78 16.054C356.069 15.5185 356.463 15.0876 356.962 14.7614C357.461 14.4351 358.027 14.1889 358.661 14.0227C359.301 13.8565 359.972 13.7396 360.674 13.6719C361.498 13.5857 362.163 13.5057 362.668 13.4318C363.173 13.3518 363.539 13.2348 363.767 13.081C363.994 12.9271 364.108 12.6993 364.108 12.3977V12.3423C364.108 11.7576 363.924 11.3052 363.554 10.9851C363.191 10.665 362.674 10.505 362.003 10.505C361.295 10.505 360.732 10.6619 360.314 10.9759C359.895 11.2836 359.618 11.6714 359.483 12.1392L355.845 11.8438C356.029 10.982 356.393 10.2372 356.934 9.60938C357.476 8.97538 358.175 8.48911 359.03 8.15057C359.892 7.80587 360.889 7.63352 362.022 7.63352C362.81 7.63352 363.564 7.72585 364.284 7.91051C365.01 8.09517 365.653 8.38139 366.213 8.76918C366.78 9.15696 367.226 9.65554 367.552 10.2649C367.878 10.8681 368.042 11.5914 368.042 12.4347V22H364.311V20.0334H364.201C363.973 20.4766 363.668 20.8674 363.287 21.206C362.905 21.5384 362.446 21.8 361.911 21.9908C361.375 22.1754 360.757 22.2678 360.055 22.2678ZM361.181 19.5533C361.76 19.5533 362.271 19.4394 362.714 19.2116C363.157 18.9777 363.505 18.6638 363.757 18.2699C364.01 17.8759 364.136 17.4297 364.136 16.9311V15.4261C364.013 15.5062 363.844 15.58 363.628 15.6477C363.419 15.7093 363.182 15.7678 362.917 15.8232C362.653 15.8724 362.388 15.9186 362.123 15.9616C361.859 15.9986 361.618 16.0324 361.403 16.0632C360.941 16.1309 360.538 16.2386 360.194 16.3864C359.849 16.5341 359.581 16.7341 359.39 16.9865C359.199 17.2327 359.104 17.5405 359.104 17.9098C359.104 18.4453 359.298 18.8546 359.686 19.1378C360.08 19.4148 360.578 19.5533 361.181 19.5533ZM374.766 13.8011V22H370.833V7.81818H374.582V10.3203H374.748C375.062 9.4955 375.588 8.84304 376.327 8.36293C377.065 7.87666 377.961 7.63352 379.013 7.63352C379.998 7.63352 380.857 7.84896 381.589 8.27983C382.322 8.7107 382.891 9.32623 383.298 10.1264C383.704 10.9205 383.907 11.8684 383.907 12.9702V22H379.974V13.6719C379.98 12.804 379.758 12.1269 379.309 11.6406C378.86 11.1482 378.241 10.902 377.453 10.902C376.924 10.902 376.456 11.0159 376.05 11.2436C375.65 11.4714 375.336 11.8037 375.108 12.2408C374.886 12.6716 374.772 13.1918 374.766 13.8011ZM393.136 27.6136C391.862 27.6136 390.769 27.4382 389.858 27.0874C388.954 26.7427 388.233 26.2718 387.698 25.6747C387.162 25.0777 386.815 24.4067 386.655 23.6619L390.292 23.1726C390.403 23.4557 390.579 23.7204 390.819 23.9666C391.059 24.2128 391.376 24.4098 391.77 24.5575C392.17 24.7114 392.656 24.7884 393.228 24.7884C394.084 24.7884 394.789 24.5791 395.343 24.1605C395.903 23.7481 396.183 23.0556 396.183 22.0831V19.4886H396.017C395.844 19.8826 395.586 20.255 395.241 20.6058C394.896 20.9567 394.453 21.2429 393.912 21.4645C393.37 21.6861 392.724 21.7969 391.973 21.7969C390.908 21.7969 389.938 21.5507 389.064 21.0582C388.196 20.5597 387.504 19.7995 386.987 18.7777C386.476 17.7498 386.221 16.451 386.221 14.8814C386.221 13.2749 386.482 11.933 387.005 10.8558C387.529 9.77865 388.224 8.9723 389.092 8.43679C389.966 7.90128 390.923 7.63352 391.963 7.63352C392.758 7.63352 393.422 7.76894 393.958 8.03977C394.493 8.30445 394.924 8.63684 395.25 9.03693C395.583 9.43087 395.838 9.81865 396.017 10.2003H396.164V7.81818H400.07V22.1385C400.07 23.3449 399.775 24.3544 399.184 25.1669C398.593 25.9794 397.774 26.5888 396.728 26.995C395.687 27.4074 394.49 27.6136 393.136 27.6136ZM393.219 18.8423C393.853 18.8423 394.389 18.6854 394.826 18.3714C395.269 18.0514 395.607 17.5959 395.841 17.005C396.081 16.4079 396.201 15.6939 396.201 14.8629C396.201 14.032 396.084 13.3118 395.851 12.7024C395.617 12.0869 395.278 11.6098 394.835 11.2713C394.392 10.9328 393.853 10.7635 393.219 10.7635C392.573 10.7635 392.028 10.9389 391.585 11.2898C391.142 11.6345 390.806 12.1146 390.579 12.7301C390.351 13.3456 390.237 14.0566 390.237 14.8629C390.237 15.6816 390.351 16.3894 390.579 16.9865C390.812 17.5774 391.148 18.036 391.585 18.3622C392.028 18.6823 392.573 18.8423 393.219 18.8423ZM409.403 22.277C407.944 22.277 406.689 21.9815 405.636 21.3906C404.59 20.7936 403.783 19.9503 403.217 18.8608C402.651 17.7652 402.368 16.4695 402.368 14.9737C402.368 13.5149 402.651 12.2346 403.217 11.1328C403.783 10.031 404.58 9.17235 405.608 8.55682C406.642 7.94129 407.855 7.63352 409.246 7.63352C410.182 7.63352 411.053 7.78433 411.859 8.08594C412.672 8.38139 413.379 8.82765 413.983 9.42472C414.592 10.0218 415.066 10.7727 415.404 11.6776C415.743 12.5762 415.912 13.6288 415.912 14.8352V15.9155H403.937V13.478H412.21C412.21 12.9117 412.087 12.41 411.841 11.973C411.594 11.536 411.253 11.1944 410.816 10.9482C410.385 10.6958 409.883 10.5696 409.311 10.5696C408.714 10.5696 408.184 10.7081 407.723 10.9851C407.267 11.2559 406.91 11.6222 406.652 12.0838C406.393 12.5393 406.261 13.0471 406.255 13.6072V15.9247C406.255 16.6264 406.384 17.2327 406.642 17.7436C406.907 18.2545 407.279 18.6484 407.76 18.9254C408.24 19.2024 408.809 19.3409 409.468 19.3409C409.905 19.3409 410.305 19.2794 410.668 19.1562C411.031 19.0331 411.342 18.8485 411.6 18.6023C411.859 18.3561 412.056 18.0545 412.191 17.6974L415.829 17.9375C415.645 18.8116 415.266 19.5748 414.694 20.2273C414.127 20.8736 413.395 21.3783 412.496 21.7415C411.604 22.0985 410.573 22.277 409.403 22.277ZM423.445 22.2308C422.368 22.2308 421.392 21.9538 420.518 21.3999C419.65 20.8397 418.961 20.018 418.45 18.9347C417.945 17.8452 417.693 16.5095 417.693 14.9276C417.693 13.3026 417.954 11.9515 418.478 10.8743C419.001 9.79096 419.696 8.98153 420.564 8.44602C421.438 7.90436 422.395 7.63352 423.436 7.63352C424.23 7.63352 424.891 7.76894 425.421 8.03977C425.956 8.30445 426.387 8.63684 426.713 9.03693C427.046 9.43087 427.298 9.81865 427.47 10.2003H427.59V3.09091H431.514V22H427.637V19.7287H427.47C427.286 20.1226 427.024 20.5135 426.686 20.9013C426.353 21.2829 425.919 21.5999 425.384 21.8523C424.854 22.1046 424.208 22.2308 423.445 22.2308ZM424.691 19.1009C425.325 19.1009 425.861 18.9285 426.298 18.5838C426.741 18.233 427.08 17.7436 427.314 17.1158C427.554 16.4879 427.674 15.7524 427.674 14.9091C427.674 14.0658 427.557 13.3333 427.323 12.7116C427.089 12.09 426.75 11.6098 426.307 11.2713C425.864 10.9328 425.325 10.7635 424.691 10.7635C424.045 10.7635 423.5 10.9389 423.057 11.2898C422.614 11.6406 422.278 12.1269 422.051 12.7486C421.823 13.3703 421.709 14.0904 421.709 14.9091C421.709 15.7339 421.823 16.4633 422.051 17.0973C422.285 17.7251 422.62 18.2176 423.057 18.5746C423.5 18.9254 424.045 19.1009 424.691 19.1009Z" fill="url(#paint0_linear_1_1418)"/>
</g>
<defs>
<filter id="filter0_dii_1_1418" x="0.0726948" y="0.154589" width="435.905" height="33.7069" filterUnits="userSpaceOnUse" color-interpolation-filters="sRGB">
<feFlood flood-opacity="0" result="BackgroundImageFix"/>
<feColorMatrix in="SourceAlpha" type="matrix" values="0 0 0 0 0 0 0 0 0 0 0 0 0 0 0 0 0 0 127 0" result="hardAlpha"/>
<feOffset dy="1.78512"/>
<feGaussianBlur stdDeviation="2.23141"/>
<feComposite in2="hardAlpha" operator="out"/>
<feColorMatrix type="matrix" values="0 0 0 0 0 0 0 0 0 0 0 0 0 0 0 0 0 0 0.17 0"/>
<feBlend mode="normal" in2="BackgroundImageFix" result="effect1_dropShadow_1_1418"/>
<feBlend mode="normal" in="SourceGraphic" in2="effect1_dropShadow_1_1418" result="shape"/>
<feColorMatrix in="SourceAlpha" type="matrix" values="0 0 0 0 0 0 0 0 0 0 0 0 0 0 0 0 0 0 127 0" result="hardAlpha"/>
<feMorphology radius="1" operator="erode" in="SourceAlpha" result="effect2_innerShadow_1_1418"/>
<feOffset dy="-1.33884"/>
<feComposite in2="hardAlpha" operator="arithmetic" k2="-1" k3="1"/>
<feColorMatrix type="matrix" values="0 0 0 0 0 0 0 0 0 0 0 0 0 0 0 0 0 0 0.1 0"/>
<feBlend mode="normal" in2="shape" result="effect2_innerShadow_1_1418"/>
<feColorMatrix in="SourceAlpha" type="matrix" values="0 0 0 0 0 0 0 0 0 0 0 0 0 0 0 0 0 0 127 0" result="hardAlpha"/>
<feOffset dy="0.892562"/>
<feComposite in2="hardAlpha" operator="arithmetic" k2="-1" k3="1"/>
<feColorMatrix type="matrix" values="0 0 0 0 1 0 0 0 0 1 0 0 0 0 1 0 0 0 0.18 0"/>
<feBlend mode="normal" in2="effect2_innerShadow_1_1418" result="effect3_innerShadow_1_1418"/>
</filter>
<linearGradient id="paint0_linear_1_1418" x1="235" y1="0" x2="235" y2="26" gradientUnits="userSpaceOnUse">
<stop stop-color="#4318FF"/>
<stop offset="1" stop-color="#7F5DFF"/>
</linearGradient>
</defs>
</svg>
