<svg width="283" height="36" viewBox="0 0 283 36" fill="none" xmlns="http://www.w3.org/2000/svg">
<g filter="url(#filter0_dii_1_1152)">
<path d="M5.27556 29V2.81818H15.6051C17.5824 2.81818 19.2699 3.17187 20.6676 3.87926C22.0739 4.57812 23.1435 5.57102 23.8764 6.85795C24.6179 8.13636 24.9886 9.64062 24.9886 11.3707C24.9886 13.1094 24.6136 14.6051 23.8636 15.858C23.1136 17.1023 22.027 18.0568 20.6037 18.7216C19.1889 19.3864 17.4758 19.7188 15.4645 19.7188H8.54829V15.2699H14.5696C15.6264 15.2699 16.5043 15.125 17.2031 14.8352C17.902 14.5455 18.4219 14.1108 18.7628 13.5312C19.1122 12.9517 19.2869 12.2315 19.2869 11.3707C19.2869 10.5014 19.1122 9.76847 18.7628 9.17188C18.4219 8.57528 17.8977 8.12358 17.1903 7.81676C16.4915 7.50142 15.6094 7.34375 14.544 7.34375H10.8111V29H5.27556ZM19.4148 17.0852L25.9219 29H19.8111L13.4446 17.0852H19.4148ZM37.0707 29.3835C35.0509 29.3835 33.3122 28.9744 31.8548 28.1562C30.406 27.3295 29.2895 26.1619 28.5054 24.6534C27.7213 23.1364 27.3293 21.3423 27.3293 19.2713C27.3293 17.2514 27.7213 15.4787 28.5054 13.9531C29.2895 12.4276 30.3932 11.2386 31.8165 10.3864C33.2483 9.53409 34.9273 9.10795 36.8534 9.10795C38.1489 9.10795 39.3548 9.31676 40.4713 9.73438C41.5963 10.1435 42.5764 10.7614 43.4117 11.5881C44.2554 12.4148 44.9117 13.4545 45.3804 14.7074C45.8492 15.9517 46.0835 17.4091 46.0835 19.0795V20.5753H29.5026V17.2003H40.9571C40.9571 16.4162 40.7867 15.7216 40.4457 15.1165C40.1048 14.5114 39.6318 14.0384 39.0267 13.6974C38.4301 13.348 37.7355 13.1733 36.9429 13.1733C36.1162 13.1733 35.3832 13.3651 34.744 13.7486C34.1134 14.1236 33.619 14.6307 33.2611 15.2699C32.9031 15.9006 32.7199 16.6037 32.7114 17.3793V20.5881C32.7114 21.5597 32.8903 22.3991 33.2483 23.1065C33.6148 23.8139 34.1304 24.3594 34.7952 24.7429C35.46 25.1264 36.2483 25.3182 37.1602 25.3182C37.7653 25.3182 38.3193 25.233 38.8222 25.0625C39.325 24.892 39.7554 24.6364 40.1134 24.2955C40.4713 23.9545 40.744 23.5369 40.9315 23.0426L45.9685 23.375C45.7128 24.5852 45.1886 25.642 44.396 26.5455C43.6119 27.4403 42.5977 28.1392 41.3534 28.642C40.1176 29.1364 38.6901 29.3835 37.0707 29.3835ZM65.6156 14.9631L60.6298 15.2699C60.5446 14.8437 60.3613 14.4602 60.0801 14.1193C59.7988 13.7699 59.4281 13.4929 58.9678 13.2884C58.5161 13.0753 57.975 12.9688 57.3443 12.9688C56.5005 12.9688 55.7889 13.1477 55.2093 13.5057C54.6298 13.8551 54.34 14.3239 54.34 14.9119C54.34 15.3807 54.5275 15.777 54.9025 16.1009C55.2775 16.4247 55.921 16.6847 56.8329 16.8807L60.3869 17.5966C62.296 17.9886 63.7193 18.6193 64.6568 19.4886C65.5943 20.358 66.063 21.5 66.063 22.9148C66.063 24.2017 65.6838 25.331 64.9252 26.3026C64.1752 27.2741 63.144 28.0327 61.8315 28.5781C60.5275 29.1151 59.0232 29.3835 57.3187 29.3835C54.7193 29.3835 52.6482 28.8423 51.1056 27.7599C49.5715 26.669 48.6724 25.1861 48.4082 23.3111L53.7647 23.0298C53.9267 23.8224 54.3187 24.4276 54.9409 24.8452C55.563 25.2543 56.3599 25.4588 57.3315 25.4588C58.286 25.4588 59.0531 25.2756 59.6326 24.9091C60.2207 24.5341 60.519 24.0526 60.5275 23.4645C60.519 22.9702 60.3102 22.5653 59.9011 22.25C59.492 21.9261 58.8613 21.679 58.009 21.5085L54.6085 20.831C52.6909 20.4474 51.2633 19.7827 50.3258 18.8366C49.3968 17.8906 48.9323 16.6847 48.9323 15.2188C48.9323 13.9574 49.2732 12.8707 49.9551 11.9588C50.6454 11.0469 51.6127 10.3438 52.8571 9.84943C54.1099 9.35511 55.5758 9.10795 57.2548 9.10795C59.7349 9.10795 61.6866 9.6321 63.1099 10.6804C64.5417 11.7287 65.3769 13.1562 65.6156 14.9631ZM78.0812 29.3835C76.0613 29.3835 74.3227 28.9744 72.8653 28.1562C71.4164 27.3295 70.3 26.1619 69.5159 24.6534C68.7318 23.1364 68.3397 21.3423 68.3397 19.2713C68.3397 17.2514 68.7318 15.4787 69.5159 13.9531C70.3 12.4276 71.4037 11.2386 72.827 10.3864C74.2588 9.53409 75.9377 9.10795 77.8639 9.10795C79.1593 9.10795 80.3653 9.31676 81.4818 9.73438C82.6068 10.1435 83.5869 10.7614 84.4221 11.5881C85.2659 12.4148 85.9221 13.4545 86.3909 14.7074C86.8596 15.9517 87.094 17.4091 87.094 19.0795V20.5753H70.513V17.2003H81.9676C81.9676 16.4162 81.7971 15.7216 81.4562 15.1165C81.1153 14.5114 80.6423 14.0384 80.0372 13.6974C79.4406 13.348 78.746 13.1733 77.9534 13.1733C77.1267 13.1733 76.3937 13.3651 75.7545 13.7486C75.1238 14.1236 74.6295 14.6307 74.2716 15.2699C73.9136 15.9006 73.7304 16.6037 73.7218 17.3793V20.5881C73.7218 21.5597 73.9008 22.3991 74.2588 23.1065C74.6252 23.8139 75.1409 24.3594 75.8056 24.7429C76.4704 25.1264 77.2588 25.3182 78.1707 25.3182C78.7758 25.3182 79.3298 25.233 79.8326 25.0625C80.3355 24.892 80.7659 24.6364 81.1238 24.2955C81.4818 23.9545 81.7545 23.5369 81.942 23.0426L86.9789 23.375C86.7233 24.5852 86.1991 25.642 85.4065 26.5455C84.6224 27.4403 83.6082 28.1392 82.3639 28.642C81.1281 29.1364 79.7005 29.3835 78.0812 29.3835ZM100.733 9.36364V13.4545H88.9073V9.36364H100.733ZM91.592 4.65909H97.038V22.9659C97.038 23.4687 97.1147 23.8608 97.2681 24.142C97.4215 24.4148 97.6346 24.6065 97.9073 24.7173C98.1885 24.8281 98.5124 24.8835 98.8789 24.8835C99.1346 24.8835 99.3902 24.8622 99.6459 24.8196C99.9016 24.7685 100.098 24.7301 100.234 24.7045L101.091 28.7571C100.818 28.8423 100.434 28.9403 99.94 29.0511C99.4456 29.1705 98.8448 29.2429 98.1374 29.2685C96.8249 29.3196 95.6743 29.1449 94.6857 28.7443C93.7056 28.3437 92.9428 27.7216 92.3973 26.8778C91.8519 26.0341 91.5834 24.9687 91.592 23.6818V4.65909ZM111.994 29V2.81818H122.324C124.31 2.81818 126.002 3.19744 127.399 3.95597C128.797 4.70597 129.862 5.75 130.595 7.08807C131.337 8.41761 131.708 9.9517 131.708 11.6903C131.708 13.429 131.333 14.9631 130.583 16.2926C129.833 17.6222 128.746 18.6577 127.323 19.3991C125.908 20.1406 124.195 20.5114 122.183 20.5114H115.6V16.0753H121.288C122.354 16.0753 123.232 15.892 123.922 15.5256C124.621 15.1506 125.141 14.6349 125.482 13.9787C125.831 13.3139 126.006 12.5511 126.006 11.6903C126.006 10.821 125.831 10.0625 125.482 9.41477C125.141 8.75852 124.621 8.25142 123.922 7.89347C123.223 7.52699 122.337 7.34375 121.263 7.34375H117.53V29H111.994ZM139.913 29.3707C138.66 29.3707 137.544 29.1534 136.563 28.7188C135.583 28.2756 134.808 27.6236 134.237 26.7628C133.674 25.8935 133.393 24.8111 133.393 23.5156C133.393 22.4247 133.593 21.5085 133.994 20.767C134.394 20.0256 134.94 19.429 135.63 18.9773C136.321 18.5256 137.105 18.1847 137.982 17.9545C138.869 17.7244 139.798 17.5625 140.769 17.4688C141.911 17.3494 142.832 17.2386 143.531 17.1364C144.23 17.0256 144.737 16.8636 145.052 16.6506C145.367 16.4375 145.525 16.1222 145.525 15.7045V15.6278C145.525 14.8182 145.269 14.1918 144.758 13.7486C144.255 13.3054 143.539 13.0838 142.61 13.0838C141.63 13.0838 140.85 13.3011 140.271 13.7358C139.691 14.1619 139.308 14.6989 139.12 15.3466L134.083 14.9375C134.339 13.7443 134.842 12.7131 135.592 11.8438C136.342 10.9659 137.309 10.2926 138.494 9.82386C139.687 9.34659 141.068 9.10795 142.636 9.10795C143.727 9.10795 144.771 9.2358 145.768 9.49148C146.774 9.74716 147.664 10.1435 148.44 10.6804C149.224 11.2173 149.842 11.9077 150.294 12.7514C150.745 13.5866 150.971 14.5881 150.971 15.7557V29H145.806V26.277H145.653C145.338 26.8906 144.916 27.4318 144.387 27.9006C143.859 28.3608 143.224 28.723 142.482 28.9872C141.741 29.2429 140.884 29.3707 139.913 29.3707ZM141.473 25.6122C142.274 25.6122 142.981 25.4545 143.595 25.1392C144.208 24.8153 144.69 24.3807 145.039 23.8352C145.389 23.2898 145.563 22.6719 145.563 21.9815V19.8977C145.393 20.0085 145.159 20.1108 144.86 20.2045C144.571 20.2898 144.242 20.3707 143.876 20.4474C143.509 20.5156 143.143 20.5795 142.777 20.6392C142.41 20.6903 142.078 20.7372 141.779 20.7798C141.14 20.8736 140.582 21.0227 140.105 21.2273C139.627 21.4318 139.257 21.7088 138.992 22.0582C138.728 22.3991 138.596 22.8253 138.596 23.3366C138.596 24.0781 138.865 24.6449 139.402 25.0369C139.947 25.4205 140.637 25.6122 141.473 25.6122ZM171.174 14.9631L166.189 15.2699C166.103 14.8437 165.92 14.4602 165.639 14.1193C165.358 13.7699 164.987 13.4929 164.527 13.2884C164.075 13.0753 163.534 12.9688 162.903 12.9688C162.059 12.9688 161.348 13.1477 160.768 13.5057C160.189 13.8551 159.899 14.3239 159.899 14.9119C159.899 15.3807 160.086 15.777 160.461 16.1009C160.836 16.4247 161.48 16.6847 162.392 16.8807L165.946 17.5966C167.855 17.9886 169.278 18.6193 170.216 19.4886C171.153 20.358 171.622 21.5 171.622 22.9148C171.622 24.2017 171.243 25.331 170.484 26.3026C169.734 27.2741 168.703 28.0327 167.39 28.5781C166.086 29.1151 164.582 29.3835 162.877 29.3835C160.278 29.3835 158.207 28.8423 156.664 27.7599C155.13 26.669 154.231 25.1861 153.967 23.3111L159.323 23.0298C159.485 23.8224 159.877 24.4276 160.5 24.8452C161.122 25.2543 161.919 25.4588 162.89 25.4588C163.845 25.4588 164.612 25.2756 165.191 24.9091C165.779 24.5341 166.078 24.0526 166.086 23.4645C166.078 22.9702 165.869 22.5653 165.46 22.25C165.051 21.9261 164.42 21.679 163.568 21.5085L160.167 20.831C158.25 20.4474 156.822 19.7827 155.885 18.8366C154.956 17.8906 154.491 16.6847 154.491 15.2188C154.491 13.9574 154.832 12.8707 155.514 11.9588C156.204 11.0469 157.171 10.3438 158.416 9.84943C159.669 9.35511 161.135 9.10795 162.814 9.10795C165.294 9.10795 167.245 9.6321 168.669 10.6804C170.1 11.7287 170.936 13.1562 171.174 14.9631ZM191.029 14.9631L186.043 15.2699C185.958 14.8437 185.775 14.4602 185.494 14.1193C185.212 13.7699 184.842 13.4929 184.381 13.2884C183.93 13.0753 183.389 12.9688 182.758 12.9688C181.914 12.9688 181.202 13.1477 180.623 13.5057C180.043 13.8551 179.754 14.3239 179.754 14.9119C179.754 15.3807 179.941 15.777 180.316 16.1009C180.691 16.4247 181.335 16.6847 182.246 16.8807L185.8 17.5966C187.71 17.9886 189.133 18.6193 190.07 19.4886C191.008 20.358 191.477 21.5 191.477 22.9148C191.477 24.2017 191.097 25.331 190.339 26.3026C189.589 27.2741 188.558 28.0327 187.245 28.5781C185.941 29.1151 184.437 29.3835 182.732 29.3835C180.133 29.3835 178.062 28.8423 176.519 27.7599C174.985 26.669 174.086 25.1861 173.822 23.3111L179.178 23.0298C179.34 23.8224 179.732 24.4276 180.354 24.8452C180.977 25.2543 181.773 25.4588 182.745 25.4588C183.7 25.4588 184.467 25.2756 185.046 24.9091C185.634 24.5341 185.933 24.0526 185.941 23.4645C185.933 22.9702 185.724 22.5653 185.315 22.25C184.906 21.9261 184.275 21.679 183.423 21.5085L180.022 20.831C178.104 20.4474 176.677 19.7827 175.739 18.8366C174.81 17.8906 174.346 16.6847 174.346 15.2188C174.346 13.9574 174.687 12.8707 175.369 11.9588C176.059 11.0469 177.026 10.3438 178.271 9.84943C179.523 9.35511 180.989 9.10795 182.668 9.10795C185.148 9.10795 187.1 9.6321 188.523 10.6804C189.955 11.7287 190.791 13.1562 191.029 14.9631ZM198.42 29L193.076 9.36364H198.586L201.628 22.5568H201.807L204.978 9.36364H210.385L213.607 22.4801H213.773L216.765 9.36364H222.262L216.931 29H211.165L207.79 16.6506H207.547L204.172 29H198.42ZM233.187 29.3835C231.201 29.3835 229.484 28.9616 228.035 28.1179C226.595 27.2656 225.482 26.081 224.698 24.5639C223.914 23.0384 223.522 21.2699 223.522 19.2585C223.522 17.2301 223.914 15.4574 224.698 13.9403C225.482 12.4148 226.595 11.2301 228.035 10.3864C229.484 9.53409 231.201 9.10795 233.187 9.10795C235.173 9.10795 236.886 9.53409 238.326 10.3864C239.775 11.2301 240.892 12.4148 241.676 13.9403C242.46 15.4574 242.852 17.2301 242.852 19.2585C242.852 21.2699 242.46 23.0384 241.676 24.5639C240.892 26.081 239.775 27.2656 238.326 28.1179C236.886 28.9616 235.173 29.3835 233.187 29.3835ZM233.213 25.1648C234.116 25.1648 234.87 24.9091 235.475 24.3977C236.08 23.8778 236.536 23.1705 236.843 22.2756C237.159 21.3807 237.316 20.3622 237.316 19.2202C237.316 18.0781 237.159 17.0597 236.843 16.1648C236.536 15.2699 236.08 14.5625 235.475 14.0426C234.87 13.5227 234.116 13.2628 233.213 13.2628C232.301 13.2628 231.534 13.5227 230.911 14.0426C230.298 14.5625 229.833 15.2699 229.518 16.1648C229.211 17.0597 229.058 18.0781 229.058 19.2202C229.058 20.3622 229.211 21.3807 229.518 22.2756C229.833 23.1705 230.298 23.8778 230.911 24.3977C231.534 24.9091 232.301 25.1648 233.213 25.1648ZM246.033 29V9.36364H251.313V12.7898H251.517C251.875 11.571 252.476 10.6506 253.32 10.0284C254.164 9.39773 255.135 9.08239 256.235 9.08239C256.507 9.08239 256.801 9.09943 257.117 9.13352C257.432 9.16761 257.709 9.21449 257.948 9.27415V14.1065C257.692 14.0298 257.338 13.9616 256.887 13.902C256.435 13.8423 256.022 13.8125 255.647 13.8125C254.845 13.8125 254.13 13.9872 253.499 14.3366C252.877 14.6776 252.382 15.1548 252.016 15.7685C251.658 16.3821 251.479 17.0895 251.479 17.8906V29H246.033ZM266.725 29.3196C265.234 29.3196 263.883 28.9361 262.673 28.169C261.471 27.3935 260.516 26.2557 259.809 24.7557C259.11 23.2472 258.761 21.3977 258.761 19.2074C258.761 16.9574 259.123 15.0866 259.847 13.5952C260.572 12.0952 261.535 10.9744 262.737 10.233C263.947 9.48295 265.272 9.10795 266.712 9.10795C267.812 9.10795 268.728 9.29545 269.461 9.67045C270.202 10.0369 270.799 10.4972 271.251 11.0511C271.711 11.5966 272.06 12.1335 272.299 12.6619H272.465V2.81818H277.898V29H272.529V25.8551H272.299C272.043 26.4006 271.681 26.9418 271.212 27.4787C270.752 28.0071 270.151 28.446 269.41 28.7955C268.677 29.1449 267.782 29.3196 266.725 29.3196ZM268.451 24.9858C269.329 24.9858 270.07 24.7472 270.675 24.2699C271.289 23.7841 271.758 23.1065 272.082 22.2372C272.414 21.3679 272.58 20.3494 272.58 19.1818C272.58 18.0142 272.418 17 272.095 16.1392C271.771 15.2784 271.302 14.6136 270.688 14.1449C270.075 13.6761 269.329 13.4418 268.451 13.4418C267.556 13.4418 266.802 13.6847 266.188 14.1705C265.575 14.6562 265.11 15.3295 264.795 16.1903C264.479 17.0511 264.322 18.0483 264.322 19.1818C264.322 20.3239 264.479 21.3338 264.795 22.2116C265.119 23.081 265.583 23.7628 266.188 24.2571C266.802 24.7429 267.556 24.9858 268.451 24.9858Z" fill="url(#paint0_linear_1_1152)"/>
</g>
<defs>
<filter id="filter0_dii_1_1152" x="0.812752" y="0.140429" width="281.549" height="35.4911" filterUnits="userSpaceOnUse" color-interpolation-filters="sRGB">
<feFlood flood-opacity="0" result="BackgroundImageFix"/>
<feColorMatrix in="SourceAlpha" type="matrix" values="0 0 0 0 0 0 0 0 0 0 0 0 0 0 0 0 0 0 127 0" result="hardAlpha"/>
<feOffset dy="1.78512"/>
<feGaussianBlur stdDeviation="2.23141"/>
<feComposite in2="hardAlpha" operator="out"/>
<feColorMatrix type="matrix" values="0 0 0 0 0 0 0 0 0 0 0 0 0 0 0 0 0 0 0.17 0"/>
<feBlend mode="normal" in2="BackgroundImageFix" result="effect1_dropShadow_1_1152"/>
<feBlend mode="normal" in="SourceGraphic" in2="effect1_dropShadow_1_1152" result="shape"/>
<feColorMatrix in="SourceAlpha" type="matrix" values="0 0 0 0 0 0 0 0 0 0 0 0 0 0 0 0 0 0 127 0" result="hardAlpha"/>
<feMorphology radius="1" operator="erode" in="SourceAlpha" result="effect2_innerShadow_1_1152"/>
<feOffset dy="-1.33884"/>
<feComposite in2="hardAlpha" operator="arithmetic" k2="-1" k3="1"/>
<feColorMatrix type="matrix" values="0 0 0 0 0 0 0 0 0 0 0 0 0 0 0 0 0 0 0.1 0"/>
<feBlend mode="normal" in2="shape" result="effect2_innerShadow_1_1152"/>
<feColorMatrix in="SourceAlpha" type="matrix" values="0 0 0 0 0 0 0 0 0 0 0 0 0 0 0 0 0 0 127 0" result="hardAlpha"/>
<feOffset dy="0.892562"/>
<feComposite in2="hardAlpha" operator="arithmetic" k2="-1" k3="1"/>
<feColorMatrix type="matrix" values="0 0 0 0 1 0 0 0 0 1 0 0 0 0 1 0 0 0 0.18 0"/>
<feBlend mode="normal" in2="effect2_innerShadow_1_1152" result="effect3_innerShadow_1_1152"/>
</filter>
<linearGradient id="paint0_linear_1_1152" x1="234" y1="-2" x2="234" y2="34" gradientUnits="userSpaceOnUse">
<stop stop-color="#4318FF"/>
<stop offset="1" stop-color="#7F5DFF"/>
</linearGradient>
</defs>
</svg>
