<svg width="244" height="76" viewBox="0 0 244 76" fill="none" xmlns="http://www.w3.org/2000/svg">
<g filter="url(#filter0_ii_1_1170)">
<g filter="url(#filter1_d_1_1170)">
<rect x="18" y="14" width="208" height="40" rx="6" fill="url(#paint0_linear_1_1170)"/>
<path d="M70.994 39V29.2H74.368C75.1426 29.2 75.7773 29.3307 76.272 29.592C76.776 29.8533 77.1493 30.208 77.392 30.656C77.6346 31.0947 77.756 31.5847 77.756 32.126C77.756 32.7327 77.5926 33.2833 77.266 33.778C76.9486 34.2727 76.4493 34.6273 75.768 34.842L77.854 39H76.132L74.228 35.052H72.478V39H70.994ZM72.478 33.932H74.284C74.956 33.932 75.446 33.7687 75.754 33.442C76.0713 33.1153 76.23 32.6907 76.23 32.168C76.23 31.6453 76.076 31.23 75.768 30.922C75.46 30.6047 74.9606 30.446 74.27 30.446H72.478V33.932ZM82.2797 39.168C81.5984 39.168 80.9917 39.0187 80.4597 38.72C79.9371 38.412 79.5264 37.9873 79.2277 37.446C78.9291 36.9047 78.7797 36.2747 78.7797 35.556C78.7797 34.828 78.9244 34.1887 79.2137 33.638C79.5124 33.0873 79.9231 32.658 80.4457 32.35C80.9777 32.042 81.5937 31.888 82.2937 31.888C82.9751 31.888 83.5677 32.042 84.0717 32.35C84.5757 32.6487 84.9677 33.05 85.2477 33.554C85.5277 34.058 85.6677 34.6133 85.6677 35.22C85.6677 35.3133 85.6631 35.416 85.6537 35.528C85.6537 35.6307 85.6491 35.7473 85.6397 35.878H80.2357C80.2824 36.55 80.5017 37.0633 80.8937 37.418C81.2951 37.7633 81.7571 37.936 82.2797 37.936C82.6997 37.936 83.0497 37.8427 83.3297 37.656C83.6191 37.46 83.8337 37.1987 83.9737 36.872H85.4577C85.2711 37.5253 84.8977 38.0713 84.3377 38.51C83.7871 38.9487 83.1011 39.168 82.2797 39.168ZM82.2797 33.106C81.7851 33.106 81.3464 33.2553 80.9637 33.554C80.5811 33.8433 80.3477 34.282 80.2637 34.87H84.1837C84.1557 34.3287 83.9644 33.8993 83.6097 33.582C83.2551 33.2647 82.8117 33.106 82.2797 33.106ZM89.9795 39.168C89.1022 39.168 88.3788 38.9533 87.8095 38.524C87.2402 38.0947 86.9135 37.5253 86.8295 36.816H88.3275C88.4022 37.1333 88.5795 37.4087 88.8595 37.642C89.1395 37.866 89.5082 37.978 89.9655 37.978C90.4135 37.978 90.7402 37.8847 90.9455 37.698C91.1508 37.5113 91.2535 37.2967 91.2535 37.054C91.2535 36.6993 91.1088 36.4613 90.8195 36.34C90.5395 36.2093 90.1475 36.0927 89.6435 35.99C89.2515 35.906 88.8595 35.794 88.4675 35.654C88.0848 35.514 87.7628 35.318 87.5015 35.066C87.2495 34.8047 87.1235 34.4547 87.1235 34.016C87.1235 33.4093 87.3568 32.9053 87.8235 32.504C88.2902 32.0933 88.9435 31.888 89.7835 31.888C90.5582 31.888 91.1835 32.0747 91.6595 32.448C92.1448 32.8213 92.4295 33.3487 92.5135 34.03H91.0855C91.0388 33.7313 90.8988 33.498 90.6655 33.33C90.4415 33.162 90.1382 33.078 89.7555 33.078C89.3822 33.078 89.0928 33.1573 88.8875 33.316C88.6822 33.4653 88.5795 33.6613 88.5795 33.904C88.5795 34.1467 88.7195 34.338 88.9995 34.478C89.2888 34.618 89.6668 34.744 90.1335 34.856C90.6002 34.9587 91.0295 35.08 91.4215 35.22C91.8228 35.3507 92.1448 35.5467 92.3875 35.808C92.6302 36.0693 92.7515 36.452 92.7515 36.956C92.7608 37.5907 92.5135 38.118 92.0095 38.538C91.5148 38.958 90.8382 39.168 89.9795 39.168ZM97.6196 39.168C96.9382 39.168 96.3316 39.0187 95.7996 38.72C95.2769 38.412 94.8662 37.9873 94.5676 37.446C94.2689 36.9047 94.1196 36.2747 94.1196 35.556C94.1196 34.828 94.2642 34.1887 94.5536 33.638C94.8522 33.0873 95.2629 32.658 95.7856 32.35C96.3176 32.042 96.9336 31.888 97.6336 31.888C98.3149 31.888 98.9076 32.042 99.4116 32.35C99.9156 32.6487 100.308 33.05 100.588 33.554C100.868 34.058 101.008 34.6133 101.008 35.22C101.008 35.3133 101.003 35.416 100.994 35.528C100.994 35.6307 100.989 35.7473 100.98 35.878H95.5756C95.6222 36.55 95.8416 37.0633 96.2336 37.418C96.6349 37.7633 97.0969 37.936 97.6196 37.936C98.0396 37.936 98.3896 37.8427 98.6696 37.656C98.9589 37.46 99.1736 37.1987 99.3136 36.872H100.798C100.611 37.5253 100.238 38.0713 99.6776 38.51C99.1269 38.9487 98.4409 39.168 97.6196 39.168ZM97.6196 33.106C97.1249 33.106 96.6862 33.2553 96.3036 33.554C95.9209 33.8433 95.6876 34.282 95.6036 34.87H99.5236C99.4956 34.3287 99.3042 33.8993 98.9496 33.582C98.5949 33.2647 98.1516 33.106 97.6196 33.106ZM105.282 39C104.6 39 104.059 38.8367 103.658 38.51C103.256 38.174 103.056 37.5813 103.056 36.732V33.302H101.866V32.056H103.056L103.238 30.292H104.54V32.056H106.5V33.302H104.54V36.732C104.54 37.1147 104.619 37.3807 104.778 37.53C104.946 37.67 105.23 37.74 105.632 37.74H106.43V39H105.282ZM111.613 39V29.2H115.043C115.808 29.2 116.443 29.3307 116.947 29.592C117.451 29.844 117.824 30.194 118.067 30.642C118.319 31.0807 118.445 31.58 118.445 32.14C118.445 32.672 118.324 33.162 118.081 33.61C117.848 34.0487 117.479 34.3987 116.975 34.66C116.471 34.9213 115.827 35.052 115.043 35.052H113.097V39H111.613ZM113.097 33.834H114.973C115.673 33.834 116.172 33.6847 116.471 33.386C116.779 33.078 116.933 32.6627 116.933 32.14C116.933 31.5987 116.779 31.1787 116.471 30.88C116.172 30.572 115.673 30.418 114.973 30.418H113.097V33.834ZM121.825 39.168C121.237 39.168 120.752 39.07 120.369 38.874C119.986 38.678 119.702 38.4213 119.515 38.104C119.328 37.7773 119.235 37.4227 119.235 37.04C119.235 36.368 119.496 35.836 120.019 35.444C120.542 35.052 121.288 34.856 122.259 34.856H124.079V34.73C124.079 34.1887 123.93 33.7827 123.631 33.512C123.342 33.2413 122.964 33.106 122.497 33.106C122.086 33.106 121.727 33.2087 121.419 33.414C121.12 33.61 120.938 33.904 120.873 34.296H119.389C119.436 33.792 119.604 33.3627 119.893 33.008C120.192 32.644 120.565 32.3687 121.013 32.182C121.47 31.986 121.97 31.888 122.511 31.888C123.482 31.888 124.233 32.1447 124.765 32.658C125.297 33.162 125.563 33.8527 125.563 34.73V39H124.275L124.149 37.81C123.953 38.1927 123.668 38.5147 123.295 38.776C122.922 39.0373 122.432 39.168 121.825 39.168ZM122.119 37.964C122.52 37.964 122.856 37.8707 123.127 37.684C123.407 37.488 123.622 37.2313 123.771 36.914C123.93 36.5967 124.028 36.2467 124.065 35.864H122.413C121.825 35.864 121.405 35.9667 121.153 36.172C120.91 36.3773 120.789 36.634 120.789 36.942C120.789 37.2593 120.906 37.5113 121.139 37.698C121.382 37.8753 121.708 37.964 122.119 37.964ZM130.065 39.168C129.188 39.168 128.465 38.9533 127.895 38.524C127.326 38.0947 126.999 37.5253 126.915 36.816H128.413C128.488 37.1333 128.665 37.4087 128.945 37.642C129.225 37.866 129.594 37.978 130.051 37.978C130.499 37.978 130.826 37.8847 131.031 37.698C131.237 37.5113 131.339 37.2967 131.339 37.054C131.339 36.6993 131.195 36.4613 130.905 36.34C130.625 36.2093 130.233 36.0927 129.729 35.99C129.337 35.906 128.945 35.794 128.553 35.654C128.171 35.514 127.849 35.318 127.587 35.066C127.335 34.8047 127.209 34.4547 127.209 34.016C127.209 33.4093 127.443 32.9053 127.909 32.504C128.376 32.0933 129.029 31.888 129.869 31.888C130.644 31.888 131.269 32.0747 131.745 32.448C132.231 32.8213 132.515 33.3487 132.599 34.03H131.171C131.125 33.7313 130.985 33.498 130.751 33.33C130.527 33.162 130.224 33.078 129.841 33.078C129.468 33.078 129.179 33.1573 128.973 33.316C128.768 33.4653 128.665 33.6613 128.665 33.904C128.665 34.1467 128.805 34.338 129.085 34.478C129.375 34.618 129.753 34.744 130.219 34.856C130.686 34.9587 131.115 35.08 131.507 35.22C131.909 35.3507 132.231 35.5467 132.473 35.808C132.716 36.0693 132.837 36.452 132.837 36.956C132.847 37.5907 132.599 38.118 132.095 38.538C131.601 38.958 130.924 39.168 130.065 39.168ZM137.23 39.168C136.352 39.168 135.629 38.9533 135.06 38.524C134.49 38.0947 134.164 37.5253 134.08 36.816H135.578C135.652 37.1333 135.83 37.4087 136.11 37.642C136.39 37.866 136.758 37.978 137.216 37.978C137.664 37.978 137.99 37.8847 138.196 37.698C138.401 37.5113 138.504 37.2967 138.504 37.054C138.504 36.6993 138.359 36.4613 138.07 36.34C137.79 36.2093 137.398 36.0927 136.894 35.99C136.502 35.906 136.11 35.794 135.718 35.654C135.335 35.514 135.013 35.318 134.752 35.066C134.5 34.8047 134.374 34.4547 134.374 34.016C134.374 33.4093 134.607 32.9053 135.074 32.504C135.54 32.0933 136.194 31.888 137.034 31.888C137.808 31.888 138.434 32.0747 138.91 32.448C139.395 32.8213 139.68 33.3487 139.764 34.03H138.336C138.289 33.7313 138.149 33.498 137.916 33.33C137.692 33.162 137.388 33.078 137.006 33.078C136.632 33.078 136.343 33.1573 136.138 33.316C135.932 33.4653 135.83 33.6613 135.83 33.904C135.83 34.1467 135.97 34.338 136.25 34.478C136.539 34.618 136.917 34.744 137.384 34.856C137.85 34.9587 138.28 35.08 138.672 35.22C139.073 35.3507 139.395 35.5467 139.638 35.808C139.88 36.0693 140.002 36.452 140.002 36.956C140.011 37.5907 139.764 38.118 139.26 38.538C138.765 38.958 138.088 39.168 137.23 39.168ZM142.775 39L140.731 32.056H142.215L143.559 37.292L145.071 32.056H146.723L148.235 37.292L149.579 32.056H151.063L149.019 39H147.493L145.897 33.54L144.301 39H142.775ZM155.274 39.168C154.611 39.168 154.014 39.0187 153.482 38.72C152.959 38.412 152.544 37.9873 152.236 37.446C151.928 36.8953 151.774 36.256 151.774 35.528C151.774 34.8 151.928 34.1653 152.236 33.624C152.553 33.0733 152.978 32.6487 153.51 32.35C154.042 32.042 154.635 31.888 155.288 31.888C155.951 31.888 156.543 32.042 157.066 32.35C157.598 32.6487 158.018 33.0733 158.326 33.624C158.643 34.1653 158.802 34.8 158.802 35.528C158.802 36.256 158.643 36.8953 158.326 37.446C158.018 37.9873 157.598 38.412 157.066 38.72C156.534 39.0187 155.937 39.168 155.274 39.168ZM155.274 37.894C155.629 37.894 155.955 37.8053 156.254 37.628C156.562 37.4507 156.809 37.1893 156.996 36.844C157.183 36.4893 157.276 36.0507 157.276 35.528C157.276 35.0053 157.183 34.5713 156.996 34.226C156.819 33.8713 156.576 33.6053 156.268 33.428C155.969 33.2507 155.643 33.162 155.288 33.162C154.933 33.162 154.602 33.2507 154.294 33.428C153.995 33.6053 153.753 33.8713 153.566 34.226C153.379 34.5713 153.286 35.0053 153.286 35.528C153.286 36.0507 153.379 36.4893 153.566 36.844C153.753 37.1893 153.995 37.4507 154.294 37.628C154.593 37.8053 154.919 37.894 155.274 37.894ZM160.407 39V32.056H161.737L161.863 33.372C162.105 32.9147 162.441 32.5553 162.871 32.294C163.309 32.0233 163.837 31.888 164.453 31.888V33.442H164.047C163.636 33.442 163.267 33.512 162.941 33.652C162.623 33.7827 162.367 34.0113 162.171 34.338C161.984 34.6553 161.891 35.0987 161.891 35.668V39H160.407ZM168.698 39.168C168.026 39.168 167.433 39.0093 166.92 38.692C166.406 38.3747 166.005 37.9407 165.716 37.39C165.426 36.8393 165.282 36.214 165.282 35.514C165.282 34.814 165.426 34.1933 165.716 33.652C166.005 33.1013 166.406 32.672 166.92 32.364C167.442 32.0467 168.04 31.888 168.712 31.888C169.262 31.888 169.743 31.9953 170.154 32.21C170.574 32.4247 170.9 32.728 171.134 33.12V28.92H172.618V39H171.288L171.134 37.922C170.91 38.2487 170.602 38.538 170.21 38.79C169.818 39.042 169.314 39.168 168.698 39.168ZM168.964 37.88C169.598 37.88 170.116 37.6607 170.518 37.222C170.928 36.7833 171.134 36.2187 171.134 35.528C171.134 34.828 170.928 34.2633 170.518 33.834C170.116 33.3953 169.598 33.176 168.964 33.176C168.329 33.176 167.806 33.3953 167.396 33.834C166.985 34.2633 166.78 34.828 166.78 35.528C166.78 35.9853 166.873 36.3913 167.06 36.746C167.246 37.1007 167.503 37.3807 167.83 37.586C168.166 37.782 168.544 37.88 168.964 37.88Z" fill="#EFF4FB"/>
</g>
</g>
<defs>
<filter id="filter0_ii_1_1170" x="18" y="13" width="208" height="41" filterUnits="userSpaceOnUse" color-interpolation-filters="sRGB">
<feFlood flood-opacity="0" result="BackgroundImageFix"/>
<feBlend mode="normal" in="SourceGraphic" in2="BackgroundImageFix" result="shape"/>
<feColorMatrix in="SourceAlpha" type="matrix" values="0 0 0 0 0 0 0 0 0 0 0 0 0 0 0 0 0 0 127 0" result="hardAlpha"/>
<feMorphology radius="1" operator="erode" in="SourceAlpha" result="effect1_innerShadow_1_1170"/>
<feOffset dy="-3"/>
<feComposite in2="hardAlpha" operator="arithmetic" k2="-1" k3="1"/>
<feColorMatrix type="matrix" values="0 0 0 0 0 0 0 0 0 0 0 0 0 0 0 0 0 0 0.1 0"/>
<feBlend mode="normal" in2="shape" result="effect1_innerShadow_1_1170"/>
<feColorMatrix in="SourceAlpha" type="matrix" values="0 0 0 0 0 0 0 0 0 0 0 0 0 0 0 0 0 0 127 0" result="hardAlpha"/>
<feOffset dy="2"/>
<feComposite in2="hardAlpha" operator="arithmetic" k2="-1" k3="1"/>
<feColorMatrix type="matrix" values="0 0 0 0 1 0 0 0 0 1 0 0 0 0 1 0 0 0 0.18 0"/>
<feBlend mode="normal" in2="effect1_innerShadow_1_1170" result="effect2_innerShadow_1_1170"/>
</filter>
<filter id="filter1_d_1_1170" x="-2.00272e-05" y="0" width="244" height="76" filterUnits="userSpaceOnUse" color-interpolation-filters="sRGB">
<feFlood flood-opacity="0" result="BackgroundImageFix"/>
<feColorMatrix in="SourceAlpha" type="matrix" values="0 0 0 0 0 0 0 0 0 0 0 0 0 0 0 0 0 0 127 0" result="hardAlpha"/>
<feOffset dy="4"/>
<feGaussianBlur stdDeviation="9"/>
<feColorMatrix type="matrix" values="0 0 0 0 0 0 0 0 0 0 0 0 0 0 0 0 0 0 0.04 0"/>
<feBlend mode="normal" in2="BackgroundImageFix" result="effect1_dropShadow_1_1170"/>
<feBlend mode="normal" in="SourceGraphic" in2="effect1_dropShadow_1_1170" result="shape"/>
</filter>
<linearGradient id="paint0_linear_1_1170" x1="122" y1="14" x2="122" y2="54" gradientUnits="userSpaceOnUse">
<stop stop-color="#4318FF"/>
<stop offset="1" stop-color="#7F5DFF"/>
</linearGradient>
</defs>
</svg>
