<svg width="158" height="48" viewBox="0 0 158 48" fill="none" xmlns="http://www.w3.org/2000/svg">
<rect x="2.47955e-05" width="158" height="40" rx="6" fill="#EFF4FB"/>
<g filter="url(#filter0_d_1_372)">
<path d="M30.728 25.168C30.0094 25.168 29.3794 25.042 28.838 24.79C28.2967 24.538 27.872 24.1787 27.564 23.712C27.2654 23.2453 27.1114 22.69 27.102 22.046H28.67C28.6794 22.5687 28.8614 23.012 29.216 23.376C29.5707 23.74 30.07 23.922 30.714 23.922C31.2834 23.922 31.7267 23.7867 32.044 23.516C32.3707 23.236 32.534 22.8813 32.534 22.452C32.534 22.1067 32.4547 21.8267 32.296 21.612C32.1467 21.3973 31.9367 21.22 31.666 21.08C31.4047 20.94 31.1014 20.814 30.756 20.702C30.4107 20.59 30.0467 20.4687 29.664 20.338C28.908 20.086 28.3387 19.7593 27.956 19.358C27.5827 18.9567 27.396 18.4293 27.396 17.776C27.3867 17.2253 27.5127 16.7447 27.774 16.334C28.0447 15.9233 28.418 15.606 28.894 15.382C29.3794 15.1487 29.944 15.032 30.588 15.032C31.2227 15.032 31.778 15.1487 32.254 15.382C32.7394 15.6153 33.1174 15.942 33.388 16.362C33.6587 16.7727 33.7987 17.2533 33.808 17.804H32.24C32.24 17.552 32.1747 17.314 32.044 17.09C31.9134 16.8567 31.722 16.6653 31.47 16.516C31.218 16.3667 30.91 16.292 30.546 16.292C30.0794 16.2827 29.692 16.3993 29.384 16.642C29.0854 16.8847 28.936 17.2207 28.936 17.65C28.936 18.0327 29.048 18.3267 29.272 18.532C29.496 18.7373 29.804 18.91 30.196 19.05C30.588 19.1807 31.036 19.3347 31.54 19.512C32.0254 19.6707 32.4594 19.862 32.842 20.086C33.2247 20.31 33.528 20.604 33.752 20.968C33.9854 21.332 34.102 21.794 34.102 22.354C34.102 22.8487 33.976 23.3107 33.724 23.74C33.472 24.16 33.094 24.5053 32.59 24.776C32.086 25.0373 31.4654 25.168 30.728 25.168ZM38.9165 25.168C38.2352 25.168 37.6285 25.0187 37.0965 24.72C36.5738 24.412 36.1632 23.9873 35.8645 23.446C35.5658 22.9047 35.4165 22.2747 35.4165 21.556C35.4165 20.828 35.5612 20.1887 35.8505 19.638C36.1492 19.0873 36.5598 18.658 37.0825 18.35C37.6145 18.042 38.2305 17.888 38.9305 17.888C39.6118 17.888 40.2045 18.042 40.7085 18.35C41.2125 18.6487 41.6045 19.05 41.8845 19.554C42.1645 20.058 42.3045 20.6133 42.3045 21.22C42.3045 21.3133 42.2998 21.416 42.2905 21.528C42.2905 21.6307 42.2858 21.7473 42.2765 21.878H36.8725C36.9192 22.55 37.1385 23.0633 37.5305 23.418C37.9318 23.7633 38.3938 23.936 38.9165 23.936C39.3365 23.936 39.6865 23.8427 39.9665 23.656C40.2558 23.46 40.4705 23.1987 40.6105 22.872H42.0945C41.9078 23.5253 41.5345 24.0713 40.9745 24.51C40.4238 24.9487 39.7378 25.168 38.9165 25.168ZM38.9165 19.106C38.4218 19.106 37.9832 19.2553 37.6005 19.554C37.2178 19.8433 36.9845 20.282 36.9005 20.87H40.8205C40.7925 20.3287 40.6012 19.8993 40.2465 19.582C39.8918 19.2647 39.4485 19.106 38.9165 19.106ZM47.1343 25.168C46.4529 25.168 45.8416 25.014 45.3003 24.706C44.7683 24.398 44.3483 23.9733 44.0403 23.432C43.7416 22.8813 43.5923 22.2467 43.5923 21.528C43.5923 20.8093 43.7416 20.1793 44.0403 19.638C44.3483 19.0873 44.7683 18.658 45.3003 18.35C45.8416 18.042 46.4529 17.888 47.1343 17.888C47.9929 17.888 48.7116 18.112 49.2903 18.56C49.8783 19.008 50.2563 19.6147 50.4243 20.38H48.8703C48.7769 19.9973 48.5716 19.6987 48.2543 19.484C47.9369 19.2693 47.5636 19.162 47.1343 19.162C46.7703 19.162 46.4343 19.2553 46.1263 19.442C45.8183 19.6193 45.5709 19.8853 45.3843 20.24C45.1976 20.5853 45.1043 21.0147 45.1043 21.528C45.1043 22.0413 45.1976 22.4753 45.3843 22.83C45.5709 23.1753 45.8183 23.4413 46.1263 23.628C46.4343 23.8147 46.7703 23.908 47.1343 23.908C47.5636 23.908 47.9369 23.8007 48.2543 23.586C48.5716 23.3713 48.7769 23.068 48.8703 22.676H50.4243C50.2656 23.4227 49.8923 24.0247 49.3043 24.482C48.7163 24.9393 47.9929 25.168 47.1343 25.168ZM54.5957 25.168C53.7557 25.168 53.0931 24.9067 52.6077 24.384C52.1317 23.8613 51.8937 23.082 51.8937 22.046V18.056H53.3777V21.892C53.3777 23.236 53.9284 23.908 55.0297 23.908C55.5804 23.908 56.0331 23.712 56.3877 23.32C56.7424 22.928 56.9197 22.368 56.9197 21.64V18.056H58.4037V25H57.0877L56.9757 23.782C56.7611 24.2113 56.4437 24.552 56.0237 24.804C55.6131 25.0467 55.1371 25.168 54.5957 25.168ZM60.2915 25V18.056H61.6215L61.7475 19.372C61.9902 18.9147 62.3262 18.5553 62.7555 18.294C63.1942 18.0233 63.7215 17.888 64.3375 17.888V19.442H63.9315C63.5209 19.442 63.1522 19.512 62.8255 19.652C62.5082 19.7827 62.2515 20.0113 62.0555 20.338C61.8689 20.6553 61.7755 21.0987 61.7755 21.668V25H60.2915ZM68.6665 25.168C67.9852 25.168 67.3785 25.0187 66.8465 24.72C66.3238 24.412 65.9132 23.9873 65.6145 23.446C65.3158 22.9047 65.1665 22.2747 65.1665 21.556C65.1665 20.828 65.3112 20.1887 65.6005 19.638C65.8992 19.0873 66.3098 18.658 66.8325 18.35C67.3645 18.042 67.9805 17.888 68.6805 17.888C69.3618 17.888 69.9545 18.042 70.4585 18.35C70.9625 18.6487 71.3545 19.05 71.6345 19.554C71.9145 20.058 72.0545 20.6133 72.0545 21.22C72.0545 21.3133 72.0498 21.416 72.0405 21.528C72.0405 21.6307 72.0358 21.7473 72.0265 21.878H66.6225C66.6692 22.55 66.8885 23.0633 67.2805 23.418C67.6818 23.7633 68.1438 23.936 68.6665 23.936C69.0865 23.936 69.4365 23.8427 69.7165 23.656C70.0058 23.46 70.2205 23.1987 70.3605 22.872H71.8445C71.6578 23.5253 71.2845 24.0713 70.7245 24.51C70.1738 24.9487 69.4878 25.168 68.6665 25.168ZM68.6665 19.106C68.1718 19.106 67.7332 19.2553 67.3505 19.554C66.9678 19.8433 66.7345 20.282 66.6505 20.87H70.5705C70.5425 20.3287 70.3512 19.8993 69.9965 19.582C69.6418 19.2647 69.1985 19.106 68.6665 19.106ZM79.4736 25.168C78.8856 25.168 78.4003 25.07 78.0176 24.874C77.635 24.678 77.3503 24.4213 77.1636 24.104C76.9769 23.7773 76.8836 23.4227 76.8836 23.04C76.8836 22.368 77.145 21.836 77.6676 21.444C78.1903 21.052 78.9369 20.856 79.9076 20.856H81.7276V20.73C81.7276 20.1887 81.5783 19.7827 81.2796 19.512C80.9903 19.2413 80.6123 19.106 80.1456 19.106C79.735 19.106 79.3756 19.2087 79.0676 19.414C78.769 19.61 78.587 19.904 78.5216 20.296H77.0376C77.0843 19.792 77.2523 19.3627 77.5416 19.008C77.8403 18.644 78.2136 18.3687 78.6616 18.182C79.119 17.986 79.6183 17.888 80.1596 17.888C81.1303 17.888 81.8816 18.1447 82.4136 18.658C82.9456 19.162 83.2116 19.8527 83.2116 20.73V25H81.9236L81.7976 23.81C81.6016 24.1927 81.317 24.5147 80.9436 24.776C80.5703 25.0373 80.0803 25.168 79.4736 25.168ZM79.7676 23.964C80.169 23.964 80.505 23.8707 80.7756 23.684C81.0556 23.488 81.2703 23.2313 81.4196 22.914C81.5783 22.5967 81.6763 22.2467 81.7136 21.864H80.0616C79.4736 21.864 79.0536 21.9667 78.8016 22.172C78.559 22.3773 78.4376 22.634 78.4376 22.942C78.4376 23.2593 78.5543 23.5113 78.7876 23.698C79.0303 23.8753 79.357 23.964 79.7676 23.964ZM88.2319 25.168C87.5506 25.168 86.9393 25.014 86.3979 24.706C85.8659 24.398 85.4459 23.9733 85.1379 23.432C84.8393 22.8813 84.6899 22.2467 84.6899 21.528C84.6899 20.8093 84.8393 20.1793 85.1379 19.638C85.4459 19.0873 85.8659 18.658 86.3979 18.35C86.9393 18.042 87.5506 17.888 88.2319 17.888C89.0906 17.888 89.8093 18.112 90.3879 18.56C90.9759 19.008 91.3539 19.6147 91.5219 20.38H89.9679C89.8746 19.9973 89.6693 19.6987 89.3519 19.484C89.0346 19.2693 88.6613 19.162 88.2319 19.162C87.8679 19.162 87.5319 19.2553 87.2239 19.442C86.9159 19.6193 86.6686 19.8853 86.4819 20.24C86.2953 20.5853 86.2019 21.0147 86.2019 21.528C86.2019 22.0413 86.2953 22.4753 86.4819 22.83C86.6686 23.1753 86.9159 23.4413 87.2239 23.628C87.5319 23.8147 87.8679 23.908 88.2319 23.908C88.6613 23.908 89.0346 23.8007 89.3519 23.586C89.6693 23.3713 89.8746 23.068 89.9679 22.676H91.5219C91.3633 23.4227 90.9899 24.0247 90.4019 24.482C89.8139 24.9393 89.0906 25.168 88.2319 25.168ZM96.4214 25.168C95.74 25.168 95.1287 25.014 94.5874 24.706C94.0554 24.398 93.6354 23.9733 93.3274 23.432C93.0287 22.8813 92.8794 22.2467 92.8794 21.528C92.8794 20.8093 93.0287 20.1793 93.3274 19.638C93.6354 19.0873 94.0554 18.658 94.5874 18.35C95.1287 18.042 95.74 17.888 96.4214 17.888C97.28 17.888 97.9987 18.112 98.5774 18.56C99.1654 19.008 99.5434 19.6147 99.7114 20.38H98.1574C98.064 19.9973 97.8587 19.6987 97.5414 19.484C97.224 19.2693 96.8507 19.162 96.4214 19.162C96.0574 19.162 95.7214 19.2553 95.4134 19.442C95.1054 19.6193 94.858 19.8853 94.6714 20.24C94.4847 20.5853 94.3914 21.0147 94.3914 21.528C94.3914 22.0413 94.4847 22.4753 94.6714 22.83C94.858 23.1753 95.1054 23.4413 95.4134 23.628C95.7214 23.8147 96.0574 23.908 96.4214 23.908C96.8507 23.908 97.224 23.8007 97.5414 23.586C97.8587 23.3713 98.064 23.068 98.1574 22.676H99.7114C99.5527 23.4227 99.1794 24.0247 98.5914 24.482C98.0034 24.9393 97.28 25.168 96.4214 25.168ZM104.569 25.168C103.906 25.168 103.309 25.0187 102.777 24.72C102.254 24.412 101.839 23.9873 101.531 23.446C101.223 22.8953 101.069 22.256 101.069 21.528C101.069 20.8 101.223 20.1653 101.531 19.624C101.848 19.0733 102.273 18.6487 102.805 18.35C103.337 18.042 103.93 17.888 104.583 17.888C105.246 17.888 105.838 18.042 106.361 18.35C106.893 18.6487 107.313 19.0733 107.621 19.624C107.938 20.1653 108.097 20.8 108.097 21.528C108.097 22.256 107.938 22.8953 107.621 23.446C107.313 23.9873 106.893 24.412 106.361 24.72C105.829 25.0187 105.232 25.168 104.569 25.168ZM104.569 23.894C104.924 23.894 105.25 23.8053 105.549 23.628C105.857 23.4507 106.104 23.1893 106.291 22.844C106.478 22.4893 106.571 22.0507 106.571 21.528C106.571 21.0053 106.478 20.5713 106.291 20.226C106.114 19.8713 105.871 19.6053 105.563 19.428C105.264 19.2507 104.938 19.162 104.583 19.162C104.228 19.162 103.897 19.2507 103.589 19.428C103.29 19.6053 103.048 19.8713 102.861 20.226C102.674 20.5713 102.581 21.0053 102.581 21.528C102.581 22.0507 102.674 22.4893 102.861 22.844C103.048 23.1893 103.29 23.4507 103.589 23.628C103.888 23.8053 104.214 23.894 104.569 23.894ZM112.264 25.168C111.424 25.168 110.761 24.9067 110.276 24.384C109.8 23.8613 109.562 23.082 109.562 22.046V18.056H111.046V21.892C111.046 23.236 111.596 23.908 112.698 23.908C113.248 23.908 113.701 23.712 114.056 23.32C114.41 22.928 114.588 22.368 114.588 21.64V18.056H116.072V25H114.756L114.644 23.782C114.429 24.2113 114.112 24.552 113.692 24.804C113.281 25.0467 112.805 25.168 112.264 25.168ZM117.96 25V18.056H119.276L119.388 19.274C119.602 18.8447 119.915 18.5087 120.326 18.266C120.746 18.014 121.226 17.888 121.768 17.888C122.608 17.888 123.266 18.1493 123.742 18.672C124.227 19.1947 124.47 19.974 124.47 21.01V25H123V21.164C123 19.82 122.449 19.148 121.348 19.148C120.797 19.148 120.34 19.344 119.976 19.736C119.621 20.128 119.444 20.688 119.444 21.416V25H117.96ZM129.129 25C128.448 25 127.907 24.8367 127.505 24.51C127.104 24.174 126.903 23.5813 126.903 22.732V19.302H125.713V18.056H126.903L127.085 16.292H128.387V18.056H130.347V19.302H128.387V22.732C128.387 23.1147 128.467 23.3807 128.625 23.53C128.793 23.67 129.078 23.74 129.479 23.74H130.277V25H129.129Z" fill="#7551FF"/>
</g>
<defs>
<filter id="filter0_d_1_372" x="-18" y="-14" width="194" height="76" filterUnits="userSpaceOnUse" color-interpolation-filters="sRGB">
<feFlood flood-opacity="0" result="BackgroundImageFix"/>
<feColorMatrix in="SourceAlpha" type="matrix" values="0 0 0 0 0 0 0 0 0 0 0 0 0 0 0 0 0 0 127 0" result="hardAlpha"/>
<feOffset dy="4"/>
<feGaussianBlur stdDeviation="9"/>
<feColorMatrix type="matrix" values="0 0 0 0 0 0 0 0 0 0 0 0 0 0 0 0 0 0 0.04 0"/>
<feBlend mode="normal" in2="BackgroundImageFix" result="effect1_dropShadow_1_372"/>
<feBlend mode="normal" in="SourceGraphic" in2="effect1_dropShadow_1_372" result="shape"/>
</filter>
</defs>
</svg>
