<svg width="225" height="80" viewBox="0 0 225 80" fill="none" xmlns="http://www.w3.org/2000/svg">
<g filter="url(#filter0_dii_1_2237)">
<path d="M6.27557 29V2.81818H11.8111V24.4361H23.0355V29H6.27557ZM35.1879 29.3835C33.1681 29.3835 31.4294 28.9744 29.972 28.1562C28.5232 27.3295 27.4067 26.1619 26.6226 24.6534C25.8385 23.1364 25.4465 21.3423 25.4465 19.2713C25.4465 17.2514 25.8385 15.4787 26.6226 13.9531C27.4067 12.4276 28.5104 11.2386 29.9337 10.3864C31.3655 9.53409 33.0445 9.10795 34.9706 9.10795C36.2661 9.10795 37.472 9.31676 38.5885 9.73438C39.7135 10.1435 40.6936 10.7614 41.5288 11.5881C42.3726 12.4148 43.0288 13.4545 43.4976 14.7074C43.9663 15.9517 44.2007 17.4091 44.2007 19.0795V20.5753H27.6198V17.2003H39.0743C39.0743 16.4162 38.9038 15.7216 38.5629 15.1165C38.222 14.5114 37.749 14.0384 37.1439 13.6974C36.5473 13.348 35.8527 13.1733 35.0601 13.1733C34.2334 13.1733 33.5004 13.3651 32.8612 13.7486C32.2306 14.1236 31.7362 14.6307 31.3783 15.2699C31.0203 15.9006 30.8371 16.6037 30.8286 17.3793V20.5881C30.8286 21.5597 31.0075 22.3991 31.3655 23.1065C31.732 23.8139 32.2476 24.3594 32.9124 24.7429C33.5771 25.1264 34.3655 25.3182 35.2774 25.3182C35.8825 25.3182 36.4365 25.233 36.9394 25.0625C37.4422 24.892 37.8726 24.6364 38.2306 24.2955C38.5885 23.9545 38.8612 23.5369 39.0487 23.0426L44.0857 23.375C43.83 24.5852 43.3058 25.642 42.5132 26.5455C41.7291 27.4403 40.7149 28.1392 39.4706 28.642C38.2348 29.1364 36.8073 29.3835 35.1879 29.3835ZM57.8393 9.36364V13.4545H46.014V9.36364H57.8393ZM48.6987 4.65909H54.1447V22.9659C54.1447 23.4687 54.2214 23.8608 54.3748 24.142C54.5282 24.4148 54.7413 24.6065 55.014 24.7173C55.2953 24.8281 55.6191 24.8835 55.9856 24.8835C56.2413 24.8835 56.497 24.8622 56.7527 24.8196C57.0083 24.7685 57.2044 24.7301 57.3407 24.7045L58.1973 28.7571C57.9245 28.8423 57.541 28.9403 57.0467 29.0511C56.5524 29.1705 55.9515 29.2429 55.2441 29.2685C53.9316 29.3196 52.7811 29.1449 51.7924 28.7443C50.8123 28.3437 50.0495 27.7216 49.5041 26.8778C48.9586 26.0341 48.6902 24.9687 48.6987 23.6818V4.65909ZM66.4697 2.81818V5.57955C66.4697 6.36364 66.3163 7.16477 66.0095 7.98295C65.7112 8.79261 65.3106 9.55966 64.8078 10.2841C64.3049 11 63.7552 11.6094 63.1586 12.1122L60.7552 10.6932C61.1814 10.0199 61.5564 9.27415 61.8802 8.45597C62.2126 7.63778 62.3788 6.6875 62.3788 5.60511V2.81818H66.4697ZM83.6143 14.9631L78.6285 15.2699C78.5433 14.8437 78.3601 14.4602 78.0788 14.1193C77.7976 13.7699 77.4268 13.4929 76.9666 13.2884C76.5149 13.0753 75.9737 12.9688 75.343 12.9688C74.4993 12.9688 73.7876 13.1477 73.2081 13.5057C72.6285 13.8551 72.3388 14.3239 72.3388 14.9119C72.3388 15.3807 72.5263 15.777 72.9013 16.1009C73.2763 16.4247 73.9197 16.6847 74.8317 16.8807L78.3856 17.5966C80.2947 17.9886 81.718 18.6193 82.6555 19.4886C83.593 20.358 84.0618 21.5 84.0618 22.9148C84.0618 24.2017 83.6825 25.331 82.924 26.3026C82.174 27.2741 81.1427 28.0327 79.8302 28.5781C78.5263 29.1151 77.022 29.3835 75.3175 29.3835C72.718 29.3835 70.647 28.8423 69.1044 27.7599C67.5703 26.669 66.6712 25.1861 66.4069 23.3111L71.7635 23.0298C71.9254 23.8224 72.3175 24.4276 72.9396 24.8452C73.5618 25.2543 74.3587 25.4588 75.3302 25.4588C76.2848 25.4588 77.0518 25.2756 77.6314 24.9091C78.2194 24.5341 78.5177 24.0526 78.5263 23.4645C78.5177 22.9702 78.3089 22.5653 77.8998 22.25C77.4908 21.9261 76.8601 21.679 76.0078 21.5085L72.6072 20.831C70.6896 20.4474 69.2621 19.7827 68.3246 18.8366C67.3956 17.8906 66.9311 16.6847 66.9311 15.2188C66.9311 13.9574 67.272 12.8707 67.9538 11.9588C68.6442 11.0469 69.6115 10.3438 70.8558 9.84943C72.1087 9.35511 73.5746 9.10795 75.2535 9.10795C77.7337 9.10795 79.6854 9.6321 81.1087 10.6804C82.5405 11.7287 83.3757 13.1562 83.6143 14.9631ZM103.95 36.7727C102.186 36.7727 100.673 36.5298 99.4114 36.044C98.1585 35.5668 97.1614 34.9148 96.4199 34.0881C95.6784 33.2614 95.1969 32.3324 94.9753 31.3011L100.012 30.6236C100.166 31.0156 100.409 31.3821 100.741 31.723C101.073 32.0639 101.512 32.3366 102.058 32.5412C102.612 32.7543 103.285 32.8608 104.078 32.8608C105.262 32.8608 106.238 32.571 107.005 31.9915C107.781 31.4205 108.168 30.4616 108.168 29.1151V25.5227H107.938C107.7 26.0682 107.342 26.5838 106.864 27.0696C106.387 27.5554 105.774 27.9517 105.024 28.2585C104.274 28.5653 103.379 28.7188 102.339 28.7188C100.864 28.7188 99.5222 28.3778 98.3119 27.696C97.1102 27.0057 96.1514 25.9531 95.4355 24.5384C94.7281 23.1151 94.3744 21.3168 94.3744 19.1435C94.3744 16.919 94.7367 15.0611 95.4611 13.5696C96.1855 12.0781 97.1486 10.9616 98.3503 10.2202C99.5605 9.47869 100.886 9.10795 102.326 9.10795C103.426 9.10795 104.346 9.29545 105.088 9.67045C105.829 10.0369 106.426 10.4972 106.877 11.0511C107.338 11.5966 107.691 12.1335 107.938 12.6619H108.143V9.36364H113.551V29.1918C113.551 30.8622 113.141 32.2599 112.323 33.3849C111.505 34.5099 110.372 35.3537 108.923 35.9162C107.482 36.4872 105.825 36.7727 103.95 36.7727ZM104.065 24.6278C104.943 24.6278 105.684 24.4105 106.289 23.9759C106.903 23.5327 107.372 22.902 107.695 22.0838C108.028 21.2571 108.194 20.2685 108.194 19.1179C108.194 17.9673 108.032 16.9702 107.708 16.1264C107.384 15.2741 106.916 14.6136 106.302 14.1449C105.688 13.6761 104.943 13.4418 104.065 13.4418C103.17 13.4418 102.416 13.6847 101.802 14.1705C101.188 14.6477 100.724 15.3125 100.409 16.1648C100.093 17.017 99.9355 18.0014 99.9355 19.1179C99.9355 20.2514 100.093 21.2315 100.409 22.0582C100.732 22.8764 101.197 23.5114 101.802 23.9631C102.416 24.4062 103.17 24.6278 104.065 24.6278ZM126.473 29.3835C124.453 29.3835 122.715 28.9744 121.257 28.1562C119.808 27.3295 118.692 26.1619 117.908 24.6534C117.124 23.1364 116.732 21.3423 116.732 19.2713C116.732 17.2514 117.124 15.4787 117.908 13.9531C118.692 12.4276 119.796 11.2386 121.219 10.3864C122.651 9.53409 124.33 9.10795 126.256 9.10795C127.551 9.10795 128.757 9.31676 129.874 9.73438C130.999 10.1435 131.979 10.7614 132.814 11.5881C133.658 12.4148 134.314 13.4545 134.783 14.7074C135.252 15.9517 135.486 17.4091 135.486 19.0795V20.5753H118.905V17.2003H130.36C130.36 16.4162 130.189 15.7216 129.848 15.1165C129.507 14.5114 129.034 14.0384 128.429 13.6974C127.833 13.348 127.138 13.1733 126.345 13.1733C125.519 13.1733 124.786 13.3651 124.147 13.7486C123.516 14.1236 123.022 14.6307 122.664 15.2699C122.306 15.9006 122.122 16.6037 122.114 17.3793V20.5881C122.114 21.5597 122.293 22.3991 122.651 23.1065C123.017 23.8139 123.533 24.3594 124.198 24.7429C124.862 25.1264 125.651 25.3182 126.563 25.3182C127.168 25.3182 127.722 25.233 128.225 25.0625C128.728 24.892 129.158 24.6364 129.516 24.2955C129.874 23.9545 130.147 23.5369 130.334 23.0426L135.371 23.375C135.115 24.5852 134.591 25.642 133.799 26.5455C133.014 27.4403 132 28.1392 130.756 28.642C129.52 29.1364 128.093 29.3835 126.473 29.3835ZM149.125 9.36364V13.4545H137.299V9.36364H149.125ZM139.984 4.65909H145.43V22.9659C145.43 23.4687 145.507 23.8608 145.66 24.142C145.814 24.4148 146.027 24.6065 146.299 24.7173C146.581 24.8281 146.904 24.8835 147.271 24.8835C147.527 24.8835 147.782 24.8622 148.038 24.8196C148.294 24.7685 148.49 24.7301 148.626 24.7045L149.483 28.7571C149.21 28.8423 148.826 28.9403 148.332 29.0511C147.838 29.1705 147.237 29.2429 146.529 29.2685C145.217 29.3196 144.066 29.1449 143.078 28.7443C142.098 28.3437 141.335 27.7216 140.789 26.8778C140.244 26.0341 139.975 24.9687 139.984 23.6818V4.65909ZM163.646 36.3636C162.956 36.3636 162.308 36.3082 161.703 36.1974C161.107 36.0952 160.612 35.9631 160.22 35.8011L161.448 31.7358C162.087 31.9318 162.662 32.0384 163.173 32.0554C163.693 32.0724 164.141 31.9531 164.516 31.6974C164.899 31.4418 165.21 31.0071 165.449 30.3935L165.769 29.5625L158.725 9.36364H164.452L168.517 23.7841H168.722L172.825 9.36364H178.591L170.959 31.1222C170.592 32.179 170.094 33.0994 169.463 33.8835C168.841 34.6761 168.053 35.2855 167.098 35.7116C166.144 36.1463 164.993 36.3636 163.646 36.3636ZM189.257 29.3835C187.272 29.3835 185.554 28.9616 184.105 28.1179C182.665 27.2656 181.553 26.081 180.769 24.5639C179.985 23.0384 179.593 21.2699 179.593 19.2585C179.593 17.2301 179.985 15.4574 180.769 13.9403C181.553 12.4148 182.665 11.2301 184.105 10.3864C185.554 9.53409 187.272 9.10795 189.257 9.10795C191.243 9.10795 192.956 9.53409 194.397 10.3864C195.845 11.2301 196.962 12.4148 197.746 13.9403C198.53 15.4574 198.922 17.2301 198.922 19.2585C198.922 21.2699 198.53 23.0384 197.746 24.5639C196.962 26.081 195.845 27.2656 194.397 28.1179C192.956 28.9616 191.243 29.3835 189.257 29.3835ZM189.283 25.1648C190.186 25.1648 190.941 24.9091 191.546 24.3977C192.151 23.8778 192.607 23.1705 192.914 22.2756C193.229 21.3807 193.387 20.3622 193.387 19.2202C193.387 18.0781 193.229 17.0597 192.914 16.1648C192.607 15.2699 192.151 14.5625 191.546 14.0426C190.941 13.5227 190.186 13.2628 189.283 13.2628C188.371 13.2628 187.604 13.5227 186.982 14.0426C186.368 14.5625 185.904 15.2699 185.588 16.1648C185.281 17.0597 185.128 18.0781 185.128 19.2202C185.128 20.3622 185.281 21.3807 185.588 22.2756C185.904 23.1705 186.368 23.8778 186.982 24.3977C187.604 24.9091 188.371 25.1648 189.283 25.1648ZM214.696 20.6392V9.36364H220.142V29H214.913V25.4332H214.708C214.265 26.5838 213.528 27.5085 212.497 28.2074C211.474 28.9062 210.225 29.2557 208.751 29.2557C207.439 29.2557 206.284 28.9574 205.287 28.3608C204.289 27.7642 203.51 26.9162 202.947 25.8168C202.393 24.7173 202.112 23.4006 202.103 21.8665V9.36364H207.549V20.8949C207.558 22.054 207.869 22.9702 208.483 23.6435C209.096 24.3168 209.919 24.6534 210.95 24.6534C211.606 24.6534 212.22 24.5043 212.791 24.206C213.362 23.8991 213.822 23.4474 214.171 22.8509C214.529 22.2543 214.704 21.517 214.696 20.6392ZM22.5114 50.9631L17.5256 51.2699C17.4403 50.8437 17.2571 50.4602 16.9759 50.1193C16.6946 49.7699 16.3239 49.4929 15.8636 49.2884C15.4119 49.0753 14.8707 48.9688 14.2401 48.9688C13.3963 48.9688 12.6847 49.1477 12.1051 49.5057C11.5256 49.8551 11.2358 50.3239 11.2358 50.9119C11.2358 51.3807 11.4233 51.777 11.7983 52.1009C12.1733 52.4247 12.8168 52.6847 13.7287 52.8807L17.2827 53.5966C19.1918 53.9886 20.6151 54.6193 21.5526 55.4886C22.4901 56.358 22.9588 57.5 22.9588 58.9148C22.9588 60.2017 22.5795 61.331 21.821 62.3026C21.071 63.2741 20.0398 64.0327 18.7273 64.5781C17.4233 65.1151 15.919 65.3835 14.2145 65.3835C11.6151 65.3835 9.54403 64.8423 8.00142 63.7599C6.46733 62.669 5.56818 61.1861 5.30398 59.3111L10.6605 59.0298C10.8224 59.8224 11.2145 60.4276 11.8366 60.8452C12.4588 61.2543 13.2557 61.4588 14.2273 61.4588C15.1818 61.4588 15.9489 61.2756 16.5284 60.9091C17.1165 60.5341 17.4148 60.0526 17.4233 59.4645C17.4148 58.9702 17.206 58.5653 16.7969 58.25C16.3878 57.9261 15.7571 57.679 14.9048 57.5085L11.5043 56.831C9.58665 56.4474 8.15909 55.7827 7.22159 54.8366C6.29261 53.8906 5.82812 52.6847 5.82812 51.2188C5.82812 49.9574 6.16903 48.8707 6.85085 47.9588C7.54119 47.0469 8.50852 46.3438 9.75284 45.8494C11.0057 45.3551 12.4716 45.108 14.1506 45.108C16.6307 45.108 18.5824 45.6321 20.0057 46.6804C21.4375 47.7287 22.2727 49.1562 22.5114 50.9631ZM26.0281 65V45.3636H31.4742V65H26.0281ZM28.7639 42.8324C27.9543 42.8324 27.2597 42.5639 26.6801 42.027C26.1091 41.4815 25.8236 40.8295 25.8236 40.071C25.8236 39.321 26.1091 38.6776 26.6801 38.1406C27.2597 37.5952 27.9543 37.3224 28.7639 37.3224C29.5736 37.3224 30.2639 37.5952 30.835 38.1406C31.4145 38.6776 31.7043 39.321 31.7043 40.071C31.7043 40.8295 31.4145 41.4815 30.835 42.027C30.2639 42.5639 29.5736 42.8324 28.7639 42.8324ZM44.3233 72.7727C42.5591 72.7727 41.0463 72.5298 39.785 72.044C38.5321 71.5668 37.535 70.9148 36.7935 70.0881C36.052 69.2614 35.5705 68.3324 35.3489 67.3011L40.3858 66.6236C40.5392 67.0156 40.7821 67.3821 41.1145 67.723C41.4469 68.0639 41.8858 68.3366 42.4313 68.5412C42.9853 68.7543 43.6586 68.8608 44.4512 68.8608C45.6358 68.8608 46.6117 68.571 47.3787 67.9915C48.1543 67.4205 48.5421 66.4616 48.5421 65.1151V61.5227H48.312C48.0733 62.0682 47.7154 62.5838 47.2381 63.0696C46.7608 63.5554 46.1472 63.9517 45.3972 64.2585C44.6472 64.5653 43.7523 64.7188 42.7125 64.7188C41.2381 64.7188 39.8958 64.3778 38.6855 63.696C37.4838 63.0057 36.525 61.9531 35.8091 60.5384C35.1017 59.1151 34.748 57.3168 34.748 55.1435C34.748 52.919 35.1103 51.0611 35.8347 49.5696C36.5591 48.0781 37.5222 46.9616 38.7239 46.2202C39.9341 45.4787 41.2594 45.108 42.6997 45.108C43.7992 45.108 44.7196 45.2955 45.4611 45.6705C46.2026 46.0369 46.7992 46.4972 47.2509 47.0511C47.7111 47.5966 48.0648 48.1335 48.312 48.6619H48.5165V45.3636H53.9242V65.1918C53.9242 66.8622 53.5151 68.2599 52.6969 69.3849C51.8787 70.5099 50.7452 71.3537 49.2963 71.9162C47.856 72.4872 46.1983 72.7727 44.3233 72.7727ZM44.4384 60.6278C45.3162 60.6278 46.0577 60.4105 46.6628 59.9759C47.2764 59.5327 47.7452 58.902 48.0691 58.0838C48.4014 57.2571 48.5676 56.2685 48.5676 55.1179C48.5676 53.9673 48.4057 52.9702 48.0818 52.1264C47.758 51.2741 47.2892 50.6136 46.6756 50.1449C46.062 49.6761 45.3162 49.4418 44.4384 49.4418C43.5435 49.4418 42.7892 49.6847 42.1756 50.1705C41.562 50.6477 41.0975 51.3125 40.7821 52.1648C40.4668 53.017 40.3091 54.0014 40.3091 55.1179C40.3091 56.2514 40.4668 57.2315 40.7821 58.0582C41.106 58.8764 41.5705 59.5114 42.1756 59.9631C42.7892 60.4062 43.5435 60.6278 44.4384 60.6278ZM63.344 53.6477V65H57.898V45.3636H63.0883V48.8281H63.3184C63.7531 47.6861 64.4818 46.7827 65.5045 46.1179C66.5272 45.4446 67.7673 45.108 69.2247 45.108C70.5883 45.108 71.7772 45.4062 72.7914 46.0028C73.8057 46.5994 74.594 47.4517 75.1565 48.5597C75.719 49.6591 76.0003 50.9716 76.0003 52.4972V65H70.5542V53.4688C70.5628 52.267 70.2559 51.3295 69.6338 50.6562C69.0116 49.9744 68.1551 49.6335 67.0642 49.6335C66.3312 49.6335 65.6835 49.7912 65.121 50.1065C64.567 50.4219 64.1324 50.8821 63.817 51.4872C63.5102 52.0838 63.3525 52.804 63.344 53.6477ZM88.8814 65.3835C86.8615 65.3835 85.1229 64.9744 83.6655 64.1562C82.2166 63.3295 81.1001 62.1619 80.316 60.6534C79.5319 59.1364 79.1399 57.3423 79.1399 55.2713C79.1399 53.2514 79.5319 51.4787 80.316 49.9531C81.1001 48.4276 82.2038 47.2386 83.6271 46.3864C85.0589 45.5341 86.7379 45.108 88.664 45.108C89.9595 45.108 91.1655 45.3168 92.2819 45.7344C93.4069 46.1435 94.3871 46.7614 95.2223 47.5881C96.066 48.4148 96.7223 49.4545 97.191 50.7074C97.6598 51.9517 97.8942 53.4091 97.8942 55.0795V56.5753H81.3132V53.2003H92.7677C92.7677 52.4162 92.5973 51.7216 92.2564 51.1165C91.9155 50.5114 91.4425 50.0384 90.8373 49.6974C90.2408 49.348 89.5461 49.1733 88.7535 49.1733C87.9268 49.1733 87.1939 49.3651 86.5547 49.7486C85.924 50.1236 85.4297 50.6307 85.0717 51.2699C84.7138 51.9006 84.5305 52.6037 84.522 53.3793V56.5881C84.522 57.5597 84.701 58.3991 85.0589 59.1065C85.4254 59.8139 85.941 60.3594 86.6058 60.7429C87.2706 61.1264 88.0589 61.3182 88.9709 61.3182C89.576 61.3182 90.13 61.233 90.6328 61.0625C91.1356 60.892 91.566 60.6364 91.924 60.2955C92.2819 59.9545 92.5547 59.5369 92.7422 59.0426L97.7791 59.375C97.5234 60.5852 96.9993 61.642 96.2067 62.5455C95.4226 63.4403 94.4084 64.1392 93.164 64.642C91.9283 65.1364 90.5007 65.3835 88.8814 65.3835ZM108.324 65.3196C106.832 65.3196 105.482 64.9361 104.271 64.169C103.07 63.3935 102.115 62.2557 101.408 60.7557C100.709 59.2472 100.359 57.3977 100.359 55.2074C100.359 52.9574 100.722 51.0866 101.446 49.5952C102.171 48.0952 103.134 46.9744 104.335 46.233C105.546 45.483 106.871 45.108 108.311 45.108C109.411 45.108 110.327 45.2955 111.06 45.6705C111.801 46.0369 112.398 46.4972 112.85 47.0511C113.31 47.5966 113.659 48.1335 113.898 48.6619H114.064V38.8182H119.497V65H114.128V61.8551H113.898C113.642 62.4006 113.28 62.9418 112.811 63.4787C112.351 64.0071 111.75 64.446 111.009 64.7955C110.276 65.1449 109.381 65.3196 108.324 65.3196ZM110.05 60.9858C110.928 60.9858 111.669 60.7472 112.274 60.2699C112.888 59.7841 113.357 59.1065 113.68 58.2372C114.013 57.3679 114.179 56.3494 114.179 55.1818C114.179 54.0142 114.017 53 113.693 52.1392C113.369 51.2784 112.901 50.6136 112.287 50.1449C111.673 49.6761 110.928 49.4418 110.05 49.4418C109.155 49.4418 108.401 49.6847 107.787 50.1705C107.173 50.6562 106.709 51.3295 106.394 52.1903C106.078 53.0511 105.921 54.0483 105.921 55.1818C105.921 56.3239 106.078 57.3338 106.394 58.2116C106.717 59.081 107.182 59.7628 107.787 60.2571C108.401 60.7429 109.155 60.9858 110.05 60.9858ZM131.587 65V45.3636H137.033V65H131.587ZM134.323 42.8324C133.513 42.8324 132.818 42.5639 132.239 42.027C131.668 41.4815 131.382 40.8295 131.382 40.071C131.382 39.321 131.668 38.6776 132.239 38.1406C132.818 37.5952 133.513 37.3224 134.323 37.3224C135.132 37.3224 135.823 37.5952 136.394 38.1406C136.973 38.6776 137.263 39.321 137.263 40.071C137.263 40.8295 136.973 41.4815 136.394 42.027C135.823 42.5639 135.132 42.8324 134.323 42.8324ZM146.482 53.6477V65H141.035V45.3636H146.226V48.8281H146.456C146.891 47.6861 147.619 46.7827 148.642 46.1179C149.665 45.4446 150.905 45.108 152.362 45.108C153.726 45.108 154.915 45.4062 155.929 46.0028C156.943 46.5994 157.732 47.4517 158.294 48.5597C158.857 49.6591 159.138 50.9716 159.138 52.4972V65H153.692V53.4688C153.7 52.267 153.393 51.3295 152.771 50.6562C152.149 49.9744 151.293 49.6335 150.202 49.6335C149.469 49.6335 148.821 49.7912 148.258 50.1065C147.705 50.4219 147.27 50.8821 146.955 51.4872C146.648 52.0838 146.49 52.804 146.482 53.6477Z" fill="url(#paint0_linear_1_2237)"/>
</g>
<defs>
<filter id="filter0_dii_1_2237" x="0.841175" y="0.14049" width="223.763" height="78.8801" filterUnits="userSpaceOnUse" color-interpolation-filters="sRGB">
<feFlood flood-opacity="0" result="BackgroundImageFix"/>
<feColorMatrix in="SourceAlpha" type="matrix" values="0 0 0 0 0 0 0 0 0 0 0 0 0 0 0 0 0 0 127 0" result="hardAlpha"/>
<feOffset dy="1.78512"/>
<feGaussianBlur stdDeviation="2.23141"/>
<feComposite in2="hardAlpha" operator="out"/>
<feColorMatrix type="matrix" values="0 0 0 0 0 0 0 0 0 0 0 0 0 0 0 0 0 0 0.17 0"/>
<feBlend mode="normal" in2="BackgroundImageFix" result="effect1_dropShadow_1_2237"/>
<feBlend mode="normal" in="SourceGraphic" in2="effect1_dropShadow_1_2237" result="shape"/>
<feColorMatrix in="SourceAlpha" type="matrix" values="0 0 0 0 0 0 0 0 0 0 0 0 0 0 0 0 0 0 127 0" result="hardAlpha"/>
<feMorphology radius="1" operator="erode" in="SourceAlpha" result="effect2_innerShadow_1_2237"/>
<feOffset dy="-1.33884"/>
<feComposite in2="hardAlpha" operator="arithmetic" k2="-1" k3="1"/>
<feColorMatrix type="matrix" values="0 0 0 0 0 0 0 0 0 0 0 0 0 0 0 0 0 0 0.1 0"/>
<feBlend mode="normal" in2="shape" result="effect2_innerShadow_1_2237"/>
<feColorMatrix in="SourceAlpha" type="matrix" values="0 0 0 0 0 0 0 0 0 0 0 0 0 0 0 0 0 0 127 0" result="hardAlpha"/>
<feOffset dy="0.892562"/>
<feComposite in2="hardAlpha" operator="arithmetic" k2="-1" k3="1"/>
<feColorMatrix type="matrix" values="0 0 0 0 1 0 0 0 0 1 0 0 0 0 1 0 0 0 0.18 0"/>
<feBlend mode="normal" in2="effect2_innerShadow_1_2237" result="effect3_innerShadow_1_2237"/>
</filter>
<linearGradient id="paint0_linear_1_2237" x1="116.5" y1="-2" x2="116.5" y2="70" gradientUnits="userSpaceOnUse">
<stop stop-color="#4318FF"/>
<stop offset="1" stop-color="#7F5DFF"/>
</linearGradient>
</defs>
</svg>
