<svg width="389" height="46" viewBox="0 0 389 46" fill="none" xmlns="http://www.w3.org/2000/svg">
<g filter="url(#filter0_dii_1_620)">
<path d="M5.27556 31V4.81818H10.8111V26.4361H22.0355V31H5.27556ZM34.1879 31.3835C32.168 31.3835 30.4294 30.9744 28.972 30.1562C27.5232 29.3295 26.4067 28.1619 25.6226 26.6534C24.8385 25.1364 24.4465 23.3423 24.4465 21.2713C24.4465 19.2514 24.8385 17.4787 25.6226 15.9531C26.4067 14.4276 27.5104 13.2386 28.9337 12.3864C30.3655 11.5341 32.0445 11.108 33.9706 11.108C35.2661 11.108 36.472 11.3168 37.5885 11.7344C38.7135 12.1435 39.6936 12.7614 40.5288 13.5881C41.3726 14.4148 42.0288 15.4545 42.4976 16.7074C42.9663 17.9517 43.2007 19.4091 43.2007 21.0795V22.5753H26.6198V19.2003H38.0743C38.0743 18.4162 37.9038 17.7216 37.5629 17.1165C37.222 16.5114 36.749 16.0384 36.1439 15.6974C35.5473 15.348 34.8527 15.1733 34.0601 15.1733C33.2334 15.1733 32.5004 15.3651 31.8612 15.7486C31.2305 16.1236 30.7362 16.6307 30.3783 17.2699C30.0203 17.9006 29.8371 18.6037 29.8286 19.3793V22.5881C29.8286 23.5597 30.0075 24.3991 30.3655 25.1065C30.732 25.8139 31.2476 26.3594 31.9124 26.7429C32.5771 27.1264 33.3655 27.3182 34.2774 27.3182C34.8825 27.3182 35.4365 27.233 35.9394 27.0625C36.4422 26.892 36.8726 26.6364 37.2305 26.2955C37.5885 25.9545 37.8612 25.5369 38.0487 25.0426L43.0857 25.375C42.83 26.5852 42.3058 27.642 41.5132 28.5455C40.7291 29.4403 39.7149 30.1392 38.4706 30.642C37.2348 31.1364 35.8073 31.3835 34.1879 31.3835ZM56.8393 11.3636V15.4545H45.014V11.3636H56.8393ZM47.6987 6.65909H53.1447V24.9659C53.1447 25.4687 53.2214 25.8608 53.3748 26.142C53.5282 26.4148 53.7413 26.6065 54.014 26.7173C54.2953 26.8281 54.6191 26.8835 54.9856 26.8835C55.2413 26.8835 55.497 26.8622 55.7526 26.8196C56.0083 26.7685 56.2044 26.7301 56.3407 26.7045L57.1973 30.7571C56.9245 30.8423 56.541 30.9403 56.0467 31.0511C55.5524 31.1705 54.9515 31.2429 54.2441 31.2685C52.9316 31.3196 51.7811 31.1449 50.7924 30.7443C49.8123 30.3437 49.0495 29.7216 48.5041 28.8778C47.9586 28.0341 47.6901 26.9687 47.6987 25.6818V6.65909ZM65.4697 4.81818V7.57955C65.4697 8.36364 65.3163 9.16477 65.0095 9.98295C64.7112 10.7926 64.3106 11.5597 63.8078 12.2841C63.3049 13 62.7552 13.6094 62.1586 14.1122L59.7552 12.6932C60.1814 12.0199 60.5564 11.2741 60.8802 10.456C61.2126 9.63778 61.3788 8.6875 61.3788 7.60511V4.81818H65.4697ZM82.6143 16.9631L77.6285 17.2699C77.5433 16.8437 77.3601 16.4602 77.0788 16.1193C76.7976 15.7699 76.4268 15.4929 75.9666 15.2884C75.5149 15.0753 74.9737 14.9688 74.343 14.9688C73.4993 14.9688 72.7876 15.1477 72.2081 15.5057C71.6285 15.8551 71.3388 16.3239 71.3388 16.9119C71.3388 17.3807 71.5263 17.777 71.9013 18.1009C72.2763 18.4247 72.9197 18.6847 73.8317 18.8807L77.3856 19.5966C79.2947 19.9886 80.718 20.6193 81.6555 21.4886C82.593 22.358 83.0618 23.5 83.0618 24.9148C83.0618 26.2017 82.6825 27.331 81.924 28.3026C81.174 29.2741 80.1427 30.0327 78.8302 30.5781C77.5263 31.1151 76.022 31.3835 74.3175 31.3835C71.718 31.3835 69.647 30.8423 68.1044 29.7599C66.5703 28.669 65.6711 27.1861 65.4069 25.3111L70.7635 25.0298C70.9254 25.8224 71.3175 26.4276 71.9396 26.8452C72.5618 27.2543 73.3586 27.4588 74.3302 27.4588C75.2848 27.4588 76.0518 27.2756 76.6314 26.9091C77.2194 26.5341 77.5177 26.0526 77.5263 25.4645C77.5177 24.9702 77.3089 24.5653 76.8998 24.25C76.4907 23.9261 75.8601 23.679 75.0078 23.5085L71.6072 22.831C69.6896 22.4474 68.2621 21.7827 67.3246 20.8366C66.3956 19.8906 65.9311 18.6847 65.9311 17.2188C65.9311 15.9574 66.272 14.8707 66.9538 13.9588C67.6442 13.0469 68.6115 12.3438 69.8558 11.8494C71.1086 11.3551 72.5746 11.108 74.2535 11.108C76.7336 11.108 78.6854 11.6321 80.1086 12.6804C81.5405 13.7287 82.3757 15.1562 82.6143 16.9631ZM102.95 38.7727C101.186 38.7727 99.6727 38.5298 98.4114 38.044C97.1585 37.5668 96.1614 36.9148 95.4199 36.0881C94.6784 35.2614 94.1969 34.3324 93.9753 33.3011L99.0122 32.6236C99.1656 33.0156 99.4085 33.3821 99.7409 33.723C100.073 34.0639 100.512 34.3366 101.058 34.5412C101.612 34.7543 102.285 34.8608 103.078 34.8608C104.262 34.8608 105.238 34.571 106.005 33.9915C106.781 33.4205 107.168 32.4616 107.168 31.1151V27.5227H106.938C106.7 28.0682 106.342 28.5838 105.864 29.0696C105.387 29.5554 104.774 29.9517 104.024 30.2585C103.274 30.5653 102.379 30.7188 101.339 30.7188C99.8645 30.7188 98.5222 30.3778 97.3119 29.696C96.1102 29.0057 95.1514 27.9531 94.4355 26.5384C93.7281 25.1151 93.3744 23.3168 93.3744 21.1435C93.3744 18.919 93.7367 17.0611 94.4611 15.5696C95.1855 14.0781 96.1486 12.9616 97.3503 12.2202C98.5605 11.4787 99.8858 11.108 101.326 11.108C102.426 11.108 103.346 11.2955 104.088 11.6705C104.829 12.0369 105.426 12.4972 105.877 13.0511C106.338 13.5966 106.691 14.1335 106.938 14.6619H107.143V11.3636H112.551V31.1918C112.551 32.8622 112.141 34.2599 111.323 35.3849C110.505 36.5099 109.372 37.3537 107.923 37.9162C106.482 38.4872 104.825 38.7727 102.95 38.7727ZM103.065 26.6278C103.943 26.6278 104.684 26.4105 105.289 25.9759C105.903 25.5327 106.372 24.902 106.695 24.0838C107.028 23.2571 107.194 22.2685 107.194 21.1179C107.194 19.9673 107.032 18.9702 106.708 18.1264C106.384 17.2741 105.916 16.6136 105.302 16.1449C104.688 15.6761 103.943 15.4418 103.065 15.4418C102.17 15.4418 101.416 15.6847 100.802 16.1705C100.188 16.6477 99.7239 17.3125 99.4085 18.1648C99.0932 19.017 98.9355 20.0014 98.9355 21.1179C98.9355 22.2514 99.0932 23.2315 99.4085 24.0582C99.7324 24.8764 100.197 25.5114 100.802 25.9631C101.416 26.4062 102.17 26.6278 103.065 26.6278ZM125.473 31.3835C123.453 31.3835 121.715 30.9744 120.257 30.1562C118.808 29.3295 117.692 28.1619 116.908 26.6534C116.124 25.1364 115.732 23.3423 115.732 21.2713C115.732 19.2514 116.124 17.4787 116.908 15.9531C117.692 14.4276 118.796 13.2386 120.219 12.3864C121.651 11.5341 123.33 11.108 125.256 11.108C126.551 11.108 127.757 11.3168 128.874 11.7344C129.999 12.1435 130.979 12.7614 131.814 13.5881C132.658 14.4148 133.314 15.4545 133.783 16.7074C134.252 17.9517 134.486 19.4091 134.486 21.0795V22.5753H117.905V19.2003H129.36C129.36 18.4162 129.189 17.7216 128.848 17.1165C128.507 16.5114 128.034 16.0384 127.429 15.6974C126.833 15.348 126.138 15.1733 125.345 15.1733C124.519 15.1733 123.786 15.3651 123.147 15.7486C122.516 16.1236 122.022 16.6307 121.664 17.2699C121.306 17.9006 121.122 18.6037 121.114 19.3793V22.5881C121.114 23.5597 121.293 24.3991 121.651 25.1065C122.017 25.8139 122.533 26.3594 123.198 26.7429C123.862 27.1264 124.651 27.3182 125.563 27.3182C126.168 27.3182 126.722 27.233 127.225 27.0625C127.728 26.892 128.158 26.6364 128.516 26.2955C128.874 25.9545 129.147 25.5369 129.334 25.0426L134.371 25.375C134.115 26.5852 133.591 27.642 132.799 28.5455C132.014 29.4403 131 30.1392 129.756 30.642C128.52 31.1364 127.093 31.3835 125.473 31.3835ZM148.125 11.3636V15.4545H136.299V11.3636H148.125ZM138.984 6.65909H144.43V24.9659C144.43 25.4687 144.507 25.8608 144.66 26.142C144.814 26.4148 145.027 26.6065 145.299 26.7173C145.581 26.8281 145.904 26.8835 146.271 26.8835C146.527 26.8835 146.782 26.8622 147.038 26.8196C147.294 26.7685 147.49 26.7301 147.626 26.7045L148.483 30.7571C148.21 30.8423 147.826 30.9403 147.332 31.0511C146.838 31.1705 146.237 31.2429 145.529 31.2685C144.217 31.3196 143.066 31.1449 142.078 30.7443C141.098 30.3437 140.335 29.7216 139.789 28.8778C139.244 28.0341 138.975 26.9687 138.984 25.6818V6.65909ZM162.646 38.3636C161.956 38.3636 161.308 38.3082 160.703 38.1974C160.107 38.0952 159.612 37.9631 159.22 37.8011L160.448 33.7358C161.087 33.9318 161.662 34.0384 162.173 34.0554C162.693 34.0724 163.141 33.9531 163.516 33.6974C163.899 33.4418 164.21 33.0071 164.449 32.3935L164.769 31.5625L157.725 11.3636H163.452L167.517 25.7841H167.722L171.825 11.3636H177.591L169.959 33.1222C169.592 34.179 169.094 35.0994 168.463 35.8835C167.841 36.6761 167.053 37.2855 166.098 37.7116C165.144 38.1463 163.993 38.3636 162.646 38.3636ZM188.257 31.3835C186.272 31.3835 184.554 30.9616 183.105 30.1179C181.665 29.2656 180.553 28.081 179.769 26.5639C178.985 25.0384 178.593 23.2699 178.593 21.2585C178.593 19.2301 178.985 17.4574 179.769 15.9403C180.553 14.4148 181.665 13.2301 183.105 12.3864C184.554 11.5341 186.272 11.108 188.257 11.108C190.243 11.108 191.956 11.5341 193.397 12.3864C194.845 13.2301 195.962 14.4148 196.746 15.9403C197.53 17.4574 197.922 19.2301 197.922 21.2585C197.922 23.2699 197.53 25.0384 196.746 26.5639C195.962 28.081 194.845 29.2656 193.397 30.1179C191.956 30.9616 190.243 31.3835 188.257 31.3835ZM188.283 27.1648C189.186 27.1648 189.941 26.9091 190.546 26.3977C191.151 25.8778 191.607 25.1705 191.914 24.2756C192.229 23.3807 192.387 22.3622 192.387 21.2202C192.387 20.0781 192.229 19.0597 191.914 18.1648C191.607 17.2699 191.151 16.5625 190.546 16.0426C189.941 15.5227 189.186 15.2628 188.283 15.2628C187.371 15.2628 186.604 15.5227 185.982 16.0426C185.368 16.5625 184.904 17.2699 184.588 18.1648C184.281 19.0597 184.128 20.0781 184.128 21.2202C184.128 22.3622 184.281 23.3807 184.588 24.2756C184.904 25.1705 185.368 25.8778 185.982 26.3977C186.604 26.9091 187.371 27.1648 188.283 27.1648ZM213.696 22.6392V11.3636H219.142V31H213.913V27.4332H213.708C213.265 28.5838 212.528 29.5085 211.497 30.2074C210.474 30.9062 209.225 31.2557 207.751 31.2557C206.439 31.2557 205.284 30.9574 204.287 30.3608C203.289 29.7642 202.51 28.9162 201.947 27.8168C201.393 26.7173 201.112 25.4006 201.103 23.8665V11.3636H206.549V22.8949C206.558 24.054 206.869 24.9702 207.483 25.6435C208.096 26.3168 208.919 26.6534 209.95 26.6534C210.606 26.6534 211.22 26.5043 211.791 26.206C212.362 25.8991 212.822 25.4474 213.171 24.8509C213.529 24.2543 213.704 23.517 213.696 22.6392ZM247.448 16.9631L242.462 17.2699C242.377 16.8437 242.194 16.4602 241.912 16.1193C241.631 15.7699 241.26 15.4929 240.8 15.2884C240.348 15.0753 239.807 14.9688 239.177 14.9688C238.333 14.9688 237.621 15.1477 237.042 15.5057C236.462 15.8551 236.172 16.3239 236.172 16.9119C236.172 17.3807 236.36 17.777 236.735 18.1009C237.11 18.4247 237.753 18.6847 238.665 18.8807L242.219 19.5966C244.128 19.9886 245.552 20.6193 246.489 21.4886C247.427 22.358 247.895 23.5 247.895 24.9148C247.895 26.2017 247.516 27.331 246.758 28.3026C246.008 29.2741 244.976 30.0327 243.664 30.5781C242.36 31.1151 240.856 31.3835 239.151 31.3835C236.552 31.3835 234.481 30.8423 232.938 29.7599C231.404 28.669 230.505 27.1861 230.241 25.3111L235.597 25.0298C235.759 25.8224 236.151 26.4276 236.773 26.8452C237.395 27.2543 238.192 27.4588 239.164 27.4588C240.118 27.4588 240.885 27.2756 241.465 26.9091C242.053 26.5341 242.351 26.0526 242.36 25.4645C242.351 24.9702 242.143 24.5653 241.733 24.25C241.324 23.9261 240.694 23.679 239.841 23.5085L236.441 22.831C234.523 22.4474 233.096 21.7827 232.158 20.8366C231.229 19.8906 230.765 18.6847 230.765 17.2188C230.765 15.9574 231.106 14.8707 231.787 13.9588C232.478 13.0469 233.445 12.3438 234.689 11.8494C235.942 11.3551 237.408 11.108 239.087 11.108C241.567 11.108 243.519 11.6321 244.942 12.6804C246.374 13.7287 247.209 15.1562 247.448 16.9631ZM250.965 31V11.3636H256.411V31H250.965ZM253.7 8.83239C252.891 8.83239 252.196 8.56392 251.617 8.02699C251.046 7.48153 250.76 6.82954 250.76 6.07102C250.76 5.32102 251.046 4.67756 251.617 4.14062C252.196 3.59517 252.891 3.32244 253.7 3.32244C254.51 3.32244 255.2 3.59517 255.772 4.14062C256.351 4.67756 256.641 5.32102 256.641 6.07102C256.641 6.82954 256.351 7.48153 255.772 8.02699C255.2 8.56392 254.51 8.83239 253.7 8.83239ZM269.26 38.7727C267.496 38.7727 265.983 38.5298 264.722 38.044C263.469 37.5668 262.472 36.9148 261.73 36.0881C260.989 35.2614 260.507 34.3324 260.285 33.3011L265.322 32.6236C265.476 33.0156 265.719 33.3821 266.051 33.723C266.383 34.0639 266.822 34.3366 267.368 34.5412C267.922 34.7543 268.595 34.8608 269.388 34.8608C270.572 34.8608 271.548 34.571 272.315 33.9915C273.091 33.4205 273.479 32.4616 273.479 31.1151V27.5227H273.249C273.01 28.0682 272.652 28.5838 272.175 29.0696C271.697 29.5554 271.084 29.9517 270.334 30.2585C269.584 30.5653 268.689 30.7188 267.649 30.7188C266.175 30.7188 264.832 30.3778 263.622 29.696C262.42 29.0057 261.462 27.9531 260.746 26.5384C260.038 25.1151 259.685 23.3168 259.685 21.1435C259.685 18.919 260.047 17.0611 260.771 15.5696C261.496 14.0781 262.459 12.9616 263.66 12.2202C264.871 11.4787 266.196 11.108 267.636 11.108C268.736 11.108 269.656 11.2955 270.398 11.6705C271.139 12.0369 271.736 12.4972 272.187 13.0511C272.648 13.5966 273.001 14.1335 273.249 14.6619H273.453V11.3636H278.861V31.1918C278.861 32.8622 278.452 34.2599 277.633 35.3849C276.815 36.5099 275.682 37.3537 274.233 37.9162C272.793 38.4872 271.135 38.7727 269.26 38.7727ZM269.375 26.6278C270.253 26.6278 270.994 26.4105 271.599 25.9759C272.213 25.5327 272.682 24.902 273.006 24.0838C273.338 23.2571 273.504 22.2685 273.504 21.1179C273.504 19.9673 273.342 18.9702 273.018 18.1264C272.695 17.2741 272.226 16.6136 271.612 16.1449C270.999 15.6761 270.253 15.4418 269.375 15.4418C268.48 15.4418 267.726 15.6847 267.112 16.1705C266.499 16.6477 266.034 17.3125 265.719 18.1648C265.403 19.017 265.246 20.0014 265.246 21.1179C265.246 22.2514 265.403 23.2315 265.719 24.0582C266.043 24.8764 266.507 25.5114 267.112 25.9631C267.726 26.4062 268.48 26.6278 269.375 26.6278ZM288.281 19.6477V31H282.835V11.3636H288.025V14.8281H288.255C288.69 13.6861 289.418 12.7827 290.441 12.1179C291.464 11.4446 292.704 11.108 294.161 11.108C295.525 11.108 296.714 11.4062 297.728 12.0028C298.742 12.5994 299.531 13.4517 300.093 14.5597C300.656 15.6591 300.937 16.9716 300.937 18.4972V31H295.491V19.4688C295.499 18.267 295.192 17.3295 294.57 16.6562C293.948 15.9744 293.092 15.6335 292.001 15.6335C291.268 15.6335 290.62 15.7912 290.058 16.1065C289.504 16.4219 289.069 16.8821 288.754 17.4872C288.447 18.0838 288.289 18.804 288.281 19.6477ZM313.818 31.3835C311.798 31.3835 310.059 30.9744 308.602 30.1562C307.153 29.3295 306.037 28.1619 305.253 26.6534C304.468 25.1364 304.076 23.3423 304.076 21.2713C304.076 19.2514 304.468 17.4787 305.253 15.9531C306.037 14.4276 307.14 13.2386 308.564 12.3864C309.995 11.5341 311.674 11.108 313.601 11.108C314.896 11.108 316.102 11.3168 317.218 11.7344C318.343 12.1435 319.324 12.7614 320.159 13.5881C321.003 14.4148 321.659 15.4545 322.128 16.7074C322.596 17.9517 322.831 19.4091 322.831 21.0795V22.5753H306.25V19.2003H317.704C317.704 18.4162 317.534 17.7216 317.193 17.1165C316.852 16.5114 316.379 16.0384 315.774 15.6974C315.177 15.348 314.483 15.1733 313.69 15.1733C312.863 15.1733 312.13 15.3651 311.491 15.7486C310.861 16.1236 310.366 16.6307 310.008 17.2699C309.65 17.9006 309.467 18.6037 309.459 19.3793V22.5881C309.459 23.5597 309.638 24.3991 309.995 25.1065C310.362 25.8139 310.878 26.3594 311.542 26.7429C312.207 27.1264 312.995 27.3182 313.907 27.3182C314.513 27.3182 315.067 27.233 315.569 27.0625C316.072 26.892 316.503 26.6364 316.861 26.2955C317.218 25.9545 317.491 25.5369 317.679 25.0426L322.716 25.375C322.46 26.5852 321.936 27.642 321.143 28.5455C320.359 29.4403 319.345 30.1392 318.101 30.642C316.865 31.1364 315.437 31.3835 313.818 31.3835ZM333.26 31.3196C331.769 31.3196 330.418 30.9361 329.208 30.169C328.006 29.3935 327.052 28.2557 326.344 26.7557C325.645 25.2472 325.296 23.3977 325.296 21.2074C325.296 18.9574 325.658 17.0866 326.383 15.5952C327.107 14.0952 328.07 12.9744 329.272 12.233C330.482 11.483 331.807 11.108 333.248 11.108C334.347 11.108 335.263 11.2955 335.996 11.6705C336.738 12.0369 337.334 12.4972 337.786 13.0511C338.246 13.5966 338.596 14.1335 338.834 14.6619H339.001V4.81818H344.434V31H339.064V27.8551H338.834C338.579 28.4006 338.216 28.9418 337.748 29.4787C337.287 30.0071 336.687 30.446 335.945 30.7955C335.212 31.1449 334.317 31.3196 333.26 31.3196ZM334.986 26.9858C335.864 26.9858 336.606 26.7472 337.211 26.2699C337.824 25.7841 338.293 25.1065 338.617 24.2372C338.949 23.3679 339.116 22.3494 339.116 21.1818C339.116 20.0142 338.954 19 338.63 18.1392C338.306 17.2784 337.837 16.6136 337.224 16.1449C336.61 15.6761 335.864 15.4418 334.986 15.4418C334.091 15.4418 333.337 15.6847 332.724 16.1705C332.11 16.6562 331.645 17.3295 331.33 18.1903C331.015 19.0511 330.857 20.0483 330.857 21.1818C330.857 22.3239 331.015 23.3338 331.33 24.2116C331.654 25.081 332.118 25.7628 332.724 26.2571C333.337 26.7429 334.091 26.9858 334.986 26.9858ZM356.523 31V11.3636H361.969V31H356.523ZM359.259 8.83239C358.45 8.83239 357.755 8.56392 357.175 8.02699C356.604 7.48153 356.319 6.82954 356.319 6.07102C356.319 5.32102 356.604 4.67756 357.175 4.14062C357.755 3.59517 358.45 3.32244 359.259 3.32244C360.069 3.32244 360.759 3.59517 361.33 4.14062C361.91 4.67756 362.2 5.32102 362.2 6.07102C362.2 6.82954 361.91 7.48153 361.33 8.02699C360.759 8.56392 360.069 8.83239 359.259 8.83239ZM371.418 19.6477V31H365.972V11.3636H371.162V14.8281H371.392C371.827 13.6861 372.556 12.7827 373.579 12.1179C374.601 11.4446 375.841 11.108 377.299 11.108C378.662 11.108 379.851 11.4062 380.865 12.0028C381.88 12.5994 382.668 13.4517 383.231 14.5597C383.793 15.6591 384.074 16.9716 384.074 18.4972V31H378.628V19.4688C378.637 18.267 378.33 17.3295 377.708 16.6562C377.086 15.9744 376.229 15.6335 375.138 15.6335C374.405 15.6335 373.758 15.7912 373.195 16.1065C372.641 16.4219 372.206 16.8821 371.891 17.4872C371.584 18.0838 371.427 18.804 371.418 19.6477Z" fill="url(#paint0_linear_1_620)"/>
</g>
<defs>
<filter id="filter0_dii_1_620" x="0.812752" y="0.644762" width="387.724" height="44.3759" filterUnits="userSpaceOnUse" color-interpolation-filters="sRGB">
<feFlood flood-opacity="0" result="BackgroundImageFix"/>
<feColorMatrix in="SourceAlpha" type="matrix" values="0 0 0 0 0 0 0 0 0 0 0 0 0 0 0 0 0 0 127 0" result="hardAlpha"/>
<feOffset dy="1.78512"/>
<feGaussianBlur stdDeviation="2.23141"/>
<feComposite in2="hardAlpha" operator="out"/>
<feColorMatrix type="matrix" values="0 0 0 0 0 0 0 0 0 0 0 0 0 0 0 0 0 0 0.17 0"/>
<feBlend mode="normal" in2="BackgroundImageFix" result="effect1_dropShadow_1_620"/>
<feBlend mode="normal" in="SourceGraphic" in2="effect1_dropShadow_1_620" result="shape"/>
<feColorMatrix in="SourceAlpha" type="matrix" values="0 0 0 0 0 0 0 0 0 0 0 0 0 0 0 0 0 0 127 0" result="hardAlpha"/>
<feMorphology radius="1" operator="erode" in="SourceAlpha" result="effect2_innerShadow_1_620"/>
<feOffset dy="-1.33884"/>
<feComposite in2="hardAlpha" operator="arithmetic" k2="-1" k3="1"/>
<feColorMatrix type="matrix" values="0 0 0 0 0 0 0 0 0 0 0 0 0 0 0 0 0 0 0.1 0"/>
<feBlend mode="normal" in2="shape" result="effect2_innerShadow_1_620"/>
<feColorMatrix in="SourceAlpha" type="matrix" values="0 0 0 0 0 0 0 0 0 0 0 0 0 0 0 0 0 0 127 0" result="hardAlpha"/>
<feOffset dy="0.892562"/>
<feComposite in2="hardAlpha" operator="arithmetic" k2="-1" k3="1"/>
<feColorMatrix type="matrix" values="0 0 0 0 1 0 0 0 0 1 0 0 0 0 1 0 0 0 0.18 0"/>
<feBlend mode="normal" in2="effect2_innerShadow_1_620" result="effect3_innerShadow_1_620"/>
</filter>
<linearGradient id="paint0_linear_1_620" x1="207.5" y1="0" x2="207.5" y2="36" gradientUnits="userSpaceOnUse">
<stop stop-color="#4318FF"/>
<stop offset="1" stop-color="#7F5DFF"/>
</linearGradient>
</defs>
</svg>
