<svg width="244" height="76" viewBox="0 0 244 76" fill="none" xmlns="http://www.w3.org/2000/svg">
<g filter="url(#filter0_ii_1_638)">
<g filter="url(#filter1_d_1_638)">
<rect x="18" y="14" width="208" height="40" rx="6" fill="url(#paint0_linear_1_638)"/>
<path d="M104.228 39.168C103.509 39.168 102.879 39.042 102.338 38.79C101.797 38.538 101.372 38.1787 101.064 37.712C100.765 37.2453 100.611 36.69 100.602 36.046H102.17C102.179 36.5687 102.361 37.012 102.716 37.376C103.071 37.74 103.57 37.922 104.214 37.922C104.783 37.922 105.227 37.7867 105.544 37.516C105.871 37.236 106.034 36.8813 106.034 36.452C106.034 36.1067 105.955 35.8267 105.796 35.612C105.647 35.3973 105.437 35.22 105.166 35.08C104.905 34.94 104.601 34.814 104.256 34.702C103.911 34.59 103.547 34.4687 103.164 34.338C102.408 34.086 101.839 33.7593 101.456 33.358C101.083 32.9567 100.896 32.4293 100.896 31.776C100.887 31.2253 101.013 30.7447 101.274 30.334C101.545 29.9233 101.918 29.606 102.394 29.382C102.879 29.1487 103.444 29.032 104.088 29.032C104.723 29.032 105.278 29.1487 105.754 29.382C106.239 29.6153 106.617 29.942 106.888 30.362C107.159 30.7727 107.299 31.2533 107.308 31.804H105.74C105.74 31.552 105.675 31.314 105.544 31.09C105.413 30.8567 105.222 30.6653 104.97 30.516C104.718 30.3667 104.41 30.292 104.046 30.292C103.579 30.2827 103.192 30.3993 102.884 30.642C102.585 30.8847 102.436 31.2207 102.436 31.65C102.436 32.0327 102.548 32.3267 102.772 32.532C102.996 32.7373 103.304 32.91 103.696 33.05C104.088 33.1807 104.536 33.3347 105.04 33.512C105.525 33.6707 105.959 33.862 106.342 34.086C106.725 34.31 107.028 34.604 107.252 34.968C107.485 35.332 107.602 35.794 107.602 36.354C107.602 36.8487 107.476 37.3107 107.224 37.74C106.972 38.16 106.594 38.5053 106.09 38.776C105.586 39.0373 104.965 39.168 104.228 39.168ZM110.008 30.74C109.728 30.74 109.495 30.656 109.308 30.488C109.131 30.3107 109.042 30.0913 109.042 29.83C109.042 29.5687 109.131 29.354 109.308 29.186C109.495 29.0087 109.728 28.92 110.008 28.92C110.288 28.92 110.517 29.0087 110.694 29.186C110.881 29.354 110.974 29.5687 110.974 29.83C110.974 30.0913 110.881 30.3107 110.694 30.488C110.517 30.656 110.288 30.74 110.008 30.74ZM109.266 39V32.056H110.75V39H109.266ZM115.551 36.872C115.187 36.872 114.851 36.83 114.543 36.746L113.941 37.334C114.044 37.3993 114.17 37.4553 114.319 37.502C114.469 37.5487 114.679 37.5907 114.949 37.628C115.22 37.6653 115.589 37.7027 116.055 37.74C116.979 37.824 117.647 38.048 118.057 38.412C118.468 38.7667 118.673 39.2427 118.673 39.84C118.673 40.2507 118.561 40.638 118.337 41.002C118.123 41.3753 117.782 41.674 117.315 41.898C116.858 42.1313 116.27 42.248 115.551 42.248C114.581 42.248 113.792 42.0613 113.185 41.688C112.588 41.324 112.289 40.7687 112.289 40.022C112.289 39.7327 112.364 39.4433 112.513 39.154C112.672 38.874 112.919 38.608 113.255 38.356C113.059 38.272 112.887 38.1833 112.737 38.09C112.597 37.9873 112.471 37.8847 112.359 37.782V37.446L113.563 36.214C113.022 35.7473 112.751 35.136 112.751 34.38C112.751 33.9227 112.859 33.5073 113.073 33.134C113.297 32.7513 113.619 32.448 114.039 32.224C114.459 32 114.963 31.888 115.551 31.888C115.943 31.888 116.307 31.944 116.643 32.056H119.233V33.036L118.001 33.106C118.225 33.4887 118.337 33.9133 118.337 34.38C118.337 34.8467 118.225 35.2667 118.001 35.64C117.787 36.0133 117.469 36.312 117.049 36.536C116.639 36.76 116.139 36.872 115.551 36.872ZM115.551 35.71C115.981 35.71 116.326 35.598 116.587 35.374C116.858 35.1407 116.993 34.814 116.993 34.394C116.993 33.9647 116.858 33.638 116.587 33.414C116.326 33.19 115.981 33.078 115.551 33.078C115.113 33.078 114.758 33.19 114.487 33.414C114.226 33.638 114.095 33.9647 114.095 34.394C114.095 34.814 114.226 35.1407 114.487 35.374C114.758 35.598 115.113 35.71 115.551 35.71ZM113.689 39.882C113.689 40.2833 113.867 40.582 114.221 40.778C114.576 40.9833 115.019 41.086 115.551 41.086C116.065 41.086 116.48 40.974 116.797 40.75C117.115 40.5353 117.273 40.246 117.273 39.882C117.273 39.6113 117.166 39.378 116.951 39.182C116.737 38.9953 116.331 38.8787 115.733 38.832C115.285 38.804 114.889 38.762 114.543 38.706C114.217 38.8833 113.993 39.0747 113.871 39.28C113.75 39.4853 113.689 39.686 113.689 39.882ZM120.557 39V32.056H121.873L121.985 33.274C122.2 32.8447 122.512 32.5087 122.923 32.266C123.343 32.014 123.824 31.888 124.365 31.888C125.205 31.888 125.863 32.1493 126.339 32.672C126.824 33.1947 127.067 33.974 127.067 35.01V39H125.597V35.164C125.597 33.82 125.046 33.148 123.945 33.148C123.394 33.148 122.937 33.344 122.573 33.736C122.218 34.128 122.041 34.688 122.041 35.416V39H120.557ZM133.182 30.74C132.902 30.74 132.669 30.656 132.482 30.488C132.305 30.3107 132.216 30.0913 132.216 29.83C132.216 29.5687 132.305 29.354 132.482 29.186C132.669 29.0087 132.902 28.92 133.182 28.92C133.462 28.92 133.691 29.0087 133.868 29.186C134.055 29.354 134.148 29.5687 134.148 29.83C134.148 30.0913 134.055 30.3107 133.868 30.488C133.691 30.656 133.462 30.74 133.182 30.74ZM132.44 39V32.056H133.924V39H132.44ZM135.883 39V32.056H137.199L137.311 33.274C137.526 32.8447 137.839 32.5087 138.249 32.266C138.669 32.014 139.15 31.888 139.691 31.888C140.531 31.888 141.189 32.1493 141.665 32.672C142.151 33.1947 142.393 33.974 142.393 35.01V39H140.923V35.164C140.923 33.82 140.373 33.148 139.271 33.148C138.721 33.148 138.263 33.344 137.899 33.736C137.545 34.128 137.367 34.688 137.367 35.416V39H135.883Z" fill="#EFF4FB"/>
</g>
</g>
<defs>
<filter id="filter0_ii_1_638" x="18" y="13" width="208" height="41" filterUnits="userSpaceOnUse" color-interpolation-filters="sRGB">
<feFlood flood-opacity="0" result="BackgroundImageFix"/>
<feBlend mode="normal" in="SourceGraphic" in2="BackgroundImageFix" result="shape"/>
<feColorMatrix in="SourceAlpha" type="matrix" values="0 0 0 0 0 0 0 0 0 0 0 0 0 0 0 0 0 0 127 0" result="hardAlpha"/>
<feMorphology radius="1" operator="erode" in="SourceAlpha" result="effect1_innerShadow_1_638"/>
<feOffset dy="-3"/>
<feComposite in2="hardAlpha" operator="arithmetic" k2="-1" k3="1"/>
<feColorMatrix type="matrix" values="0 0 0 0 0 0 0 0 0 0 0 0 0 0 0 0 0 0 0.1 0"/>
<feBlend mode="normal" in2="shape" result="effect1_innerShadow_1_638"/>
<feColorMatrix in="SourceAlpha" type="matrix" values="0 0 0 0 0 0 0 0 0 0 0 0 0 0 0 0 0 0 127 0" result="hardAlpha"/>
<feOffset dy="2"/>
<feComposite in2="hardAlpha" operator="arithmetic" k2="-1" k3="1"/>
<feColorMatrix type="matrix" values="0 0 0 0 1 0 0 0 0 1 0 0 0 0 1 0 0 0 0.18 0"/>
<feBlend mode="normal" in2="effect1_innerShadow_1_638" result="effect2_innerShadow_1_638"/>
</filter>
<filter id="filter1_d_1_638" x="-1.52588e-05" y="0" width="244" height="76" filterUnits="userSpaceOnUse" color-interpolation-filters="sRGB">
<feFlood flood-opacity="0" result="BackgroundImageFix"/>
<feColorMatrix in="SourceAlpha" type="matrix" values="0 0 0 0 0 0 0 0 0 0 0 0 0 0 0 0 0 0 127 0" result="hardAlpha"/>
<feOffset dy="4"/>
<feGaussianBlur stdDeviation="9"/>
<feColorMatrix type="matrix" values="0 0 0 0 0 0 0 0 0 0 0 0 0 0 0 0 0 0 0.04 0"/>
<feBlend mode="normal" in2="BackgroundImageFix" result="effect1_dropShadow_1_638"/>
<feBlend mode="normal" in="SourceGraphic" in2="effect1_dropShadow_1_638" result="shape"/>
</filter>
<linearGradient id="paint0_linear_1_638" x1="122" y1="14" x2="122" y2="54" gradientUnits="userSpaceOnUse">
<stop stop-color="#4318FF"/>
<stop offset="1" stop-color="#7F5DFF"/>
</linearGradient>
</defs>
</svg>
