<svg width="16" height="17" viewBox="0 0 16 17" fill="none" xmlns="http://www.w3.org/2000/svg">
<path d="M8 15.1667C6.68146 15.1667 5.39253 14.7757 4.2962 14.0431C3.19987 13.3106 2.34539 12.2694 1.84081 11.0512C1.33622 9.83305 1.2042 8.49261 1.46143 7.1994C1.71867 5.90619 2.35361 4.71831 3.28596 3.78596C4.21831 2.85361 5.40619 2.21867 6.6994 1.96143C7.99261 1.7042 9.33305 1.83622 10.5512 2.34081C11.7694 2.84539 12.8106 3.69987 13.5431 4.7962C14.2757 5.89253 14.6667 7.18146 14.6667 8.5C14.6667 10.2681 13.9643 11.9638 12.714 13.214C11.4638 14.4643 9.76811 15.1667 8 15.1667ZM8 2.16667C6.74739 2.16667 5.5229 2.53811 4.48139 3.23403C3.43988 3.92994 2.62812 4.91908 2.14877 6.07634C1.66941 7.23361 1.54399 8.50703 1.78836 9.73557C2.03274 10.9641 2.63593 12.0926 3.52166 12.9783C4.40739 13.8641 5.53589 14.4673 6.76443 14.7116C7.99298 14.956 9.2664 14.8306 10.4237 14.3512C11.5809 13.8719 12.5701 13.0601 13.266 12.0186C13.9619 10.9771 14.3333 9.75262 14.3333 8.5C14.3333 6.8203 13.6661 5.20939 12.4783 4.02166C11.2906 2.83393 9.67971 2.16667 8 2.16667Z" stroke="#8F9BBA" stroke-width="0.666667"/>
<path d="M7.83333 8.56693V4.33333H8.16667V8.29V8.42788L8.26406 8.52547L10.5288 10.7948L10.295 11.0286L7.83333 8.56693Z" fill="#191847" stroke="#8F9BBA" stroke-width="0.666667"/>
</svg>
