<svg width="213" height="72" viewBox="0 0 213 72" fill="none" xmlns="http://www.w3.org/2000/svg">
<g filter="url(#filter0_dii_1_2500)">
<path d="M12.169 29L4.67756 2.81818H10.7244L15.0582 21.0099H15.2756L20.0568 2.81818H25.2344L30.0028 21.0483H30.233L34.5668 2.81818H40.6136L33.1222 29H27.7273L22.7415 11.8821H22.5369L17.5639 29H12.169ZM49.9536 29.3835C47.9337 29.3835 46.195 28.9744 44.7377 28.1562C43.2888 27.3295 42.1723 26.1619 41.3882 24.6534C40.6041 23.1364 40.2121 21.3423 40.2121 19.2713C40.2121 17.2514 40.6041 15.4787 41.3882 13.9531C42.1723 12.4276 43.276 11.2386 44.6993 10.3864C46.1311 9.53409 47.8101 9.10795 49.7362 9.10795C51.0317 9.10795 52.2377 9.31676 53.3541 9.73438C54.4791 10.1435 55.4592 10.7614 56.2945 11.5881C57.1382 12.4148 57.7945 13.4545 58.2632 14.7074C58.732 15.9517 58.9663 17.4091 58.9663 19.0795V20.5753H42.3854V17.2003H53.8399C53.8399 16.4162 53.6695 15.7216 53.3286 15.1165C52.9877 14.5114 52.5146 14.0384 51.9095 13.6974C51.3129 13.348 50.6183 13.1733 49.8257 13.1733C48.999 13.1733 48.2661 13.3651 47.6269 13.7486C46.9962 14.1236 46.5019 14.6307 46.1439 15.2699C45.786 15.9006 45.6027 16.6037 45.5942 17.3793V20.5881C45.5942 21.5597 45.7732 22.3991 46.1311 23.1065C46.4976 23.8139 47.0132 24.3594 47.678 24.7429C48.3428 25.1264 49.1311 25.3182 50.0431 25.3182C50.6482 25.3182 51.2021 25.233 51.705 25.0625C52.2078 24.892 52.6382 24.6364 52.9962 24.2955C53.3541 23.9545 53.6269 23.5369 53.8144 23.0426L58.8513 23.375C58.5956 24.5852 58.0715 25.642 57.2788 26.5455C56.4948 27.4403 55.4806 28.1392 54.2362 28.642C53.0004 29.1364 51.5729 29.3835 49.9536 29.3835ZM67.6063 2.81818V29H62.1603V2.81818H67.6063ZM80.4811 29.3835C78.4697 29.3835 76.7396 28.9574 75.2907 28.1051C73.8504 27.2443 72.7424 26.0511 71.9669 24.5256C71.1998 23 70.8163 21.2443 70.8163 19.2585C70.8163 17.2472 71.2041 15.483 71.9797 13.9659C72.7637 12.4403 73.876 11.2514 75.3163 10.3991C76.7566 9.53835 78.4697 9.10795 80.4555 9.10795C82.1686 9.10795 83.6686 9.41903 84.9555 10.0412C86.2424 10.6634 87.2609 11.5369 88.0109 12.6619C88.7609 13.7869 89.1743 15.108 89.251 16.625H84.1118C83.9669 15.6449 83.5834 14.8565 82.9612 14.2599C82.3476 13.6548 81.5422 13.3523 80.545 13.3523C79.7012 13.3523 78.964 13.5824 78.3334 14.0426C77.7112 14.4943 77.2254 15.1548 76.876 16.0241C76.5265 16.8935 76.3518 17.946 76.3518 19.1818C76.3518 20.4347 76.5223 21.5 76.8632 22.3778C77.2126 23.2557 77.7027 23.9247 78.3334 24.3849C78.964 24.8452 79.7012 25.0753 80.545 25.0753C81.1672 25.0753 81.7254 24.9474 82.2197 24.6918C82.7226 24.4361 83.1359 24.0653 83.4598 23.5795C83.7922 23.0852 84.0095 22.4929 84.1118 21.8026H89.251C89.1657 23.3026 88.7566 24.6236 88.0237 25.7656C87.2993 26.8991 86.2978 27.7855 85.0194 28.4247C83.741 29.0639 82.2282 29.3835 80.4811 29.3835ZM101.25 29.3835C99.2642 29.3835 97.5469 28.9616 96.098 28.1179C94.6577 27.2656 93.5454 26.081 92.7613 24.5639C91.9773 23.0384 91.5852 21.2699 91.5852 19.2585C91.5852 17.2301 91.9773 15.4574 92.7613 13.9403C93.5454 12.4148 94.6577 11.2301 96.098 10.3864C97.5469 9.53409 99.2642 9.10795 101.25 9.10795C103.236 9.10795 104.949 9.53409 106.389 10.3864C107.838 11.2301 108.955 12.4148 109.739 13.9403C110.523 15.4574 110.915 17.2301 110.915 19.2585C110.915 21.2699 110.523 23.0384 109.739 24.5639C108.955 26.081 107.838 27.2656 106.389 28.1179C104.949 28.9616 103.236 29.3835 101.25 29.3835ZM101.276 25.1648C102.179 25.1648 102.933 24.9091 103.538 24.3977C104.143 23.8778 104.599 23.1705 104.906 22.2756C105.222 21.3807 105.379 20.3622 105.379 19.2202C105.379 18.0781 105.222 17.0597 104.906 16.1648C104.599 15.2699 104.143 14.5625 103.538 14.0426C102.933 13.5227 102.179 13.2628 101.276 13.2628C100.364 13.2628 99.5966 13.5227 98.9744 14.0426C98.3608 14.5625 97.8963 15.2699 97.5809 16.1648C97.2741 17.0597 97.1207 18.0781 97.1207 19.2202C97.1207 20.3622 97.2741 21.3807 97.5809 22.2756C97.8963 23.1705 98.3608 23.8778 98.9744 24.3977C99.5966 24.9091 100.364 25.1648 101.276 25.1648ZM114.096 29V9.36364H119.286V12.8281H119.516C119.925 11.6776 120.607 10.7699 121.562 10.1051C122.516 9.44034 123.658 9.10795 124.988 9.10795C126.335 9.10795 127.481 9.4446 128.427 10.1179C129.373 10.7827 130.004 11.6861 130.319 12.8281H130.524C130.924 11.7031 131.649 10.804 132.697 10.1307C133.754 9.44886 135.002 9.10795 136.443 9.10795C138.275 9.10795 139.762 9.69176 140.904 10.8594C142.055 12.0185 142.63 13.6634 142.63 15.794V29H137.197V16.8679C137.197 15.777 136.907 14.9588 136.327 14.4134C135.748 13.8679 135.024 13.5952 134.154 13.5952C133.166 13.5952 132.394 13.9105 131.84 14.5412C131.286 15.1634 131.009 15.9858 131.009 17.0085V29H125.729V16.7528C125.729 15.7898 125.452 15.0227 124.899 14.4517C124.353 13.8807 123.633 13.5952 122.738 13.5952C122.133 13.5952 121.587 13.7486 121.102 14.0554C120.624 14.3537 120.245 14.7756 119.964 15.321C119.683 15.858 119.542 16.4886 119.542 17.2131V29H114.096ZM155.521 29.3835C153.501 29.3835 151.762 28.9744 150.305 28.1562C148.856 27.3295 147.739 26.1619 146.955 24.6534C146.171 23.1364 145.779 21.3423 145.779 19.2713C145.779 17.2514 146.171 15.4787 146.955 13.9531C147.739 12.4276 148.843 11.2386 150.266 10.3864C151.698 9.53409 153.377 9.10795 155.303 9.10795C156.599 9.10795 157.805 9.31676 158.921 9.73438C160.046 10.1435 161.026 10.7614 161.862 11.5881C162.705 12.4148 163.362 13.4545 163.83 14.7074C164.299 15.9517 164.534 17.4091 164.534 19.0795V20.5753H147.953V17.2003H159.407C159.407 16.4162 159.237 15.7216 158.896 15.1165C158.555 14.5114 158.082 14.0384 157.477 13.6974C156.88 13.348 156.186 13.1733 155.393 13.1733C154.566 13.1733 153.833 13.3651 153.194 13.7486C152.563 14.1236 152.069 14.6307 151.711 15.2699C151.353 15.9006 151.17 16.6037 151.161 17.3793V20.5881C151.161 21.5597 151.34 22.3991 151.698 23.1065C152.065 23.8139 152.58 24.3594 153.245 24.7429C153.91 25.1264 154.698 25.3182 155.61 25.3182C156.215 25.3182 156.769 25.233 157.272 25.0625C157.775 24.892 158.205 24.6364 158.563 24.2955C158.921 23.9545 159.194 23.5369 159.382 23.0426L164.418 23.375C164.163 24.5852 163.639 25.642 162.846 26.5455C162.062 27.4403 161.048 28.1392 159.803 28.642C158.568 29.1364 157.14 29.3835 155.521 29.3835ZM186.144 9.36364V13.4545H174.319V9.36364H186.144ZM177.004 4.65909H182.45V22.9659C182.45 23.4687 182.526 23.8608 182.68 24.142C182.833 24.4148 183.046 24.6065 183.319 24.7173C183.6 24.8281 183.924 24.8835 184.29 24.8835C184.546 24.8835 184.802 24.8622 185.057 24.8196C185.313 24.7685 185.509 24.7301 185.646 24.7045L186.502 28.7571C186.229 28.8423 185.846 28.9403 185.352 29.0511C184.857 29.1705 184.256 29.2429 183.549 29.2685C182.236 29.3196 181.086 29.1449 180.097 28.7443C179.117 28.3437 178.354 27.7216 177.809 26.8778C177.263 26.0341 176.995 24.9687 177.004 23.6818V4.65909ZM197.993 29.3835C196.007 29.3835 194.29 28.9616 192.841 28.1179C191.401 27.2656 190.288 26.081 189.504 24.5639C188.72 23.0384 188.328 21.2699 188.328 19.2585C188.328 17.2301 188.72 15.4574 189.504 13.9403C190.288 12.4148 191.401 11.2301 192.841 10.3864C194.29 9.53409 196.007 9.10795 197.993 9.10795C199.979 9.10795 201.692 9.53409 203.132 10.3864C204.581 11.2301 205.697 12.4148 206.482 13.9403C207.266 15.4574 207.658 17.2301 207.658 19.2585C207.658 21.2699 207.266 23.0384 206.482 24.5639C205.697 26.081 204.581 27.2656 203.132 28.1179C201.692 28.9616 199.979 29.3835 197.993 29.3835ZM198.019 25.1648C198.922 25.1648 199.676 24.9091 200.281 24.3977C200.886 23.8778 201.342 23.1705 201.649 22.2756C201.965 21.3807 202.122 20.3622 202.122 19.2202C202.122 18.0781 201.965 17.0597 201.649 16.1648C201.342 15.2699 200.886 14.5625 200.281 14.0426C199.676 13.5227 198.922 13.2628 198.019 13.2628C197.107 13.2628 196.34 13.5227 195.717 14.0426C195.104 14.5625 194.639 15.2699 194.324 16.1648C194.017 17.0597 193.864 18.0781 193.864 19.2202C193.864 20.3622 194.017 21.3807 194.324 22.2756C194.639 23.1705 195.104 23.8778 195.717 24.3977C196.34 24.9091 197.107 25.1648 198.019 25.1648ZM29.3764 47.9844H23.777C23.6747 47.2599 23.4659 46.6165 23.1506 46.054C22.8352 45.483 22.4304 44.9972 21.9361 44.5966C21.4418 44.196 20.8707 43.8892 20.223 43.6761C19.5838 43.4631 18.8892 43.3565 18.1392 43.3565C16.7841 43.3565 15.6037 43.6932 14.598 44.3665C13.5923 45.0312 12.8125 46.0028 12.2585 47.2812C11.7045 48.5511 11.4276 50.0937 11.4276 51.9091C11.4276 53.7756 11.7045 55.3437 12.2585 56.6136C12.821 57.8835 13.6051 58.8423 14.6108 59.4901C15.6165 60.1378 16.7798 60.4616 18.1009 60.4616C18.8423 60.4616 19.5284 60.3636 20.1591 60.1676C20.7983 59.9716 21.3651 59.6861 21.8594 59.3111C22.3537 58.9276 22.7628 58.4631 23.0866 57.9176C23.419 57.3722 23.6491 56.75 23.777 56.0511L29.3764 56.0767C29.2315 57.2784 28.8693 58.4375 28.2898 59.554C27.7188 60.6619 26.9474 61.6548 25.9759 62.5327C25.0128 63.402 23.8622 64.0923 22.5241 64.6037C21.1946 65.1065 19.6903 65.358 18.0114 65.358C15.6761 65.358 13.5881 64.8295 11.7472 63.7727C9.91477 62.7159 8.46591 61.1861 7.40057 59.1832C6.34375 57.1804 5.81534 54.7557 5.81534 51.9091C5.81534 49.054 6.35227 46.625 7.42614 44.6222C8.5 42.6193 9.95739 41.0937 11.7983 40.0455C13.6392 38.9886 15.7102 38.4602 18.0114 38.4602C19.5284 38.4602 20.9347 38.6733 22.2301 39.0994C23.5341 39.5256 24.6889 40.1477 25.6946 40.9659C26.7003 41.7756 27.5185 42.7685 28.1491 43.9446C28.7884 45.1207 29.1974 46.4673 29.3764 47.9844ZM41.7558 65.3835C39.77 65.3835 38.0526 64.9616 36.6038 64.1179C35.1634 63.2656 34.0512 62.081 33.2671 60.5639C32.483 59.0384 32.091 57.2699 32.091 55.2585C32.091 53.2301 32.483 51.4574 33.2671 49.9403C34.0512 48.4148 35.1634 47.2301 36.6038 46.3864C38.0526 45.5341 39.77 45.108 41.7558 45.108C43.7416 45.108 45.4546 45.5341 46.895 46.3864C48.3438 47.2301 49.4603 48.4148 50.2444 49.9403C51.0285 51.4574 51.4205 53.2301 51.4205 55.2585C51.4205 57.2699 51.0285 59.0384 50.2444 60.5639C49.4603 62.081 48.3438 63.2656 46.895 64.1179C45.4546 64.9616 43.7416 65.3835 41.7558 65.3835ZM41.7813 61.1648C42.6847 61.1648 43.439 60.9091 44.0441 60.3977C44.6492 59.8778 45.1052 59.1705 45.412 58.2756C45.7274 57.3807 45.885 56.3622 45.885 55.2202C45.885 54.0781 45.7274 53.0597 45.412 52.1648C45.1052 51.2699 44.6492 50.5625 44.0441 50.0426C43.439 49.5227 42.6847 49.2628 41.7813 49.2628C40.8694 49.2628 40.1024 49.5227 39.4802 50.0426C38.8666 50.5625 38.4021 51.2699 38.0867 52.1648C37.7799 53.0597 37.6265 54.0781 37.6265 55.2202C37.6265 56.3622 37.7799 57.3807 38.0867 58.2756C38.4021 59.1705 38.8666 59.8778 39.4802 60.3977C40.1024 60.9091 40.8694 61.1648 41.7813 61.1648ZM60.0478 53.6477V65H54.6017V45.3636H59.7921V48.8281H60.0222C60.4568 47.6861 61.1855 46.7827 62.2083 46.1179C63.231 45.4446 64.471 45.108 65.9284 45.108C67.2921 45.108 68.481 45.4062 69.4952 46.0028C70.5094 46.5994 71.2978 47.4517 71.8603 48.5597C72.4228 49.6591 72.704 50.9716 72.704 52.4972V65H67.258V53.4688C67.2665 52.267 66.9597 51.3295 66.3375 50.6562C65.7154 49.9744 64.8588 49.6335 63.7679 49.6335C63.035 49.6335 62.3872 49.7912 61.8247 50.1065C61.2708 50.4219 60.8361 50.8821 60.5208 51.4872C60.2139 52.0838 60.0563 52.804 60.0478 53.6477ZM87.1959 45.3636V49.4545H75.0766V45.3636H87.1959ZM77.8508 65V43.9446C77.8508 42.5213 78.1277 41.3409 78.6817 40.4034C79.2442 39.4659 80.0113 38.7628 80.9829 38.294C81.9544 37.8253 83.0581 37.5909 84.2939 37.5909C85.1292 37.5909 85.8919 37.6548 86.5823 37.7827C87.2811 37.9105 87.801 38.0256 88.1419 38.1278L87.1704 42.2188C86.9573 42.1506 86.6931 42.0866 86.3777 42.027C86.0709 41.9673 85.7556 41.9375 85.4317 41.9375C84.6306 41.9375 84.0723 42.125 83.757 42.5C83.4417 42.8665 83.284 43.3821 83.284 44.0469V65H77.8508ZM98.4087 65.3835C96.3888 65.3835 94.6502 64.9744 93.1928 64.1562C91.7439 63.3295 90.6275 62.1619 89.8434 60.6534C89.0593 59.1364 88.6672 57.3423 88.6672 55.2713C88.6672 53.2514 89.0593 51.4787 89.8434 49.9531C90.6275 48.4276 91.7312 47.2386 93.1545 46.3864C94.5863 45.5341 96.2653 45.108 98.1914 45.108C99.4868 45.108 100.693 45.3168 101.809 45.7344C102.934 46.1435 103.914 46.7614 104.75 47.5881C105.593 48.4148 106.25 49.4545 106.718 50.7074C107.187 51.9517 107.422 53.4091 107.422 55.0795V56.5753H90.8405V53.2003H102.295C102.295 52.4162 102.125 51.7216 101.784 51.1165C101.443 50.5114 100.97 50.0384 100.365 49.6974C99.7681 49.348 99.0735 49.1733 98.2809 49.1733C97.4542 49.1733 96.7212 49.3651 96.082 49.7486C95.4513 50.1236 94.957 50.6307 94.5991 51.2699C94.2411 51.9006 94.0579 52.6037 94.0493 53.3793V56.5881C94.0493 57.5597 94.2283 58.3991 94.5863 59.1065C94.9528 59.8139 95.4684 60.3594 96.1332 60.7429C96.7979 61.1264 97.5863 61.3182 98.4982 61.3182C99.1033 61.3182 99.6573 61.233 100.16 61.0625C100.663 60.892 101.093 60.6364 101.451 60.2955C101.809 59.9545 102.082 59.5369 102.27 59.0426L107.306 59.375C107.051 60.5852 106.527 61.642 105.734 62.5455C104.95 63.4403 103.936 64.1392 102.691 64.642C101.456 65.1364 100.028 65.3835 98.4087 65.3835ZM110.615 65V45.3636H115.895V48.7898H116.1C116.458 47.571 117.059 46.6506 117.902 46.0284C118.746 45.3977 119.718 45.0824 120.817 45.0824C121.09 45.0824 121.384 45.0994 121.699 45.1335C122.015 45.1676 122.292 45.2145 122.53 45.2741V50.1065C122.275 50.0298 121.921 49.9616 121.469 49.902C121.017 49.8423 120.604 49.8125 120.229 49.8125C119.428 49.8125 118.712 49.9872 118.081 50.3366C117.459 50.6776 116.965 51.1548 116.598 51.7685C116.24 52.3821 116.062 53.0895 116.062 53.8906V65H110.615ZM124.986 65V45.3636H130.176V48.8281H130.406C130.815 47.6776 131.497 46.7699 132.452 46.1051C133.406 45.4403 134.548 45.108 135.878 45.108C137.225 45.108 138.371 45.4446 139.317 46.1179C140.263 46.7827 140.894 47.6861 141.209 48.8281H141.414C141.814 47.7031 142.539 46.804 143.587 46.1307C144.644 45.4489 145.892 45.108 147.333 45.108C149.165 45.108 150.652 45.6918 151.794 46.8594C152.945 48.0185 153.52 49.6634 153.52 51.794V65H148.087V52.8679C148.087 51.777 147.797 50.9588 147.217 50.4134C146.638 49.8679 145.914 49.5952 145.044 49.5952C144.056 49.5952 143.284 49.9105 142.73 50.5412C142.176 51.1634 141.899 51.9858 141.899 53.0085V65H136.619V52.7528C136.619 51.7898 136.342 51.0227 135.789 50.4517C135.243 49.8807 134.523 49.5952 133.628 49.5952C133.023 49.5952 132.477 49.7486 131.992 50.0554C131.514 50.3537 131.135 50.7756 130.854 51.321C130.573 51.858 130.432 52.4886 130.432 53.2131V65H124.986ZM166.334 65.3835C164.348 65.3835 162.631 64.9616 161.182 64.1179C159.742 63.2656 158.629 62.081 157.845 60.5639C157.061 59.0384 156.669 57.2699 156.669 55.2585C156.669 53.2301 157.061 51.4574 157.845 49.9403C158.629 48.4148 159.742 47.2301 161.182 46.3864C162.631 45.5341 164.348 45.108 166.334 45.108C168.32 45.108 170.033 45.5341 171.473 46.3864C172.922 47.2301 174.039 48.4148 174.823 49.9403C175.607 51.4574 175.999 53.2301 175.999 55.2585C175.999 57.2699 175.607 59.0384 174.823 60.5639C174.039 62.081 172.922 63.2656 171.473 64.1179C170.033 64.9616 168.32 65.3835 166.334 65.3835ZM166.36 61.1648C167.263 61.1648 168.017 60.9091 168.622 60.3977C169.228 59.8778 169.683 59.1705 169.99 58.2756C170.306 57.3807 170.463 56.3622 170.463 55.2202C170.463 54.0781 170.306 53.0597 169.99 52.1648C169.683 51.2699 169.228 50.5625 168.622 50.0426C168.017 49.5227 167.263 49.2628 166.36 49.2628C165.448 49.2628 164.681 49.5227 164.058 50.0426C163.445 50.5625 162.98 51.2699 162.665 52.1648C162.358 53.0597 162.205 54.0781 162.205 55.2202C162.205 56.3622 162.358 57.3807 162.665 58.2756C162.98 59.1705 163.445 59.8778 164.058 60.3977C164.681 60.9091 165.448 61.1648 166.36 61.1648ZM188.052 65.3835C186.066 65.3835 184.349 64.9616 182.9 64.1179C181.46 63.2656 180.348 62.081 179.564 60.5639C178.779 59.0384 178.387 57.2699 178.387 55.2585C178.387 53.2301 178.779 51.4574 179.564 49.9403C180.348 48.4148 181.46 47.2301 182.9 46.3864C184.349 45.5341 186.066 45.108 188.052 45.108C190.038 45.108 191.751 45.5341 193.191 46.3864C194.64 47.2301 195.757 48.4148 196.541 49.9403C197.325 51.4574 197.717 53.2301 197.717 55.2585C197.717 57.2699 197.325 59.0384 196.541 60.5639C195.757 62.081 194.64 63.2656 193.191 64.1179C191.751 64.9616 190.038 65.3835 188.052 65.3835ZM188.078 61.1648C188.981 61.1648 189.735 60.9091 190.341 60.3977C190.946 59.8778 191.402 59.1705 191.708 58.2756C192.024 57.3807 192.181 56.3622 192.181 55.2202C192.181 54.0781 192.024 53.0597 191.708 52.1648C191.402 51.2699 190.946 50.5625 190.341 50.0426C189.735 49.5227 188.981 49.2628 188.078 49.2628C187.166 49.2628 186.399 49.5227 185.777 50.0426C185.163 50.5625 184.698 51.2699 184.383 52.1648C184.076 53.0597 183.923 54.0781 183.923 55.2202C183.923 56.3622 184.076 57.3807 184.383 58.2756C184.698 59.1705 185.163 59.8778 185.777 60.3977C186.399 60.9091 187.166 61.1648 188.078 61.1648ZM207.405 38.8182L206.907 57.1506H202.228L201.716 38.8182H207.405ZM204.567 65.3324C203.723 65.3324 202.999 65.0341 202.394 64.4375C201.789 63.8324 201.49 63.108 201.499 62.2642C201.49 61.429 201.789 60.7131 202.394 60.1165C202.999 59.5199 203.723 59.2216 204.567 59.2216C205.377 59.2216 206.088 59.5199 206.702 60.1165C207.316 60.7131 207.627 61.429 207.635 62.2642C207.627 62.8267 207.478 63.3423 207.188 63.8111C206.907 64.2713 206.536 64.642 206.076 64.9233C205.615 65.196 205.113 65.3324 204.567 65.3324Z" fill="url(#paint0_linear_1_2500)"/>
</g>
<defs>
<filter id="filter0_dii_1_2500" x="0.214741" y="0.140551" width="211.906" height="71.4909" filterUnits="userSpaceOnUse" color-interpolation-filters="sRGB">
<feFlood flood-opacity="0" result="BackgroundImageFix"/>
<feColorMatrix in="SourceAlpha" type="matrix" values="0 0 0 0 0 0 0 0 0 0 0 0 0 0 0 0 0 0 127 0" result="hardAlpha"/>
<feOffset dy="1.78512"/>
<feGaussianBlur stdDeviation="2.23141"/>
<feComposite in2="hardAlpha" operator="out"/>
<feColorMatrix type="matrix" values="0 0 0 0 0 0 0 0 0 0 0 0 0 0 0 0 0 0 0.17 0"/>
<feBlend mode="normal" in2="BackgroundImageFix" result="effect1_dropShadow_1_2500"/>
<feBlend mode="normal" in="SourceGraphic" in2="effect1_dropShadow_1_2500" result="shape"/>
<feColorMatrix in="SourceAlpha" type="matrix" values="0 0 0 0 0 0 0 0 0 0 0 0 0 0 0 0 0 0 127 0" result="hardAlpha"/>
<feMorphology radius="1" operator="erode" in="SourceAlpha" result="effect2_innerShadow_1_2500"/>
<feOffset dy="-1.33884"/>
<feComposite in2="hardAlpha" operator="arithmetic" k2="-1" k3="1"/>
<feColorMatrix type="matrix" values="0 0 0 0 0 0 0 0 0 0 0 0 0 0 0 0 0 0 0.1 0"/>
<feBlend mode="normal" in2="shape" result="effect2_innerShadow_1_2500"/>
<feColorMatrix in="SourceAlpha" type="matrix" values="0 0 0 0 0 0 0 0 0 0 0 0 0 0 0 0 0 0 127 0" result="hardAlpha"/>
<feOffset dy="0.892562"/>
<feComposite in2="hardAlpha" operator="arithmetic" k2="-1" k3="1"/>
<feColorMatrix type="matrix" values="0 0 0 0 1 0 0 0 0 1 0 0 0 0 1 0 0 0 0.18 0"/>
<feBlend mode="normal" in2="effect2_innerShadow_1_2500" result="effect3_innerShadow_1_2500"/>
</filter>
<linearGradient id="paint0_linear_1_2500" x1="116.5" y1="-2" x2="116.5" y2="70" gradientUnits="userSpaceOnUse">
<stop stop-color="#4318FF"/>
<stop offset="1" stop-color="#7F5DFF"/>
</linearGradient>
</defs>
</svg>
