<svg width="379" height="64" viewBox="0 0 379 64" fill="none" xmlns="http://www.w3.org/2000/svg">
<path d="M226.971 16.6909H220.425C220.23 16.6909 220.071 16.8532 220.071 17.0535V48.2417C220.071 48.442 220.23 48.6044 220.425 48.6044H226.971C227.166 48.6044 227.324 48.442 227.324 48.2417V17.0535C227.324 16.8532 227.166 16.6909 226.971 16.6909Z" fill="#FBFBFB"/>
<path d="M361.507 48.6044C358.174 48.6044 355.238 47.9522 352.701 46.6477C350.195 45.3144 348.247 43.4447 346.861 41.0389C345.503 38.6332 344.824 35.8361 344.824 32.6476C344.824 29.4591 345.503 26.662 346.861 24.2561C348.247 21.8503 350.195 19.9952 352.701 18.6909C355.238 17.3575 358.174 16.6909 361.507 16.6909C364.841 16.6909 367.761 17.3575 370.267 18.6909C372.806 19.9952 374.751 21.8503 376.109 24.2561C377.495 26.662 378.188 29.4591 378.188 32.6476C378.188 35.8361 377.495 38.6332 376.109 41.0389C374.751 43.4447 372.806 45.3144 370.267 46.6477C367.761 47.9522 364.841 48.6044 361.507 48.6044ZM361.507 42.2564C363.365 42.2564 365.002 41.8651 366.418 41.0825C367.864 40.2708 368.971 39.1404 369.738 37.6911C370.533 36.2418 370.932 34.5607 370.932 32.6476C370.932 30.7345 370.533 29.0533 369.738 27.604C368.971 26.1547 367.864 25.0388 366.418 24.2561C365.002 23.4446 363.365 23.0388 361.507 23.0388C359.648 23.0388 358.012 23.4446 356.596 24.2561C355.18 25.0388 354.073 26.1547 353.277 27.604C352.51 29.0533 352.126 30.7345 352.126 32.6476C352.126 34.5607 352.51 36.2418 353.277 37.6911C354.073 39.1404 355.18 40.2708 356.596 41.0825C358.012 41.8651 359.648 42.2564 361.507 42.2564Z" fill="#FBFBFB"/>
<path d="M323.798 48.6044C320.465 48.6044 317.529 47.9522 314.992 46.6477C312.484 45.3144 310.538 43.4447 309.15 41.0389C307.794 38.6332 307.115 35.8361 307.115 32.6476C307.115 29.4591 307.794 26.662 309.15 24.2561C310.538 21.8503 312.484 19.9952 314.992 18.6909C317.529 17.3575 320.465 16.6909 323.798 16.6909C327.132 16.6909 330.052 17.3575 332.558 18.6909C335.095 19.9952 337.042 21.8503 338.4 24.2561C339.786 26.662 340.479 29.4591 340.479 32.6476C340.479 35.8361 339.786 38.6332 338.4 41.0389C337.042 43.4447 335.095 45.3144 332.558 46.6477C330.052 47.9522 327.132 48.6044 323.798 48.6044ZM323.798 42.2564C325.656 42.2564 327.293 41.8651 328.709 41.0825C330.155 40.2708 331.26 39.1404 332.027 37.6911C332.824 36.2418 333.223 34.5607 333.223 32.6476C333.223 30.7345 332.824 29.0533 332.027 27.604C331.26 26.1547 330.155 25.0388 328.709 24.2561C327.293 23.4446 325.656 23.0388 323.798 23.0388C321.939 23.0388 320.301 23.4446 318.885 24.2561C317.469 25.0388 316.364 26.1547 315.567 27.604C314.801 29.0533 314.417 30.7345 314.417 32.6476C314.417 34.5607 314.801 36.2418 315.567 37.6911C316.364 39.1404 317.469 40.2708 318.885 41.0825C320.301 41.8651 321.939 42.2564 323.798 42.2564Z" fill="#FBFBFB"/>
<path d="M294.557 16.8494C294.638 16.7492 294.758 16.6909 294.886 16.6909H300.895C301.126 16.6909 301.313 16.8806 301.313 17.1146V48.1806C301.313 48.4146 301.126 48.6044 300.895 48.6044H294.382C294.15 48.6044 293.962 48.4146 293.962 48.1806V29.8235C293.962 29.4252 293.467 29.2468 293.218 29.5553L284.797 39.9688C284.718 40.0674 284.6 40.1245 284.473 40.1245H283.428C283.302 40.1245 283.184 40.0678 283.103 39.9697L274.591 29.5035C274.342 29.1963 273.849 29.375 273.849 29.7726V48.1806C273.849 48.4146 273.66 48.6044 273.429 48.6044H266.918C266.686 48.6044 266.498 48.4146 266.498 48.1806V17.1146C266.498 16.8806 266.686 16.6909 266.918 16.6909H272.925C273.053 16.6909 273.173 16.7492 273.253 16.8494L283.578 29.8647C283.747 30.0762 284.064 30.0762 284.233 29.8647L294.557 16.8494Z" fill="#FBFBFB"/>
<path d="M246.187 38.238C246.11 38.1339 245.99 38.0729 245.861 38.0729H242.265C242.038 38.0729 241.853 38.2626 241.853 38.4966V48.1806C241.853 48.4146 241.67 48.6044 241.443 48.6044H234.997C234.77 48.6044 234.585 48.4146 234.585 48.1806V17.1146C234.585 16.8806 234.77 16.6909 234.997 16.6909H249.699C251.944 16.6909 253.908 17.1469 255.593 18.0587C257.277 18.94 258.578 20.2013 259.494 21.8426C260.41 23.4839 260.868 25.3683 260.868 27.4959C260.868 29.9274 260.248 32.0093 259.006 33.7418C257.899 35.3242 256.361 36.4881 254.393 37.2337C254.12 37.3368 254.018 37.6857 254.201 37.9179L262.054 47.9142C262.272 48.1913 262.08 48.6044 261.733 48.6044H254.157C254.028 48.6044 253.908 48.5433 253.829 48.4393L246.187 38.238ZM253.688 27.587C253.688 26.1585 253.26 25.0491 252.402 24.2589C251.576 23.4687 250.393 23.0736 248.857 23.0736H242.221C241.994 23.0736 241.809 23.2634 241.809 23.4973V31.6312C241.809 31.8652 241.994 32.055 242.221 32.055H248.857C250.423 32.055 251.62 31.6749 252.446 30.9151C253.274 30.1249 253.688 29.0156 253.688 27.587Z" fill="#FBFBFB"/>
<path d="M214.277 22.7867C214.277 23.0207 214.079 23.2103 213.833 23.2103H197.882C197.637 23.2103 197.44 23.4 197.44 23.634V30.4002C197.44 30.6342 197.637 30.824 197.882 30.824H212.879C213.124 30.824 213.323 31.0137 213.323 31.2477V36.7373C213.323 36.9713 213.124 37.161 212.879 37.161H197.882C197.637 37.161 197.44 37.3508 197.44 37.5848V48.1806C197.44 48.4146 197.241 48.6044 196.996 48.6044H190.06C189.815 48.6044 189.616 48.4146 189.616 48.1806V17.1146C189.616 16.8806 189.815 16.6909 190.06 16.6909H213.833C214.079 16.6909 214.277 16.8806 214.277 17.1146V22.7867Z" fill="#FBFBFB"/>
<path d="M176.246 17.1146C176.246 16.8806 176.44 16.6909 176.678 16.6909H183.38C183.618 16.6909 183.812 16.8806 183.812 17.1146V48.1806C183.812 48.4146 183.618 48.6044 183.38 48.6044H177.208C177.069 48.6044 176.94 48.5398 176.859 48.4309L163.067 29.9285C162.82 29.5961 162.284 29.7712 162.288 30.1831L162.368 37.4802V48.1806C162.368 48.4146 162.174 48.6044 161.936 48.6044H155.232C154.994 48.6044 154.8 48.4146 154.8 48.1806V17.1146C154.8 16.8806 154.994 16.6909 155.232 16.6909H161.404C161.543 16.6909 161.672 16.7556 161.753 16.865L175.545 35.4519C175.792 35.7854 176.329 35.6103 176.324 35.1978L176.246 27.9974V17.1146Z" fill="#FBFBFB"/>
<path d="M133.033 48.6044C129.555 48.6044 126.493 47.9522 123.847 46.6477C121.229 45.3144 119.197 43.4447 117.751 41.0389C116.335 38.6332 115.627 35.8361 115.627 32.6476C115.627 29.4591 116.335 26.662 117.751 24.2561C119.197 21.8503 121.229 19.9952 123.847 18.6909C126.493 17.3575 129.555 16.6909 133.033 16.6909C136.512 16.6909 139.561 17.3575 142.176 18.6909C144.823 19.9952 146.855 21.8503 148.27 24.2561C149.718 26.662 150.442 29.4591 150.442 32.6476C150.442 35.8361 149.718 38.6332 148.27 41.0389C146.855 43.4447 144.823 45.3144 142.176 46.6477C139.561 47.9522 136.512 48.6044 133.033 48.6044ZM133.033 42.2564C134.974 42.2564 136.682 41.8651 138.16 41.0825C139.667 40.2708 140.822 39.1404 141.622 37.6911C142.453 36.2418 142.868 34.5607 142.868 32.6476C142.868 30.7345 142.453 29.0533 141.622 27.604C140.822 26.1547 139.667 25.0388 138.16 24.2561C136.682 23.4446 134.974 23.0388 133.033 23.0388C131.095 23.0388 129.386 23.4446 127.909 24.2561C126.431 25.0388 125.276 26.1547 124.447 27.604C123.646 29.0533 123.246 30.7345 123.246 32.6476C123.246 34.5607 123.646 36.2418 124.447 37.6911C125.276 39.1404 126.431 40.2708 127.909 41.0825C129.386 41.8651 131.095 42.2564 133.033 42.2564Z" fill="#FBFBFB"/>
<path d="M102.089 48.6044C98.708 48.6044 95.7307 47.9359 93.1574 46.5987C90.6139 45.2618 88.639 43.3872 87.2326 40.9747C85.8562 38.5623 85.168 35.7866 85.168 32.6475C85.168 29.5086 85.8712 26.7329 87.2776 24.3205C88.7137 21.8789 90.7036 20.0042 93.2471 18.6963C95.7905 17.3593 98.693 16.6909 101.955 16.6909C106.452 16.6909 110.331 18.1803 113.59 21.1595C113.759 21.3139 113.76 21.5729 113.596 21.7321L109.649 25.5663C109.488 25.7219 109.23 25.724 109.061 25.5777C107.117 23.8965 104.808 23.0561 102.134 23.0561C100.249 23.0561 98.5733 23.4631 97.1071 24.2768C95.6708 25.0616 94.5488 26.1805 93.7409 27.6338C92.9629 29.0871 92.5739 30.7584 92.5739 32.6475C92.5739 34.5369 92.9629 36.208 93.7409 37.6612C94.5488 39.1145 95.6708 40.248 97.1071 41.0619C98.5733 41.8467 100.249 42.2391 102.134 42.2391C103.63 42.2391 105.067 41.9774 106.443 41.4543C107.679 40.9846 108.77 40.3276 109.716 39.4832C109.892 39.326 110.168 39.3326 110.328 39.5055L114.074 43.5613C114.224 43.7236 114.215 43.9726 114.05 44.1206C110.727 47.1098 106.74 48.6044 102.089 48.6044Z" fill="#FBFBFB"/>
<mask id="path-10-inside-1_1125_39935" fill="white">
<path fill-rule="evenodd" clip-rule="evenodd" d="M25.638 28.4157C25.0181 28.0578 24.2432 28.5052 24.2432 29.221V41.0771C24.2432 41.4093 24.4204 41.7163 24.7081 41.8824L38.4434 49.8125C38.7311 49.9786 39.0856 49.9786 39.3733 49.8125L53.1086 41.8824C53.3963 41.7163 53.5735 41.4093 53.5735 41.0771V29.221C53.5735 28.5052 52.7986 28.0578 52.1787 28.4157L39.3733 35.8089C39.0856 35.9751 38.7311 35.9751 38.4434 35.8089L25.638 28.4157Z"/>
</mask>
<path fill-rule="evenodd" clip-rule="evenodd" d="M25.638 28.4157C25.0181 28.0578 24.2432 28.5052 24.2432 29.221V41.0771C24.2432 41.4093 24.4204 41.7163 24.7081 41.8824L38.4434 49.8125C38.7311 49.9786 39.0856 49.9786 39.3733 49.8125L53.1086 41.8824C53.3963 41.7163 53.5735 41.4093 53.5735 41.0771V29.221C53.5735 28.5052 52.7986 28.0578 52.1787 28.4157L39.3733 35.8089C39.0856 35.9751 38.7311 35.9751 38.4434 35.8089L25.638 28.4157Z" fill="#FBFBFB"/>
<path d="M53.1086 41.8824L52.1787 40.2718L53.1086 41.8824ZM39.3733 49.8125L38.4434 48.2019L39.3733 49.8125ZM24.7081 41.8824L23.7782 43.493L24.7081 41.8824ZM26.1029 41.0771V29.221H22.3834V41.0771H26.1029ZM39.3733 48.2019L25.638 40.2718L23.7782 43.493L37.5135 51.4231L39.3733 48.2019ZM52.1787 40.2718L38.4434 48.2019L40.3032 51.4231L54.0385 43.493L52.1787 40.2718ZM51.7138 29.221V41.0771H55.4333V29.221H51.7138ZM51.2488 26.8051L38.4434 34.1983L40.3032 37.4195L53.1086 30.0263L51.2488 26.8051ZM39.3733 34.1983L26.5679 26.8051L24.7081 30.0263L37.5135 37.4195L39.3733 34.1983ZM38.4434 34.1983C38.7311 34.0322 39.0856 34.0322 39.3733 34.1983L37.5135 37.4195C38.3766 37.9179 39.4401 37.9179 40.3032 37.4195L38.4434 34.1983ZM55.4333 29.221C55.4333 27.0736 53.1086 25.7314 51.2488 26.8051L53.1086 30.0263C52.4887 30.3842 51.7138 29.9369 51.7138 29.221H55.4333ZM54.0385 43.493C54.9016 42.9947 55.4333 42.0738 55.4333 41.0771H51.7138C51.7138 40.7449 51.891 40.4379 52.1787 40.2718L54.0385 43.493ZM37.5135 51.4231C38.3766 51.9214 39.4401 51.9214 40.3032 51.4231L38.4434 48.2019C38.7311 48.0358 39.0856 48.0358 39.3733 48.2019L37.5135 51.4231ZM26.1029 29.221C26.1029 29.9369 25.328 30.3842 24.7081 30.0263L26.5679 26.8051C24.7081 25.7314 22.3834 27.0736 22.3834 29.221H26.1029ZM22.3834 41.0771C22.3834 42.0738 22.9151 42.9947 23.7782 43.493L25.638 40.2718C25.9257 40.4379 26.1029 40.7449 26.1029 41.0771H22.3834Z" fill="#FBFBFB" mask="url(#path-10-inside-1_1125_39935)"/>
<mask id="path-12-inside-2_1125_39935" fill="white">
<path fill-rule="evenodd" clip-rule="evenodd" d="M51.8658 22.1977L39.0604 14.8045C38.7727 14.6384 38.4182 14.6384 38.1305 14.8045L25.3253 22.1969C24.7054 22.5547 24.7054 23.4496 25.3253 23.8075L38.1307 31.2007C38.4184 31.3668 38.7728 31.3668 39.0605 31.2007L51.8657 23.8083C52.4857 23.4504 52.4857 22.5556 51.8658 22.1977Z"/>
</mask>
<path fill-rule="evenodd" clip-rule="evenodd" d="M51.8658 22.1977L39.0604 14.8045C38.7727 14.6384 38.4182 14.6384 38.1305 14.8045L25.3253 22.1969C24.7054 22.5547 24.7054 23.4496 25.3253 23.8075L38.1307 31.2007C38.4184 31.3668 38.7728 31.3668 39.0605 31.2007L51.8657 23.8083C52.4857 23.4504 52.4857 22.5556 51.8658 22.1977Z" fill="#FBFBFB"/>
<path d="M51.8658 22.1977L50.9359 23.8083L50.9359 23.8083L51.8658 22.1977ZM25.3253 22.1969L26.2551 23.8075L26.2551 23.8075L25.3253 22.1969ZM25.3253 23.8075L24.3954 25.4181L24.3954 25.4181L25.3253 23.8075ZM38.1307 31.2007L37.2008 32.8113L37.2008 32.8113L38.1307 31.2007ZM39.0605 31.2007L39.9903 32.8113L39.9903 32.8113L39.0605 31.2007ZM51.8657 23.8083L52.7955 25.419L52.7955 25.419L51.8657 23.8083ZM38.1305 16.4151L50.9359 23.8083L52.7956 20.5871L39.9903 13.1939L38.1305 16.4151ZM26.2551 23.8075L39.0603 16.4151L37.2007 13.1939L24.3955 20.5862L26.2551 23.8075ZM26.2552 22.1969C26.8751 22.5548 26.8751 23.4496 26.2551 23.8075L24.3955 20.5862C22.5357 21.6599 22.5356 24.3443 24.3954 25.4181L26.2552 22.1969ZM39.0606 29.5901L26.2552 22.1969L24.3954 25.4181L37.2008 32.8113L39.0606 29.5901ZM38.1307 29.59C38.4184 29.424 38.7729 29.424 39.0606 29.5901L37.2008 32.8113C38.0639 33.3096 39.1272 33.3096 39.9903 32.8113L38.1307 29.59ZM50.9359 22.1977L38.1307 29.59L39.9903 32.8113L52.7955 25.419L50.9359 22.1977ZM50.9359 23.8083C50.3159 23.4504 50.316 22.5556 50.9359 22.1977L52.7955 25.419C54.6554 24.3453 54.6555 21.6609 52.7956 20.5871L50.9359 23.8083ZM39.9903 13.1939C39.1272 12.6956 38.0638 12.6956 37.2007 13.1939L39.0603 16.4151C38.7726 16.5812 38.4182 16.5812 38.1305 16.4151L39.9903 13.1939Z" fill="#FBFBFB" mask="url(#path-12-inside-2_1125_39935)"/>
<path fill-rule="evenodd" clip-rule="evenodd" d="M63.6467 16.9448C64.2666 16.5869 64.2666 15.6921 63.6467 15.3342L38.9053 1.04978C38.6176 0.883674 38.2631 0.883675 37.9754 1.04978L11.6241 16.2637C11.3364 16.4298 11.1592 16.7368 11.1592 17.069V47.4969C11.1592 47.8291 11.3364 48.1361 11.6241 48.3022L37.9754 63.5161C38.2631 63.6822 38.6176 63.6822 38.9053 63.5161L63.6451 49.2326C64.265 48.8747 64.265 47.9799 63.6451 47.622L58.2033 44.4801C57.9156 44.314 57.5611 44.314 57.2734 44.4801L38.9023 55.0867C38.6146 55.2528 38.2602 55.2528 37.9725 55.0867L18.9218 44.0877C18.6341 43.9216 18.4568 43.6146 18.4568 43.2824V21.2846C18.4568 20.9524 18.6341 20.6454 18.9218 20.4793L37.9725 9.48036C38.2602 9.31425 38.6146 9.31425 38.9023 9.48036L57.274 20.0872C57.5617 20.2533 57.9162 20.2533 58.2039 20.0872L63.6467 16.9448Z" fill="#FBFBFB"/>
<path d="M60.4428 18.6678L49.2842 25.1769L44.6348 22.3873L55.7933 15.8781L60.4428 18.6678Z" fill="#FBFBFB"/>
</svg>
